<?xml version="1.0" encoding="UTF-8"?>
<svg id="uuid-0aeaeb15-db79-4785-a5c0-56bd7f4df77f" xmlns="http://www.w3.org/2000/svg"
  xmlns:xlink="http://www.w3.org/1999/xlink" viewBox="0 0 230 94.94">
  <defs>
    <style>
      .uuid-0e5f4166-a823-498f-b5b3-c75f07935f81 {
        fill: url(#uuid-851943d9-827f-4753-a3b2-2b3449cd1519);
      }

      .uuid-8e828cd4-3e59-4e3e-b617-3e28f15ee97d {
        fill: url(#uuid-5f461d05-4a8d-4dd3-930f-3fa6b8121a4a);
      }

      .uuid-5d38b7cb-c273-4a88-a3c9-d0fc3d6fb122 {
        fill: url(#uuid-26ee95bc-9112-455c-98ea-29f67fb0a2fa);
      }

      .uuid-4ab9deb8-83d9-4db6-98e5-f08d0621c5a2 {
        filter: url(#uuid-dea65a7c-2a2e-4ca7-9be3-2a8179efc339);
      }

      .uuid-c92adeeb-8f22-471f-baa8-7dd59023001d {
        fill: url(#uuid-12f2c5dc-d6a0-461b-9cfa-a77577e4963a);
      }

      .uuid-68422776-2591-4fcc-ad36-ad2e470c2d0f {
        fill: url(#uuid-39b51c93-6f1b-47c4-91ae-3b0f7b2ee7f0);
      }

      .uuid-6a95da35-42c5-4e9f-beb9-8284d951f0b9 {
        fill: url(#uuid-15c9c9a5-aa45-420c-9c3b-20f376ceb7e0);
      }

      .uuid-d2497f22-b1e3-4229-861c-70d22b2ce0cb {
        fill: url(#uuid-50b99db4-a839-43f9-a4a5-d7cbe49925fd);
      }

      .uuid-afac7e78-b93d-43ea-a2a7-bc54c116e217 {
        fill: url(#uuid-2c95851c-4bab-44d6-80be-06c1ee56bd32);
      }

      .uuid-3d069f5b-eeaf-4691-ac0e-c4dbebff5226 {
        fill: url(#uuid-50c418bf-ce6e-4b8f-ac97-a62e021415b8);
      }

      .uuid-f0659aba-d63a-4d97-aed5-85080b2c31eb {
        fill: url(#uuid-97b49ddc-775e-48d8-b445-0868e03288db);
      }

      .uuid-d4005ff2-e4a5-4d79-abc2-839c430216aa {
        stroke: #fff;
        stroke-miterlimit: 10;
        stroke-width: 12px;
      }

      .uuid-c1984405-9c4d-4db5-af05-915997c59e0e {
        fill: url(#uuid-f5bb6c58-bca4-4bbd-b265-3ad182c32f47);
      }
    </style>
    <filter id="uuid-dea65a7c-2a2e-4ca7-9be3-2a8179efc339" x="-30.16" y="-27.04" width="302.4" height="167.04"
      filterUnits="userSpaceOnUse">
      <feOffset dx="6" dy="9" />
      <feGaussianBlur result="uuid-dbd6e606-e67e-4bec-a621-51077d0cbb6f" stdDeviation="12" />
      <feFlood flood-color="#000" flood-opacity=".47" />
      <feComposite in2="uuid-dbd6e606-e67e-4bec-a621-51077d0cbb6f" operator="in" />
      <feComposite in="SourceGraphic" />
    </filter>
    <linearGradient id="uuid-15c9c9a5-aa45-420c-9c3b-20f376ceb7e0" x1="220.25" y1="74.95" x2="12.03" y2="-58.27"
      gradientUnits="userSpaceOnUse">
      <stop offset="0" stop-color="#00e6ff" />
      <stop offset="1" stop-color="#81fc47" />
    </linearGradient>
    <linearGradient id="uuid-50b99db4-a839-43f9-a4a5-d7cbe49925fd" x1="221.23" y1="73.42" x2="13.01" y2="-59.8"
      xlink:href="#uuid-15c9c9a5-aa45-420c-9c3b-20f376ceb7e0" />
    <linearGradient id="uuid-26ee95bc-9112-455c-98ea-29f67fb0a2fa" x1="224.99" y1="67.55" x2="16.76" y2="-65.67"
      xlink:href="#uuid-15c9c9a5-aa45-420c-9c3b-20f376ceb7e0" />
    <linearGradient id="uuid-12f2c5dc-d6a0-461b-9cfa-a77577e4963a" x1="218.91" y1="77.05" x2="10.68" y2="-56.17"
      xlink:href="#uuid-15c9c9a5-aa45-420c-9c3b-20f376ceb7e0" />
    <linearGradient id="uuid-97b49ddc-775e-48d8-b445-0868e03288db" x1="185.08" y1="129.92" x2="-23.14" y2="-3.31"
      xlink:href="#uuid-15c9c9a5-aa45-420c-9c3b-20f376ceb7e0" />
    <linearGradient id="uuid-39b51c93-6f1b-47c4-91ae-3b0f7b2ee7f0" x1="188.61" y1="124.4" x2="-19.61" y2="-8.82"
      xlink:href="#uuid-15c9c9a5-aa45-420c-9c3b-20f376ceb7e0" />
    <linearGradient id="uuid-851943d9-827f-4753-a3b2-2b3449cd1519" x1="184.07" y1="131.5" x2="-24.15" y2="-1.73"
      xlink:href="#uuid-15c9c9a5-aa45-420c-9c3b-20f376ceb7e0" />
    <linearGradient id="uuid-5f461d05-4a8d-4dd3-930f-3fa6b8121a4a" x1="178.73" y1="139.84" x2="-29.49" y2="6.62"
      xlink:href="#uuid-15c9c9a5-aa45-420c-9c3b-20f376ceb7e0" />
    <linearGradient id="uuid-2c95851c-4bab-44d6-80be-06c1ee56bd32" x1="188.43" y1="124.68" x2="-19.79" y2="-8.54"
      xlink:href="#uuid-15c9c9a5-aa45-420c-9c3b-20f376ceb7e0" />
    <linearGradient id="uuid-50c418bf-ce6e-4b8f-ac97-a62e021415b8" x1="181.76" y1="135.11" x2="-26.46" y2="1.88"
      xlink:href="#uuid-15c9c9a5-aa45-420c-9c3b-20f376ceb7e0" />
    <linearGradient id="uuid-f5bb6c58-bca4-4bbd-b265-3ad182c32f47" x1="202.15" y1="103.23" x2="-6.07" y2="-29.99"
      xlink:href="#uuid-15c9c9a5-aa45-420c-9c3b-20f376ceb7e0" />
  </defs>
  <g id="uuid-429d42c5-9daf-4ea3-afb1-2ef0ac31f383">
    <g id="uuid-e5af6a0e-2a1f-464d-8efa-7ff4b23fbbf3" class="uuid-4ab9deb8-83d9-4db6-98e5-f08d0621c5a2">
      <path class="uuid-d4005ff2-e4a5-4d79-abc2-839c430216aa"
        d="M182.53,88.94H47.47c-22.9,0-41.47-18.57-41.47-41.47h0C6,24.57,24.57,6,47.47,6h135.06c22.9,0,41.47,18.57,41.47,41.47h0c0,22.9-18.57,41.47-41.47,41.47Z" />
      <path class="uuid-6a95da35-42c5-4e9f-beb9-8284d951f0b9"
        d="M204.04,51.36c.04-.26.07-.52.1-.78.16-1.28.23-2.6.22-3.92-.01-.38-.03-.76-.06-1.14-.51-6.74-3.58-12.96-8.64-17.5-5.07-4.56-11.6-6.94-18.4-6.71-5.96.2-11.51,2.34-16.06,6.19-4.41,3.74-7.51,8.89-8.72,14.5-.06.29-.12.59-.18.9-.16,1.3.2,2.54.56,3.74.31,1.04.6,2.01.56,3.01-.11,1.02-.79,1.83-1.5,2.69-.78.94-1.59,1.91-1.8,3.28v.04c0,.35.19.85.36,1.2.09.18.2.36.32.54.3.44.69.88,1.24,1.38h.02c.4.33.81.63,1.21.93,1.15.85,2.23,1.66,3.14,2.65.16.17.29.33.41.48,1.82,5.07,6.51,8.33,14.3,9.98.27.08.56.15.84.22,2.29.55,4.66.8,7.04.72,3.63-.12,7.12-.97,10.37-2.52.25-.12.5-.24.71-.35,1.16-.53,2.08-1.4,2.54-2.39.91-1.63,2.19-2.77,3.33-3.68.14-.11.29-.22.42-.33,1.06-.76,2.11-1.61,2.24-2.79.04-.43.06-.88.09-1.32.1-2.05.2-4.17,2.3-5.15l.15-.11c.11-.08.22-.17.33-.25,1.19-.93,2.28-1.89,2.55-3.52ZM199.87,54.38l-.48.33c-.56.19-1.02.41-1.4.68-.18.13-.35.28-.5.45-1.07,1.32-.9,2.87-.73,4.37.05.45.1.92.12,1.37.03.83-.48,1.4-1.15,2.06-.08.05-.16.09-.25.13h-.04s-.67.57-.67.57c-1,.84-1.91,1.78-2.79,2.68-.7.72-1.43,1.47-2.19,2.15-3.51,3.15-10.15,3.49-15.19,2.76-.28-.04-.57-.09-.85-.14-5.82-1.05-11.3-2.38-14.36-7.06-.28-.44-.55-.9-.8-1.35-.62-1.08-1.26-2.2-2.26-3.07-.58-.5-1.23-.93-1.85-1.35-.85-.57-1.73-1.17-2.44-1.93-.1-.12-.2-.25-.28-.38-.08-.13-.15-.27-.21-.41l-.04-.14c-.12-.45-.22-.8,0-1.17.39-.72.94-1.31,1.49-1.89.89-.95,1.81-1.94,1.86-3.39.11-1.15-.22-2.2-.54-3.22-.37-1.17-.73-2.28-.4-3.48v-.02c.06-.29.12-.58.19-.87,2.48-10.92,12.03-18.8,23.22-19.17,13.21-.44,24.36,9.53,25.39,22.69.03.37.05.76.06,1.13.07,1.31.02,2.65-.14,3.97-.04.29-.07.54-.11.77-.44,1.31-1.46,2.1-2.65,2.92Z" />
      <path class="uuid-d2497f22-b1e3-4229-861c-70d22b2ce0cb"
        d="M171.76,47.75c1.08-.04,1.86-2.8,1.75-6.17s-1.08-6.08-2.15-6.04c-1.08.04-1.86,2.8-1.75,6.17.11,3.37,1.08,6.08,2.15,6.04Z" />
      <path class="uuid-5d38b7cb-c273-4a88-a3c9-d0fc3d6fb122"
        d="M183.74,47.14c1.08-.04,1.86-2.8,1.75-6.17-.11-3.37-1.08-6.08-2.15-6.04-1.08.04-1.86,2.8-1.75,6.17.11,3.37,1.08,6.08,2.15,6.04Z" />
      <path class="uuid-c92adeeb-8f22-471f-baa8-7dd59023001d"
        d="M197.25,46.65c-.04-.07-.12-.11-.19-.14-.42-.17-.88-.35-1.33-.39-.26-.03-.52,0-.78.08-.56.2-1.09.73-1.66.54-.21-.07-.37-.24-.58-.32-.46-.19-.98.1-1.36.41-.08.07-.17.15-.17.25,0,.08.05.14.1.2.26.3.66.45,1.05.46.37.01.86-.21.88.36.03.79.08,1.64.02,2.43-.12,1.51-2.08,2.57-3.28,3.22-1.21.65-2.11,1.09-2.43,2.51-.3,1.32-.84,2.38-1.41,3.62-.72,2.09-3.74,2.19-5.84,2.84-.18.02-.35.05-.53.07-.36.04-.72.06-1.08.07-.27,0-.54.01-.81,0-.27,0-.53-.02-.8-.04-.78-.1-1.56-.24-2.33-.41-.13-.03-.25-.06-.38-.09-2.8-.69-5.22-1.88-7.26-3.84-.1-.07-.19-.14-.29-.22-.86-.65-1.68-1.34-2.42-2.1-.08-.09-.16-.19-.24-.28-.23-.29-.44-.59-.62-.9-.06-.1-.11-.21-.17-.32-.99-1.94.52-4.21-.5-6.09.33.47.8.29,1.06.3.08,0,.16-.01.25-.01.29-.05.56-.13.8-.27.25-.13.48-.31.7-.55v-.16c-.24-.22-.48-.39-.74-.5-.26-.12-.53-.18-.82-.21-.98-.03-1.9.96-3.03.36-.08-.08-.4-.11-.7-.02-.1.03-.19.07-.28.13-.13.24-.28.4-.28.56.18.63,1.14.76,1.76.42.37,1.58.26,3.17-.32,4.78-.14.64.05,1.43.43,2.02.06.11.13.22.21.32.13.18.26.36.41.53.07.09.15.17.23.26,1.4.97,2.84,1.93,4.17,3.02.1.08.19.16.28.24,1.19,1.16,2.34,2.4,3.87,2.97.11.06.23.11.34.17,2.31,1.09,4.87,1.63,7.48,1.37.26,0,.52-.02.78-.04.39-.03.77-.08,1.15-.13.19-.03.38-.06.57-.09,2.48-.56,6.27-1.32,6.65-4.19.25-1.91.19-3.82,1.96-5.07.15-.11.3-.22.46-.33,1.35-.89,3.3-1.58,4.1-3.1.57-1.09.33-2.41.56-3.62.45.07.91.13,1.36.02.44-.11.86-.43.96-.87.01-.06.02-.13,0-.19Z" />
      <path class="uuid-f0659aba-d63a-4d97-aed5-85080b2c31eb"
        d="M46.69,47.52c1.08.01,1.98-2.72,2.01-6.09.03-3.37-.82-6.12-1.89-6.13-1.08-.01-1.98,2.72-2.01,6.09-.03,3.37.82,6.12,1.89,6.13Z" />
      <path class="uuid-68422776-2591-4fcc-ad36-ad2e470c2d0f"
        d="M58.68,47.43c1.08.01,1.98-2.72,2.01-6.09.03-3.37-.82-6.12-1.89-6.13-1.08-.01-1.98,2.72-2.01,6.09s.82,6.12,1.89,6.13Z" />
      <path class="uuid-0e5f4166-a823-498f-b5b3-c75f07935f81"
        d="M52.75,74.59c-14.95,0-27.11-12.16-27.11-27.11s12.16-27.12,27.11-27.12,27.12,12.16,27.12,27.12-12.16,27.11-27.12,27.11ZM52.75,21.66c-14.23,0-25.81,11.58-25.81,25.81s11.58,25.81,25.81,25.81,25.81-11.58,25.81-25.81-11.58-25.81-25.81-25.81Z" />
      <path class="uuid-8e828cd4-3e59-4e3e-b617-3e28f15ee97d"
        d="M33.43,49.26c-.25,0-.47-.16-.56-.4-.1-.31.06-.64.37-.74.13-.04,3.15-1.03,5.6-.25.31.1.48.43.38.74-.1.31-.42.48-.74.38-2.09-.66-4.84.23-4.87.24-.06.02-.12.03-.18.03Z" />
      <path class="uuid-afac7e78-b93d-43ea-a2a7-bc54c116e217"
        d="M66.83,49.26c-.25,0-.47-.16-.56-.4-.1-.31.07-.64.37-.74.13-.04,3.15-1.03,5.6-.25.31.1.48.43.38.74-.1.31-.42.48-.74.38-2.08-.66-4.84.23-4.87.24-.06.02-.12.03-.18.03Z" />
      <path class="uuid-3d069f5b-eeaf-4691-ac0e-c4dbebff5226"
        d="M52.76,65.17c-9.56,0-17.35-7.78-17.35-17.35h1.39c0,8.8,7.16,15.96,15.96,15.96s15.96-7.16,15.96-15.96h1.39c0,9.56-7.78,17.35-17.35,17.35Z" />
      <path class="uuid-c1984405-9c4d-4db5-af05-915997c59e0e"
        d="M115,74.59c14.95,0,27.11-12.16,27.11-27.12,0-14.95-12.16-27.12-27.11-27.12s-27.12,12.16-27.12,27.12,12.16,27.12,27.12,27.12ZM108.94,59.74c-1.08-.01-1.93-2.75-1.89-6.13s.93-6.1,2.01-6.09c1.08.01,1.93,2.75,1.89,6.13-.03,3.37-.93,6.1-2.01,6.09ZM120.94,59.64c-1.08-.01-1.93-2.75-1.89-6.13.03-3.37.93-6.1,2.01-6.09,1.08.01,1.93,2.75,1.89,6.13-.03,3.37-.93,6.1-2.01,6.09ZM95.12,45.41c.29-.15.63-.18.94-.07.3.09.64.16,1.02.19.82-9.25,8.56-16.4,17.91-16.4s16.99,7.07,17.89,16.23c.62-.12,1.05-.25,1.05-.26.62-.21,1.35.15,1.56.79.21.65-.14,1.35-.79,1.56-.34.11-3.41,1.08-6,.25-.65-.21-1.01-.91-.8-1.56.1-.32.32-.58.61-.73.3-.15.63-.18.95-.07.22.07.46.12.72.16-.82-7.73-7.36-13.68-15.2-13.68s-14.26,5.85-15.18,13.47c.38-.09.65-.17.72-.19.59-.2,1.35.15,1.56.79.21.65-.14,1.35-.79,1.56-.34.11-3.42,1.07-6,.25-.31-.1-.57-.32-.72-.61-.15-.29-.18-.63-.08-.94.1-.32.32-.58.62-.73Z" />
    </g>
  </g>
</svg>