<?xml version="1.0" encoding="UTF-8"?>
<svg id="uuid-20b2aab2-1b6e-48b1-8682-db09b223d9bc" xmlns="http://www.w3.org/2000/svg"
  xmlns:xlink="http://www.w3.org/1999/xlink" viewBox="0 0 131.57 131.57">
  <defs>
    <style>
      .uuid-5119c4e2-7c7d-4998-8a63-1a286b86e1a2 {
        fill: #fff;
      }

      .uuid-e86bcf85-954e-4c3c-b91d-bba9eb08a0c9 {
        fill: url(#uuid-6654e44b-0ce0-41b6-bd46-b8486b4a5677);
      }

      .uuid-3b0dfc8a-04e8-4652-8415-b16aa01db7fb {
        fill: url(#uuid-af2e1b0a-cfed-4346-a9a5-f4ca45007379);
      }

      .uuid-23726007-040b-48ff-8746-f2dff1b98eda {
        fill: #171717;
      }
    </style>
    <linearGradient id="uuid-6654e44b-0ce0-41b6-bd46-b8486b4a5677" x1="3.37" y1="65.79" x2="128.19" y2="65.79"
      gradientTransform="translate(1.84 -1.79) rotate(1.58)" gradientUnits="userSpaceOnUse">
      <stop offset="0" stop-color="#97ff08" />
      <stop offset=".29" stop-color="#8bfff0" />
      <stop offset=".62" stop-color="#ffdd8a" />
      <stop offset=".84" stop-color="#31ecff" />
      <stop offset="1" stop-color="#ffd600" />
    </linearGradient>
    <linearGradient id="uuid-af2e1b0a-cfed-4346-a9a5-f4ca45007379" x1="17.75" y1="113.8" x2="120.58" y2="19.8"
      gradientTransform="matrix(1,0,0,1,0,0)" xlink:href="#uuid-6654e44b-0ce0-41b6-bd46-b8486b4a5677" />
  </defs>
  <g id="uuid-b69f64d5-32ef-4906-8495-9c9a9796a802">
    <path class="uuid-23726007-040b-48ff-8746-f2dff1b98eda"
      d="M65.78,131.2C29.72,131.2.37,101.85.37,65.79S29.72.38,65.78.38s65.41,29.34,65.41,65.41-29.34,65.41-65.41,65.41Z" />
    <path class="uuid-5119c4e2-7c7d-4998-8a63-1a286b86e1a2"
      d="M65.79,131.57C29.51,131.57,0,102.06,0,65.79S29.51,0,65.79,0s65.78,29.51,65.78,65.79-29.51,65.79-65.78,65.79ZM65.79.75C29.92.75.75,29.92.75,65.79s29.17,65.04,65.04,65.04,65.03-29.17,65.03-65.04S101.65.75,65.79.75Z" />
    <circle class="uuid-e86bcf85-954e-4c3c-b91d-bba9eb08a0c9" cx="65.78" cy="65.79" r="62.41"
      transform="translate(-1.79 1.84) rotate(-1.58)" />
    <path class="uuid-23726007-040b-48ff-8746-f2dff1b98eda"
      d="M112.88,92.64c4.54-7.92,7.14-17.09,7.14-26.85s-2.61-18.93-7.14-26.85c-.06-.18-.16-.35-.29-.5-9.42-16.07-26.87-26.89-46.81-26.89s-37.38,10.82-46.81,26.89c-.13.14-.22.31-.29.5-4.54,7.92-7.14,17.09-7.14,26.85s2.61,18.93,7.14,26.85c.06.19.16.35.29.5,9.43,16.07,26.87,26.89,46.81,26.89s37.38-10.82,46.81-26.89c.12-.14.22-.31.29-.5ZM14.58,67.29h23.35c.11,8.46,1.17,16.37,2.99,23.37h-19.92c-3.88-6.96-6.18-14.91-6.42-23.37ZM21.01,40.92h19.91c-1.82,7-2.88,14.91-2.99,23.37H14.58c.25-8.46,2.54-16.41,6.42-23.37ZM116.98,64.29h-23.35c-.11-8.46-1.17-16.37-2.99-23.37h19.92c3.88,6.96,6.18,14.91,6.42,23.37ZM90.63,64.29h-23.35v-23.37h20.23c1.88,6.96,3,14.91,3.12,23.37ZM67.28,37.92V14.65c8.1,1,15.17,10.03,19.35,23.27h-19.35ZM64.28,14.65v23.27h-19.35c4.18-13.24,11.25-22.27,19.35-23.27ZM64.28,40.92v23.37h-23.35c.12-8.46,1.23-16.41,3.12-23.37h20.23ZM40.93,67.29h23.35v23.37h-20.23c-1.88-6.96-3-14.91-3.12-23.37ZM64.28,93.65v23.27c-8.1-1-15.17-10.03-19.35-23.27h19.35ZM67.28,116.92v-23.27h19.35c-4.18,13.24-11.25,22.27-19.35,23.27ZM67.28,90.65v-23.37h23.35c-.12,8.46-1.23,16.41-3.12,23.37h-20.23ZM93.63,67.29h23.35c-.25,8.46-2.54,16.41-6.42,23.37h-19.92c1.82-7,2.88-14.91,2.99-23.37ZM108.75,37.92h-18.94c-3-9.91-7.56-17.72-13.09-22.18,13.37,2.92,24.79,11.06,32.03,22.18ZM54.85,15.73c-5.53,4.47-10.1,12.27-13.09,22.18h-18.94c7.24-11.12,18.66-19.27,32.03-22.18ZM22.82,93.65h18.94c3,9.91,7.56,17.72,13.09,22.18-13.37-2.92-24.79-11.06-32.03-22.18ZM76.72,115.84c5.53-4.47,10.1-12.27,13.09-22.18h18.94c-7.24,11.12-18.66,19.27-32.03,22.18Z" />
    <circle class="uuid-23726007-040b-48ff-8746-f2dff1b98eda" cx="65.78" cy="65.79" r="37.19"
      transform="translate(-27.25 65.78) rotate(-45)" />
    <path class="uuid-3b0dfc8a-04e8-4652-8415-b16aa01db7fb"
      d="M95.87,66.38c-.39.19-.8.33-1.21.42-.54,15.47-13.28,27.88-28.88,27.88s-28.34-12.42-28.88-27.88c-.42-.09-.83-.23-1.21-.42-.56-.28-.79-.97-.51-1.53.28-.56.97-.79,1.53-.51.82.41,1.8.41,2.62,0,.57-.28,1.25-.05,1.53.52.28.57.05,1.25-.52,1.53-.37.18-.76.32-1.16.41.53,14.21,12.25,25.61,26.59,25.61s26.06-11.4,26.59-25.61c-.4-.09-.79-.23-1.16-.41-.57-.28-.8-.97-.52-1.53.28-.56.97-.8,1.53-.52.81.4,1.82.4,2.62,0,.57-.28,1.25-.05,1.53.51.28.57.05,1.25-.51,1.53ZM55.75,74.08c3.56,0,6.45-6.47,6.45-14.44s-2.89-14.44-6.45-14.44-6.45,6.47-6.45,14.44,2.89,14.44,6.45,14.44ZM75.82,74.08c3.56,0,6.45-6.47,6.45-14.44s-2.89-14.44-6.45-14.44-6.45,6.47-6.45,14.44,2.89,14.44,6.45,14.44Z" />
  </g>
</svg>