<svg xmlns="http://www.w3.org/2000/svg"
  xmlns:xlink="http://www.w3.org/1999/xlink" viewBox="0 0 203.45 112.18">
  <defs>
    <style>
      .uuid-5362907b-e555-4251-a1c1-6ac22add0a90 {
        fill: #fff;
      }

      .uuid-d598abd8-38ea-4dd3-bde8-0a3cb76492b2 {
        fill: url(#uuid-871797d1-0414-4b1c-beb6-0f69e5bf3c06);
      }

      .uuid-ad455367-f282-4114-9632-061f824dfcee {
        fill: none;
        stroke: #000;
        stroke-linecap: round;
        stroke-linejoin: round;
        stroke-width: 6px;
      }

      .uuid-66c3dc20-e471-491b-b619-6a35779af220 {
        fill: url(#uuid-a299a7f2-e282-4479-b0b3-8ead26d60ea5);
      }

      .uuid-3a014ae6-496c-4589-a2fa-fceb6a13c38c {
        fill: url(#uuid-a9536f5c-f582-4644-942a-f672038cd5fd);
      }

      .uuid-f450f060-2df5-4949-8171-451ed9d77ec4 {
        fill: url(#uuid-7b1404f4-dc4d-42c4-b5a9-a8889dffceed);
      }

      .uuid-41b84216-10c6-4063-b50a-3817b8534346 {
        fill: url(#uuid-e7f37a1d-f249-4f33-85b5-0df73067aebf);
      }

      .uuid-1e0b4a7f-e406-4eca-ac5b-60324054af4a {
        fill: #171717;
      }
    </style>
    <linearGradient id="uuid-e7f37a1d-f249-4f33-85b5-0df73067aebf" x1="53.45" y1="-1.45" x2="154.5" y2="119"
      gradientUnits="userSpaceOnUse">
      <stop offset="0" stop-color="#97ff08" />
      <stop offset=".29" stop-color="#8bfff0" />
      <stop offset=".62" stop-color="#ffdd8a" />
      <stop offset=".84" stop-color="#31ecff" />
      <stop offset="1" stop-color="#ffd600" />
    </linearGradient>
    <linearGradient id="uuid-a299a7f2-e282-4479-b0b3-8ead26d60ea5" x1="31.02" y1="84.28" x2="181.32" y2="29.57"
      xlink:href="#uuid-e7f37a1d-f249-4f33-85b5-0df73067aebf" />
    <linearGradient id="uuid-871797d1-0414-4b1c-beb6-0f69e5bf3c06" x1="31.02" y1="84.28" x2="181.32" y2="29.57"
      xlink:href="#uuid-e7f37a1d-f249-4f33-85b5-0df73067aebf" />
    <linearGradient id="uuid-7b1404f4-dc4d-42c4-b5a9-a8889dffceed" x1="31.02" y1="84.28" x2="181.32" y2="29.57"
      xlink:href="#uuid-e7f37a1d-f249-4f33-85b5-0df73067aebf" />
    <linearGradient id="uuid-a9536f5c-f582-4644-942a-f672038cd5fd" x1="31.02" y1="84.28" x2="181.32" y2="29.57"
      xlink:href="#uuid-e7f37a1d-f249-4f33-85b5-0df73067aebf" />
  </defs>
  <g id="uuid-2332671a-4103-41e8-af46-47371c07247c">
    <path class="uuid-1e0b4a7f-e406-4eca-ac5b-60324054af4a"
      d="M101.72,111.8c-26.59,0-51.66-5.51-70.59-15.52C11.3,85.79.37,71.52.37,56.09S11.3,26.39,31.14,15.9C50.07,5.89,75.14.38,101.72.38s51.66,5.51,70.59,15.52c19.84,10.49,30.76,24.76,30.76,40.19s-10.92,29.7-30.76,40.19c-18.93,10.01-44,15.52-70.59,15.52Z" />
    <path class="uuid-5362907b-e555-4251-a1c1-6ac22add0a90"
      d="M101.72,112.18c-26.65,0-51.78-5.53-70.76-15.57C11,86.06,0,71.66,0,56.09S11,26.12,30.96,15.57C49.94,5.53,75.08,0,101.72,0s51.78,5.53,70.76,15.57c19.97,10.56,30.96,24.95,30.96,40.52s-11,29.97-30.96,40.52c-18.98,10.04-44.11,15.57-70.76,15.57ZM101.72.75c-26.53,0-51.54,5.5-70.41,15.48C11.6,26.65.75,40.81.75,56.09s10.85,29.44,30.56,39.86c18.88,9.98,43.88,15.48,70.41,15.48s51.54-5.5,70.41-15.48c19.71-10.42,30.56-24.58,30.56-39.86s-10.85-29.44-30.56-39.86C153.26,6.25,128.25.75,101.72.75Z" />
    <path class="uuid-41b84216-10c6-4063-b50a-3817b8534346"
      d="M170.91,18.55c-18.5-9.79-43.08-15.17-69.18-15.17s-50.68,5.39-69.18,15.17C13.73,28.5,3.37,41.83,3.37,56.09s10.36,27.59,29.16,37.54c18.5,9.79,43.08,15.17,69.18,15.17s50.68-5.39,69.18-15.17c18.81-9.95,29.17-23.28,29.17-37.54s-10.36-27.59-29.17-37.54ZM197.03,54.59h-29.28c-.29-8.13-2.89-15.8-7.3-22.61h24.64c7.19,6.73,11.47,14.43,11.94,22.61ZM100.22,31.98v22.61h-29.26c.15-8.18,1.53-15.87,3.85-22.61h25.41ZM75.94,28.98c5.24-12.96,14.12-21.75,24.28-22.55v22.55h-24.28ZM100.22,57.59v22.61h-25.41c-2.32-6.73-3.7-14.43-3.85-22.61h29.26ZM100.22,83.2v22.55c-10.16-.79-19.04-9.58-24.28-22.55h24.28ZM103.22,80.2v-22.61h29.26c-.15,8.18-1.53,15.87-3.85,22.61h-25.41ZM127.51,83.2c-5.24,12.96-14.12,21.75-24.28,22.55v-22.55h24.28ZM103.22,54.59v-22.61h25.41c2.32,6.73,3.7,14.43,3.85,22.61h-29.26ZM103.22,28.98V6.44c10.16.79,19.04,9.58,24.28,22.55h-24.28ZM114.73,7.44c16.61,2.76,30.83,10.69,39.82,21.54h-23.86c-3.7-9.58-9.28-17.18-15.95-21.54ZM72.76,28.98h-23.86c8.99-10.85,23.21-18.78,39.82-21.54-6.67,4.36-12.26,11.96-15.95,21.54ZM71.7,31.98c-2.26,6.81-3.58,14.48-3.73,22.61h-29.26c.31-8.18,3.13-15.87,7.89-22.61h25.1ZM67.97,57.59c.15,8.13,1.48,15.8,3.73,22.61h-25.1c-4.76-6.73-7.58-14.43-7.89-22.61h29.26ZM72.76,83.2c3.7,9.58,9.28,17.18,15.95,21.54-16.61-2.76-30.83-10.69-39.82-21.54h23.86ZM130.69,83.2h23.86c-8.99,10.85-23.21,18.78-39.82,21.54,6.67-4.36,12.26-11.96,15.95-21.54ZM131.75,80.2c2.26-6.81,3.58-14.48,3.73-22.61h29.26c-.31,8.18-3.13,15.87-7.89,22.61h-25.1ZM135.48,54.59c-.15-8.13-1.48-15.8-3.73-22.61h25.1c4.76,6.73,7.58,14.43,7.89,22.61h-29.26ZM181.61,28.98h-23.25c-6.57-8.7-16.19-15.77-27.68-20.26,21.11,3.52,39.04,10.77,50.93,20.26ZM72.76,8.72c-11.49,4.49-21.11,11.56-27.68,20.26h-23.25c11.89-9.49,29.82-16.74,50.93-20.26ZM18.36,31.98h24.64c-4.41,6.81-7.01,14.48-7.3,22.61H6.42c.47-8.18,4.75-15.87,11.94-22.61ZM6.42,57.59h29.28c.29,8.13,2.89,15.8,7.3,22.61h-24.64c-7.19-6.73-11.47-14.43-11.94-22.61ZM21.84,83.2h23.25c6.57,8.7,16.19,15.77,27.68,20.26-21.11-3.52-39.04-10.77-50.93-20.26ZM130.69,103.46c11.49-4.49,21.11-11.56,27.68-20.26h23.25c-11.89,9.49-29.82,16.74-50.93,20.26ZM185.09,80.2h-24.64c4.41-6.81,7.01-14.48,7.3-22.61h29.28c-.47,8.18-4.75,15.87-11.94,22.61Z" />
    <path class="uuid-ad455367-f282-4114-9632-061f824dfcee"
      d="M40.89,74.69c-3.62,0-6.49-.66-9.12-1.99-2.61-1.33-4.84-3.17-6.49-5.54-1.65-2.37-2.48-5.11-2.47-8.23,0-3.09.55-5.93,1.51-8.51.97-2.58,2.28-4.82,4.14-6.7,1.86-1.88,4.24-3.33,7.16-4.36,2.91-1.02,6.19-1.54,9.45-1.54,3.41,0,5.98.6,7.87,1.81,1.91,1.21,2.97,2.95,4.04,5.24-2.83,2.23-5,4.47-7.12,6.7-1.07-1.31-2.17-2.32-3.38-3.05-1.21-.72-2.52-1.08-4.02-1.08-1.31,0-2.47.26-3.49.78-1.02.52-1.86,1.26-2.52,2.22-.66.96-1.11,2.09-1.35,3.4-.24,1.31-.24,2.75,0,4.33.22,1.38.7,2.59,1.47,3.63.77,1.04,1.77,1.85,2.99,2.42,1.23.57,2.61.86,4.17.86,1.48,0,2.91-.32,4.24-.96,1.33-.64,2.51-1.68,3.39-3.12,3.02,2.23,5.97,4.47,8.31,6.7-2.45,2.62-5.86,4.44-9.06,5.46-3.23,1.02-6.48,1.54-9.73,1.54Z" />
    <path class="uuid-ad455367-f282-4114-9632-061f824dfcee"
      d="M79.41,74.69c-3.68,0-6.03-.67-7.83-2.01-1.81-1.34-3.18-3.2-4.68-5.56-1.48-2.37-2.98-5.09-4.24-8.18-1.28-3.12-2.1-5.97-1.83-8.54.25-2.57,1.49-4.79,3.74-6.67,2.24-1.88,5.37-3.33,8.86-4.36,3.5-1.02,7.1-1.54,10.31-1.54,3.69,0,5.97.67,7.52,2.01,1.57,1.34,2.58,3.2,3.98,5.56,1.37,2.37,3.09,5.1,4.83,8.18,1.76,3.12,3.09,5.97,3.03,8.54-.02,2.57-1.33,4.79-3.78,6.67-2.43,1.88-5.83,3.33-9.46,4.36-3.65,1.02-7.25,1.54-10.46,1.54ZM84.12,65.08c1.52,0,2.81-.28,3.82-.86,1.01-.57,1.76-1.36,2.16-2.37.41-1.01.45-2.16.14-3.45-.3-1.29-.92-2.66-1.72-4.1-.77-1.38-1.64-2.58-2.61-3.6-.97-1.02-1.99-1.82-3.13-2.39-1.14-.57-2.39-.86-3.8-.86-1.41,0-2.62.29-3.59.86-.97.57-1.7,1.36-2.1,2.37-.41,1.01-.48,2.16-.24,3.45.24,1.29.76,2.66,1.47,4.1.66,1.34,1.47,2.54,2.43,3.58.96,1.04,1.99,1.85,3.18,2.42,1.19.57,2.5.86,3.99.86Z" />
    <path class="uuid-ad455367-f282-4114-9632-061f824dfcee"
      d="M105.69,73.89c14.45-11.75-9.17-23.5,5.27-35.25,5.32,0,10.64,0,15.98,0,3.77,0,6.36.6,8.39,1.81,2.03,1.21,3.53,2.93,5.06,5.16,1.5,2.23,2.95,4.89,4.22,7.98,1.28,3.12,2.08,5.93,1.8,8.41-.26,2.48-1.47,4.62-3.61,6.4-2.13,1.78-5.08,3.14-8.35,4.08-3.29.94-6.73,1.41-9.92,1.41h-18.83ZM122.35,64.62h5.42c2.06,0,3.7-.46,4.81-1.38,1.11-.92,1.7-2.17,1.69-3.73,0-1.56-.56-3.3-1.51-5.21-.68-1.38-1.47-2.53-2.4-3.47-.93-.94-1.99-1.66-3.24-2.17-1.25-.5-2.69-.76-4.35-.76h-4.64c.06,5.57,4.07,11.15,4.22,16.72Z" />
    <path class="uuid-ad455367-f282-4114-9632-061f824dfcee"
      d="M164.26,64.92c5.47,0,10.88,0,16.22,0-.49,2.99-1.06,5.98-2.12,8.96h-28.83c10.08-11.75-4.17-23.5,5.92-35.25,9.69,0,19.41,0,29.18,0-.62,2.99-1.36,5.98-1.99,8.96h-18.44c-.82,5.77.55,11.55.06,17.32ZM163.11,51.73h16.54c-.45,2.85-.77,5.71-1.08,8.56-4.97,0-9.96,0-14.98,0-.14-2.85-.46-5.71-.47-8.56Z" />
    <path class="uuid-66c3dc20-e471-491b-b619-6a35779af220"
      d="M40.89,74.69c-3.62,0-6.49-.66-9.12-1.99-2.61-1.33-4.84-3.17-6.49-5.54-1.65-2.37-2.48-5.11-2.47-8.23,0-3.09.55-5.93,1.51-8.51.97-2.58,2.28-4.82,4.14-6.7,1.86-1.88,4.24-3.33,7.16-4.36,2.91-1.02,6.19-1.54,9.45-1.54,3.41,0,5.98.6,7.87,1.81,1.91,1.21,2.97,2.95,4.04,5.24-2.83,2.23-5,4.47-7.12,6.7-1.07-1.31-2.17-2.32-3.38-3.05-1.21-.72-2.52-1.08-4.02-1.08-1.31,0-2.47.26-3.49.78-1.02.52-1.86,1.26-2.52,2.22-.66.96-1.11,2.09-1.35,3.4-.24,1.31-.24,2.75,0,4.33.22,1.38.7,2.59,1.47,3.63.77,1.04,1.77,1.85,2.99,2.42,1.23.57,2.61.86,4.17.86,1.48,0,2.91-.32,4.24-.96,1.33-.64,2.51-1.68,3.39-3.12,3.02,2.23,5.97,4.47,8.31,6.7-2.45,2.62-5.86,4.44-9.06,5.46-3.23,1.02-6.48,1.54-9.73,1.54Z" />
    <path class="uuid-d598abd8-38ea-4dd3-bde8-0a3cb76492b2"
      d="M79.41,74.69c-3.68,0-6.03-.67-7.83-2.01-1.81-1.34-3.18-3.2-4.68-5.56-1.48-2.37-2.98-5.09-4.24-8.18-1.28-3.12-2.1-5.97-1.83-8.54.25-2.57,1.49-4.79,3.74-6.67,2.24-1.88,5.37-3.33,8.86-4.36,3.5-1.02,7.1-1.54,10.31-1.54,3.69,0,5.97.67,7.52,2.01,1.57,1.34,2.58,3.2,3.98,5.56,1.37,2.37,3.09,5.1,4.83,8.18,1.76,3.12,3.09,5.97,3.03,8.54-.02,2.57-1.33,4.79-3.78,6.67-2.43,1.88-5.83,3.33-9.46,4.36-3.65,1.02-7.25,1.54-10.46,1.54ZM84.12,65.08c1.52,0,2.81-.28,3.82-.86,1.01-.57,1.76-1.36,2.16-2.37.41-1.01.45-2.16.14-3.45-.3-1.29-.92-2.66-1.72-4.1-.77-1.38-1.64-2.58-2.61-3.6-.97-1.02-1.99-1.82-3.13-2.39-1.14-.57-2.39-.86-3.8-.86-1.41,0-2.62.29-3.59.86-.97.57-1.7,1.36-2.1,2.37-.41,1.01-.48,2.16-.24,3.45.24,1.29.76,2.66,1.47,4.1.66,1.34,1.47,2.54,2.43,3.58.96,1.04,1.99,1.85,3.18,2.42,1.19.57,2.5.86,3.99.86Z" />
    <path class="uuid-f450f060-2df5-4949-8171-451ed9d77ec4"
      d="M105.69,73.89c14.45-11.75-9.17-23.5,5.27-35.25,5.32,0,10.64,0,15.98,0,3.77,0,6.36.6,8.39,1.81,2.03,1.21,3.53,2.93,5.06,5.16,1.5,2.23,2.95,4.89,4.22,7.98,1.28,3.12,2.08,5.93,1.8,8.41-.26,2.48-1.47,4.62-3.61,6.4-2.13,1.78-5.08,3.14-8.35,4.08-3.29.94-6.73,1.41-9.92,1.41h-18.83ZM122.35,64.62h5.42c2.06,0,3.7-.46,4.81-1.38,1.11-.92,1.7-2.17,1.69-3.73,0-1.56-.56-3.3-1.51-5.21-.68-1.38-1.47-2.53-2.4-3.47-.93-.94-1.99-1.66-3.24-2.17-1.25-.5-2.69-.76-4.35-.76h-4.64c.06,5.57,4.07,11.15,4.22,16.72Z" />
    <path class="uuid-3a014ae6-496c-4589-a2fa-fceb6a13c38c"
      d="M164.26,64.92c5.47,0,10.88,0,16.22,0-.49,2.99-1.06,5.98-2.12,8.96h-28.83c10.08-11.75-4.17-23.5,5.92-35.25,9.69,0,19.41,0,29.18,0-.62,2.99-1.36,5.98-1.99,8.96h-18.44c-.82,5.77.55,11.55.06,17.32ZM163.11,51.73h16.54c-.45,2.85-.77,5.71-1.08,8.56-4.97,0-9.96,0-14.98,0-.14-2.85-.46-5.71-.47-8.56Z" />
  </g>
</svg>