<?xml version="1.0" encoding="UTF-8"?>
<svg id="uuid-16ccfa8c-36aa-4fbc-b906-32805422ae50" xmlns="http://www.w3.org/2000/svg"
  xmlns:xlink="http://www.w3.org/1999/xlink" viewBox="0 0 61.24 118.86">
  <defs>
    <style>
      .uuid-af1423c5-ad6a-4629-8996-22aa6fc881cc {
        fill: url(#uuid-c1fca299-9fe4-4d59-8427-411319e6e85c);
      }

      .uuid-1c01e011-20d3-4300-ab6f-34f033d2e54d {
        fill: #fff;
      }

      .uuid-45f6034d-4792-4ea6-93f0-4a434bdcf66e {
        fill: #171717;
      }
    </style>
    <linearGradient id="uuid-c1fca299-9fe4-4d59-8427-411319e6e85c" x1="4.03" y1="107.05" x2="52.96" y2="5.25"
      gradientUnits="userSpaceOnUse">
      <stop offset="0" stop-color="#97ff08" />
      <stop offset=".29" stop-color="#8bfff0" />
      <stop offset=".62" stop-color="#ffdd8a" />
      <stop offset=".84" stop-color="#31ecff" />
      <stop offset="1" stop-color="#ffd600" />
    </linearGradient>
  </defs>
  <g id="uuid-0ced05e4-3323-4030-9250-402eef9db2d4">
    <path class="uuid-45f6034d-4792-4ea6-93f0-4a434bdcf66e"
      d="M5.46,118.48c-.51,0-1.03-.13-1.51-.41-1.27-.74-1.82-2.28-1.3-3.65l14.91-39.64-15.52-7.68c-1.45-.72-2.07-2.45-1.41-3.92L28.04,2.15c.5-1.11,1.59-1.77,2.74-1.77.38,0,.77.07,1.15.23l27.09,11.23c.85.35,1.49,1.08,1.74,1.97.25.89.07,1.84-.48,2.58l-27.88,37.77,16.19,8.48c.8.42,1.37,1.18,1.55,2.07.18.89-.06,1.81-.63,2.51L7.77,117.4c-.59.71-1.44,1.08-2.31,1.08Z" />
    <path class="uuid-1c01e011-20d3-4300-ab6f-34f033d2e54d"
      d="M5.46,118.86c-.59,0-1.18-.16-1.69-.46-1.43-.83-2.04-2.56-1.46-4.11l14.79-39.33-15.21-7.53c-1.63-.81-2.33-2.74-1.58-4.41L27.7,1.99c.54-1.21,1.75-1.99,3.08-1.99.44,0,.88.09,1.29.26l27.09,11.23c.96.4,1.68,1.21,1.96,2.21.28,1.01.08,2.07-.54,2.91l-27.62,37.42,15.8,8.27c.91.47,1.54,1.32,1.74,2.33.2,1-.06,2.03-.71,2.82L8.06,117.64c-.64.77-1.59,1.22-2.6,1.22ZM30.78.75c-1.03,0-1.97.61-2.4,1.55L.98,63.34c-.58,1.29-.04,2.8,1.23,3.43l15.52,7.68c.17.08.25.29.18.47L3.01,114.56c-.45,1.2.03,2.55,1.14,3.19,1.08.63,2.54.36,3.34-.59l41.72-50.19c.51-.61.71-1.41.55-2.19-.16-.78-.65-1.44-1.36-1.81l-16.19-8.47c-.1-.05-.17-.14-.19-.25-.02-.11,0-.22.06-.31l27.88-37.77c.48-.65.64-1.48.42-2.26-.22-.78-.77-1.41-1.52-1.72L31.78.95c-.32-.13-.66-.2-1-.2Z" />
    <polygon class="uuid-af1423c5-ad6a-4629-8996-22aa6fc881cc"
      points="57.86 14.61 30.77 3.38 3.38 64.41 21.33 73.3 5.46 115.48 47.19 65.29 27.9 55.19 57.86 14.61" />
  </g>
</svg>