<?xml version="1.0" encoding="UTF-8"?>
<svg id="uuid-ec9081f0-1a25-4691-8041-9993a6a9eb75" xmlns="http://www.w3.org/2000/svg"
  xmlns:xlink="http://www.w3.org/1999/xlink" viewBox="0 0 132.59 145.02">
  <defs>
    <style>
      .uuid-b0ae4da1-b503-4648-b4ed-7d2998a3397f {
        fill: #fff;
      }

      .uuid-602f3013-b6a4-4877-a0b3-f97bdb8cf6eb {
        fill: url(#uuid-d4f7fbc6-0a33-462e-a38c-d273d10d53b5);
      }

      .uuid-ffab8f88-4070-427e-bf49-899e7d0436cb {
        fill: #171717;
      }
    </style>
    <linearGradient id="uuid-d4f7fbc6-0a33-462e-a38c-d273d10d53b5" x1="6.48" y1="17.59" x2="123.39" y2="122.24"
      gradientUnits="userSpaceOnUse">
      <stop offset="0" stop-color="#97ff08" />
      <stop offset=".29" stop-color="#8bfff0" />
      <stop offset=".62" stop-color="#ffdd8a" />
      <stop offset=".84" stop-color="#31ecff" />
      <stop offset="1" stop-color="#ffd600" />
    </linearGradient>
  </defs>
  <g id="uuid-747f4eb6-89fc-4939-b482-71a8b9597ed1">
    <path class="uuid-ffab8f88-4070-427e-bf49-899e7d0436cb"
      d="M110.85,144.65c-3.13,0-6.39-1.43-8.95-3.93-2.08-2.03-3.29-4.45-4.47-6.79-2.23-4.44-4-7.95-11.23-8.57-12.86-1.11-20.62-6.71-23.07-16.63-.07-.3-.15-.59-.23-.88,0,0-.01.01-.02.02-.75.71-1.64,1.18-2.59,1.41.41.35.82.7,1.23,1.08,3.57,3.22,4.78,7.87,3.14,12.14-1.46,3.8-4.81,6.26-8.52,6.26-.93,0-1.85-.15-2.76-.46-6.4-2.13-7.31-6.67-8.57-12.94-.39-1.94-.83-4.14-1.49-6.68-2.05-7.96-5.94-10.27-12.38-14.08-1.15-.68-2.35-1.39-3.61-2.18-7.42-4.63-13.52-9.6-19.13-18.78-1.78-2.68-3.29-5.57-4.49-8.59-.01-.04-.03-.07-.04-.11h0C1.49,59.4.37,53.56.37,47.59.37,21.56,21.55.38,47.59.38c17.68,0,33.71,9.74,41.88,25.43,2.88,4.41,4.71,10.12,6.49,15.65,1.73,5.38,3.52,10.95,5.84,13.2,1.96,1.9,4.37,2.62,6.93,3.38,3.44,1.02,7.34,2.19,8.98,6.58.81,2.17.55,4.46-.72,6.29-1.42,2.04-3.9,3.26-6.66,3.26-.4,0-.8-.02-1.2-.07,1.01.47,2.07.88,3.18,1.23,1.37.43,2.67.84,3.9,1.22,5.38,1.66,9.27,2.86,11.71,4.51,3.81,2.57,5.15,6.35,3.76,10.65-1.16,3.59-4.44,5.92-8.35,5.92-3.52,0-7-1.79-9.81-5.04-1-1.16-1.74-2.29-2.39-3.29-1.4-2.17-2.25-3.47-5-4.25-.38-.11-.79-.16-1.22-.16-1.61,0-3.19.74-4.23,1.99-1.07,1.28-1.34,2.86-.82,4.68,1.11,3.87,5.35,7.7,10.3,9.32,2.64.86,5.14,1.35,7.56,1.83,5.79,1.13,11.79,2.31,13.09,9.17.59,3.1-.19,6.22-2.12,8.56-1.88,2.26-4.64,3.56-7.57,3.56h0c-2.87,0-5.67-1.21-8.09-3.49-5.6-5.29-8.63-6.4-10.19-6.4-.37,0-.69.07-.98.2-1,.46-1.66,1.32-1.83,2.36-.2,1.22.32,2.51,1.41,3.55,1.39,1.31,3.85,2.35,7.26,3.79,1.27.54,2.66,1.12,4.16,1.8,4.07,1.83,6.59,5.01,6.91,8.75.29,3.41-1.31,6.83-4.08,8.69-1.37.93-3.05,1.42-4.84,1.42Z" />
    <path class="uuid-b0ae4da1-b503-4648-b4ed-7d2998a3397f"
      d="M110.85,145.02c-3.23,0-6.58-1.47-9.21-4.04-2.12-2.07-3.35-4.52-4.54-6.89-2.18-4.33-3.9-7.76-10.92-8.37-10.62-.92-17.81-4.86-21.46-11.75,1.27,2.7,1.41,5.76.3,8.65-1.52,3.95-5,6.5-8.87,6.5-.97,0-1.93-.16-2.88-.47-6.6-2.2-7.53-6.83-8.81-13.23-.39-1.94-.83-4.13-1.48-6.66-2.01-7.81-5.85-10.09-12.21-13.85-1.15-.68-2.36-1.4-3.61-2.18-7.47-4.66-13.6-9.66-19.25-18.9-1.79-2.7-3.31-5.61-4.52-8.65l-.04-.12c-2.21-5.58-3.33-11.47-3.33-17.48C0,21.35,21.35,0,47.59,0c17.8,0,33.98,9.82,42.22,25.63,2.89,4.42,4.73,10.16,6.51,15.7,1.71,5.34,3.49,10.86,5.74,13.05,1.89,1.84,4.26,2.54,6.78,3.29,3.52,1.05,7.52,2.24,9.23,6.81.85,2.28.58,4.7-.76,6.63-1.35,1.95-3.63,3.18-6.2,3.39.43.16.87.31,1.32.46,1.37.43,2.67.84,3.9,1.22,5.41,1.67,9.32,2.88,11.81,4.56,3.96,2.67,5.35,6.6,3.91,11.07-1.21,3.75-4.63,6.18-8.7,6.18-3.63,0-7.21-1.84-10.1-5.17-1.02-1.18-1.76-2.32-2.42-3.34-1.4-2.16-2.17-3.35-4.79-4.09-.35-.1-.72-.15-1.12-.15-1.5,0-2.98.69-3.94,1.85-.98,1.18-1.24,2.64-.75,4.33,1.08,3.76,5.22,7.49,10.06,9.07,2.61.86,5.1,1.34,7.5,1.81,5.93,1.16,12.05,2.36,13.4,9.47.61,3.21-.19,6.44-2.2,8.86-1.95,2.35-4.81,3.7-7.86,3.7-2.97,0-5.85-1.24-8.34-3.59-5.52-5.2-8.44-6.29-9.93-6.29-.31,0-.58.05-.82.17-.88.41-1.47,1.17-1.62,2.08-.18,1.1.3,2.27,1.3,3.21,1.34,1.26,3.77,2.29,7.15,3.72,1.27.54,2.66,1.13,4.16,1.8,4.2,1.88,6.8,5.18,7.13,9.06.3,3.55-1.36,7.09-4.24,9.04-1.44.97-3.18,1.48-5.05,1.48ZM62.91,107.5s.06,0,.1.01c.13.04.23.13.27.25.08.29.15.58.23.89,2.41,9.75,10.06,15.24,22.74,16.34,7.44.64,9.25,4.23,11.53,8.78,1.16,2.31,2.37,4.7,4.4,6.69,2.49,2.43,5.65,3.82,8.68,3.82,1.72,0,3.32-.47,4.63-1.35,2.66-1.79,4.2-5.07,3.91-8.35-.31-3.59-2.75-6.67-6.69-8.44-1.5-.67-2.88-1.26-4.15-1.79-3.44-1.46-5.93-2.51-7.37-3.87-1.19-1.12-1.74-2.53-1.53-3.88.19-1.16.93-2.12,2.04-2.64,2.2-1.03,6.25,1.23,11.58,6.26,2.35,2.21,5.05,3.39,7.83,3.39,2.83,0,5.48-1.25,7.28-3.43,1.86-2.25,2.61-5.26,2.04-8.25-1.25-6.61-7.12-7.76-12.79-8.87-2.44-.48-4.95-.97-7.6-1.84-5.06-1.66-9.4-5.6-10.55-9.58-.56-1.94-.26-3.63.89-5.02,1.11-1.33,2.8-2.12,4.52-2.12.46,0,.91.06,1.32.17,2.89.81,3.81,2.24,5.22,4.4.64.99,1.37,2.12,2.35,3.25,2.74,3.17,6.12,4.91,9.53,4.91,3.74,0,6.88-2.22,7.99-5.66,1.33-4.12.05-7.75-3.61-10.22-2.4-1.62-6.27-2.81-11.61-4.47-1.23-.38-2.54-.78-3.91-1.22-1.11-.35-2.2-.77-3.22-1.25-.17-.08-.25-.27-.2-.44.05-.18.23-.29.41-.27,3.03.36,5.96-.81,7.51-3.03,1.2-1.73,1.45-3.89.68-5.94-1.58-4.22-5.38-5.35-8.74-6.35-2.6-.78-5.07-1.51-7.09-3.47-2.38-2.32-4.19-7.93-5.93-13.36-1.77-5.5-3.59-11.19-6.44-15.56C81.03,10.42,65.11.75,47.59.75,21.76.75.75,21.76.75,47.59c0,5.92,1.1,11.71,3.28,17.21l-.31.25.35-.14c1.19,2.99,2.69,5.86,4.46,8.52,5.58,9.13,11.64,14.06,19.02,18.67,1.25.78,2.45,1.49,3.6,2.17,6.52,3.86,10.46,6.19,12.55,14.31.66,2.55,1.1,4.75,1.49,6.7,1.24,6.16,2.13,10.6,8.32,12.67.87.29,1.76.44,2.64.44,3.56,0,6.77-2.36,8.17-6.02,1.58-4.12.42-8.61-3.04-11.73-.41-.37-.82-.73-1.23-1.07-.11-.09-.15-.24-.12-.37s.14-.24.28-.28c.9-.21,1.72-.65,2.42-1.32.07-.07.17-.11.27-.11ZM61.06,109.45c.24.21.48.42.72.64,1.08.98,1.96,2.08,2.61,3.27-.68-1.39-1.22-2.9-1.62-4.52-.02-.1-.05-.2-.07-.29-.51.4-1.05.7-1.63.91Z" />
    <path class="uuid-602f3013-b6a4-4877-a0b3-f97bdb8cf6eb"
      d="M56.23,100.39c3.26-2.35,7.48,2.61,4.61,5.29-2.94,2.75-8.14-2.75-4.61-5.29ZM106.95,82.15c5.42,1.52,5.88,5.03,8.85,8.47,5.02,5.8,11.54,4.8,13.03.16.74-2.29.7-5.03-2.58-7.24-2.59-1.75-7.92-3.16-14.85-5.36-5.32-1.69-9.33-4.51-12.29-7.91-.11-.16-.25-.33-.42-.5-.35-.42-.68-.85-1-1.28-1.93-3.4,1.38-6.71,5.55-1.37,5.66,7.26,13.51,3.48,11.66-1.45-2.08-5.56-9.81-3.63-15.2-8.86-5.38-5.23-7.08-20.74-12.78-29.42v.02c-7.34-14.26-22.19-24.03-39.34-24.03C23.17,3.37,3.37,23.17,3.37,47.59c0,5.74,1.11,11.22,3.1,16.25h0s.03.06.04.09c1.14,2.86,2.56,5.57,4.24,8.1,5.5,9.02,11.57,13.72,18.19,17.85,8.38,5.23,14.53,7.31,17.3,18.05,2.77,10.74,1.82,15.43,8.09,17.53,6.28,2.09,11.5-7.18,5.19-12.87-2.95-2.66-5.8-4.45-7.39-7.29-2.54-4.54-.8-7.94,1.63-8.99,4.25-1.84,9.63.96,12.28,11.71,2.65,10.74,12.05,13.63,20.42,14.36,13.07,1.13,12.15,10.95,17.53,16.2,3,2.93,7.29,4.01,10.01,2.17,3.5-2.36,4.7-9.04-2.38-12.21-5.79-2.6-9.85-3.89-12.24-6.15-3.78-3.57-2.86-8.9,1.21-10.8,3.73-1.74,8.83,1.39,14.5,6.73,6.39,6.03,14.06.89,12.78-5.89-1.32-6.96-9.25-5.64-18.63-8.71-9.37-3.07-15.95-12.65-10.86-18.77,2.23-2.68,5.77-3.58,8.57-2.8Z" />
    <path class="uuid-ffab8f88-4070-427e-bf49-899e7d0436cb"
      d="M83.18,47.93c-.53.26-1.09.43-1.66.52-.46,18.32-15.5,33.09-33.93,33.09S14.12,66.77,13.66,48.45c-.57-.09-1.13-.26-1.66-.52-.47-.23-.66-.8-.43-1.27.23-.47.8-.66,1.27-.43,1.09.54,2.39.54,3.49,0,.47-.23,1.04-.04,1.27.43.23.47.04,1.04-.43,1.27-.51.25-1.06.42-1.62.51.46,17.28,14.65,31.21,32.04,31.21s31.58-13.92,32.04-31.21c-.56-.09-1.1-.26-1.62-.51-.47-.23-.66-.8-.43-1.27.23-.47.8-.66,1.27-.43,1.09.54,2.4.54,3.48,0,.47-.23,1.04-.04,1.27.42.23.47.04,1.04-.43,1.27ZM35.66,57.46c4.24,0,7.67-7.69,7.67-17.17s-3.43-17.17-7.67-17.17-7.67,7.69-7.67,17.17,3.43,17.17,7.67,17.17ZM59.52,57.46c4.24,0,7.67-7.69,7.67-17.17s-3.43-17.17-7.67-17.17-7.67,7.69-7.67,17.17,3.43,17.17,7.67,17.17Z" />
  </g>
</svg>