<svg xmlns="http://www.w3.org/2000/svg" viewBox="0 0 143.83 143.64">
  <defs>
    <style>
      .uuid-23a5059b-dada-4b49-8fdb-06dd6cbd638b {
        fill: #fff;
      }

      .uuid-1ec7c4cb-fd11-4da4-ae31-51d3917b3057 {
        fill: url(#uuid-b398c3d6-e5fb-45aa-a126-c28b83624ab5);
      }

      .uuid-f5e1976c-e78f-4ec3-a58c-bdfa765635e8 {
        font-family: Montserrat-ExtraBold, Montserrat;
        font-size: 11.3px;
        font-weight: 700;
      }

      .uuid-f5e1976c-e78f-4ec3-a58c-bdfa765635e8,
      .uuid-d2c703ae-6cbd-4371-8b4d-db4bb8f27e9a {
        fill: #171717;
      }
    </style>
    <linearGradient id="uuid-b398c3d6-e5fb-45aa-a126-c28b83624ab5" x1="113.03" y1="128.06" x2="30.16" y2="14.06"
      gradientTransform="translate(71.89 -29.97) rotate(45)" gradientUnits="userSpaceOnUse">
      <stop offset="0" stop-color="#97ff08" />
      <stop offset=".29" stop-color="#8bfff0" />
      <stop offset=".62" stop-color="#ffdd8a" />
      <stop offset=".84" stop-color="#31ecff" />
      <stop offset="1" stop-color="#ffd600" />
    </linearGradient>
  </defs>
  <g id="uuid-4b9491b9-6b8b-4bef-b34a-313be3e0a838">
    <path class="uuid-d2c703ae-6cbd-4371-8b4d-db4bb8f27e9a"
      d="M72.12,138.62c-36.85,0-66.82-29.98-66.82-66.82S35.28,4.97,72.12,4.97s66.82,29.98,66.82,66.82-29.98,66.82-66.82,66.82Z" />
    <path class="uuid-23a5059b-dada-4b49-8fdb-06dd6cbd638b"
      d="M72.12,138.99c-37.05,0-67.2-30.15-67.2-67.2S35.07,4.59,72.12,4.59s67.2,30.15,67.2,67.2-30.15,67.2-67.2,67.2ZM72.12,5.34C35.48,5.34,5.67,35.15,5.67,71.79s29.81,66.45,66.45,66.45,66.45-29.81,66.45-66.45S108.76,5.34,72.12,5.34Z" />
    <circle class="uuid-1ec7c4cb-fd11-4da4-ae31-51d3917b3057" cx="72.12" cy="71.79" r="63.82"
      transform="translate(-29.64 72.03) rotate(-45)" />
    <path class="uuid-d2c703ae-6cbd-4371-8b4d-db4bb8f27e9a"
      d="M100.98,45.26c-7.41-8.05-17.92-12.67-28.86-12.67s-21.45,4.62-28.86,12.67c-6.67,7.25-10.35,16.68-10.35,26.53s3.67,19.28,10.35,26.53c7.41,8.05,17.92,12.67,28.86,12.67s21.45-4.62,28.86-12.67c6.67-7.25,10.35-16.68,10.35-26.53s-3.67-19.28-10.35-26.53ZM85.63,94.32c-.15.39-.31.78-.46,1.16-.08.18-.15.36-.23.53-.15.34-.3.68-.46,1.01-.08.18-.17.35-.25.53-.16.32-.32.64-.48.95-.08.16-.17.32-.25.48-.18.33-.37.65-.55.96-.07.12-.14.24-.21.36-.52.85-1.06,1.63-1.62,2.35-.09.11-.17.21-.26.32-.19.24-.39.48-.59.7-.11.12-.21.23-.32.35-.18.2-.37.39-.56.57-.11.11-.23.22-.34.33-.19.17-.38.34-.57.5-.11.1-.23.19-.34.28-.21.16-.42.31-.62.46-.1.07-.2.14-.3.21-.31.2-.62.39-.93.55,0,0,0,0,0,0-.32.17-.63.31-.95.44-.1.04-.21.07-.31.11-.22.08-.44.15-.66.22-.12.03-.24.06-.37.09-.12.03-.24.05-.36.07v-15.67c.06,0,.11,0,.17,0,.91.02,1.81.07,2.71.13.19.01.39.03.58.05.88.07,1.76.15,2.63.26.05,0,.1.01.15.02.91.11,1.8.25,2.7.41.2.03.39.07.59.1.88.16,1.76.34,2.62.54.03,0,.06.02.1.02-.02.05-.04.11-.06.17-.06.16-.12.31-.18.46ZM69.89,107.68c-.22-.06-.44-.14-.66-.22-.1-.04-.2-.07-.31-.11-.64-.26-1.27-.59-1.89-1-.1-.06-.19-.14-.29-.2-.21-.15-.43-.3-.64-.47-.11-.09-.22-.18-.33-.27-.19-.16-.39-.33-.58-.51-.11-.1-.22-.21-.33-.32-.19-.19-.38-.38-.57-.59-.1-.11-.21-.22-.31-.34-.2-.23-.4-.47-.6-.72-.08-.1-.16-.2-.24-.3-.56-.72-1.1-1.5-1.62-2.36-.07-.11-.13-.23-.2-.34-.19-.32-.38-.64-.56-.98-.08-.15-.16-.31-.25-.47-.16-.31-.33-.63-.49-.96-.08-.17-.17-.35-.25-.52-.16-.33-.31-.67-.46-1.02-.08-.18-.15-.35-.23-.53-.16-.38-.31-.77-.47-1.16-.06-.15-.12-.3-.18-.46-.02-.05-.04-.11-.06-.17.03,0,.07-.02.1-.02.87-.2,1.74-.38,2.62-.54.2-.04.39-.07.59-.1.89-.15,1.79-.29,2.7-.41.05,0,.1-.01.15-.02.87-.11,1.75-.19,2.63-.26.19-.02.38-.03.58-.05.9-.06,1.8-.11,2.71-.13.06,0,.11,0,.17,0v15.67c-.12-.02-.24-.04-.36-.07-.12-.03-.24-.05-.37-.09ZM58.62,49.26c.15-.39.31-.78.47-1.16.07-.18.15-.35.23-.53.15-.34.3-.68.46-1.02.08-.18.17-.35.25-.52.16-.33.32-.64.49-.96.08-.16.16-.31.25-.47.18-.34.37-.66.56-.98.07-.11.13-.23.2-.34.52-.85,1.06-1.64,1.62-2.36.08-.1.16-.2.24-.3.2-.25.4-.49.61-.72.1-.11.21-.22.31-.33.19-.2.38-.4.57-.59.11-.11.22-.21.33-.32.19-.18.39-.35.58-.51.11-.09.22-.19.33-.27.21-.17.42-.32.64-.47.1-.07.19-.14.29-.2.62-.41,1.25-.74,1.89-1,.1-.04.2-.07.31-.11.22-.08.44-.16.66-.22.12-.03.24-.06.37-.09.12-.03.24-.05.36-.07v15.67c-.06,0-.11,0-.17,0-.91-.02-1.81-.07-2.71-.13-.19-.01-.38-.03-.57-.05-.88-.07-1.76-.15-2.63-.26-.05,0-.1-.01-.15-.02-.91-.11-1.8-.25-2.7-.41-.2-.03-.39-.07-.59-.1-.88-.16-1.76-.34-2.62-.54-.03,0-.07-.02-.1-.02.02-.05.04-.11.06-.17.06-.16.12-.31.18-.46ZM74.35,35.9c.22.06.44.14.66.22.1.04.21.07.31.11.32.13.64.27.95.44,0,0,0,0,0,0,.31.16.62.35.93.55.1.07.2.14.3.21.21.15.42.3.62.46.11.09.23.19.34.28.19.16.38.33.57.5.11.11.23.21.34.33.19.18.37.38.56.57.11.11.21.23.32.35.2.23.4.46.59.7.09.11.17.21.26.32.56.72,1.1,1.5,1.62,2.35.07.12.14.24.21.36.19.31.37.63.55.96.09.16.17.32.25.48.16.31.32.62.48.95.08.17.17.35.25.53.15.33.31.67.46,1.01.08.18.15.35.23.53.16.38.31.77.46,1.16.06.15.12.3.18.46.02.05.04.11.06.17-.03,0-.07.02-.1.02-.87.2-1.74.38-2.62.54-.2.04-.39.07-.59.1-.89.15-1.79.29-2.7.41-.05,0-.1.01-.15.02-.87.11-1.75.19-2.63.26-.19.02-.38.03-.57.05-.9.06-1.8.11-2.71.13-.06,0-.11,0-.17,0v-15.67c.12.02.24.04.36.07.12.03.24.05.37.09ZM89.4,74.98c-.02.54-.05,1.07-.09,1.61-.02.31-.04.62-.06.93-.04.58-.1,1.15-.16,1.72-.03.26-.05.52-.08.77-.09.82-.2,1.63-.32,2.43-.01.08-.03.15-.04.23-.11.72-.23,1.44-.37,2.14-.05.27-.11.53-.16.8-.1.51-.21,1.02-.33,1.53-.07.3-.14.59-.21.88-.12.47-.23.94-.36,1.4-.08.29-.16.58-.24.86-.06.19-.12.38-.17.57-.06-.01-.12-.02-.18-.04-.93-.22-1.87-.41-2.81-.59-.19-.04-.38-.07-.57-.1-.97-.17-1.94-.32-2.92-.45-.01,0-.02,0-.04,0-.99-.12-1.98-.22-2.98-.3-.2-.02-.4-.03-.6-.05-.97-.07-1.94-.12-2.92-.14-.06,0-.13,0-.19,0v-15.87h15.82c0,.24,0,.48-.01.72,0,.32-.02.65-.03.97ZM67.51,89.31c-.2.01-.4.03-.59.05-1,.08-1.99.17-2.98.3-.01,0-.02,0-.04,0-.98.12-1.95.28-2.92.45-.19.03-.38.07-.57.1-.94.17-1.88.37-2.81.59-.06.01-.12.02-.18.04-.06-.19-.12-.38-.18-.58-.08-.28-.16-.56-.24-.84-.13-.47-.25-.95-.37-1.44-.07-.28-.14-.56-.2-.84-.12-.52-.23-1.06-.34-1.59-.05-.25-.1-.49-.15-.74-.14-.75-.27-1.5-.39-2.26,0-.04-.01-.08-.02-.12-.12-.81-.23-1.62-.32-2.44-.03-.25-.05-.49-.07-.74-.06-.58-.12-1.16-.16-1.74-.02-.3-.04-.61-.06-.92-.03-.54-.07-1.08-.09-1.62-.01-.32-.02-.64-.03-.97,0-.24,0-.48-.01-.72h15.82v15.87c-.06,0-.13,0-.19,0-.98.03-1.95.07-2.92.14ZM54.85,68.61c.02-.54.05-1.08.09-1.62.02-.31.04-.61.06-.92.05-.58.1-1.17.16-1.74.03-.25.05-.49.07-.74.09-.82.2-1.64.32-2.44,0-.04.01-.08.02-.12.12-.76.25-1.52.39-2.26.05-.25.1-.49.15-.74.11-.53.22-1.07.34-1.59.06-.28.13-.56.2-.84.12-.48.24-.96.37-1.44.08-.28.16-.56.24-.84.06-.2.12-.39.18-.58.06.01.12.02.18.04.93.22,1.87.41,2.81.59.19.03.38.07.56.1.97.17,1.94.32,2.92.45,0,0,.02,0,.03,0,.99.12,1.98.22,2.98.3.2.02.39.03.59.05.97.07,1.94.12,2.92.14.06,0,.13,0,.19,0v15.87h-15.82c0-.24,0-.48.01-.72,0-.32.02-.64.03-.97ZM76.73,54.27c.2-.01.4-.03.6-.05,1-.08,1.99-.17,2.97-.3.01,0,.03,0,.04,0,.98-.12,1.95-.28,2.91-.45.19-.03.38-.07.57-.1.94-.17,1.88-.37,2.81-.59.06-.01.12-.02.18-.04.06.19.12.38.17.57.08.29.16.57.24.86.13.46.24.93.36,1.4.07.29.14.58.21.88.12.5.22,1.01.33,1.53.05.27.11.53.16.8.13.71.25,1.42.37,2.14.01.08.03.16.04.24.12.8.22,1.61.32,2.43.03.25.05.51.08.77.06.57.11,1.14.16,1.72.02.31.04.62.06.93.03.53.07,1.07.09,1.61.01.32.03.65.03.97,0,.24,0,.48.01.72h-15.82v-15.87c.06,0,.13,0,.19,0,.98-.02,1.95-.07,2.92-.14ZM92.46,70.29c0-.26-.02-.51-.03-.77-.01-.35-.02-.7-.04-1.05-.02-.55-.06-1.11-.09-1.66-.02-.33-.04-.65-.07-.98-.05-.62-.11-1.24-.17-1.85-.03-.24-.04-.49-.07-.73-.1-.85-.21-1.7-.33-2.53-.03-.17-.06-.34-.09-.52-.1-.66-.22-1.32-.34-1.97-.05-.29-.12-.57-.17-.86-.11-.53-.22-1.06-.34-1.58-.07-.31-.15-.62-.22-.92-.12-.49-.25-.98-.38-1.46-.08-.3-.17-.61-.25-.91-.05-.17-.09-.35-.15-.52.37-.11.74-.23,1.1-.35.32-.1.64-.2.96-.3.81-.27,1.62-.56,2.41-.86.15-.06.31-.11.46-.17.94-.37,1.86-.76,2.77-1.17.26-.12.52-.25.78-.37.44-.21.88-.41,1.31-.62,5.35,6.2,8.43,13.97,8.76,22.15h-15.83ZM81.4,36.8c5.97,1.59,11.49,4.69,15.97,9.04-.21.1-.41.21-.61.3-.25.12-.5.23-.75.34-.69.31-1.39.61-2.1.89-.18.07-.35.14-.52.21-.87.34-1.76.65-2.66.94-.22.07-.44.14-.66.21-.42.13-.85.25-1.28.37-.04-.11-.09-.22-.13-.33-.12-.33-.25-.64-.37-.96-.13-.33-.26-.65-.4-.97-.13-.31-.27-.61-.4-.92-.14-.31-.28-.61-.42-.91-.14-.29-.29-.58-.43-.87-.15-.29-.29-.57-.45-.85-.15-.27-.3-.54-.46-.81-.16-.27-.31-.53-.47-.79-.16-.25-.32-.5-.48-.74-.17-.25-.33-.5-.5-.74-.16-.23-.33-.46-.49-.68-.17-.23-.35-.46-.53-.68-.17-.21-.34-.41-.51-.61-.18-.22-.37-.42-.56-.63-.17-.19-.34-.37-.52-.54-.09-.09-.18-.19-.27-.28ZM62.58,37.08c-.18.18-.35.36-.52.55-.19.2-.37.41-.56.63-.17.2-.34.4-.51.61-.18.22-.36.45-.53.68-.17.22-.33.45-.49.68-.17.24-.34.49-.5.74-.16.24-.32.49-.48.75-.16.26-.32.52-.47.79-.15.26-.31.53-.46.81-.15.28-.3.56-.45.85-.15.28-.29.57-.43.86-.14.3-.28.6-.42.91-.14.3-.27.6-.4.91-.14.32-.27.65-.4.98-.12.31-.25.63-.37.95-.04.11-.09.22-.13.33-.42-.12-.85-.24-1.27-.37-.22-.07-.45-.14-.67-.21-.9-.29-1.78-.61-2.66-.94-.18-.07-.35-.14-.52-.21-.71-.28-1.41-.58-2.1-.89-.25-.11-.5-.22-.74-.34-.21-.1-.41-.2-.62-.31,4.48-4.35,10-7.45,15.97-9.04-.09.09-.18.19-.27.28ZM44.71,48.14c.43.22.88.42,1.31.62.26.12.52.25.78.37.91.41,1.83.8,2.77,1.17.15.06.31.11.46.17.8.3,1.6.59,2.42.86.32.1.64.2.95.3.37.12.73.24,1.11.35-.05.17-.1.35-.15.53-.09.3-.17.59-.25.89-.13.49-.26.98-.38,1.48-.07.3-.15.6-.22.91-.12.53-.23,1.06-.34,1.59-.06.28-.12.56-.17.85-.12.66-.24,1.32-.34,1.99-.03.17-.06.33-.08.5-.13.84-.24,1.68-.33,2.53-.03.25-.05.5-.07.74-.06.61-.12,1.23-.17,1.84-.03.33-.04.66-.07.99-.04.55-.07,1.1-.09,1.65-.02.35-.03.7-.04,1.06,0,.25-.02.51-.03.76h-15.83c.33-8.18,3.41-15.95,8.76-22.15ZM51.79,73.29c0,.26.02.51.03.76.01.35.02.71.04,1.06.02.55.06,1.1.09,1.65.02.33.04.66.07.99.05.62.11,1.23.17,1.84.03.25.05.5.07.74.1.85.21,1.7.33,2.53.03.17.06.33.08.5.11.67.22,1.33.34,1.99.05.29.11.56.17.85.11.53.22,1.07.34,1.59.07.31.14.61.22.91.12.5.25.99.38,1.48.08.3.16.6.25.89.05.17.1.35.15.53-.37.11-.74.23-1.1.35-.32.1-.64.2-.95.3-.82.27-1.63.56-2.42.86-.15.06-.3.11-.45.16-.94.37-1.86.76-2.77,1.17-.26.12-.52.25-.77.37-.44.21-.88.41-1.32.63-5.35-6.2-8.43-13.97-8.76-22.15h15.83ZM62.85,106.78c-5.97-1.59-11.49-4.69-15.97-9.04.21-.1.4-.21.61-.3.25-.12.5-.23.75-.34.69-.31,1.39-.6,2.09-.88.18-.07.35-.15.53-.21.87-.34,1.76-.65,2.66-.94.22-.07.44-.14.67-.21.42-.13.85-.25,1.27-.37.04.11.09.22.13.33.12.32.25.64.37.96.13.33.26.66.4.97.13.31.27.61.4.91.14.31.28.61.42.91.14.29.29.58.43.86.15.29.29.57.45.85.15.28.3.54.46.81.15.27.31.53.47.79.16.26.32.51.48.75.16.25.33.49.49.73.17.24.33.47.5.69.17.23.34.45.52.67.17.21.34.42.52.63.18.21.36.41.54.61.18.19.36.38.54.56.09.09.17.19.26.27ZM81.67,106.5c.17-.18.35-.36.52-.54.19-.2.38-.41.56-.63.17-.2.34-.4.5-.61.18-.22.36-.45.53-.69.17-.22.33-.45.49-.68.17-.24.34-.49.5-.74.16-.24.32-.49.47-.74.16-.26.32-.53.47-.8.15-.26.31-.53.46-.81.15-.28.3-.56.45-.85.15-.28.29-.57.43-.86.14-.3.28-.6.42-.91.14-.3.27-.6.4-.91.14-.32.27-.65.4-.97.13-.32.25-.63.37-.96.04-.11.09-.21.13-.33.43.12.86.24,1.28.37.22.07.44.13.66.2.9.29,1.79.61,2.66.95.18.07.35.14.52.21.71.28,1.41.58,2.1.89.25.11.5.23.75.34.21.1.41.2.61.3-4.48,4.35-10,7.45-15.97,9.04.09-.09.18-.19.27-.28ZM99.53,95.44c-.44-.22-.89-.42-1.33-.63-.25-.12-.5-.24-.76-.36-.91-.41-1.84-.81-2.78-1.17-.14-.06-.29-.1-.43-.16-.81-.31-1.62-.6-2.45-.87-.31-.1-.63-.2-.95-.3-.37-.12-.74-.24-1.11-.35.05-.17.1-.35.15-.52.09-.3.17-.6.25-.91.13-.48.26-.97.38-1.46.08-.31.15-.61.22-.92.12-.52.23-1.05.34-1.58.06-.29.12-.57.17-.86.12-.65.23-1.31.34-1.97.03-.17.06-.34.09-.52.13-.84.24-1.68.33-2.53.03-.24.05-.49.07-.73.06-.62.12-1.23.17-1.85.03-.32.04-.65.07-.98.04-.55.07-1.1.09-1.66.02-.35.03-.7.04-1.05,0-.26.02-.51.03-.77h15.83c-.33,8.18-3.41,15.95-8.76,22.15Z" />
    <text class="uuid-f5e1976c-e78f-4ec3-a58c-bdfa765635e8" transform="translate(57.31 26.55) rotate(-13.17)">
      <tspan x="0" y="0">P</tspan>
    </text><text class="uuid-f5e1976c-e78f-4ec3-a58c-bdfa765635e8" transform="translate(66.6 24.49) rotate(-1.63)">
      <tspan x="0" y="0">R</tspan>
    </text><text class="uuid-f5e1976c-e78f-4ec3-a58c-bdfa765635e8" transform="translate(76.27 24.29) rotate(10.82)">
      <tspan x="0" y="0">O</tspan>
    </text><text class="uuid-f5e1976c-e78f-4ec3-a58c-bdfa765635e8" transform="translate(86.89 26.51) rotate(23.35)">
      <tspan x="0" y="0">G</tspan>
    </text><text class="uuid-f5e1976c-e78f-4ec3-a58c-bdfa765635e8" transform="translate(96.01 30.62) rotate(35.15)">
      <tspan x="0" y="0">R</tspan>
    </text><text class="uuid-f5e1976c-e78f-4ec3-a58c-bdfa765635e8" transform="translate(103.85 36.27) rotate(47.13)">
      <tspan x="0" y="0">A</tspan>
    </text><text class="uuid-f5e1976c-e78f-4ec3-a58c-bdfa765635e8" transform="translate(110.74 43.74) rotate(60.59)">
      <tspan x="0" y="0">M</tspan>
    </text><text class="uuid-f5e1976c-e78f-4ec3-a58c-bdfa765635e8" transform="translate(116.41 54.34) rotate(73.85)">
      <tspan x="0" y="0">A</tspan>
    </text><text class="uuid-f5e1976c-e78f-4ec3-a58c-bdfa765635e8" transform="translate(119.06 64.05) rotate(85.6)">
      <tspan x="0" y="0">C</tspan>
    </text><text class="uuid-f5e1976c-e78f-4ec3-a58c-bdfa765635e8" transform="translate(119.52 73.66) rotate(94.64)">
      <tspan x="0" y="0">I</tspan>
    </text><text class="uuid-f5e1976c-e78f-4ec3-a58c-bdfa765635e8" transform="translate(119.22 78.89) rotate(104.43)">
      <tspan x="0" y="0">O</tspan>
    </text><text class="uuid-f5e1976c-e78f-4ec3-a58c-bdfa765635e8" transform="translate(116.36 89.33) rotate(117.15)">
      <tspan x="0" y="0">N</tspan>
    </text><text class="uuid-f5e1976c-e78f-4ec3-a58c-bdfa765635e8" transform="translate(111.28 98.5) rotate(126.26)">
      <tspan x="0" y="0"> </tspan>
    </text><text class="uuid-f5e1976c-e78f-4ec3-a58c-bdfa765635e8" transform="translate(108.83 102.47) rotate(137.91)">
      <tspan x="0" y="0">W</tspan>
    </text><text class="uuid-f5e1976c-e78f-4ec3-a58c-bdfa765635e8" transform="translate(97.81 111.77) rotate(151.94)">
      <tspan x="0" y="0">E</tspan>
    </text><text class="uuid-f5e1976c-e78f-4ec3-a58c-bdfa765635e8" transform="translate(89.92 115.89) rotate(163.25)">
      <tspan x="0" y="0">B</tspan>
    </text><text class="uuid-f5e1976c-e78f-4ec3-a58c-bdfa765635e8" transform="translate(80.18 118.49) rotate(172.13)">
      <tspan x="0" y="0"> </tspan>
    </text><text class="uuid-f5e1976c-e78f-4ec3-a58c-bdfa765635e8" transform="translate(75.46 119.09) rotate(178.54)">
      <tspan x="0" y="0">•</tspan>
    </text><text class="uuid-f5e1976c-e78f-4ec3-a58c-bdfa765635e8" transform="translate(69.65 119.13) rotate(-175.01)">
      <tspan x="0" y="0"> </tspan>
    </text><text class="uuid-f5e1976c-e78f-4ec3-a58c-bdfa765635e8" transform="translate(64.89 118.64) rotate(-169.2)">
      <tspan x="0" y="0"> </tspan>
    </text><text class="uuid-f5e1976c-e78f-4ec3-a58c-bdfa765635e8" transform="translate(60.27 117.89) rotate(-159.94)">
      <tspan x="0" y="0">D</tspan>
    </text><text class="uuid-f5e1976c-e78f-4ec3-a58c-bdfa765635e8" transform="translate(50.35 113.9) rotate(-150.39)">
      <tspan x="0" y="0">I</tspan>
    </text><text class="uuid-f5e1976c-e78f-4ec3-a58c-bdfa765635e8" transform="translate(45.78 111.33) rotate(-142)">
      <tspan x="0" y="0">S</tspan>
    </text><text class="uuid-f5e1976c-e78f-4ec3-a58c-bdfa765635e8" transform="translate(39.04 105.93) rotate(-131.39)">
      <tspan x="0" y="0">E</tspan>
    </text><text class="uuid-f5e1976c-e78f-4ec3-a58c-bdfa765635e8" transform="translate(33.19 99.19) rotate(-119.63)">
      <tspan x="0" y="0">Ñ</tspan>
    </text><text class="uuid-f5e1976c-e78f-4ec3-a58c-bdfa765635e8" transform="translate(28.16 90.12) rotate(-106.94)">
      <tspan x="0" y="0">O</tspan>
    </text><text class="uuid-f5e1976c-e78f-4ec3-a58c-bdfa765635e8" transform="translate(25.33 79.55) rotate(-97.54)">
      <tspan x="0" y="0"> </tspan>
    </text><text class="uuid-f5e1976c-e78f-4ec3-a58c-bdfa765635e8" transform="translate(24.6 74.91) rotate(-88.44)">
      <tspan x="0" y="0">U</tspan>
    </text><text class="uuid-f5e1976c-e78f-4ec3-a58c-bdfa765635e8" transform="translate(25.03 64.87) rotate(-76.61)">
      <tspan x="0" y="0">X</tspan>
    </text><text class="uuid-f5e1976c-e78f-4ec3-a58c-bdfa765635e8" transform="translate(27.58 55.38) rotate(-66.95)">
      <tspan x="0" y="0">/</tspan>
    </text><text class="uuid-f5e1976c-e78f-4ec3-a58c-bdfa765635e8" transform="translate(29.9 49.77) rotate(-57.17)">
      <tspan x="0" y="0">U</tspan>
    </text><text class="uuid-f5e1976c-e78f-4ec3-a58c-bdfa765635e8" transform="translate(35.72 41.32) rotate(-47.83)">
      <tspan x="0" y="0">I</tspan>
    </text><text class="uuid-f5e1976c-e78f-4ec3-a58c-bdfa765635e8" transform="translate(39.35 37.46) rotate(-41.74)">
      <tspan x="0" y="0"> </tspan>
    </text><text class="uuid-f5e1976c-e78f-4ec3-a58c-bdfa765635e8" transform="translate(42.94 34.33) rotate(-35.3)">
      <tspan x="0" y="0">•</tspan>
    </text><text class="uuid-f5e1976c-e78f-4ec3-a58c-bdfa765635e8" transform="translate(47.74 31.07) rotate(-28.87)">
      <tspan x="0" y="0"> </tspan>
    </text><text class="uuid-f5e1976c-e78f-4ec3-a58c-bdfa765635e8" transform="translate(51.96 28.83) rotate(-23.1)">
      <tspan x="0" y="0"> </tspan>
    </text>
  </g>
</svg>