<?xml version="1.0" encoding="UTF-8"?>
<svg id="uuid-bc24b493-f1e8-417c-8e91-3801472fb82a" xmlns="http://www.w3.org/2000/svg"
  xmlns:xlink="http://www.w3.org/1999/xlink" viewBox="0 0 133.38 135.07">
  <defs>
    <style>
      .uuid-a5fd0007-666c-4dae-9a7d-7b6ed63e5375 {
        fill: url(#uuid-d1a04a73-ea1e-4f61-9f8b-11c61a5b0fe9);
      }

      .uuid-4d5676a3-75e1-4ad2-9d7e-733daac17481 {
        fill: #fff;
      }

      .uuid-c462a170-a4dd-416f-9798-b5b05859ac72 {
        fill: #171717;
      }

      .uuid-d0c2ed73-438b-46ef-afc0-79cd3f5ffe00 {
        filter: url(#uuid-7bc89c19-f25d-410b-94e4-124bb496b4e2);
      }
    </style>
    <filter id="uuid-7bc89c19-f25d-410b-94e4-124bb496b4e2" x="-30.36" y="-27.5" width="206" height="208"
      filterUnits="userSpaceOnUse">
      <feOffset dx="6" dy="9" />
      <feGaussianBlur result="uuid-e35bd1b2-215b-495b-b221-464fc05363cd" stdDeviation="12" />
      <feFlood flood-color="#000" flood-opacity=".47" />
      <feComposite in2="uuid-e35bd1b2-215b-495b-b221-464fc05363cd" operator="in" />
      <feComposite in="SourceGraphic" />
    </filter>
    <linearGradient id="uuid-d1a04a73-ea1e-4f61-9f8b-11c61a5b0fe9" x1="16.75" y1="34.18" x2="131.41" y2="109.88"
      gradientUnits="userSpaceOnUse">
      <stop offset="0" stop-color="#96eeff" />
      <stop offset=".29" stop-color="#ef00ff" />
      <stop offset=".62" stop-color="#ff008e" />
      <stop offset=".84" stop-color="#6ebdf0" />
      <stop offset="1" stop-color="aqua" />
    </linearGradient>
  </defs>
  <g id="uuid-577f13fe-5f87-40ea-bea5-76e3e04146b5">
    <g class="uuid-d0c2ed73-438b-46ef-afc0-79cd3f5ffe00">
      <path
        d="M65.4,134.7c-2.62,0-5.08-.97-6.97-2.74-.49-.06-.97-.15-1.44-.27-.25.02-.5.03-.75.03-1.2,0-2.39-.21-3.5-.62-1.22.48-2.48.73-3.77.73-3.79,0-7.24-2.06-9.02-5.38-.44-.83-.77-1.72-.97-2.65-1.16-.58-2.3-1.19-3.42-1.84-1.13-.65-2.24-1.34-3.33-2.06-.88.28-1.81.45-2.73.48-.1,0-.25,0-.35,0-5.17,0-9.53-3.9-10.14-8.97l-.16-.17c-.28-.32-.54-.65-.78-.99-1.15-.84-2.12-1.93-2.83-3.16-4.93-1.58-7.97-6.82-6.79-11.95.2-.87.5-1.71.91-2.48-.52-1.19-1.01-2.4-1.45-3.61-.44-1.23-.85-2.48-1.22-3.73-.82-.33-1.6-.77-2.3-1.31-4.23-3.19-5.25-9.26-2.36-13.69,0-.1,0-.21-.01-.31-.01-.4,0-.8.04-1.2-.33-1.38-.38-2.82-.13-4.22-2.75-4.44-1.7-10.39,2.48-13.53.7-.53,1.47-.96,2.28-1.3.36-1.25.77-2.49,1.21-3.7.45-1.22.94-2.44,1.46-3.64-.41-.78-.72-1.61-.92-2.49-1.19-5.17,1.94-10.47,7.01-12,.29-.39.62-.76.96-1.11.63-1.28,1.53-2.43,2.62-3.35.7-4.97,5.01-8.78,10.11-8.78h.31c.94.04,1.87.2,2.76.49,1.08-.72,2.19-1.41,3.32-2.06,1.13-.65,2.28-1.27,3.43-1.85.2-.93.52-1.82.97-2.65,1.78-3.32,5.23-5.38,9.02-5.38,1.38,0,2.72.27,3.98.81.48-.11.96-.19,1.46-.23.76-.34,1.57-.59,2.4-.74.12-.02.23-.04.34-.05.45-.06.92-.09,1.38-.09.03,0,.05,0,.08,0,1.86-1.66,4.26-2.58,6.8-2.58s4.94.92,6.8,2.59c.7.62,1.31,1.35,1.81,2.15,1.29.15,2.58.33,3.85.55,1.28.22,2.56.49,3.82.79.75-.59,1.58-1.07,2.47-1.42,1.19-.47,2.45-.72,3.75-.72,3.85,0,7.4,2.18,9.13,5.58.45.23.89.49,1.3.78.8.23,1.56.55,2.28.97.1.06.2.12.3.18.41.26.81.55,1.17.86.1,0,.2,0,.3,0,5.03,0,9.37,3.75,10.11,8.71,0,.04.01.08.02.12.12.9.12,1.83-.01,2.73.89.94,1.76,1.9,2.58,2.88.83.98,1.65,2.01,2.43,3.07.91.03,1.8.19,2.67.46,2.48.79,4.55,2.48,5.82,4.76l.14.25c1.13,2.18,1.43,4.65.89,7.01,0,0,0,.01,0,.02.2.46.36.93.48,1.42.79,1.19,1.33,2.54,1.58,3.95,1.89,1.48,3.19,3.56,3.7,5.92l.05.26c.46,2.55-.04,5.14-1.42,7.31-.49.77-1.08,1.47-1.76,2.08.08,1.29.12,2.58.13,3.87,0,1.3-.05,2.61-.13,3.91.67.61,1.27,1.31,1.76,2.08,1.38,2.17,1.88,4.77,1.42,7.31l-.05.27c-.52,2.42-1.88,4.55-3.85,6.03,0,0,0,.01,0,.02-.15.48-.33.95-.54,1.4-.16,1.42-.61,2.8-1.33,4.03.49,2.31.17,4.71-.92,6.82-.04.08-.09.17-.14.26-1.27,2.27-3.33,3.95-5.81,4.74-.88.28-1.78.43-2.69.47-.79,1.07-1.61,2.11-2.45,3.1-.82.97-1.68,1.93-2.56,2.85.13.91.13,1.83.01,2.73,0,0-.01.09-.01.1-.73,4.99-5.08,8.74-10.11,8.74-.18,0-.37,0-.56-.02-.41.27-.83.5-1.27.71-1.04,1-2.28,1.78-3.63,2.28-1.73,3.28-5.23,5.39-9.03,5.39-1.29,0-2.55-.24-3.75-.72-.88-.35-1.71-.83-2.46-1.42-1.26.3-2.54.57-3.82.79-1.27.22-2.56.41-3.85.55-.5.8-1.11,1.53-1.82,2.16-1.86,1.66-4.27,2.58-6.79,2.58Z" />
      <path class="uuid-4d5676a3-75e1-4ad2-9d7e-733daac17481"
        d="M65.4,135.07c-2.66,0-5.19-.98-7.14-2.76-.45-.06-.89-.14-1.31-.25-1.43.09-2.86-.1-4.21-.57-1.22.46-2.49.7-3.77.7-3.92,0-7.51-2.14-9.35-5.58-.43-.81-.76-1.67-.96-2.57-1.11-.56-2.22-1.15-3.29-1.77-1.09-.63-2.16-1.29-3.2-1.97-.87.26-1.76.41-2.66.44-.1,0-.26,0-.36,0-5.32,0-9.81-3.94-10.5-9.17l-.08-.08c-.28-.32-.54-.64-.78-.98-1.12-.83-2.09-1.91-2.81-3.12-5.08-1.7-8.11-7.09-6.91-12.34.19-.84.48-1.65.86-2.41-.5-1.15-.96-2.31-1.39-3.47-.42-1.18-.82-2.38-1.17-3.58-.79-.34-1.54-.77-2.21-1.28-4.37-3.29-5.46-9.46-2.51-14.09,0-.07,0-.13,0-.2,0-.38,0-.78.04-1.18-.32-1.35-.37-2.79-.15-4.17-2.77-4.61-1.62-10.7,2.64-13.91.67-.51,1.41-.94,2.2-1.27.36-1.21.75-2.4,1.16-3.55.42-1.16.89-2.34,1.4-3.5-.39-.76-.68-1.58-.87-2.43-1.23-5.34,1.91-10.76,7.15-12.41.27-.35.57-.69.88-1,.62-1.25,1.51-2.4,2.58-3.32.79-5.12,5.26-8.96,10.46-8.96h.32c.92.04,1.82.19,2.7.45,1.04-.69,2.12-1.35,3.19-1.97,1.08-.62,2.19-1.22,3.29-1.78.21-.9.53-1.77.97-2.57,1.84-3.44,5.43-5.58,9.35-5.58,1.39,0,2.74.27,4.02.8.43-.1.88-.17,1.33-.21.77-.34,1.59-.59,2.43-.74.12-.02.24-.04.35-.06.45-.06.91-.09,1.37-.1,1.91-1.66,4.37-2.58,6.94-2.58s5.12.95,7.05,2.68c.68.61,1.28,1.3,1.78,2.07,1.23.14,2.47.32,3.69.54,1.22.21,2.45.47,3.67.76.75-.56,1.56-1.02,2.42-1.36,1.24-.49,2.54-.74,3.88-.74,3.92,0,7.59,2.22,9.4,5.67.41.21.81.45,1.19.71.8.24,1.58.57,2.31.99.1.06.21.12.31.19.39.24.76.51,1.11.8h.17c5.21,0,9.72,3.88,10.48,9.03,0,.04.01.09.02.14.12.86.12,1.75.01,2.64.86.91,1.69,1.84,2.47,2.77.8.94,1.59,1.93,2.34,2.95.88.05,1.75.21,2.59.47,2.57.82,4.72,2.57,6.04,4.93l.14.25c1.14,2.22,1.48,4.75.95,7.16.18.44.33.87.45,1.31.77,1.17,1.31,2.51,1.58,3.9,1.89,1.52,3.21,3.66,3.72,6.04l.05.27c.48,2.64-.04,5.34-1.47,7.59-.47.74-1.04,1.43-1.69,2.04.08,1.25.11,2.5.12,3.72,0,1.24-.04,2.5-.12,3.75.65.61,1.21,1.29,1.69,2.03,1.43,2.25,1.95,4.94,1.48,7.58l-.06.27c-.53,2.47-1.91,4.66-3.89,6.19-.13.43-.3.87-.5,1.29-.16,1.39-.61,2.77-1.3,3.99.46,2.34.11,4.8-.99,6.93-.04.08-.09.18-.15.28-1.31,2.35-3.45,4.09-6.02,4.91-.85.27-1.73.43-2.61.48-.76,1.02-1.55,2.02-2.36,2.98-.78.93-1.61,1.85-2.45,2.74.11.89.11,1.78-.01,2.66l-.38.04.37.05c-.78,5.31-5.5,9.29-10.94,9.05-.37.24-.76.45-1.15.64-1.02.98-2.26,1.76-3.58,2.26-1.82,3.33-5.45,5.47-9.3,5.47-1.34,0-2.65-.25-3.89-.74-.85-.34-1.66-.8-2.41-1.36-1.21.29-2.45.54-3.66.75-1.2.21-2.45.39-3.7.54-.5.78-1.1,1.48-1.79,2.08-1.93,1.73-4.43,2.68-7.04,2.68ZM56.98,131.31s.07,0,.1.01c.45.12.92.21,1.39.26.08,0,.15.04.21.1,1.82,1.7,4.2,2.64,6.72,2.64s4.75-.88,6.54-2.49c.67-.6,1.26-1.3,1.75-2.08.06-.1.16-.16.28-.17,1.3-.15,2.59-.33,3.83-.55,1.26-.22,2.54-.49,3.79-.79.11-.03.23,0,.32.07.73.57,1.52,1.03,2.37,1.36,1.15.46,2.37.69,3.61.69,3.62,0,7.04-2.04,8.7-5.19.04-.08.12-.15.2-.18,1.29-.47,2.5-1.23,3.5-2.19.03-.03.06-.05.1-.07.42-.2.83-.43,1.22-.68.07-.04.15-.07.23-.06,5.11.29,9.54-3.43,10.28-8.41.13-.95.12-1.84,0-2.72-.02-.11.02-.23.1-.31.87-.92,1.73-1.87,2.54-2.84.84-.99,1.66-2.02,2.44-3.08.07-.09.17-.15.29-.15.87-.03,1.74-.18,2.59-.45,2.39-.76,4.37-2.38,5.59-4.57.05-.09.1-.18.13-.25,1.05-2.03,1.36-4.36.89-6.58-.02-.09,0-.19.04-.27.69-1.19,1.13-2.53,1.28-3.89,0-.04.02-.08.03-.12.21-.44.38-.89.52-1.34.03-.06.09-.17.14-.21,1.89-1.42,3.21-3.49,3.7-5.81l.05-.26c.44-2.44-.04-4.94-1.37-7.03-.47-.74-1.04-1.41-1.69-2-.08-.08-.13-.19-.12-.3.08-1.3.12-2.6.12-3.88,0-1.26-.04-2.55-.12-3.85,0-.11.04-.22.12-.3.66-.59,1.22-1.27,1.69-2.01,1.33-2.09,1.81-4.59,1.37-7.04l-.05-.25c-.48-2.25-1.74-4.27-3.56-5.69-.07-.06-.12-.14-.14-.23-.24-1.36-.76-2.67-1.52-3.8-.02-.04-.04-.07-.05-.11-.12-.47-.28-.92-.46-1.36-.03-.07-.05-.17-.03-.25.53-2.27.22-4.67-.85-6.76l-.13-.24c-1.22-2.19-3.22-3.82-5.61-4.58-.84-.27-1.7-.42-2.58-.45-.11,0-.22-.06-.29-.15-.78-1.06-1.59-2.08-2.42-3.05-.81-.96-1.67-1.93-2.57-2.86-.08-.08-.12-.2-.1-.31.12-.88.13-1.77.01-2.63v-.11c-.72-4.79-4.91-8.4-9.75-8.4h-.29c-.09,0-.18-.02-.25-.09-.36-.3-.74-.58-1.13-.83-.09-.06-.19-.12-.29-.17-.69-.4-1.43-.71-2.2-.93-.04-.01-.08-.03-.11-.05-.4-.28-.82-.53-1.25-.75-.07-.04-.13-.09-.17-.17-1.66-3.26-5.11-5.37-8.79-5.37-1.24,0-2.46.23-3.61.69-.85.34-1.65.8-2.37,1.36-.09.07-.21.1-.32.07-1.26-.3-2.54-.57-3.8-.79-1.26-.22-2.55-.41-3.83-.55-.11-.01-.21-.08-.28-.17-.48-.77-1.07-1.47-1.74-2.07-1.8-1.61-4.12-2.49-6.55-2.49s-4.76.88-6.55,2.48c-.07.06-.19.08-.26.1h-.01c-.51,0-.96.03-1.39.09-.11.01-.21.03-.33.05-.8.14-1.57.38-2.31.71-.04.02-.08.03-.12.03-.48.04-.95.12-1.4.22-.08.02-.16.01-.23-.02-1.21-.52-2.5-.78-3.84-.78-3.65,0-6.98,1.98-8.69,5.18-.43.8-.74,1.66-.93,2.55-.02.11-.1.21-.2.26-1.14.57-2.29,1.19-3.41,1.83-1.12.64-2.23,1.33-3.3,2.05-.1.06-.21.08-.32.04-.86-.28-1.76-.43-2.66-.47h-.3c-4.87,0-9.06,3.63-9.74,8.45-.01.09-.06.18-.13.23-1.05.88-1.92,2-2.52,3.22-.02.04-.04.07-.07.1-.33.33-.65.69-.93,1.06-.05.06-.12.11-.19.13-4.93,1.49-7.9,6.57-6.75,11.56.19.84.49,1.65.88,2.4.05.1.06.22.01.33-.53,1.2-1.02,2.42-1.45,3.62-.43,1.19-.83,2.42-1.2,3.67-.03.11-.11.2-.22.24-.79.32-1.53.74-2.2,1.25-3.99,3.01-5.04,8.74-2.38,13.04.05.08.07.17.05.26-.24,1.34-.19,2.74.13,4.06,0,.04.01.08,0,.12-.04.39-.05.78-.04,1.16,0,.1,0,.2.01.3,0,.08-.02.16-.06.23-2.81,4.31-1.82,10.1,2.27,13.19.68.51,1.42.94,2.21,1.26.11.04.19.13.22.24.36,1.24.77,2.49,1.21,3.71.44,1.2.92,2.4,1.44,3.59.05.1.04.22-.01.33-.4.75-.69,1.55-.88,2.39-1.13,4.92,1.74,9.98,6.54,11.51.09.03.16.09.21.17.68,1.19,1.63,2.24,2.73,3.05.03.02.06.05.09.09.23.33.48.65.75.95l.16.17c.05.06.09.13.1.21.59,4.92,4.79,8.64,9.77,8.64.09,0,.24,0,.33,0,.89-.03,1.77-.19,2.63-.46.11-.04.23-.02.32.04,1.07.71,2.18,1.4,3.31,2.05,1.11.64,2.25,1.25,3.41,1.83.1.05.17.15.2.26.19.89.5,1.75.93,2.55,1.71,3.2,5.05,5.18,8.69,5.18,1.24,0,2.46-.24,3.63-.7.09-.03.18-.03.27,0,1.31.48,2.7.67,4.09.57,0,0,.02,0,.03,0Z" />
      <path class="uuid-a5fd0007-666c-4dae-9a7d-7b6ed63e5375"
        d="M65.4,131.87c-1.97,0-3.82-.76-5.2-2.13-.18-.18-.36-.36-.53-.54-.02,0-.03,0-.05,0-.82,0-1.62-.13-2.37-.39-.33.05-.67.07-1.02.07-1.26,0-2.46-.32-3.51-.9-.21.11-.43.21-.65.31-1.01.46-2.04.69-3.1.69-2.74,0-5.24-1.49-6.53-3.89-.53-.99-.82-2.09-.85-3.19-1.56-.73-3.1-1.54-4.63-2.42-1.52-.88-3-1.82-4.42-2.81-.96.52-2.04.82-3.16.85-.07,0-.18,0-.25,0-3.85,0-7.08-2.99-7.36-6.81-.02-.21-.03-.42-.04-.64-.23-.19-.45-.4-.66-.62-.04-.04-.08-.09-.13-.14-.31-.35-.59-.72-.82-1.11-1.32-.84-2.34-2.08-2.91-3.54-.25-.06-.5-.13-.75-.19-3.77-.99-6.15-4.9-5.27-8.72.25-1.09.72-2.06,1.37-2.89-.74-1.58-1.41-3.19-2-4.81-.59-1.65-1.12-3.31-1.56-5-1.05-.22-2.04-.67-2.9-1.32-3.13-2.37-3.83-6.9-1.54-10.12.13-.19.27-.38.4-.57-.07-.37-.11-.74-.11-1.12-.01-.45.02-.9.09-1.34-.47-1.49-.45-3.09.04-4.57-.1-.14-.4-.55-.4-.55-2.31-3.26-1.61-7.79,1.52-10.15.86-.65,1.85-1.1,2.89-1.32.45-1.68.97-3.34,1.56-4.98.6-1.64,1.27-3.25,2.01-4.84-.65-.82-1.12-1.8-1.37-2.89-.88-3.82,1.5-7.73,5.32-8.74.23-.06.46-.12.7-.18.41-.71.93-1.34,1.54-1.88.6-1.45,1.65-2.68,2.98-3.5.01-.22.03-.43.04-.65.28-3.83,3.51-6.82,7.36-6.82.06,0,.16,0,.22,0,1.13.04,2.21.34,3.18.86,1.42-.99,2.89-1.93,4.41-2.81,1.52-.88,3.07-1.68,4.63-2.42.03-1.1.32-2.2.85-3.19,1.28-2.39,3.78-3.88,6.53-3.88,1.07,0,2.09.22,3.05.67.04.02.5.24.69.34.76-.29,1.58-.44,2.41-.46.67-.36,1.4-.61,2.17-.74.07-.01.15-.02.22-.04.33-.05.67-.07,1-.07.39,0,.77.03,1.15.09.18-.19.37-.38.56-.57,1.38-1.35,3.21-2.1,5.17-2.1,1.82,0,3.57.66,4.91,1.87.83.75,1.48,1.68,1.89,2.7,1.73.15,3.46.38,5.17.68,1.72.3,3.43.68,5.11,1.13.74-.83,1.67-1.49,2.72-1.91.86-.34,1.77-.52,2.7-.52,2.86,0,5.49,1.66,6.7,4.23.11.23.21.46.32.69.79.28,1.52.69,2.16,1.21.74.16,1.46.44,2.12.82.07.04.13.08.2.12.61.39,1.16.86,1.63,1.39.26-.03.52-.05.78-.07.2-.02.39-.02.59-.02,3.64,0,6.78,2.71,7.31,6.29,0,.03,0,.05.01.08.15,1.1.04,2.21-.31,3.24,1.23,1.23,2.4,2.5,3.52,3.83,1.11,1.31,2.18,2.69,3.2,4.15.34-.05.69-.07,1.04-.07.74,0,1.48.11,2.19.34,1.79.57,3.29,1.79,4.21,3.44.03.06.06.12.09.17.86,1.67,1.06,3.57.57,5.36,0,0-.13.48-.18.65.16.27.29.54.42.83.2.48.35.98.45,1.48.96,1.24,1.49,2.77,1.53,4.34.19.13.38.26.58.39,1.57,1.08,2.64,2.69,3.03,4.54.01.06.02.12.04.18.33,1.84-.03,3.72-1.02,5.28-.6.94-1.39,1.72-2.3,2.28.15,1.73.23,3.46.23,5.2,0,1.75-.08,3.49-.23,5.22.91.56,1.7,1.34,2.3,2.28.99,1.57,1.36,3.44,1.02,5.28-.01.06-.02.12-.04.18-.39,1.85-1.47,3.46-3.02,4.53-.19.13-.37.26-.56.38-.05.31-.12.61-.21.91-.15.5-.36.98-.61,1.43-.07,1.57-.64,3.08-1.61,4.3.06.22.12.44.19.67.5,1.8.3,3.7-.56,5.37-.03.06-.06.12-.09.17-.92,1.65-2.41,2.87-4.2,3.44-.72.23-1.45.34-2.19.34-.35,0-.7-.03-1.04-.08-1.02,1.46-2.09,2.85-3.21,4.17-1.11,1.32-2.28,2.59-3.5,3.81.34,1.03.45,2.14.31,3.24,0,.03,0,.05-.01.08-.53,3.59-3.67,6.3-7.31,6.3-.2,0-.39,0-.59-.02-.27-.02-.53-.04-.8-.07-.62.52-1.32.95-2.08,1.25-1.05,1.16-2.45,1.97-4,2.28-.11.24-.22.49-.34.74-1.19,2.53-3.82,4.19-6.68,4.19-.93,0-1.84-.17-2.7-.52-1.05-.42-1.98-1.08-2.71-1.91-1.68.45-3.38.82-5.1,1.12-1.71.3-3.44.53-5.18.68-.41,1.03-1.05,1.96-1.89,2.71-1.34,1.2-3.08,1.86-4.91,1.86Z" />
      <path class="uuid-c462a170-a4dd-416f-9798-b5b05859ac72"
        d="M122.25,77.91c-.86.64-1.76,1.23-2.66,1.79.92-3.99,1.38-8.08,1.39-12.17,0-4.09-.47-8.18-1.39-12.17.9.56,1.8,1.16,2.66,1.79.57.41,1.35.28,1.73-.32.19-.3.25-.67.19-1.01-.07-.34-.27-.65-.57-.86-.71-.49-1.41-.96-2.11-1.41-.72-.44-1.45-.87-2.17-1.27.34-.63.69-1.28.99-1.93.3-.63.03-1.43-.59-1.75-.62-.32-1.36-.03-1.66.6.32-.66.59-1.32.88-2.01.26-.65-.03-1.44-.69-1.7-.66-.27-1.37.06-1.62.7.33-.87.66-1.76.97-2.67.31-.91.56-1.82.83-2.77.1-.35.04-.71-.12-1.02-.17-.3-.45-.55-.79-.65-.69-.22-1.37.19-1.54.87-.25,1.04-.56,2.08-.89,3.09-1.87-3.64-4.11-7.09-6.76-10.21-2.64-3.13-5.62-5.96-8.88-8.43,1.04-.13,2.1-.24,3.19-.34.7-.05,1.21-.65,1.12-1.36-.1-.7-.79-1.24-1.5-1.18-.84.06-1.69.18-2.53.3-.84.12-1.65.24-2.47.4-.15-.7-.31-1.4-.49-2.11-.08-.34-.3-.63-.59-.81-.29-.17-.64-.23-.99-.15-.69.17-1.07.86-.89,1.52-.19-.7-.39-1.4-.61-2.12-.21-.67-.96-1.05-1.63-.84-.67.2-1.01.92-.8,1.57l-.46-1.35-.51-1.32c-.36-.88-.72-1.8-1.14-2.67-.3-.64-1.11-.96-1.78-.7-.66.26-.92,1.01-.62,1.65.46.99.9,1.95,1.31,2.93-3.77-1.6-7.72-2.75-11.75-3.46-4.03-.71-8.14-.96-12.22-.75.71-.77,1.45-1.53,2.23-2.3.5-.5.51-1.29-.02-1.76-.53-.47-1.4-.45-1.9.05-.6.59-1.18,1.24-1.75,1.86-.56.63-1.11,1.23-1.63,1.89-.56-.44-1.14-.87-1.73-1.31-.29-.21-.64-.29-.97-.24-.33.06-.64.24-.85.52-.42.57-.27,1.35.3,1.74-.59-.41-1.2-.82-1.83-1.23-.59-.39-1.41-.18-1.79.4-.38.59-.19,1.35.4,1.72-1.61-1.01-3.28-1.88-5.05-2.74-.65-.3-1.47-.02-1.81.61-.34.63-.06,1.37.59,1.66.99.46,1.94.9,2.88,1.4-3.92,1.18-7.68,2.85-11.23,4.89-3.54,2.05-6.86,4.48-9.84,7.29.02-1.08.12-2.12.22-3.2.07-.7-.43-1.31-1.15-1.34-.71-.02-1.38.54-1.43,1.26-.12,1.73-.21,3.38-.17,5.05-.72.02-1.45.05-2.18.1-.69.06-1.25.69-1.21,1.39.04.7.65,1.2,1.35,1.14-.73.05-1.46.14-2.18.24-.69.09-1.21.75-1.13,1.44.1.7.74,1.16,1.41,1.06-1.83.3-3.74.65-5.61,1.16-.69.18-1.17.91-1,1.62.16.71.84,1.09,1.52.9,1.02-.31,2.1-.54,3.12-.77-2.23,3.43-4.08,7.11-5.48,10.95-1.39,3.85-2.34,7.85-2.84,11.92-.63-.83-1.31-1.7-1.9-2.59-.39-.58-1.17-.73-1.74-.29-.59.44-.69,1.3-.27,1.89.5.7.99,1.38,1.51,2.04.53.66,1.06,1.31,1.6,1.93-.55.48-1.08.97-1.59,1.48-.5.49-.52,1.33-.05,1.84.48.51,1.27.5,1.76,0-.52.51-1,1.04-1.51,1.58-.47.52-.47,1.35.06,1.83.52.48,1.31.42,1.76-.1-1.22,1.4-2.45,2.9-3.56,4.49-.42.58-.32,1.45.27,1.89.57.44,1.35.3,1.74-.29.58-.89,1.26-1.76,1.9-2.59.49,4.06,1.45,8.07,2.84,11.91,1.4,3.84,3.26,7.52,5.48,10.95-1.02-.23-2.1-.46-3.12-.77-.67-.19-1.36.19-1.52.9-.17.71.31,1.44,1,1.62,1.64.44,3.31.78,4.93,1.05-.12.72-.19,1.43-.26,2.15-.07.7.44,1.37,1.15,1.44.71.07,1.3-.44,1.36-1.13-.05.72-.1,1.45-.14,2.18-.02.35.11.69.33.94.23.24.55.4.9.42.7.03,1.27-.52,1.28-1.21-.02.93-.04,1.9,0,2.85.03.95.09,1.91.16,2.89.05.72.72,1.28,1.43,1.26.72-.02,1.22-.64,1.15-1.34-.1-1.08-.2-2.12-.22-3.2,2.98,2.81,6.3,5.24,9.84,7.29,3.54,2.04,7.31,3.71,11.23,4.89-.94.5-1.89.94-2.88,1.4-.64.3-.92,1.03-.59,1.66.34.63,1.16.91,1.81.61.77-.36,1.54-.76,2.28-1.15.74-.39,1.46-.78,2.18-1.23.38.61.77,1.21,1.18,1.82.39.61,1.22.73,1.81.35.59-.39.71-1.17.31-1.74.42.59.85,1.2,1.3,1.78.43.55,1.26.65,1.82.23.56-.42.63-1.21.21-1.75.58.75,1.19,1.46,1.83,2.17.64.7,1.29,1.45,1.98,2.12.5.5,1.37.52,1.9.05.53-.47.52-1.26.02-1.76-.77-.77-1.52-1.53-2.23-2.3,4.08.21,8.19-.05,12.22-.75,4.03-.71,7.98-1.86,11.75-3.46-.4.97-.84,1.94-1.31,2.93-.3.64-.04,1.39.62,1.65.66.26,1.47-.06,1.78-.7.36-.76.69-1.57,1.01-2.35.31-.79.62-1.54.88-2.34.68.22,1.37.43,2.08.64.69.21,1.41-.22,1.61-.89.2-.68-.21-1.35-.88-1.53.7.18,1.42.37,2.14.53.68.14,1.39-.31,1.54-.99.16-.68-.29-1.33-.97-1.47.93.2,1.85.35,2.8.49.94.14,1.92.27,2.88.35.71.06,1.4-.48,1.5-1.18.1-.71-.42-1.31-1.12-1.36-1.09-.09-2.15-.21-3.19-.34,3.26-2.47,6.24-5.31,8.88-8.43,2.65-3.12,4.89-6.57,6.76-10.21.32,1.01.64,2.05.89,3.09.17.68.85,1.08,1.54.87.34-.11.62-.35.79-.65.16-.31.21-.68.12-1.02-.23-.83-.46-1.64-.72-2.43-.27-.81-.55-1.6-.84-2.37.68-.26,1.35-.54,2-.84.64-.29.95-1.07.68-1.71-.28-.65-1.03-.9-1.65-.61.66-.31,1.3-.64,1.96-.98.62-.33.91-1.11.56-1.75-.33-.63-1.09-.84-1.69-.51.82-.45,1.64-.92,2.47-1.42.81-.5,1.6-1.04,2.41-1.59.3-.2.5-.52.57-.86.06-.34,0-.71-.19-1.01-.39-.61-1.17-.74-1.73-.32ZM117.15,79.15c-.56-.87-1.13-1.7-1.76-2.52-.4-.53-1.18-.66-1.73-.32-.28.17-.45.42-.49.7-.06.27,0,.57.18.83.45.63.9,1.27,1.34,1.93.42.66.83,1.33,1.24,2.03-.62.32-1.22.63-1.86.91-.61.28-.84.95-.52,1.54.31.59,1.05.87,1.66.6-.63.29-1.31.55-1.95.81-.63.24-.87.91-.61,1.51.26.6.98.93,1.62.7-.87.32-1.73.61-2.58.88-.85.27-1.74.5-2.58.72-.31.08-.55.27-.68.52-.14.24-.17.54-.07.85.21.61.89,1.02,1.54.87,1-.22,1.97-.5,2.96-.79-1.78,3.47-3.92,6.77-6.45,9.74-2.52,2.98-5.37,5.69-8.48,8.05.12-1.04.21-2.06.27-3.06.03-.66-.48-1.26-1.12-1.36-.65-.11-1.19.31-1.23.97-.04.79-.13,1.55-.22,2.33-.1.78-.2,1.58-.34,2.37-.68-.16-1.36-.33-2.02-.5-.32-.09-.63-.03-.87.13-.25.15-.44.39-.52.72-.14.64.24,1.33.89,1.52-.68-.2-1.35-.4-2-.61-.63-.21-1.27.11-1.45.75-.18.64.16,1.35.8,1.57l-1.28-.46-1.26-.52c-.83-.36-1.63-.69-2.43-1.09-.59-.29-1.22-.04-1.45.57-.23.61.03,1.36.62,1.65.9.44,1.83.89,2.79,1.3-3.59,1.52-7.36,2.62-11.2,3.3-3.84.67-7.77.92-11.67.72.76-.72,1.48-1.45,2.18-2.18.45-.48.45-1.27.02-1.76-.43-.5-1.11-.52-1.56-.04-.54.58-1.1,1.09-1.67,1.64-.57.53-1.17,1.09-1.78,1.6-.42-.56-.83-1.12-1.22-1.68-.19-.27-.46-.42-.75-.46-.29-.05-.59.02-.86.22-.52.4-.67,1.18-.3,1.74-.39-.59-.77-1.18-1.14-1.76-.35-.56-1.04-.74-1.59-.36-.55.37-.75,1.14-.4,1.72-.94-1.55-1.75-3.2-2.48-4.78-.26-.6-.91-.82-1.48-.5-.57.32-.85,1.06-.59,1.66.4.92.83,1.87,1.3,2.79-3.74-1.13-7.33-2.72-10.7-4.67-3.38-1.95-6.55-4.28-9.39-6.96,1.02-.04,2.06-.15,3.07-.26.66-.08,1.16-.69,1.15-1.34,0-.66-.53-1.09-1.18-1.03-1.52.14-3.13.26-4.72.25.04-.7.07-1.38.13-2.06.07-.67-.4-1.21-1.07-1.23-.67-.02-1.28.47-1.35,1.14.06-.69.16-1.39.27-2.09.1-.66-.34-1.22-1.01-1.29-.65-.08-1.29.38-1.41,1.06.33-1.83.69-3.56,1.19-5.28.18-.63-.2-1.19-.82-1.33-.63-.13-1.32.26-1.52.9-.32.98-.54,1.95-.79,2.96-2.12-3.27-3.89-6.78-5.23-10.44-1.32-3.67-2.23-7.49-2.7-11.37.84.62,1.63,1.22,2.51,1.77.56.36,1.34.22,1.74-.29.39-.5.32-1.18-.22-1.55-.64-.44-1.3-.89-1.92-1.36-.62-.48-1.24-.97-1.86-1.48.46-.51.94-1.01,1.44-1.49.48-.47.46-1.18-.04-1.63-.49-.45-1.28-.46-1.76,0,.5-.49,1.04-.97,1.56-1.43.51-.44.5-1.16.05-1.64-.45-.48-1.24-.54-1.76-.1,1.42-1.19,2.81-2.29,4.3-3.28.54-.37.61-1.04.22-1.55-.4-.5-1.18-.65-1.74-.29-.88.55-1.66,1.15-2.51,1.77.47-3.87,1.38-7.69,2.7-11.36,1.34-3.67,3.11-7.17,5.23-10.45.25,1.02.47,1.98.78,2.97.2.64.88,1.03,1.52.9.62-.13,1-.7.82-1.33-.44-1.5-.78-3.03-1.07-4.61.68-.1,1.38-.16,2.06-.21.67-.05,1.09-.62,1.01-1.27-.08-.65-.68-1.17-1.36-1.13.71-.04,1.42-.07,2.11-.09.33,0,.61-.15.81-.37.2-.21.32-.51.29-.84-.04-.66-.61-1.21-1.28-1.21.92,0,1.81,0,2.72.05.91.05,1.8.12,2.67.2.64.06,1.17-.37,1.18-1.03,0-.65-.49-1.26-1.15-1.34-1-.11-2.04-.23-3.06-.27,2.84-2.68,6.01-5,9.39-6.95,3.38-1.95,6.97-3.54,10.71-4.67-.47.92-.9,1.87-1.3,2.79-.26.6.02,1.34.59,1.66.57.32,1.22.1,1.48-.5.32-.71.66-1.4,1.01-2.11.36-.71.73-1.42,1.13-2.1.59.38,1.16.77,1.72,1.16.54.36,1.24.26,1.6-.31.36-.56.23-1.34-.31-1.74.57.42,1.13.83,1.67,1.26.52.43,1.23.34,1.62-.21.39-.54.32-1.33-.2-1.75.71.56,1.39,1.18,2.05,1.79.66.62,1.3,1.21,1.91,1.86.45.48,1.14.46,1.56-.04.43-.5.43-1.29-.02-1.76-.69-.73-1.42-1.46-2.17-2.18,3.9-.2,7.82.05,11.66.72,3.84.68,7.61,1.78,11.21,3.3-.96.41-1.89.86-2.79,1.3-.59.29-.85,1.04-.62,1.65.23.62.86.86,1.45.57.7-.36,1.4-.65,2.13-.97.72-.3,1.48-.63,2.22-.88.2.67.39,1.34.57,1.99.18.62.79.99,1.42.79.63-.2,1.5,1.17,1.34.51.17.69-.14-.68,0,0,.13.66.73,1.05,1.38.88.65-.16,1.09-.81.97-1.47.18.88.3,1.8.42,2.69.11.89.22,1.76.27,2.66.04.65.58,1.08,1.23.97.64-.1,1.15-.7,1.12-1.36-.07-1-.16-2.02-.27-3.06,3.11,2.36,5.95,5.06,8.47,8.05,2.53,2.98,4.67,6.27,6.45,9.75-.99-.3-1.96-.58-2.97-.8-.65-.15-1.33.25-1.54.87-.11.31-.07.61.07.85.13.25.36.44.68.52.75.19,1.51.39,2.27.62.74.23,1.49.49,2.25.75-.26.64-.53,1.27-.84,1.89-.29.6-.03,1.26.6,1.51.61.25,1.36,0,1.65-.61-.31.63-.65,1.26-.98,1.87-.32.58-.07,1.26.5,1.55.59.29,1.35.08,1.69-.51-.46.8-.93,1.58-1.4,2.33-.49.76-1.01,1.5-1.52,2.21-.19.26-.24.56-.18.83.05.28.22.53.49.7.55.33,1.33.21,1.73-.32.63-.81,1.2-1.65,1.76-2.51.88,3.8,1.32,7.7,1.33,11.61,0,3.91-.45,7.81-1.33,11.61Z" />
      <polygon class="uuid-c462a170-a4dd-416f-9798-b5b05859ac72"
        points="67.36 38.94 73.53 43.11 69.37 36.94 72.82 36.27 69.37 35.6 73.53 29.43 67.36 33.59 66.69 30.14 66.02 33.59 59.85 29.43 64.01 35.6 60.56 36.27 64.01 36.94 59.85 43.11 66.02 38.94 66.69 42.4 67.36 38.94" />
      <path class="uuid-c462a170-a4dd-416f-9798-b5b05859ac72"
        d="M59.72,71.74c-1.85,0-3.43-.36-4.7-1.07-1.27-.71-2.18-1.71-2.73-3-.55-1.28-.67-2.78-.37-4.48.59-3.32,1.31-6.63,2.47-9.95h6.1c-1.4,3.28-2.24,6.56-2.83,9.84-.23,1.27-.11,2.21.31,2.82.43.6,1.11.9,2.02.9.85,0,1.51-.28,1.97-.84.46-.56.79-1.52,1.04-2.88.59-3.28,1.5-6.56,3-9.84h5.99c-1.53,3.4-2.49,6.8-3.1,10.2-.48,2.7-1.35,4.76-2.86,6.17-1.49,1.41-3.6,2.12-6.34,2.12Z" />
      <path class="uuid-c462a170-a4dd-416f-9798-b5b05859ac72"
        d="M71.93,71.33c.5-6.03,1.47-12.06,4.03-18.08h6.1c-2.08,6.03-3.28,12.06-3.94,18.08h-6.19Z" />
      <path class="uuid-c462a170-a4dd-416f-9798-b5b05859ac72"
        d="M54.86,96.3c-1.88,0-3.39-.36-4.63-1.07-1.24-.71-2.15-1.71-2.71-3-.56-1.28-.67-2.78-.28-4.48.74-3.32,1.45-6.63,2.04-9.95h6.27c-.41,3.28-.93,6.56-1.65,9.84-.28,1.28-.23,2.21.19,2.82.41.6,1.11.9,2.11.9.92,0,1.67-.28,2.23-.84.56-.56,1.03-1.52,1.33-2.88.71-3.28,1.12-6.56,1.43-9.84h6.04c-.26,3.4-.63,6.8-1.38,10.21-.59,2.7-1.98,4.76-3.9,6.17-1.93,1.41-4.31,2.12-7.07,2.12Z" />
      <path class="uuid-c462a170-a4dd-416f-9798-b5b05859ac72"
        d="M65.3,95.88c4.34-3.73,7.88-7.46,10.99-11.19-.21,1.18-.45,2.36-.73,3.54-1.68-3.48-3.78-6.96-6.02-10.44h6.46c1.26,2.14,2.46,4.29,3.54,6.43-.83.02-1.67.03-2.52.05,1.69-2.16,3.29-4.32,4.96-6.48h6.66c-3.07,3.5-5.72,7.01-8.78,10.51.08-1.15.14-2.29.17-3.44,2.01,3.67,3.59,7.34,5.26,11-2.18,0-4.36,0-6.54,0-.68-2.26-1.48-4.51-2.45-6.77.89.02,1.77.03,2.64.05-1.87,2.24-3.93,4.48-6.34,6.72-2.42,0-4.85,0-7.28,0Z" />
    </g>
  </g>
</svg>