<svg xmlns="http://www.w3.org/2000/svg" viewBox="0 0 170.89 122.7">
  <defs>
    <style>
      .uuid-cda1033a-f29d-46df-9525-ec29760f16f2 {
        fill: #fff;
      }

      .uuid-ac59cb67-a53f-4169-b329-dd1ffc152b51 {
        fill: url(#uuid-c6b1bf3c-965f-4711-a18f-eeb4853d0253);
      }

      .uuid-d0f55306-0627-4235-9fdb-8a52e4224832 {
        fill: #171717;
      }
    </style>
    <linearGradient id="uuid-c6b1bf3c-965f-4711-a18f-eeb4853d0253" x1="21.67" y1="99.38" x2="137.06" y2="22.21"
      gradientUnits="userSpaceOnUse">
      <stop offset="0" stop-color="#96eeff" />
      <stop offset=".29" stop-color="#ef00ff" />
      <stop offset=".62" stop-color="#ff008e" />
      <stop offset=".84" stop-color="#6ebdf0" />
      <stop offset="1" stop-color="aqua" />
    </linearGradient>
  </defs>
  <g id="uuid-80ec3d43-fb18-4276-92ac-cc56bc91ef67">
    <g>
      <path
        d="M119.63,122.33c-4.72,0-9.42-1.39-13.7-4.03-4.28,2.64-8.98,4.03-13.7,4.03s-9.41-1.39-13.7-4.03c-4.28,2.64-8.98,4.03-13.7,4.03s-9.42-1.39-13.7-4.03c-4.28,2.64-8.98,4.03-13.7,4.03-11.06,0-20.96-7.15-27.9-20.14C3.63,91.12.38,76.62.38,61.35S3.63,31.58,9.54,20.52C16.47,7.53,26.38.38,37.44.38c4.72,0,9.41,1.39,13.7,4.03C55.42,1.76,60.12.38,64.84.38s9.42,1.39,13.7,4.03c4.28-2.64,8.98-4.03,13.7-4.03s9.42,1.39,13.7,4.03c4.28-2.64,8.98-4.03,13.7-4.03,11.06,0,20.96,7.15,27.9,20.14,3.18,5.95,5.63,13.03,7.19,20.67l2.85-1.92c1.38-.93,2.98-1.42,4.64-1.42,2.22,0,4.3.86,5.87,2.43,2.8,2.8,3.23,7.22,1.01,10.51l-2.94,4.35c1.72,1.54,2.78,3.78,2.78,6.19s-1.06,4.65-2.78,6.19l2.94,4.35c2.22,3.29,1.79,7.71-1.01,10.51-1.57,1.57-3.65,2.43-5.87,2.43-1.66,0-3.26-.49-4.64-1.42l-2.85-1.92c-1.55,7.65-4.01,14.74-7.2,20.71-6.94,12.99-16.84,20.14-27.9,20.14Z" />
      <path class="uuid-cda1033a-f29d-46df-9525-ec29760f16f2"
        d="M119.63,122.7c-4.69,0-9.42-1.37-13.7-3.96-4.28,2.59-9.01,3.96-13.7,3.96s-9.42-1.37-13.7-3.96c-4.28,2.59-9.01,3.96-13.7,3.96s-9.42-1.37-13.7-3.96c-4.28,2.59-9.01,3.96-13.7,3.96-11.2,0-21.23-7.22-28.23-20.34C3.27,91.24,0,76.68,0,61.35S3.27,31.46,9.21,20.34C16.21,7.22,26.24,0,37.44,0c4.69,0,9.42,1.37,13.7,3.96,4.28-2.59,9.01-3.96,13.7-3.96s9.42,1.37,13.7,3.96c4.28-2.59,9.01-3.96,13.7-3.96s9.42,1.37,13.7,3.96c4.28-2.59,9.01-3.96,13.7-3.96,11.2,0,21.23,7.22,28.23,20.34,3.09,5.8,5.55,12.78,7.11,20.22l2.39-1.61c1.44-.97,3.12-1.48,4.85-1.48,2.32,0,4.5.9,6.14,2.54,2.93,2.93,3.37,7.55,1.06,10.99l-2.76,4.09c1.7,1.64,2.66,3.9,2.66,6.25s-.97,4.61-2.66,6.25l2.76,4.09c2.32,3.43,1.87,8.05-1.06,10.99-1.64,1.64-3.82,2.54-6.14,2.54-1.73,0-3.41-.51-4.85-1.48l-2.38-1.61c-1.56,7.46-4.02,14.46-7.12,20.26-7,13.12-17.03,20.34-28.23,20.34ZM105.93,117.93c.07,0,.14.02.2.06,4.21,2.6,8.88,3.97,13.5,3.97,10.91,0,20.7-7.08,27.57-19.94,3.14-5.88,5.62-13.01,7.16-20.61.02-.12.11-.23.23-.27.11-.05.25-.04.35.04l2.85,1.92c1.31.89,2.85,1.35,4.43,1.35,2.12,0,4.11-.82,5.6-2.32,2.68-2.68,3.08-6.9.97-10.03l-2.94-4.35c-.11-.16-.08-.36.06-.49,1.69-1.51,2.66-3.66,2.66-5.91s-.97-4.4-2.66-5.91c-.14-.12-.17-.33-.06-.49l2.94-4.35c2.12-3.14,1.71-7.36-.97-10.04-1.5-1.5-3.49-2.32-5.6-2.32-1.59,0-3.12.47-4.43,1.36l-2.85,1.92c-.11.07-.24.08-.35.04-.12-.05-.2-.15-.23-.27-1.54-7.58-4.01-14.69-7.15-20.57C140.33,7.83,130.54.75,119.63.75c-4.62,0-9.29,1.37-13.5,3.97-.12.07-.27.07-.39,0-4.21-2.6-8.88-3.97-13.5-3.97s-9.29,1.37-13.5,3.97c-.12.07-.27.07-.39,0-4.22-2.6-8.88-3.97-13.5-3.97s-9.29,1.37-13.5,3.97c-.12.07-.27.07-.39,0-4.21-2.6-8.88-3.97-13.5-3.97-10.91,0-20.7,7.08-27.57,19.94C3.99,31.71.75,46.15.75,61.35s3.24,29.64,9.12,40.66c6.87,12.86,16.66,19.94,27.57,19.94,4.62,0,9.29-1.37,13.5-3.97.12-.07.27-.07.39,0,4.21,2.6,8.88,3.97,13.5,3.97s9.29-1.37,13.5-3.97c.12-.07.27-.07.39,0,4.21,2.6,8.88,3.97,13.5,3.97s9.29-1.37,13.5-3.97c.06-.04.13-.06.2-.06Z" />
      <path class="uuid-ac59cb67-a53f-4169-b329-dd1ffc152b51"
        d="M119.63,119.49c-4.79,0-9.45-1.57-13.7-4.59-4.25,3.02-8.91,4.59-13.7,4.59s-9.45-1.57-13.7-4.59c-4.25,3.02-8.91,4.59-13.7,4.59s-9.45-1.57-13.7-4.59c-4.25,3.02-8.91,4.59-13.7,4.59-9.96,0-18.98-6.62-25.4-18.64-5.69-10.66-8.83-24.69-8.83-39.5s3.14-28.84,8.83-39.5C18.46,9.83,27.48,3.21,37.44,3.21c4.79,0,9.45,1.57,13.7,4.59,4.25-3.02,8.91-4.59,13.7-4.59s9.45,1.57,13.7,4.59c4.25-3.02,8.91-4.59,13.7-4.59s9.45,1.57,13.7,4.59c4.25-3.02,8.91-4.59,13.7-4.59,9.96,0,18.98,6.62,25.4,18.64,3.66,6.86,6.27,15.1,7.66,24.12l6.46-4.36c.93-.63,2-.93,3.06-.93,1.41,0,2.81.54,3.87,1.6,1.85,1.85,2.13,4.75.67,6.92l-4.63,6.87c2.34.65,3.99,2.8,3.99,5.26s-1.65,4.61-3.99,5.26l4.63,6.86c1.46,2.17,1.18,5.07-.67,6.92-1.06,1.06-2.46,1.6-3.87,1.6-1.06,0-2.12-.31-3.06-.93l-6.45-4.35c-1.39,9.03-4,17.29-7.67,24.16-6.42,12.02-15.44,18.64-25.4,18.64Z" />
      <path class="uuid-d0f55306-0627-4235-9fdb-8a52e4224832"
        d="M119.63,7.68c-4.97,0-9.62,2.11-13.7,5.84-4.08-3.73-8.73-5.84-13.7-5.84s-9.62,2.11-13.7,5.84c-4.08-3.73-8.73-5.84-13.7-5.84s-9.62,2.11-13.7,5.84c-4.08-3.73-8.73-5.84-13.7-5.84C20.75,7.68,7.68,31.26,7.68,61.35s13.07,53.67,29.76,53.67c4.97,0,9.62-2.11,13.7-5.84,4.08,3.74,8.73,5.84,13.7,5.84s9.62-2.11,13.7-5.84c4.08,3.74,8.73,5.84,13.7,5.84s9.62-2.11,13.7-5.84c4.08,3.74,8.73,5.84,13.7,5.84,16.69,0,29.76-23.58,29.76-53.67s-13.07-53.67-29.76-53.67ZM105.93,102.04c-6.77-8.87-11.34-23.96-11.34-40.69s4.56-31.83,11.34-40.69c6.77,8.87,11.34,23.96,11.34,40.69s-4.56,31.83-11.34,40.69ZM102.65,17.02c-4.59,5.67-8.22,13.61-10.42,23.01-2.2-9.4-5.83-17.35-10.42-23.01,3.19-2.95,6.73-4.62,10.42-4.62s7.23,1.67,10.42,4.62ZM78.54,102.04c-6.77-8.87-11.34-23.96-11.34-40.69s4.56-31.83,11.34-40.69c6.77,8.87,11.34,23.96,11.34,40.69s-4.56,31.83-11.34,40.69ZM75.25,17.02c-4.59,5.67-8.22,13.61-10.42,23.01-2.2-9.4-5.83-17.34-10.42-23.01,3.19-2.95,6.72-4.62,10.42-4.62s7.23,1.67,10.42,4.62ZM51.14,102.04c-6.77-8.87-11.34-23.96-11.34-40.69s4.56-31.83,11.34-40.69c6.77,8.87,11.34,23.96,11.34,40.69s-4.56,31.83-11.34,40.69ZM12.4,61.35c0-26.53,11.47-48.95,25.04-48.95,3.69,0,7.23,1.67,10.42,4.62-7.77,9.59-12.78,25.71-12.78,44.33s5.01,34.74,12.78,44.33c-3.19,2.95-6.73,4.62-10.42,4.62-13.57,0-25.04-22.42-25.04-48.95ZM54.42,105.68c4.59-5.67,8.22-13.61,10.42-23.01,2.2,9.4,5.83,17.34,10.42,23.01-3.19,2.95-6.72,4.62-10.42,4.62s-7.23-1.67-10.42-4.62ZM81.82,105.68c4.59-5.67,8.22-13.61,10.42-23.01,2.2,9.4,5.83,17.34,10.42,23.01-3.19,2.95-6.73,4.62-10.42,4.62s-7.23-1.67-10.42-4.62ZM119.63,110.3c-3.69,0-7.23-1.67-10.42-4.62,7.77-9.59,12.78-25.71,12.78-44.33s-5.01-34.74-12.78-44.33c3.19-2.95,6.73-4.62,10.42-4.62,13.57,0,25.04,22.42,25.04,48.95s-11.47,48.95-25.04,48.95Z" />
      <polygon class="uuid-d0f55306-0627-4235-9fdb-8a52e4224832"
        points="148.52 67.27 162.22 76.51 152.98 62.82 160.64 61.33 152.98 59.84 162.22 46.14 148.52 55.38 147.03 47.72 145.54 55.38 131.84 46.14 141.08 59.84 133.42 61.33 141.08 62.82 131.84 76.51 145.54 67.27 147.03 74.94 148.52 67.27" />
    </g>
  </g>
</svg>