<?xml version="1.0" encoding="UTF-8"?>
<svg id="uuid-4d524ebb-0be5-4e84-adff-0c977a4b0073" xmlns="http://www.w3.org/2000/svg"
  xmlns:xlink="http://www.w3.org/1999/xlink" viewBox="0 0 195.83 130.31">
  <defs>
    <style>
      .uuid-3ca49e81-dc92-4f08-bca4-b11808b6e2aa {
        fill: url(#uuid-dbf01ad1-9fac-47c5-875e-aec745f8542e);
      }

      .uuid-fa9b798c-f3c0-41f1-8297-880646b1bdad {
        filter: url(#uuid-0079bb8b-3a34-417e-aec2-f852efe67719);
      }

      .uuid-48a2402a-d676-4ee1-a97c-3ea741c95775 {
        fill: #fff;
      }
    </style>
    <filter id="uuid-0079bb8b-3a34-417e-aec2-f852efe67719" x="-30.22" y="-27.21" width="268.08" height="202.56"
      filterUnits="userSpaceOnUse">
      <feOffset dx="6" dy="9" />
      <feGaussianBlur result="uuid-d2d7fae7-002c-4d61-a0d5-6b6ecf1b4fc0" stdDeviation="12" />
      <feFlood flood-color="#000" flood-opacity=".47" />
      <feComposite in2="uuid-d2d7fae7-002c-4d61-a0d5-6b6ecf1b4fc0" operator="in" />
      <feComposite in="SourceGraphic" />
    </filter>
    <linearGradient id="uuid-dbf01ad1-9fac-47c5-875e-aec745f8542e" x1="40.65" y1="124.43" x2="139.14" y2="23"
      gradientUnits="userSpaceOnUse">
      <stop offset="0" stop-color="#96eeff" />
      <stop offset=".29" stop-color="#ef00ff" />
      <stop offset=".62" stop-color="#ff008e" />
      <stop offset=".84" stop-color="#6ebdf0" />
      <stop offset="1" stop-color="aqua" />
    </linearGradient>
  </defs>
  <g id="uuid-a546bbc2-4863-4b2c-b65b-38e35cb2a875">
    <g class="uuid-fa9b798c-f3c0-41f1-8297-880646b1bdad">
      <path
        d="M99.21,129.94c-.66,0-1.11,0-1.33,0-.15,0-.6,0-1.26,0-1.85,0-5.61-.04-10.12-.29-1.66-.09-3.92-.26-5.63-.41-1.13-.1-2.51-.25-3.79-.4,0,0-1.52-.17-1.52-.17-1.74-.19-3.92-.52-5.63-.79-1.11-.18-2.39-.41-3.62-.64l-1.45-.26c-1.21-.21-2.77-.55-4.65-.98l-.92-.22c-1.68-.4-3.86-.97-5.57-1.45-1.13-.32-2.44-.74-3.61-1.1l-1.09-.34c-2.04-.64-4.5-1.57-6.12-2.23-2.63-1.07-6.04-2.63-8.67-3.98-2.13-1.09-4.64-2.66-6.3-3.69-1.28-.8-3.2-2.09-4.72-3.32-1.87-1.5-4.5-3.71-6.48-5.68-1-1-2.42-2.47-3.51-3.84-.8-1-2-2.52-3.08-4.02-.73-1.02-1.33-1.92-1.82-2.76-.55-.94-2.47-4.26-3.79-7.35-.97-2.26-1.82-5.07-2.46-7.26-.73-2.51-1.09-5.38-1.38-7.69l-.08-.6c-.15-1.18-.18-2.34-.2-3.37l-.02-.61c0-.19-.02-.42-.02-.65,0-.45,0-.87.01-1.28l.05-1.15.02-.33c.06-1.31.17-2.58.33-3.78.05-.54.1-1.06.16-1.54.13-1.17.38-2.29.6-3.28.07-.32.13-.61.19-.87,0-.03.83-4,2.77-8.58.56-1.32,1.22-2.83,1.96-4.14.37-.66.8-1.39,1.25-2.14.65-1.24,1.42-2.48,2.3-3.68.2-.3.39-.59.58-.87,1.43-2.11,4.55-5.76,6.42-7.52.23-.21.47-.45.73-.7.76-.73,1.6-1.54,2.44-2.25,1.73-1.46,3.73-3.11,5.58-4.36l.48-.32c.82-.59,1.67-1.13,2.51-1.62,1.03-.65,2.11-1.31,3.16-1.93C45.39,6.79,67.3,1.32,92.03.48c.59-.02,1.2-.04,1.83-.06l1.62-.03c.48,0,1.41-.01,2.04-.02h.66c.65,0,1.67.01,2.16.02l1.63.03c.63.02,1.24.03,1.84.06,24.72.84,46.62,6.31,60.1,15.01,1.04.61,2.12,1.27,3.16,1.93.84.49,1.68,1.03,2.51,1.62l.47.31c1.85,1.25,3.85,2.91,5.59,4.37.84.71,1.68,1.52,2.42,2.23,0,0,.55.53.75.72,1.87,1.75,4.99,5.41,6.42,7.52.19.28.38.57.58.87.88,1.2,1.66,2.44,2.3,3.68.45.75.88,1.48,1.25,2.14.74,1.3,1.39,2.82,1.95,4.13,1.93,4.55,2.77,8.55,2.77,8.59.05.23.1.49.16.75l.02.11c.22,1,.47,2.12.6,3.29.05.48.11,1,.16,1.53.16,1.19.26,2.45.33,3.84,0,.09.02.21.02.32,0,.14.05,1.09.05,1.11,0,.41.01.78.01,1.14,0,.37-.01.6-.02.83v.54c-.04,1.04-.07,2.2-.22,3.38l-.08.59c-.29,2.32-.65,5.19-1.38,7.69-.64,2.19-1.5,5-2.46,7.26-1.32,3.1-3.24,6.41-3.79,7.35-.49.84-1.09,1.74-1.82,2.76-1.07,1.5-2.26,3-3.05,3.99-1.1,1.38-2.52,2.86-3.53,3.86-1.98,1.97-4.62,4.18-6.48,5.69-1.52,1.22-3.43,2.51-4.72,3.32-1.67,1.04-4.19,2.61-6.3,3.69-2.63,1.35-6.03,2.91-8.67,3.98-1.62.66-4.08,1.59-6.12,2.23l-1.05.33c-1.21.38-2.53.8-3.64,1.11-1.71.48-3.89,1.05-5.56,1.45l-.84.2c-1.93.45-3.52.79-4.73,1l-1.42.26c-1.25.23-2.56.47-3.66.64-1.7.27-3.88.6-5.63.79l-1.53.17c-1.28.14-2.66.3-3.79.4-1.71.15-3.97.32-5.63.41-4.5.26-8.27.29-10.12.29Z" />
      <path class="uuid-48a2402a-d676-4ee1-a97c-3ea741c95775"
        d="M99.21,130.31c-.66,0-1.12,0-1.34,0-.51.01-5.27.06-11.39-.29-1.66-.09-3.93-.26-5.64-.41-1.13-.1-2.51-.25-3.8-.4h0s-.14-.02-1.53-.17c-1.74-.19-3.93-.52-5.65-.79-1.11-.17-2.39-.41-3.63-.64l-1.45-.26c-1.21-.22-2.78-.55-4.66-.99l-.92-.22c-1.67-.4-3.86-.97-5.59-1.46-1.13-.32-2.45-.74-3.62-1.11l-1.08-.34c-2.04-.64-4.52-1.57-6.15-2.24-2.65-1.08-6.06-2.64-8.7-3.99-2.14-1.1-4.66-2.67-6.32-3.7-1.3-.81-3.23-2.11-4.76-3.35-1.87-1.51-4.53-3.73-6.51-5.71-1.01-1.01-2.44-2.49-3.54-3.87-.81-1.02-2.01-2.53-3.09-4.04-.73-1.03-1.33-1.94-1.83-2.78-.56-.95-2.48-4.28-3.81-7.4-.98-2.28-1.84-5.1-2.48-7.31-.74-2.53-1.1-5.42-1.39-7.74l-.08-.6c-.15-1.19-.18-2.36-.21-3.38l-.02-.63c0-.19-.02-.42-.02-.65,0-.45,0-.87.01-1.3l.07-1.5c.06-1.31.17-2.59.33-3.8.05-.53.1-1.05.16-1.53.13-1.18.38-2.31.6-3.3.08-.35.14-.63.19-.88,0-.03.83-4.03,2.8-8.66.56-1.32,1.22-2.85,1.98-4.18.37-.66.8-1.4,1.25-2.15.65-1.24,1.43-2.5,2.32-3.71.19-.29.38-.58.57-.86,1.44-2.13,4.59-5.81,6.47-7.58.22-.21.46-.43.7-.67.77-.75,1.62-1.57,2.48-2.29,1.74-1.46,3.74-3.13,5.61-4.39l.48-.32c.82-.59,1.67-1.14,2.53-1.63,1.02-.64,2.11-1.3,3.15-1.92C45.24,6.44,67.23.95,92.02.11c.59-.02,1.2-.04,1.83-.06l1.62-.03c.49,0,1.42-.01,2.05-.02h.67c.66,0,1.67.01,2.17.02l1.63.03c.63.02,1.25.03,1.85.06,24.78.84,46.76,6.33,60.29,15.07,1.03.61,2.11,1.27,3.15,1.92.84.48,1.69,1.03,2.53,1.63l.46.31c1.87,1.27,3.88,2.93,5.62,4.4.86.72,1.7,1.53,2.44,2.25,0,0,.54.53.74.71,1.88,1.77,5.03,5.45,6.48,7.58.19.28.38.57.58.87.88,1.2,1.67,2.45,2.32,3.71.44.73.87,1.47,1.24,2.13.75,1.32,1.41,2.85,1.97,4.17,1.95,4.59,2.79,8.63,2.8,8.67.04.22.1.46.15.71l.03.13c.22,1,.47,2.14.61,3.33.06.48.11,1,.16,1.54.15,1.19.27,2.46.33,3.86,0,.08.02.2.02.33,0,.14.05,1.09.05,1.11,0,.42.01.79.01,1.15,0,.37-.01.61-.02.85v.53c-.04,1.05-.07,2.23-.22,3.42l-.08.59c-.29,2.33-.66,5.22-1.4,7.75-.64,2.21-1.5,5.03-2.48,7.3-1.33,3.12-3.26,6.45-3.81,7.4-.5.85-1.1,1.76-1.84,2.79-1.07,1.49-2.26,2.99-3.04,3.98-1.12,1.41-2.56,2.91-3.58,3.92-1.98,1.98-4.64,4.2-6.51,5.71-1.53,1.23-3.46,2.53-4.75,3.34-1.67,1.04-4.2,2.61-6.33,3.71-2.64,1.35-6.06,2.92-8.7,3.99-1.62.66-4.09,1.6-6.15,2.24l-1.05.33c-1.22.38-2.54.8-3.65,1.12-1.75.49-3.94,1.06-5.58,1.46l-.85.2c-1.92.45-3.52.79-4.75,1.01l-1.42.26c-1.25.23-2.57.47-3.66.64-1.56.25-3.84.6-5.65.79l-1.52.17c-1.31.14-2.68.3-3.8.4-1.71.15-3.98.32-5.64.41-4.51.26-8.29.29-10.14.29ZM97.87,129.55c.23,0,.69,0,1.34,0,1.84,0,5.6-.04,10.09-.29,1.66-.09,3.91-.26,5.62-.41,1.11-.1,2.48-.25,3.75-.39l1.55-.17c1.8-.19,4.06-.54,5.61-.79,1.09-.17,2.4-.41,3.65-.64l1.42-.26c1.22-.22,2.81-.55,4.72-1l.84-.2c1.63-.39,3.81-.96,5.55-1.45,1.1-.31,2.42-.73,3.63-1.11l1.05-.33c2.04-.64,4.48-1.56,6.09-2.22,2.62-1.07,6.01-2.62,8.64-3.97,2.11-1.08,4.61-2.64,6.27-3.67,1.28-.8,3.18-2.08,4.68-3.29,1.86-1.5,4.5-3.71,6.46-5.66,1-1,2.42-2.47,3.5-3.83.81-1.01,1.99-2.5,3.04-3.98.72-1.01,1.31-1.91,1.8-2.73.55-.94,2.46-4.23,3.77-7.31.96-2.24,1.81-5.03,2.45-7.22.72-2.47,1.08-5.33,1.37-7.62l.08-.6c.15-1.16.18-2.31.2-3.33v-.55c.03-.24.03-.47.04-.82,0-.36,0-.72-.01-1.13,0-.04-.04-.95-.05-1.09,0-.12-.01-.23-.02-.31-.07-1.39-.18-2.64-.33-3.83-.05-.55-.11-1.06-.16-1.54-.13-1.15-.38-2.27-.6-3.25l-.02-.11c-.06-.28-.12-.53-.16-.76,0-.04-.82-3.96-2.75-8.51-.55-1.31-1.21-2.81-1.94-4.1-.37-.66-.8-1.39-1.25-2.14-.65-1.24-1.41-2.47-2.28-3.65-.21-.31-.4-.6-.59-.88-1.42-2.1-4.52-5.72-6.37-7.46-.2-.19-.75-.72-.75-.72-.73-.71-1.56-1.51-2.4-2.21-1.72-1.45-3.72-3.1-5.56-4.35l-.47-.31c-.83-.59-1.66-1.13-2.49-1.61-1.05-.66-2.13-1.32-3.16-1.93C150.29,7.14,128.45,1.69,103.81.86c-.6-.02-1.21-.04-1.84-.06l-1.62-.03c-.49,0-1.5-.02-2.16-.02h-.66c-.63,0-1.56.01-2.04.02l-1.62.03c-.63.02-1.24.04-1.82.06-24.66.84-46.5,6.28-59.93,14.95-1.05.62-2.14,1.28-3.16,1.93-.85.49-1.68,1.03-2.49,1.61l-.49.32c-1.83,1.24-3.82,2.89-5.54,4.34-.85.71-1.68,1.52-2.42,2.24-.27.26-.51.49-.73.7-1.85,1.74-4.94,5.36-6.36,7.45-.19.27-.38.56-.58.86-.88,1.2-1.65,2.42-2.29,3.65-.46.77-.88,1.49-1.25,2.15-.73,1.3-1.39,2.8-1.94,4.1-1.93,4.55-2.74,8.47-2.75,8.51-.05.26-.11.53-.18.84-.23,1.03-.47,2.14-.6,3.28-.06.48-.11,1-.16,1.53-.16,1.2-.27,2.46-.33,3.76l-.07,1.48c0,.41-.02.82-.01,1.27,0,.22.01.45.02.63l.02.61c.02,1.03.05,2.18.2,3.33l.08.6c.29,2.3.65,5.15,1.37,7.63.63,2.18,1.49,4.97,2.45,7.22,1.31,3.07,3.22,6.37,3.77,7.31.49.83,1.08,1.72,1.8,2.73,1.07,1.49,2.26,3,3.05,3.99,1.08,1.36,2.49,2.83,3.49,3.82,1.96,1.96,4.59,4.16,6.45,5.66,1.5,1.21,3.4,2.49,4.68,3.29,1.66,1.04,4.16,2.59,6.27,3.67,2.62,1.34,6.02,2.9,8.64,3.97,1.62.66,4.07,1.59,6.09,2.22l1.09.34c1.16.37,2.48.78,3.6,1.1,1.71.48,3.89,1.05,5.55,1.45l.92.22c1.87.44,3.42.77,4.63.98l1.46.26c1.23.23,2.51.46,3.61.63,1.71.27,3.89.6,5.61.79l1.52.17c1.28.14,2.66.3,3.78.4,1.7.15,3.96.32,5.61.41,6.08.34,10.79.3,11.35.28Z" />
      <path class="uuid-3ca49e81-dc92-4f08-bca4-b11808b6e2aa"
        d="M99.21,127.1c-.64,0-1.08,0-1.3,0-.21,0-.66,0-1.3,0-1.82,0-5.53-.04-9.96-.29-1.64-.09-3.86-.26-5.53-.41-1.11-.1-2.47-.25-3.73-.39-.54-.06-1.06-.12-1.54-.17-1.68-.18-3.82-.51-5.49-.77-1.09-.17-2.36-.41-3.58-.63-.51-.09-1-.18-1.44-.26-1.16-.21-2.67-.53-4.5-.95-.02,0-.92-.22-.92-.22-1.64-.39-3.78-.95-5.45-1.42-1.11-.31-2.4-.72-3.55-1.09l-1.07-.34c-1.96-.61-4.34-1.51-5.9-2.15-2.57-1.04-5.88-2.57-8.45-3.88-2.01-1.03-4.47-2.56-6.09-3.57-1.22-.76-3.02-1.98-4.44-3.12-1.81-1.46-4.37-3.6-6.26-5.49-.95-.95-2.29-2.34-3.29-3.59-.83-1.05-1.96-2.48-2.99-3.91-.68-.95-1.23-1.78-1.68-2.55-.53-.91-2.37-4.09-3.63-7.03-.91-2.12-1.73-4.82-2.35-6.94-.67-2.29-1.02-5.04-1.29-7.25l-.08-.6c-.13-1.04-.16-2.13-.18-3.09l-.02-.61c0-.2-.02-.39-.02-.59,0-.41,0-.8.01-1.2l.02-.47c0-.19.01-.39.03-.58,0-.09.01-.18.02-.26.07-1.34.17-2.55.32-3.69.05-.54.1-1.05.16-1.53.12-1.03.35-2.08.56-3.01.07-.32.14-.63.19-.91.01-.05.81-3.81,2.6-8.03.53-1.24,1.14-2.67,1.82-3.85.38-.66.8-1.4,1.26-2.15.6-1.16,1.32-2.32,2.16-3.45.2-.31.4-.61.59-.89,1.32-1.94,4.3-5.43,6.02-7.04.24-.23.5-.48.78-.74.71-.68,1.51-1.46,2.28-2.1,1.68-1.41,3.61-3.02,5.34-4.18l.5-.33c.77-.56,1.57-1.07,2.36-1.53,1.04-.65,2.13-1.32,3.19-1.94,13.06-8.45,34.45-13.77,58.72-14.59.58-.02,1.18-.04,1.8-.05.39,0,1.6-.03,1.6-.03.47,0,1.38-.01,2.01-.02h.65c.63,0,1.63.01,2.11.02,0,0,1.21.02,1.6.03.62.02,1.22.03,1.81.06,24.26.82,45.65,6.14,58.72,14.59,1.04.62,2.14,1.29,3.19,1.94.79.46,1.58.97,2.36,1.52l.51.34c1.72,1.16,3.66,2.77,5.34,4.18.77.65,1.57,1.42,2.27,2.1.27.26.54.52.78.75,1.72,1.61,4.7,5.1,6.02,7.05.19.28.39.58.59.89.83,1.13,1.56,2.28,2.16,3.45.45.75.88,1.49,1.26,2.16.67,1.18,1.28,2.6,1.81,3.85,1.79,4.22,2.59,7.98,2.6,8.02.06.3.13.61.2.93.2.92.44,1.97.55,3,.05.48.11.99.16,1.53.15,1.14.26,2.36.32,3.72,0,.06.01.16.02.26,0,.16.04.97.04.97,0,.02,0,.04,0,.06,0,.39.01.74.01,1.08v.06c0,.25,0,.45-.02.65l-.02.59c-.02.96-.05,2.06-.18,3.1l-.08.6c-.28,2.21-.63,4.96-1.29,7.25-.62,2.12-1.44,4.82-2.35,6.94-1.25,2.93-3.09,6.12-3.63,7.03-.45.76-1,1.6-1.68,2.55-1.04,1.45-2.21,2.93-2.99,3.91-.99,1.25-2.34,2.64-3.29,3.59-1.89,1.88-4.45,4.02-6.26,5.49-1.42,1.14-3.22,2.36-4.44,3.12-1.63,1.01-4.08,2.54-6.09,3.57-2.56,1.31-5.88,2.83-8.45,3.88-1.57.64-3.94,1.54-5.9,2.15l-1.06.33c-1.19.38-2.48.78-3.56,1.09-1.67.47-3.81,1.03-5.45,1.42,0,0-.84.2-.85.2-1.86.44-3.4.76-4.57.97-.44.08-.93.17-1.43.26-1.17.21-2.49.46-3.59.63-1.67.26-3.8.59-5.49.77-.47.05-1,.11-1.54.17-1.26.14-2.62.29-3.73.39-1.67.15-3.9.31-5.53.41-4.43.25-8.14.29-9.96.29Z" />
      <path
        d="M185.64,65.71s0,0,0,0h0s0,0,0,0h0s0-.03,0-.05c0-.31,0-.63-.01-.94,0,0,0,0,0,0h0s-.02-.36-.02-.36h0s-.02-.49-.02-.49c0,0,0,0,0,0,0-.1-.01-.19-.02-.29-.06-1.1-.14-2.2-.29-3.3-.05-.52-.1-1.02-.15-1.49-.09-.77-.29-1.67-.46-2.46-.08-.35-.15-.68-.21-.97,0-.03-.74-3.36-2.26-6.94-.46-1.09-1-2.34-1.54-3.29-.38-.67-.81-1.41-1.27-2.17,0,0,0,0,0,0,0,0,0-.01-.01-.02-.49-.95-1.09-1.91-1.78-2.85,0,0,0-.01-.01-.02-.22-.33-.43-.66-.63-.96-1.08-1.59-3.8-4.78-5.21-6.1-.25-.23-.52-.5-.81-.77-.67-.64-1.35-1.31-1.98-1.84-1.55-1.3-3.32-2.78-4.82-3.79l-.56-.37s0,0,0,0c-.66-.47-1.33-.91-1.99-1.29,0,0,0,0,0,0-1.06-.67-2.17-1.34-3.2-1.95,0,0,0,0-.01,0,0,0-.02,0-.03-.02-11.08-7.18-29.49-12-50.14-13.27-.1,0-.2-.01-.3-.02-.87-.05-1.74-.1-2.62-.14-1.18-.05-2.36-.1-3.56-.13h0l-1.11-.02h-.42s0,0,0,0h0s0,0,0,0c-.46,0-1.38-.01-1.97-.02h-.26s0,0,0,0c0,0,0,0,0,0,0,0,0,0,0,0,0,0,0,0,0,0h-.26c-.59,0-1.52.01-1.99.02l-1.52.03c-1.2.03-2.39.08-3.57.13-.88.04-1.75.09-2.62.14-.1,0-.2.01-.31.02-20.65,1.27-39.06,6.09-50.14,13.27,0,0-.02,0-.03.02,0,0,0,0-.01,0-1.03.61-2.13,1.28-3.2,1.95,0,0,0,0,0,0,0,0,0,0-.01,0-.66.38-1.32.81-1.98,1.28,0,0,0,0-.01,0l-.56.37c-1.49,1.01-3.27,2.48-4.82,3.79-.63.53-1.32,1.19-1.98,1.84-.28.27-.56.54-.81.77-1.41,1.32-4.13,4.52-5.21,6.1-.2.3-.42.62-.63.96,0,0,0,.01-.01.02-.69.94-1.29,1.89-1.78,2.84,0,0,0,.01-.01.02,0,0,0,0,0,0-.46.76-.89,1.5-1.27,2.17-.54.95-1.08,2.2-1.54,3.29-1.52,3.58-2.26,6.91-2.26,6.93-.06.3-.13.64-.21.99-.18.79-.37,1.69-.46,2.46-.05.46-.1.97-.15,1.49-.15,1.1-.23,2.21-.29,3.31,0,.08-.01.16-.02.24,0,.01,0,.02,0,.03l-.02.49s0,0,0,0v.35s-.02,0-.02,0c0,0,0,.02,0,.03,0,.17,0,.35,0,.52,0,.16,0,.31,0,.47,0,0,0,0,0,0h0v.02h0s0,.03,0,.04c0,0,0,.01,0,.02,0,.04,0,.08,0,.12,0,.09,0,.18,0,.28v.19s0,0,0,0v.46c.03.87.05,1.76.15,2.54l.07.59c.25,1.99.56,4.47,1.11,6.36.57,1.94,1.32,4.41,2.1,6.25.88,2.07,2.27,4.62,3.27,6.32.37.63.83,1.33,1.42,2.14,0,0,0,0,0,0,.94,1.32,2,2.65,2.78,3.62.88,1.11,2.17,2.42,2.85,3.11,1.79,1.78,4.37,3.91,5.74,5.02,1.21.98,2.79,2.04,3.87,2.71,0,0,0,0,0,0,1.52.95,3.82,2.38,5.6,3.29,2.36,1.2,5.52,2.66,7.87,3.62,1.44.59,3.61,1.41,5.39,1.96l1.06.33c1.11.35,2.33.74,3.32,1.02,1.55.44,3.61.98,5.13,1.34l.79.19s0,0,.01,0h0c1.73.4,3.15.71,4.21.9l1.43.26c1.14.21,2.38.43,3.38.59,1.57.25,3.57.56,5.12.72l1.53.17c1.19.13,2.48.28,3.53.37,1.59.14,3.7.3,5.24.38,4.16.24,7.66.27,9.46.27.67,0,1.09,0,1.24,0,.15,0,.58,0,1.24,0,1.8,0,5.3-.04,9.46-.27,1.54-.09,3.65-.24,5.24-.38,1.05-.09,2.33-.24,3.53-.37l1.53-.17c1.55-.17,3.55-.47,5.12-.72,1.01-.16,2.24-.39,3.38-.59l1.43-.26c1.05-.19,2.46-.49,4.17-.89,0,0,0,0,0,0,.01,0,.02,0,.03,0,0,0,0,0,0,0l.8-.19c1.52-.36,3.58-.9,5.13-1.34.99-.28,2.21-.66,3.37-1.03l1.01-.32c1.77-.55,3.95-1.38,5.39-1.96,2.35-.96,5.52-2.41,7.87-3.62,1.78-.91,4.08-2.34,5.6-3.29,0,0,0,0,0,0,1.07-.67,2.65-1.73,3.87-2.71,1.38-1.11,3.95-3.24,5.74-5.02.69-.69,1.97-2,2.85-3.11.77-.97,1.83-2.31,2.78-3.62,0,0,0,0,0,0,.58-.81,1.05-1.51,1.42-2.14,1-1.7,2.39-4.25,3.27-6.32.79-1.84,1.54-4.3,2.1-6.25.55-1.89.86-4.37,1.11-6.36l.07-.59c.1-.78.12-1.68.14-2.54v-.45s.01,0,.01-.01h0v-.2c.01-.09.01-.19.02-.28v-.11s0-.01,0-.02c0-.01,0-.03,0-.04h0s0,0,0,0h0v-.02h0s0-.01,0-.01ZM177.82,76.43s0,0-.01.01c-.37.38-.76.76-1.17,1.14-.11.1-.23.21-.34.31-.36.32-.73.64-1.11.96-.08.06-.15.13-.23.19-.39.31-.79.62-1.21.93-.04-.52-.08-1.03-.14-1.55,0-.04,0-.08-.01-.13-.08-.66-.17-1.32-.28-1.98-.03-.2-.07-.4-.11-.6-.09-.48-.18-.95-.29-1.43-.05-.22-.1-.44-.15-.66-.12-.5-.25-1-.39-1.5-.05-.17-.09-.33-.14-.5-.19-.66-.4-1.31-.63-1.97-.05-.13-.1-.26-.15-.4-.19-.52-.39-1.04-.6-1.56-.09-.21-.18-.42-.26-.63-.09-.21-.17-.42-.27-.63.26-.18.49-.36.73-.54.3-.22.6-.43.89-.65.33-.26.64-.52.96-.77.27-.22.54-.44.79-.66.3-.27.58-.53.87-.8.24-.22.48-.44.7-.67.27-.27.52-.55.78-.83.2-.22.42-.44.61-.67.25-.29.47-.58.69-.87.17-.22.35-.44.51-.66.22-.31.41-.62.61-.93.13-.21.28-.42.41-.63.2-.35.38-.7.55-1.05.09-.18.19-.35.28-.53.25-.53.46-1.07.64-1.61.02-.07.05-.14.07-.22.03.07.07.14.1.21.21.48.4.95.57,1.44.04.1.08.2.12.3.2.55.37,1.11.53,1.68.06.23.12.45.18.68.09.37.18.74.26,1.11.05.24.1.48.15.72.09.48.17.97.23,1.45.01.11.03.21.05.32.06.81.11,1.63.16,2.43,0,0,0,0,0,0,0,.04,0,.07,0,.11.02.33.03.64.04.94v.23s-.02.24-.02.24c-.06,1.31-.33,2.61-.81,3.9-.8,2.15-2.19,4.26-4.16,6.32ZM134.24,108.27c-.86.16-1.74.31-2.61.46-.56.1-1.11.2-1.68.29-.99.16-2.01.3-3.02.45-.46.07-.92.14-1.39.2-1.49.2-2.99.39-4.5.55-1.8.2-3.63.37-5.47.51-.7.06-1.41.09-2.12.14-1.14.08-2.28.16-3.43.22-.84.04-1.69.07-2.53.1-1.03.04-2.07.09-3.11.11-.85.02-1.7.02-2.56.03-.83,0-1.66.02-2.5.02v-11.11s.01,0,.02,0c.02,0,.04,0,.06,0,4.55,0,9.2-.14,13.56-.4,4.49-.27,8.95-.69,13.26-1.24,4.58-.58,9.05-1.32,13.29-2.2.17-.04.35-.07.52-.11-.02.41-.04.82-.07,1.22-.02.37-.04.75-.07,1.11-.05.53-.11,1.03-.17,1.54-.04.33-.07.67-.12,1-.08.54-.18,1.06-.28,1.58-.05.26-.09.54-.15.8-.17.76-.35,1.5-.56,2.21-.16.54-.34,1.06-.53,1.57-.02.06-.05.12-.07.18-.66.14-1.32.28-1.99.41-.6.12-1.19.25-1.8.36ZM70.3,109.68c-.47-.06-.94-.14-1.41-.21-1-.14-2.01-.29-2.99-.45-.57-.09-1.13-.2-1.69-.29-.87-.15-1.74-.3-2.6-.46-.6-.11-1.19-.24-1.79-.36-.67-.14-1.34-.27-2-.41-.02-.06-.05-.12-.07-.18-.19-.5-.37-1.02-.53-1.57-.21-.71-.39-1.44-.56-2.2-.06-.26-.1-.54-.15-.8-.1-.52-.2-1.03-.28-1.57-.05-.33-.08-.68-.12-1.03-.06-.5-.12-1-.17-1.52-.03-.38-.05-.78-.08-1.17-.02-.38-.05-.77-.06-1.16.17.04.35.07.52.11,4.24.88,8.71,1.62,13.29,2.2,4.3.55,8.77.97,13.26,1.24,4.26.26,8.82.41,13.26.4.1,0,.2,0,.3,0h.08v11.11c-.9,0-1.79,0-2.68-.02-.76-.01-1.53-.01-2.29-.03-1.2-.03-2.39-.08-3.58-.13-.69-.03-1.39-.05-2.08-.08-1.31-.07-2.6-.16-3.89-.25-.56-.04-1.13-.07-1.69-.11-1.85-.15-3.68-.32-5.49-.52-1.51-.17-3.02-.35-4.5-.55ZM51.55,105.99c-7.81-2.09-14.52-4.68-19.95-7.69-.55-.31-1.09-.62-1.62-.94-.18-.11-.34-.22-.52-.32-.29-.18-.59-.37-.87-.55-.17-.27-.32-.54-.48-.82-.13-.23-.26-.45-.38-.68-.18-.34-.34-.7-.5-1.06-.1-.22-.21-.44-.31-.66-.17-.4-.32-.82-.47-1.23-.07-.19-.15-.38-.21-.57-.2-.62-.39-1.25-.55-1.89-.16-.63-.29-1.27-.4-1.92-.04-.21-.06-.41-.1-.62-.07-.46-.13-.91-.18-1.38-.01-.12-.02-.23-.03-.35.12.07.25.14.38.21.48.28.98.56,1.48.83.22.12.43.24.65.35.72.38,1.45.76,2.2,1.12,4.83,2.35,10.45,4.43,16.69,6.18,1.15.32,2.32.63,3.51.93.39.1.78.19,1.17.28.62.15,1.23.31,1.86.45,0,.02,0,.03,0,.05.11,4.05.64,7.69,1.57,10.84.02.06.04.13.06.19-1.02-.25-2.03-.49-3.01-.76ZM20.66,78.85c-.38-.32-.75-.64-1.11-.96-.11-.1-.23-.21-.34-.31-.41-.38-.81-.77-1.18-1.15-3.15-3.29-4.82-6.73-4.97-10.22,0-.16,0-.32-.02-.47.01-.32.03-.65.04-1,0-.02,0-.03,0-.05.04-.78.09-1.61.15-2.44.07-.61.17-1.22.29-1.83.03-.18.07-.35.11-.53.09-.45.2-.91.32-1.35.04-.17.09-.34.13-.51.17-.59.35-1.19.56-1.77.02-.04.03-.08.05-.13.2-.54.41-1.08.64-1.61.03-.07.06-.13.09-.19.02.07.05.14.07.22.18.54.4,1.08.64,1.61.08.18.19.36.28.53.18.35.35.71.55,1.06.12.21.27.42.4.63.2.31.39.63.61.93.16.22.34.44.51.66.23.29.45.58.69.87.19.23.41.45.61.67.25.28.5.56.78.83.22.23.47.45.7.67.28.27.56.54.87.8.25.22.53.44.79.66.31.26.63.52.96.77.28.22.59.44.89.65.25.18.48.36.73.54-.09.21-.18.42-.27.63-.09.21-.18.42-.26.63-.21.52-.41,1.04-.6,1.56-.05.13-.1.27-.15.4-.23.65-.44,1.31-.63,1.97-.05.17-.09.33-.14.5-.14.5-.27,1-.39,1.5-.05.22-.1.44-.15.66-.11.48-.2.95-.29,1.43-.04.2-.08.4-.11.6-.11.66-.21,1.32-.28,1.98,0,.04,0,.08-.01.13-.06.52-.11,1.04-.14,1.55-.41-.31-.82-.62-1.21-.93-.08-.06-.15-.13-.23-.19ZM19.07,48.22c.06-.07.11-.14.17-.21.51-.64,1.04-1.27,1.6-1.87.05-.05.1-.1.15-.16.58-.61,1.18-1.21,1.82-1.78.03-.03.07-.06.1-.08.66-.59,1.35-1.16,2.06-1.7.64-.49,1.32-.95,2.01-1.39.03-.02.06-.04.09-.06,0,.04.02.07.03.11.08.33.16.66.27.99,0,0,0,.02,0,.03.11.34.23.68.37,1.02.04.1.08.19.12.29.11.25.23.51.35.76.05.09.09.19.14.29.18.33.36.67.56.99.01.02.03.04.04.06.19.3.39.61.61.91.08.11.16.21.24.32.16.22.33.43.5.65.1.12.2.24.3.36.17.2.34.4.52.6.11.12.22.24.34.36.19.2.38.39.58.59.12.12.24.23.36.35.22.21.45.41.68.62.11.1.22.2.33.29.33.28.67.57,1.03.84.02.02.04.03.06.05.35.27.71.54,1.08.81-.04.04-.07.07-.11.11-.16.15-.3.3-.46.45-.32.31-.65.63-.96.96-.18.18-.35.37-.52.56-.28.31-.57.61-.84.93-.17.2-.35.4-.52.6-.27.32-.54.65-.8.98-.16.2-.32.39-.47.59-.29.37-.56.75-.84,1.13-.12.17-.24.33-.36.5-.39.55-.76,1.1-1.12,1.67-.05.09-.1.17-.16.26-.3.48-.6.97-.88,1.47-.11.2-.22.4-.33.6-.15.27-.3.54-.45.81-.15-.11-.31-.22-.46-.33-.26-.19-.51-.38-.75-.57-.3-.23-.59-.47-.87-.7-.23-.19-.46-.38-.68-.57-.27-.24-.53-.48-.78-.72-.2-.19-.41-.38-.6-.58-.24-.25-.47-.49-.7-.74-.18-.19-.35-.38-.52-.57-.22-.26-.42-.51-.62-.77-.15-.19-.3-.37-.43-.56-.2-.27-.37-.55-.55-.82-.11-.18-.24-.35-.34-.53-.18-.3-.34-.61-.49-.92-.07-.15-.16-.3-.23-.44-.21-.46-.4-.92-.55-1.38-.1-.29-.18-.58-.26-.87-.03-.1-.04-.2-.07-.3-.04-.19-.09-.39-.12-.58-.02-.12-.04-.23-.05-.35-.03-.18-.05-.35-.07-.53-.01-.12-.02-.24-.03-.36,0-.1,0-.2-.01-.3.03-.05.07-.1.1-.15.44-.67.9-1.33,1.4-1.97ZM46.11,21.81c.24-.1.49-.21.75-.32.06-.03.13-.05.19-.08.26-.11.53-.22.81-.33.04-.02.09-.04.13-.05.27-.11.54-.22.82-.33.04-.01.07-.03.11-.04.29-.12.59-.23.88-.35.06-.02.12-.05.18-.07.29-.11.58-.22.87-.33.02,0,.05-.02.07-.03.27-.1.53-.2.79-.29.04-.02.09-.03.13-.05.26-.09.5-.18.74-.26.04-.02.09-.03.13-.04.23-.08.45-.15.65-.22.4-.13.85-.27,1.3-.43,1.07-.35,2.29-.75,3.25-1.01l1.34-.37c1.06-.29,2.2-.61,3.13-.84.35-.09.72-.18,1.12-.27.06,0,.13-.02.19-.04h0c.22-.06.45-.1.67-.13.03,0,.07-.01.1-.02.23-.03.47-.04.71-.04.02,0,.04,0,.06,0,.25,0,.51.02.77.05,0,0,.02,0,.03,0,.27.03.54.08.82.15-.03,0-.06.02-.09.03-.89.25-1.75.52-2.6.8-.2.06-.4.13-.59.2-.79.26-1.57.53-2.32.81-.06.02-.13.05-.19.07-.8.3-1.57.62-2.32.94-.18.08-.36.15-.54.23-.75.33-1.48.66-2.18,1.01-.4.2-.79.4-1.18.61-.39.21-.76.41-1.13.62,0,0-.01,0-.02.01-.5.29-.98.59-1.45.89-.06.04-.13.08-.19.11-.37-.07-.74-.14-1.1-.2-.72-.12-1.44-.2-2.16-.27-.24-.02-.47-.03-.7-.04-.48-.03-.96-.05-1.43-.06-.09,0-.18-.01-.26-.01-.1,0-.2,0-.31,0,0,0,.01,0,.02,0ZM71.09,14.56c.34-.06.69-.12,1.03-.18.2-.03.39-.07.59-.1.28-.05.56-.09.84-.14.2-.03.4-.07.6-.1.28-.05.56-.09.84-.13.16-.03.33-.05.49-.08.42-.07.84-.13,1.22-.19,1.51-.23,3.57-.45,5-.6,1.26-.13,2.51-.24,3.76-.34.08,0,.15-.01.23-.02-.26.02-.51.06-.77.08-.72.07-1.43.15-2.13.23-.52.06-1.03.13-1.54.19-.7.09-1.38.19-2.07.29-.5.07-1,.15-1.49.23-.68.11-1.35.23-2.02.35-.47.08-.94.17-1.4.26-.68.13-1.34.27-2,.42-.33.07-.67.13-.99.21-.18-.11-.36-.22-.55-.32.12-.02.24-.04.36-.06ZM110.39,12.7c1.25.1,2.5.21,3.77.34,1.42.15,3.49.37,5,.6.38.06.8.12,1.22.19.16.03.33.05.49.08.27.04.55.09.83.13.2.03.4.07.61.1.28.05.56.09.84.14.2.03.39.06.59.1.35.06.71.12,1.06.18.11.02.22.04.33.06-.18.1-.37.21-.55.32-.32-.07-.66-.14-.99-.21-.66-.14-1.32-.29-2-.42-.46-.09-.93-.17-1.39-.26-.67-.12-1.34-.24-2.03-.35-.49-.08-.98-.15-1.47-.23-.69-.1-1.39-.2-2.09-.29-.5-.07-1.01-.13-1.52-.19-.72-.08-1.44-.16-2.17-.24-.25-.02-.49-.06-.74-.08.08,0,.15.01.23.02ZM143.16,19.24s.09.03.13.05c.23.08.47.16.72.26.05.02.1.04.15.05.25.09.51.19.78.29.02,0,.04.01.06.02.29.11.58.22.88.33.06.02.11.04.17.06.3.11.59.23.89.35.03.01.06.03.1.04.28.11.55.22.83.33.04.02.09.04.13.05.28.11.56.23.82.34.06.02.11.05.17.07.26.11.52.22.76.32,0,0,.01,0,.02,0-.23,0-.45,0-.68,0-.11,0-.21,0-.32,0-.57.01-1.14.05-1.71.1-.12.01-.25.02-.37.04-.59.06-1.19.13-1.79.23-.33.05-.66.11-.99.18-.04,0-.07.01-.11.02-.06-.04-.13-.08-.19-.11-.47-.3-.96-.61-1.47-.9-.73-.42-1.51-.84-2.31-1.23-.7-.35-1.43-.68-2.18-1.01-.18-.08-.36-.16-.54-.23-.75-.32-1.52-.63-2.32-.93-.06-.02-.13-.05-.2-.07-.75-.28-1.52-.55-2.31-.81-.2-.07-.4-.13-.6-.2-.85-.27-1.71-.54-2.6-.79-.03,0-.06-.02-.09-.03.27-.07.55-.12.82-.15.02,0,.03,0,.05,0,.25-.03.5-.05.75-.05.03,0,.05,0,.08,0,.24,0,.47.01.7.04.04,0,.07.01.11.02.23.03.45.07.67.13,0,0,0,0,0,0,.06.02.13.03.19.04.39.09.77.19,1.12.27.93.23,2.08.55,3.14.84l1.34.37c.96.26,2.17.66,3.25,1.01.46.15.9.3,1.31.43.19.06.42.14.65.22ZM170.88,42.42s0,0,0,0c.72.54,1.41,1.11,2.07,1.7.03.03.06.05.09.08.64.57,1.24,1.17,1.83,1.79.05.05.1.1.14.15.56.61,1.1,1.23,1.61,1.88.06.07.11.14.17.21.49.64.96,1.3,1.4,1.97.03.05.07.1.1.15,0,.1,0,.2-.01.3,0,.12-.02.24-.03.36-.02.18-.04.35-.07.53-.02.12-.03.23-.05.35-.03.19-.08.39-.12.58-.02.1-.04.2-.07.3-.07.29-.16.58-.26.87-.16.46-.34.92-.55,1.38-.07.15-.16.3-.23.44-.16.31-.31.62-.49.92-.1.18-.23.35-.34.53-.18.27-.35.55-.55.82-.14.19-.29.37-.43.56-.2.26-.4.52-.62.77-.16.19-.34.38-.52.57-.23.25-.46.5-.7.74-.19.19-.4.38-.6.58-.26.24-.51.48-.79.72-.22.19-.45.38-.68.57-.28.23-.57.47-.87.7-.24.19-.5.38-.75.57-.15.11-.31.22-.46.33-.14-.27-.3-.54-.45-.81-.11-.2-.22-.4-.33-.6-.28-.49-.58-.98-.88-1.46-.06-.09-.11-.18-.16-.27-.36-.56-.73-1.12-1.12-1.67-.12-.17-.25-.34-.37-.5-.27-.38-.55-.75-.83-1.12-.16-.2-.32-.4-.47-.6-.26-.33-.53-.65-.8-.98-.17-.2-.34-.4-.52-.6-.28-.31-.56-.62-.84-.93-.17-.19-.35-.38-.53-.56-.31-.33-.63-.64-.96-.96-.15-.15-.3-.3-.46-.45-.04-.04-.07-.07-.11-.11.37-.27.73-.54,1.08-.81.03-.02.06-.05.08-.07.35-.27.68-.55,1.01-.83.12-.1.23-.2.34-.31.23-.2.45-.4.67-.61.12-.12.25-.24.37-.36.19-.19.39-.38.57-.58.12-.12.23-.25.35-.37.18-.2.35-.39.52-.59.1-.12.21-.24.3-.36.18-.22.34-.44.51-.66.08-.1.16-.2.23-.3.23-.32.45-.65.65-.97,0,0,0,0,0-.01.2-.32.38-.65.56-.98.05-.1.1-.2.15-.3.12-.25.24-.49.34-.74.04-.1.09-.2.13-.3.14-.34.26-.67.37-1.01,0-.02,0-.03.01-.05.1-.32.19-.65.26-.97,0-.04.02-.08.03-.11.03.02.06.04.09.05.69.44,1.36.9,2.01,1.39ZM169.95,74.06c.05.22.11.44.16.66.12.52.22,1.04.32,1.56.02.11.05.22.07.34.11.64.2,1.27.27,1.91.02.17.03.34.05.52.05.46.09.92.12,1.38.01.23.02.45.03.68.01.26.01.52.02.78-.17.11-.34.22-.52.33-.2.13-.41.25-.61.38-.31.19-.64.38-.96.56-.2.12-.4.23-.61.35-.36.2-.74.4-1.11.6-.18.1-.36.19-.54.29-.56.29-1.13.58-1.72.87-4.68,2.27-10.14,4.29-16.22,6-1.09.31-2.2.6-3.33.89-.35.09-.7.17-1.05.26-.46.11-.92.22-1.38.33,0-.01,0-.03,0-.04-.02-.88-.07-1.78-.12-2.69-.01-.21-.03-.43-.05-.64-.07-.91-.15-1.83-.26-2.76,0,0,0,0,0-.01-.07-.58-.14-1.16-.22-1.74-.14-.99-.31-1.98-.49-2.98-.04-.19-.07-.38-.11-.58-.18-.96-.39-1.91-.61-2.87-.02-.07-.03-.14-.04-.2.25-.06.49-.12.74-.18.35-.08.69-.17,1.03-.25.52-.13,1.03-.26,1.54-.39.32-.08.65-.17.97-.25.55-.15,1.1-.3,1.65-.46.26-.07.53-.15.79-.22.8-.23,1.59-.47,2.37-.71.9-.28,1.78-.57,2.64-.86.28-.1.56-.2.84-.3.57-.2,1.14-.4,1.7-.61.33-.12.64-.25.97-.37.49-.19.99-.38,1.47-.57.34-.14.66-.27.99-.41.45-.19.9-.38,1.34-.57.33-.15.65-.29.97-.44.42-.19.84-.38,1.25-.58.32-.15.63-.31.94-.46.39-.2.79-.39,1.17-.59.31-.16.6-.32.9-.49.37-.2.74-.4,1.1-.61.29-.17.58-.34.86-.51.21-.13.44-.25.65-.38.04.09.08.18.12.27.1.23.19.46.28.7.16.39.31.78.45,1.18.09.25.17.49.26.74.13.39.26.78.38,1.18.07.24.15.49.22.73.12.41.22.83.33,1.24ZM93.57,97.4c-.61,0-1.23-.02-1.84-.03-.58-.01-1.16-.02-1.73-.04-.7-.02-1.4-.05-2.09-.07-.47-.02-.94-.03-1.41-.05-1.17-.05-2.32-.11-3.45-.18-4.43-.27-8.83-.68-13.07-1.22-4.5-.57-8.9-1.3-13.07-2.17-.39-.08-.76-.16-1.15-.25,0-.08,0-.15,0-.23.02-.91.05-1.84.11-2.77.01-.17.02-.34.04-.5.07-.98.15-1.97.27-2.96h0c.06-.56.14-1.11.21-1.67.13-.96.3-1.92.47-2.87.03-.18.07-.37.1-.55.18-.93.37-1.85.59-2.77.02-.07.03-.14.05-.2.33.07.67.14,1.01.2.42.09.84.17,1.27.26.61.12,1.23.24,1.85.35.41.07.81.15,1.22.22.69.12,1.38.24,2.08.35.35.06.69.12,1.04.17,1.05.16,2.1.32,3.16.47,1.28.18,2.58.34,3.89.49.64.07,1.28.15,2.02.22h.12c1.4.16,2.82.29,4.25.41l.37.03c2.57.21,5.21.36,7.82.47.7.03,1.41.05,2.13.07,2.18.06,4.46.1,6.67.1h.02v14.74c-.43,0-.85,0-1.28,0-.55,0-1.11,0-1.66-.01ZM50.49,92.15c-1.13-.29-2.24-.58-3.33-.89-6.08-1.71-11.53-3.73-16.22-6-.59-.28-1.16-.57-1.72-.87-.18-.1-.36-.19-.54-.29-.37-.2-.75-.4-1.11-.6-.21-.12-.41-.24-.62-.36-.32-.19-.64-.37-.96-.56-.21-.12-.41-.25-.61-.38-.17-.11-.35-.22-.52-.33,0-.26,0-.52.02-.78,0-.23.02-.45.03-.68.03-.46.07-.92.12-1.38.02-.17.03-.35.05-.52.07-.63.16-1.27.27-1.9.02-.11.05-.22.07-.33.1-.52.2-1.04.32-1.57.05-.22.11-.44.16-.66.1-.42.21-.83.33-1.24.07-.24.14-.49.22-.73.12-.39.25-.78.38-1.17.08-.25.17-.49.26-.74.14-.4.3-.79.45-1.18.09-.23.18-.46.28-.69.04-.09.08-.18.12-.28.21.13.43.25.64.37.29.17.58.35.88.52.35.2.72.4,1.08.6.3.17.61.33.92.49.38.2.77.39,1.16.59.31.16.62.31.95.47.41.2.83.39,1.25.58.32.15.64.3.97.44.44.19.89.38,1.34.57.33.14.65.28.99.41.48.19.98.38,1.47.57.32.12.64.25.96.37.56.21,1.13.41,1.7.6.28.1.56.2.84.3.86.29,1.74.58,2.64.86.78.24,1.57.48,2.37.71.26.08.53.15.79.22.54.15,1.09.31,1.65.46.32.09.64.17.97.25.51.13,1.03.26,1.54.39.34.08.69.17,1.03.25.25.06.49.12.74.18-.02.07-.03.13-.04.2-.22.96-.43,1.92-.61,2.88-.04.19-.07.38-.1.57-.18.99-.35,1.99-.49,2.98-.08.58-.16,1.16-.22,1.74-.11.93-.19,1.85-.26,2.77-.02.21-.03.42-.05.63-.06.91-.1,1.81-.13,2.69,0,.01,0,.03,0,.04-.46-.11-.93-.21-1.38-.33-.35-.09-.71-.17-1.05-.26ZM29.97,63.92c.31-.55.64-1.09.98-1.63,0-.01.01-.02.02-.03.35-.55.71-1.08,1.08-1.61.11-.16.23-.32.35-.48.26-.36.53-.72.8-1.08.15-.19.31-.38.46-.57.25-.31.5-.62.76-.93.17-.2.35-.39.52-.59.25-.28.51-.57.77-.84.18-.2.37-.39.56-.58.26-.27.52-.53.79-.79.19-.19.39-.37.59-.56.13-.12.26-.24.39-.35.19.12.4.23.6.35.26.15.51.3.77.45.4.23.81.45,1.23.68.26.14.52.28.79.42.46.24.95.47,1.43.71.24.11.47.23.71.35.73.34,1.49.68,2.26,1,3.78,1.59,8.04,3,12.66,4.19.65.17,1.32.33,2,.49.03,0,.05.01.07.02-.01.02-.02.05-.04.07-.34.65-.67,1.31-.99,1.99-.74,1.55-1.43,3.2-2.07,4.89-.41,1.09-.79,2.2-1.15,3.33-.11.35-.21.71-.32,1.06-.16.53-.33,1.06-.48,1.6-.26-.06-.51-.12-.77-.18-.34-.08-.68-.16-1.01-.25-.51-.12-1.01-.25-1.51-.38-.32-.08-.64-.17-.96-.25-.54-.14-1.07-.29-1.6-.44-.26-.07-.53-.15-.79-.22-.78-.23-1.56-.46-2.32-.7-.87-.27-1.73-.55-2.57-.84-.3-.1-.59-.21-.89-.31-.53-.19-1.07-.37-1.59-.57-.33-.12-.65-.25-.98-.38-.47-.18-.94-.36-1.39-.54-.34-.14-.67-.28-1-.42-.42-.18-.85-.35-1.26-.53-.34-.15-.66-.3-.99-.45-.39-.18-.79-.36-1.17-.54-.32-.16-.63-.32-.95-.47-.37-.18-.74-.37-1.09-.55-.31-.16-.61-.33-.91-.49-.34-.19-.69-.37-1.02-.57-.29-.17-.58-.34-.86-.51-.25-.15-.5-.3-.75-.45.17-.33.35-.65.52-.98.1-.18.19-.36.3-.54ZM36.52,49.4c-.15-.11-.29-.23-.44-.34-.2-.16-.39-.32-.58-.47-.14-.12-.28-.24-.41-.36-.18-.16-.36-.32-.53-.48-.13-.12-.26-.24-.38-.36-.17-.16-.33-.32-.49-.49-.12-.12-.23-.24-.34-.36-.16-.17-.3-.34-.45-.51-.1-.11-.2-.23-.3-.34-.15-.19-.3-.38-.44-.57-.07-.1-.15-.2-.23-.3-.21-.29-.4-.58-.58-.87-.25-.41-.47-.82-.67-1.23-.06-.13-.11-.26-.17-.39-.12-.28-.24-.57-.34-.86-.05-.15-.1-.3-.14-.46-.08-.27-.15-.54-.2-.81-.03-.16-.06-.31-.09-.47-.01-.09-.02-.18-.03-.28.21-.11.41-.21.62-.32.23-.11.47-.23.7-.34.39-.18.79-.35,1.19-.51.22-.09.43-.18.65-.27.51-.2,1.02-.38,1.53-.55.12-.04.23-.09.35-.12.64-.2,1.28-.39,1.93-.56.18-.05.37-.08.55-.13.47-.11.94-.22,1.41-.32.24-.05.49-.09.74-.13.42-.07.84-.14,1.26-.2.27-.04.53-.07.8-.1.41-.05.82-.09,1.23-.12.27-.02.54-.04.81-.06.16,0,.32-.01.48-.02.05.31.12.62.2.93.02.07.04.14.06.21.08.3.18.59.29.89.04.1.07.2.11.29.15.35.31.71.49,1.06.2.38.44.75.69,1.12.07.1.14.2.21.3.22.31.46.62.71.93.05.06.1.12.15.18.31.36.64.71.99,1.06.09.09.18.17.27.26.3.28.61.56.94.84.06.05.11.11.18.16-.27.09-.53.19-.79.29-.17.06-.33.12-.5.18-.59.23-1.18.47-1.76.73-.08.04-.17.08-.25.12-.5.23-1,.47-1.49.72-.18.09-.36.19-.54.28-.42.22-.83.46-1.24.7-.17.1-.34.19-.51.3-.56.34-1.12.69-1.67,1.06,0,0-.02.01-.03.02-.54.37-1.07.75-1.6,1.15-.16.12-.32.25-.48.37-.2.16-.41.31-.61.47-.06-.04-.13-.09-.19-.13-.16-.11-.31-.22-.46-.33-.22-.16-.43-.32-.64-.48ZM47.12,31.83c.02-.07.05-.14.08-.21.12-.32.27-.63.43-.94.03-.05.06-.1.09-.16.16-.29.33-.56.52-.84.03-.04.05-.08.08-.12.2-.29.43-.57.66-.85.05-.06.1-.12.15-.18.23-.27.47-.53.72-.78.04-.04.08-.07.11-.11.24-.24.48-.46.73-.68.04-.04.08-.08.13-.11.27-.23.54-.45.81-.67.06-.05.12-.09.18-.14.27-.21.54-.41.81-.61,0,0,0,0,.01,0,.2.05.39.1.59.15.14.04.29.07.43.12.45.13.91.27,1.36.42.47.16.93.33,1.39.5.15.06.3.12.45.18.31.13.62.25.93.39.17.08.35.16.52.24.28.13.56.27.84.4.18.09.36.18.53.27.27.14.55.29.82.44.17.1.35.19.52.3.28.16.56.33.83.5.16.1.32.2.48.3.32.2.63.41.94.63.12.08.23.16.35.24.41.29.81.59,1.22.9-.07.06-.12.11-.18.17-.25.22-.49.44-.72.66-.1.1-.2.19-.3.29-.31.32-.59.64-.84.96-.16.21-.32.43-.46.64-.05.07-.09.14-.13.21-.09.15-.18.29-.26.44-.05.08-.09.17-.13.25-.07.14-.14.27-.2.41-.04.09-.08.18-.11.26-.05.14-.1.27-.15.41-.02.05-.04.11-.06.16-.09-.04-.18-.07-.27-.12-.56-.25-1.12-.49-1.69-.72-.19-.07-.37-.15-.56-.22-.69-.26-1.38-.5-2.08-.72-.75-.23-1.5-.44-2.23-.62-.7-.17-1.41-.31-2.12-.44-.2-.04-.4-.06-.6-.1-.52-.09-1.05-.17-1.58-.23-.22-.03-.44-.05-.66-.07-.52-.05-1.03-.1-1.55-.13-.22-.01-.44-.03-.65-.04-.16,0-.32-.02-.48-.03,0,0,0-.02,0-.02.07-.34.17-.68.29-1.01ZM57.28,22.69c.48-.24.97-.47,1.48-.7.18-.08.36-.16.54-.24.33-.15.67-.29,1.01-.44.21-.09.44-.17.65-.26.32-.13.64-.26.97-.38.24-.09.48-.18.72-.26.32-.12.64-.24.97-.35.25-.09.51-.17.77-.26.33-.11.65-.22.99-.33.27-.09.54-.17.82-.25.34-.1.67-.21,1.01-.3.28-.08.57-.16.86-.24.34-.1.69-.19,1.04-.28.29-.08.59-.15.89-.23.25-.06.49-.12.74-.18.02.02.05.03.07.05.34.25.68.52,1.02.81.07.06.14.12.21.18.35.31.71.63,1.07.98.43.43.86.89,1.28,1.38.13.15.26.31.39.47.29.35.58.71.87,1.08.15.19.29.39.44.59.28.38.55.77.83,1.18.13.2.27.39.4.6.05.08.1.17.16.25-.01,0-.02,0-.03,0-.08.02-.16.05-.24.07-.5.14-1,.28-1.48.43-.18.06-.35.11-.53.17-.39.12-.77.25-1.15.38-.18.06-.35.12-.53.19-.4.14-.8.29-1.18.45-.12.05-.24.09-.36.14-.5.2-.98.41-1.45.62-.1.05-.2.09-.3.14-.36.17-.72.34-1.07.52-.14.07-.28.15-.43.22-.3.16-.59.32-.87.48-.13.08-.27.15-.4.23-.07.04-.14.08-.21.12-.11-.09-.22-.17-.33-.25-.21-.16-.41-.32-.62-.48-.26-.2-.52-.39-.78-.58-.21-.15-.42-.3-.63-.44-.27-.18-.53-.36-.8-.54-.21-.14-.42-.28-.64-.41-.27-.17-.55-.33-.82-.5-.21-.12-.42-.25-.64-.37-.28-.16-.57-.31-.86-.46-.21-.11-.42-.22-.63-.33-.3-.15-.61-.29-.91-.44-.2-.09-.4-.19-.6-.28-.34-.15-.68-.29-1.02-.43-.17-.07-.34-.14-.51-.21-.51-.2-1.03-.39-1.55-.56-.01,0-.02,0-.03-.01.04-.02.08-.05.12-.07.41-.22.84-.45,1.27-.66ZM74.56,17.14c.85-.17,1.72-.33,2.61-.48.32-.05.65-.11.98-.16.67-.11,1.34-.21,2.02-.31.37-.05.75-.1,1.12-.15.67-.09,1.34-.17,2.03-.25.37-.04.73-.09,1.11-.13.77-.08,1.54-.16,2.32-.22.29-.03.57-.05.85-.08,1.06-.09,2.14-.16,3.21-.23.2-.01.4-.02.6-.03.88-.05,1.76-.09,2.65-.12.37-.01.73-.02,1.1-.03.45-.01.9-.02,1.36-.03v8.12c-.2,0-.41.01-.61.02-.3,0-.59.02-.89.03-.48.02-.96.04-1.44.07-.29.02-.59.03-.88.05-.5.03-1,.07-1.5.11-.26.02-.53.04-.79.06-.63.05-1.24.11-1.86.18-.13.01-.26.02-.39.04-.74.08-1.47.17-2.19.27-.22.03-.44.06-.66.1-.5.07-.99.14-1.47.22-.27.04-.52.09-.79.14-.43.07-.85.15-1.27.23-.27.05-.53.1-.79.16-.2.04-.41.08-.6.12-.16-.26-.33-.5-.49-.75-.18-.29-.37-.58-.55-.86-.27-.41-.55-.8-.84-1.19-.18-.25-.36-.5-.54-.74-.31-.41-.63-.8-.95-1.18-.15-.19-.31-.38-.46-.56-.48-.55-.96-1.07-1.46-1.56-.27-.27-.55-.53-.83-.78,0,0,0,0,0,0,.01,0,.02,0,.03,0,.09-.02.18-.03.27-.05ZM101.8,14.99c.89.03,1.77.07,2.65.12.2.01.4.02.6.03,1.08.06,2.15.14,3.21.23.29.02.57.05.85.08.78.07,1.55.14,2.32.22.37.04.74.08,1.11.13.68.08,1.36.16,2.03.25.38.05.75.1,1.12.15.68.1,1.35.2,2.02.31.33.05.66.1.98.16.88.15,1.75.31,2.61.48.09.02.18.03.27.05.01,0,.02,0,.03,0,0,0,0,0,0,0-.28.25-.55.51-.83.79-.49.49-.98,1.01-1.46,1.56-.16.18-.31.38-.46.56-.32.38-.64.77-.95,1.18-.18.24-.36.49-.54.74-.28.39-.56.78-.84,1.19-.19.28-.37.57-.55.86-.16.25-.33.49-.49.75-.2-.04-.4-.08-.6-.12-.26-.05-.52-.11-.79-.16-.42-.08-.85-.16-1.28-.23-.26-.04-.51-.09-.77-.13-.5-.08-1-.16-1.51-.23-.2-.03-.4-.06-.61-.09-.73-.1-1.47-.19-2.21-.27-.06,0-.13-.01-.19-.02-.68-.07-1.37-.14-2.07-.2-.22-.02-.45-.03-.68-.05-.54-.04-1.08-.08-1.62-.12-.27-.02-.53-.03-.8-.04-.5-.03-1.01-.05-1.51-.07-.29-.01-.57-.02-.86-.03-.21,0-.42-.02-.62-.02v-8.12c.45,0,.9.01,1.36.03.37.01.73.02,1.1.03ZM126.75,18.4c.35.09.7.19,1.05.29.28.08.56.15.84.23.35.1.69.21,1.04.31.26.08.53.16.79.24.35.11.69.22,1.03.34.24.08.49.16.73.25.35.12.68.25,1.02.37.22.08.45.16.67.25.35.13.69.27,1.03.41.2.08.4.16.59.24.37.16.74.32,1.1.48.15.07.3.13.45.2.51.23,1,.46,1.48.7.43.22.86.44,1.27.66.04.02.08.05.13.07-.01,0-.02,0-.03.01-.52.17-1.04.36-1.55.56-.17.07-.34.14-.51.21-.34.14-.68.28-1.02.43-.2.09-.4.19-.6.28-.3.14-.61.28-.91.44-.21.11-.42.22-.63.33-.29.15-.57.3-.86.46-.21.12-.43.25-.64.37-.28.16-.55.33-.82.5-.21.13-.42.27-.64.41-.27.18-.54.35-.8.54-.21.14-.42.29-.63.44-.26.19-.52.38-.78.58-.21.16-.41.31-.62.48-.11.09-.22.17-.33.25-.07-.04-.14-.08-.21-.12-.13-.08-.26-.15-.4-.23-.28-.16-.57-.32-.87-.48-.14-.07-.28-.15-.43-.22-.35-.18-.7-.35-1.07-.52-.1-.05-.2-.09-.3-.14-.47-.21-.95-.42-1.45-.62-.12-.05-.24-.09-.36-.14-.39-.15-.78-.3-1.18-.45-.17-.06-.35-.12-.53-.19-.38-.13-.76-.26-1.15-.38-.18-.06-.35-.11-.53-.17-.48-.15-.98-.29-1.48-.43-.08-.02-.16-.05-.24-.07-.01,0-.02,0-.03,0,.05-.08.1-.17.16-.25.13-.2.27-.4.4-.6.27-.4.55-.8.82-1.17.15-.2.29-.4.44-.59.29-.37.57-.73.87-1.08.13-.16.27-.32.4-.48.42-.48.85-.95,1.28-1.37.36-.35.71-.68,1.07-.99.07-.06.13-.12.2-.17.34-.29.68-.56,1.02-.81.02-.02.05-.03.07-.05.25.06.5.12.74.18.3.08.6.15.89.23ZM147.57,24.74c.39-.03.77-.06,1.15-.07.21,0,.43,0,.64,0,.34,0,.68,0,1.01.01.22,0,.44.02.67.04.32.02.64.05.96.08.22.02.44.05.66.08.32.04.64.1.95.16.21.04.42.08.63.12.33.07.66.15.98.24.18.05.37.09.55.14.4.12.8.25,1.19.39.1.04.2.06.3.1.47.18.93.37,1.38.58.16.12.32.24.48.36.14.11.28.21.42.32.18.14.34.28.51.42.13.11.26.21.39.32.16.14.32.28.48.43.12.11.25.22.36.33.15.14.29.29.44.43.11.11.23.22.34.33.14.14.27.29.4.43.1.11.21.22.31.34.13.15.25.3.38.45.09.11.19.22.27.33.13.17.25.33.37.5.07.09.14.19.21.28.18.26.36.52.52.79.17.27.32.54.46.81.04.08.08.16.12.24.1.19.19.39.27.58.04.09.08.18.12.28.08.2.15.39.22.59.03.08.06.16.08.24.09.27.16.55.22.82,0,0,0,0,0,0-.58-.27-1.17-.51-1.76-.75-.13-.05-.26-.09-.39-.14-.53-.2-1.06-.39-1.59-.57-.22-.07-.44-.14-.66-.21-.47-.15-.93-.28-1.41-.41-.22-.06-.45-.12-.67-.18-.55-.14-1.1-.26-1.65-.37-.14-.03-.28-.06-.42-.09-.69-.13-1.38-.24-2.08-.34-.19-.03-.38-.04-.57-.06-.52-.06-1.04-.11-1.56-.15-.24-.02-.48-.03-.72-.05-.21-.01-.42-.03-.63-.04,0-.02,0-.04-.01-.06-.05-.32-.11-.63-.19-.94-.02-.07-.04-.14-.06-.21-.07-.25-.15-.5-.24-.75-.03-.09-.06-.17-.1-.26-.11-.29-.24-.59-.38-.88,0-.02-.01-.03-.02-.05-.15-.31-.32-.61-.5-.92-.05-.08-.1-.17-.15-.25-.15-.24-.31-.47-.48-.71-.05-.07-.1-.15-.16-.22-.22-.3-.45-.59-.7-.88-.05-.05-.1-.11-.14-.16-.21-.24-.44-.48-.67-.72-.08-.08-.17-.17-.25-.25-.24-.24-.5-.48-.77-.72-.04-.04-.07-.07-.11-.11.03,0,.06,0,.09-.01.17-.02.34-.02.52-.04ZM153.18,35.8c.41.03.82.07,1.23.12.27.03.53.06.8.1.42.06.84.13,1.26.2.25.04.49.08.74.13.47.09.94.2,1.41.32.18.04.37.08.55.13.65.17,1.29.35,1.93.56.12.04.23.08.35.12.52.17,1.03.35,1.53.55.22.08.43.18.65.27.4.17.8.33,1.19.51.24.11.47.22.7.34.21.1.42.21.62.32-.01.09-.01.18-.03.28-.02.16-.05.31-.09.47-.05.27-.12.54-.2.8-.04.15-.09.31-.14.46-.1.28-.21.57-.33.85-.06.13-.11.27-.17.4-.2.41-.42.82-.67,1.23-.18.29-.38.58-.58.87-.07.1-.15.19-.22.29-.14.19-.29.38-.45.57-.09.11-.19.23-.29.34-.15.17-.3.34-.46.52-.11.12-.23.24-.34.35-.16.16-.32.33-.49.49-.12.12-.25.24-.38.36-.17.16-.35.32-.53.48-.13.12-.27.23-.41.35-.19.16-.39.32-.58.48-.14.11-.29.23-.44.34-.21.16-.43.32-.64.48-.15.11-.3.22-.45.33-.06.04-.13.09-.2.13-.2-.16-.41-.31-.61-.47-.16-.12-.32-.25-.48-.37-.53-.4-1.06-.79-1.6-1.15,0,0-.02-.01-.02-.02-.55-.37-1.11-.72-1.67-1.07-.17-.1-.34-.2-.5-.3-.41-.24-.83-.47-1.25-.7-.18-.1-.36-.19-.54-.28-.49-.25-.99-.49-1.49-.72-.09-.04-.17-.08-.26-.12-.58-.26-1.17-.5-1.76-.72-.17-.06-.33-.12-.5-.18-.26-.1-.53-.2-.79-.29.06-.05.12-.11.18-.16.33-.28.64-.56.93-.84.09-.09.19-.17.27-.26.35-.35.69-.7.99-1.06.05-.06.1-.12.15-.18.26-.31.49-.62.72-.93.07-.1.14-.2.21-.3.25-.37.48-.74.68-1.11,0,0,0,0,0,0,.19-.35.35-.7.49-1.06.04-.1.08-.19.11-.29.11-.29.21-.59.29-.89.02-.07.04-.14.06-.21.08-.31.15-.62.2-.93.16,0,.32,0,.48.02.27.02.54.04.82.06ZM160.91,57c.17.2.35.39.52.59.26.3.51.61.75.92.16.19.31.38.47.58.27.35.53.71.79,1.07.12.16.24.32.36.49.37.53.73,1.07,1.08,1.61,0,.01.02.03.03.04.34.53.66,1.07.97,1.61.1.18.2.36.3.55.18.32.35.65.52.98-.25.15-.5.3-.75.46-.28.17-.56.34-.86.51-.34.19-.69.38-1.03.57-.3.16-.59.33-.9.49-.36.19-.73.37-1.11.56-.31.16-.62.31-.94.47-.39.19-.79.37-1.19.55-.32.15-.64.3-.97.44-.42.18-.85.36-1.29.54-.33.14-.64.28-.98.41-.46.18-.93.36-1.4.54-.32.12-.64.25-.97.38-.52.19-1.05.38-1.59.57-.3.1-.59.21-.89.31-.84.29-1.7.57-2.57.84-.76.24-1.53.47-2.32.7-.26.08-.53.15-.79.22-.53.15-1.06.3-1.6.44-.32.09-.64.17-.96.25-.5.13-.99.26-1.5.38-.34.08-.69.17-1.03.25-.25.06-.5.12-.76.18-.15-.53-.31-1.05-.47-1.57-.11-.37-.21-.74-.33-1.1-.36-1.12-.73-2.23-1.14-3.31,0,0,0-.01,0-.02-.11-.29-.23-.58-.35-.87-.54-1.39-1.11-2.74-1.72-4.03-.32-.67-.65-1.33-.99-1.98-.01-.03-.03-.05-.04-.08.03,0,.05-.01.07-.02.68-.16,1.35-.33,2-.49,4.62-1.19,8.88-2.6,12.66-4.19.78-.33,1.53-.66,2.26-1,.24-.11.47-.23.71-.35.48-.23.97-.47,1.43-.71.27-.14.53-.28.79-.42.42-.22.83-.45,1.23-.68.26-.15.52-.3.77-.45.2-.12.4-.23.6-.35.13.12.26.23.39.35.2.18.39.37.59.56.27.26.53.52.79.79.19.19.38.39.56.58.26.28.51.56.77.84ZM135.41,76.54c-.61.12-1.22.23-1.83.35-.39.07-.78.14-1.17.21-.68.12-1.36.23-2.05.34-.33.05-.67.11-1,.17-1.02.16-2.05.31-3.09.46-1.26.17-2.54.34-3.83.49-.63.07-1.26.14-1.9.21l-.2.02c-1.38.14-2.78.27-4.19.39l-.37.03c-2.54.2-5.13.36-7.71.46-.75.03-1.53.06-2.32.08-.21,0-.43.01-.64.02-.58.01-1.17.03-1.77.04-.25,0-.51,0-.76.01-.55,0-1.11.01-1.66.02-.28,0-.56,0-.84,0-.25,0-.49,0-.73,0v-13.41c.34,0,.69,0,1.04,0,.35,0,.7,0,1.05,0,.42,0,.84-.01,1.26-.02.31,0,.62,0,.93-.02.5-.01.98-.03,1.47-.04.22,0,.45-.01.67-.02.7-.02,1.39-.05,2.05-.08h.15c2.13-.11,4.24-.25,6.27-.42l.22-.02c.74-.06,1.48-.13,2.22-.21,1.42-.14,2.83-.3,4.22-.48.46-.06.91-.13,1.36-.19.93-.13,1.85-.25,2.76-.39.54-.08,1.06-.18,1.6-.27.81-.14,1.63-.27,2.42-.42.56-.1,1.1-.22,1.65-.33.57-.11,1.15-.22,1.71-.34.05.1.11.19.16.29.41.76.81,1.54,1.19,2.34.7,1.48,1.37,3.05,1.97,4.67.39,1.04.75,2.1,1.09,3.17.11.34.21.68.31,1.02.14.47.27.95.41,1.43-.31.06-.61.13-.92.19-.4.08-.8.16-1.21.24ZM93.51,79.81c-.36,0-.73,0-1.09-.02-.48,0-.95-.02-1.43-.03-.3,0-.61-.01-.91-.02-.77-.02-1.54-.05-2.27-.08-2.58-.11-5.17-.26-7.71-.46l-.37-.03c-1.41-.11-2.81-.24-4.19-.39l-.21-.02c-.64-.07-1.27-.14-1.9-.21-1.29-.15-2.57-.31-3.83-.49-1.04-.14-2.07-.3-3.09-.46-.34-.05-.67-.11-1-.17-.69-.11-1.37-.22-2.05-.34-.39-.07-.78-.14-1.17-.21-.61-.11-1.23-.23-1.83-.35-.41-.08-.81-.16-1.21-.24-.31-.06-.61-.13-.92-.19.13-.48.26-.96.41-1.43.1-.34.2-.68.31-1.02.34-1.07.7-2.13,1.09-3.17.61-1.62,1.27-3.19,1.97-4.67.38-.8.78-1.58,1.19-2.34.05-.1.11-.19.16-.29.56.12,1.14.22,1.71.34.55.11,1.1.22,1.65.33.8.15,1.61.28,2.42.42.53.09,1.06.18,1.6.27.91.14,1.84.27,2.76.39.46.06.9.13,1.36.19,1.39.18,2.8.34,4.22.48.73.07,1.47.14,2.3.21h.14c2.03.18,4.14.32,6.28.42h.14c.66.04,1.35.06,2.05.09.23,0,.48.01.71.02.47.01.94.03,1.43.04.32,0,.65.01.98.02.4,0,.81.02,1.21.02.35,0,.7,0,1.05,0,.35,0,.7,0,1.04,0v13.41c-.2,0-.4,0-.6,0-.37,0-.74,0-1.11,0-.43,0-.86,0-1.29-.01ZM60.88,59.69c-.57-.14-1.13-.27-1.68-.42-4.49-1.15-8.62-2.52-12.27-4.06-.71-.3-1.39-.6-2.07-.92-.21-.09-.4-.19-.61-.29-.47-.23-.94-.45-1.39-.69-.21-.11-.41-.21-.62-.32-.49-.26-.96-.52-1.42-.78-.13-.07-.27-.15-.4-.22-.03-.02-.06-.04-.1-.06.01-.01.03-.02.04-.03.11-.08.22-.16.33-.24.4-.3.81-.6,1.22-.88.18-.13.37-.25.56-.37.34-.23.68-.45,1.03-.66.2-.12.41-.25.62-.37.34-.2.68-.39,1.02-.58.21-.11.41-.22.62-.33.37-.19.74-.37,1.12-.54.18-.08.36-.17.54-.25.55-.25,1.11-.48,1.67-.69,0,0,0,0,0,0,.56-.21,1.12-.4,1.68-.57.18-.06.36-.1.54-.16.28-.08.57-.16.86-.23.07.04.14.08.21.12.6.38,1.23.75,1.87,1.1.48.26.98.52,1.49.77.18.09.36.17.55.26.34.16.68.33,1.03.48.22.1.45.19.67.29.33.14.65.28.99.42.25.1.5.2.75.3.33.13.65.26.98.38.27.1.54.2.82.29.33.12.66.24,1,.35.28.1.58.19.87.28.34.11.68.22,1.02.33.3.09.61.18.91.27.35.1.7.2,1.05.3.32.09.64.17.96.26.22.06.43.12.65.17-.34.31-.68.65-1.01.99-.09.09-.17.18-.26.27-.3.32-.6.65-.9,1-.04.04-.07.08-.11.12-.33.39-.66.79-.98,1.21-.08.1-.16.21-.24.31-.28.37-.55.74-.83,1.13-.05.07-.1.14-.15.22-.31.45-.62.92-.93,1.4-.07.11-.14.23-.21.34-.12.19-.23.37-.35.56-.21-.05-.42-.09-.62-.14-.17-.04-.35-.08-.52-.12ZM49.09,39.85c-.12-.14-.23-.28-.35-.42-.07-.09-.15-.18-.22-.27-.12-.16-.23-.32-.34-.48-.05-.07-.1-.14-.15-.22-.15-.23-.29-.47-.42-.7,0,0,0,0,0,0-.17-.31-.31-.63-.43-.95-.04-.1-.07-.21-.1-.31-.07-.22-.14-.44-.2-.65-.01-.04-.02-.08-.03-.13.1,0,.19,0,.29,0,.26.01.52.03.78.05.4.03.81.06,1.21.1.26.03.53.06.79.09.43.05.85.12,1.28.19.22.04.45.07.67.11.64.12,1.29.25,1.92.4.67.16,1.36.35,2.06.57.48.15.96.31,1.43.48.15.05.3.11.45.17.32.12.64.24.96.37.18.07.35.15.52.22.29.12.57.25.86.38.18.08.36.17.55.26.14.07.28.14.42.21,0,.04.02.07.02.11.01.09.04.19.06.28.05.24.11.48.18.71.03.11.07.21.1.32.09.25.19.49.31.73.04.08.07.15.11.23.15.29.32.59.51.88-.14-.02-.28-.02-.41-.04-.37-.04-.73-.08-1.11-.11-.24-.02-.48-.04-.72-.05-.38-.02-.76-.03-1.15-.03-.23,0-.47,0-.7,0-.42,0-.85.03-1.28.06-.2.01-.4.02-.6.04-.63.06-1.25.13-1.89.23,0,0,0,0-.01,0-.39.06-.75.12-1.1.19-.1.02-.2.04-.3.06-.11.02-.22.04-.32.06-.09-.06-.17-.12-.26-.18-.14-.1-.27-.19-.4-.29-.16-.12-.32-.24-.48-.36-.13-.1-.25-.2-.37-.3-.15-.12-.29-.25-.44-.37-.11-.1-.23-.2-.34-.3-.14-.13-.27-.25-.4-.38-.1-.1-.21-.2-.3-.29-.13-.13-.25-.26-.37-.4-.09-.09-.18-.19-.26-.29ZM64.09,36.9c.03-.07.06-.14.09-.22.07-.17.16-.35.25-.52.04-.07.07-.14.12-.21.14-.24.3-.47.48-.71.15-.2.33-.4.51-.6.05-.06.11-.12.17-.18.14-.15.29-.29.45-.44.06-.06.13-.12.19-.17.22-.19.45-.39.69-.57,0,0,0,0,.01,0,0,0,0,0,0,0,.04.04.08.07.12.1.41.37.83.75,1.23,1.15.39.38.77.77,1.14,1.17.12.13.24.27.36.4.25.27.5.54.74.82.14.16.28.33.42.5.21.26.43.51.64.78.14.18.28.37.43.55.2.26.39.51.58.77.14.19.28.39.42.58.18.26.37.52.54.78.13.2.27.4.4.6.17.27.34.53.51.8.13.2.25.4.37.61.16.28.32.55.48.83.11.2.23.4.34.61.05.09.09.18.14.26-.07.06-.14.12-.21.19-.07.06-.14.12-.2.18-.14.13-.26.25-.39.38-.04.05-.09.09-.14.14-.16.18-.32.35-.46.53-.03.03-.05.07-.07.1-.09.12-.19.25-.27.37-.06-.07-.12-.14-.18-.22-.14-.17-.28-.35-.42-.52-.25-.31-.51-.61-.78-.91-.16-.18-.32-.35-.48-.53-.27-.29-.54-.58-.82-.86-.16-.16-.32-.33-.49-.49-.31-.3-.63-.59-.95-.88-.14-.13-.29-.26-.43-.39-.47-.41-.96-.81-1.45-1.2-.01-.01-.03-.02-.04-.03-.48-.37-.98-.73-1.48-1.08-.17-.12-.34-.23-.51-.34-.36-.24-.72-.48-1.08-.7-.2-.12-.41-.25-.61-.37-.19-.11-.37-.23-.57-.34,0,0,0,0,0-.01,0-.02.01-.04.02-.07.05-.21.11-.43.19-.65ZM70.41,31.19c.4-.2.81-.4,1.23-.59.1-.05.21-.09.31-.13.34-.15.68-.29,1.03-.44.15-.06.29-.12.44-.18.35-.14.7-.27,1.07-.4.13-.05.25-.09.38-.14.49-.17.99-.34,1.5-.49.1-.03.2-.06.29-.09.43-.13.86-.26,1.3-.38.17-.05.34-.09.52-.14.16-.04.33-.08.5-.13.21.38.42.76.63,1.15.14.27.28.53.42.8.43.85.84,1.72,1.23,2.61.3.69.6,1.4.88,2.12.09.22.17.45.26.67.19.5.38,1,.56,1.51.1.27.19.55.28.83.16.47.32.95.47,1.42.09.29.18.59.27.89.06.2.12.41.18.62-.07.02-.12.04-.19.06-.42.12-.84.24-1.24.37-.15.05-.29.1-.44.15-.35.12-.7.24-1.04.37-.12.05-.25.09-.37.14-.44.17-.86.35-1.27.54-.07.03-.13.06-.19.09-.34.16-.66.32-.98.49-.05.03-.11.05-.16.08-.02-.03-.04-.06-.05-.09-.47-.86-.96-1.7-1.48-2.52-.09-.14-.17-.28-.26-.41-.52-.8-1.06-1.58-1.63-2.34-.1-.14-.2-.27-.31-.4-.58-.76-1.19-1.51-1.82-2.24-.08-.1-.17-.19-.26-.29-.67-.76-1.37-1.5-2.09-2.21-.29-.28-.57-.56-.87-.83.21-.11.41-.23.62-.34.09-.05.17-.09.26-.14ZM81.94,27.41c.11-.02.23-.04.34-.06.51-.1,1.04-.2,1.57-.29.21-.04.43-.07.64-.1.46-.07.92-.14,1.39-.21.23-.03.46-.06.69-.09.5-.07,1-.13,1.51-.19.19-.02.38-.05.58-.07,1.41-.15,2.86-.27,4.32-.36.2-.01.41-.02.61-.03.53-.03,1.05-.05,1.58-.07.25,0,.49-.02.74-.02.2,0,.4,0,.6-.01v13.13s-.06,0-.09,0c-.73.02-1.47.06-2.19.11-.17.01-.35.02-.52.04-.68.05-1.36.11-2.03.18-.06,0-.12.01-.19.02-.71.08-1.41.17-2.09.27-.16.02-.32.05-.49.07-.68.11-1.35.22-1.98.34,0,0,0,0,0,0-.07-.24-.15-.48-.22-.72-.1-.32-.19-.64-.3-.96-.15-.49-.32-.97-.48-1.46-.1-.3-.2-.6-.31-.9-.19-.52-.38-1.04-.58-1.55-.09-.24-.18-.49-.28-.73-.3-.75-.6-1.49-.92-2.22-.4-.91-.82-1.79-1.25-2.65-.12-.23-.23-.46-.35-.69-.13-.25-.25-.51-.38-.75.03,0,.05-.01.07-.02ZM100.68,25.93c.5.02.99.04,1.49.07.24.01.47.02.71.04.65.04,1.3.09,1.95.14.07,0,.14,0,.21.02.72.06,1.42.13,2.13.2.21.02.41.05.62.07.5.06.99.12,1.47.18.24.03.48.06.71.1.46.07.92.13,1.37.21.22.04.45.07.66.11.53.09,1.04.18,1.55.28.12.02.25.04.37.07.03,0,.05.01.07.02-.05.1-.1.21-.16.31-.24.46-.48.93-.71,1.4-.08.17-.17.34-.25.52-.29.61-.58,1.23-.86,1.86-.32.73-.62,1.46-.92,2.21-.1.25-.19.5-.29.75-.19.51-.39,1.02-.57,1.54-.11.3-.21.6-.31.9-.16.48-.33.97-.48,1.46-.1.32-.2.64-.29.96-.07.24-.15.48-.22.72,0,0,0,0,0,0-.64-.13-1.3-.24-1.98-.34-.16-.02-.32-.05-.48-.07-.68-.1-1.38-.19-2.09-.27-.06,0-.12-.01-.18-.02-.67-.07-1.35-.13-2.03-.18-.17-.01-.34-.02-.51-.04-.73-.05-1.47-.08-2.21-.11-.03,0-.05,0-.08,0v-13.13c.19,0,.38,0,.57.01.26,0,.51.02.77.03ZM117.89,28.35c.44.12.87.25,1.3.38.1.03.2.06.29.09.51.16,1.01.32,1.5.49.13.05.25.09.38.14.36.13.72.26,1.07.4.15.06.3.12.44.18.35.14.7.29,1.03.44.1.04.21.09.31.13.43.19.84.39,1.23.59.09.05.17.09.26.14.21.11.42.23.62.34-.29.27-.58.55-.87.83-.73.71-1.42,1.45-2.09,2.21-.08.1-.17.19-.25.28-.63.73-1.24,1.47-1.82,2.24-.1.13-.21.27-.31.4-.57.76-1.11,1.54-1.63,2.34-.09.14-.18.28-.26.42-.52.82-1.02,1.66-1.48,2.52-.02.03-.04.06-.05.09-.05-.03-.11-.05-.16-.08-.32-.17-.64-.33-.99-.49-.06-.03-.12-.06-.19-.09-.41-.19-.83-.37-1.27-.54-.12-.05-.24-.09-.37-.14-.34-.13-.68-.25-1.03-.37-.15-.05-.29-.1-.44-.15-.4-.13-.81-.25-1.23-.37-.07-.02-.13-.04-.2-.06.06-.2.12-.4.18-.6.09-.31.19-.61.28-.91.15-.47.3-.93.46-1.39.1-.29.19-.57.29-.86.18-.49.36-.98.54-1.47.09-.24.18-.48.27-.72.28-.71.57-1.42.88-2.11.39-.89.81-1.76,1.23-2.61.14-.27.28-.53.42-.8.2-.39.41-.77.63-1.15.17.04.33.08.5.13.17.05.35.09.52.14ZM132.24,30.52c.11-.08.22-.15.33-.22.32-.22.64-.44.96-.64.16-.1.32-.2.47-.29.28-.17.56-.34.84-.51.17-.1.35-.2.52-.29.27-.15.55-.3.82-.45.18-.09.35-.18.53-.27.28-.14.56-.27.84-.41.17-.08.34-.16.52-.24.31-.14.62-.26.93-.39.15-.06.3-.12.45-.18.46-.18.92-.35,1.39-.5.46-.15.91-.29,1.37-.42.14-.04.29-.08.43-.12.2-.05.4-.1.59-.15,0,0,0,0,.01,0,.27.19.54.4.82.61.06.05.12.09.17.14.27.22.54.44.81.67.04.04.08.07.12.11.25.22.5.45.74.69.03.03.07.07.11.1.25.25.49.52.73.79.05.06.1.12.15.18.23.28.45.56.66.85.03.04.05.08.08.12.19.27.36.55.52.84.03.05.06.1.09.16.16.31.31.62.43.94.03.07.05.14.08.21.12.33.22.66.29,1.01,0,0,0,.02,0,.02-.15,0-.3.02-.46.03-.24.01-.48.03-.72.04-.49.03-.98.07-1.47.13-.24.02-.48.05-.72.08-.51.06-1.01.14-1.52.22-.21.03-.43.06-.64.1-.71.13-1.41.27-2.11.44-.72.18-1.47.38-2.23.62-.7.22-1.39.46-2.08.72-.19.07-.37.14-.56.22-.57.22-1.13.46-1.68.71-.09.04-.19.08-.28.12-.02-.05-.04-.1-.06-.16-.05-.14-.1-.28-.15-.41-.03-.09-.07-.17-.11-.26-.06-.14-.13-.28-.2-.41-.04-.08-.08-.17-.13-.25-.08-.15-.17-.3-.27-.45-.04-.07-.08-.14-.13-.21-.14-.22-.29-.43-.46-.64-.25-.33-.54-.65-.85-.96-.09-.1-.2-.19-.29-.29-.23-.22-.47-.45-.73-.67-.06-.05-.12-.11-.18-.17.4-.31.81-.61,1.22-.9ZM148.77,36.49c-.04.1-.06.21-.1.31-.12.32-.27.64-.44.96-.13.24-.27.47-.42.7-.05.08-.11.15-.16.23-.11.16-.21.31-.33.47-.07.09-.15.18-.22.27-.11.14-.22.28-.34.42-.08.1-.18.19-.26.29-.12.13-.24.26-.37.39-.1.1-.2.2-.3.3-.13.13-.26.25-.4.38-.11.1-.23.2-.34.3-.14.12-.29.25-.44.37-.12.1-.25.2-.37.3-.16.12-.31.24-.48.36-.13.1-.27.19-.4.29-.08.06-.17.12-.26.18-.1-.02-.22-.04-.32-.06-.1-.02-.2-.04-.3-.06-.34-.06-.7-.13-1.09-.19,0,0,0,0-.02,0h0c-.67-.1-1.34-.18-2-.23-.21-.02-.41-.03-.62-.04-.46-.03-.92-.05-1.38-.05-.11,0-.23-.01-.34-.01-.14,0-.27.01-.41.01-.31,0-.62.02-.93.03-.27.01-.54.03-.81.05-.3.03-.61.06-.91.09-.16.02-.31.03-.47.05.19-.29.36-.58.51-.88.04-.08.07-.15.11-.23.12-.24.22-.49.31-.73.04-.11.07-.21.1-.32.07-.24.13-.47.18-.71.02-.09.04-.19.06-.28,0-.04.02-.07.02-.11.14-.07.28-.14.42-.21.18-.09.36-.17.54-.26.28-.13.57-.26.86-.38.17-.07.35-.15.52-.22.32-.13.64-.25.96-.37.15-.06.29-.11.44-.17.47-.17.95-.33,1.43-.48.7-.22,1.39-.41,2.06-.57.01,0,.03,0,.04,0,.62-.15,1.25-.28,1.88-.4.22-.04.45-.07.68-.11.42-.07.85-.13,1.27-.19.26-.03.53-.06.79-.09.4-.04.81-.08,1.21-.1.26-.02.52-.04.77-.05.1,0,.19,0,.29,0,0,.04-.02.08-.03.12-.05.22-.12.44-.2.66ZM145.07,46.43c.56.17,1.12.36,1.67.57,0,0,0,0,.01,0,.56.21,1.12.44,1.67.69.18.08.36.17.53.25.37.17.75.35,1.12.54.21.11.41.22.61.33.35.19.69.38,1.03.58.2.12.41.24.61.37.35.21.69.44,1.03.66.19.12.37.24.56.37.41.28.82.58,1.22.88.11.08.22.16.33.24.01.01.03.02.04.03-.03.02-.06.04-.1.06-.13.08-.27.15-.4.22-.46.26-.94.52-1.42.78-.2.11-.41.21-.62.32-.45.23-.92.46-1.39.69-.2.1-.4.19-.61.29-.67.31-1.36.62-2.07.92-3.65,1.54-7.78,2.9-12.27,4.06-.55.14-1.11.28-1.68.42-.17.04-.35.08-.52.12-.2.05-.41.09-.62.14-.11-.19-.23-.37-.35-.56-.07-.11-.14-.23-.21-.34-.31-.48-.61-.95-.93-1.4-.05-.08-.11-.15-.16-.22-.27-.38-.55-.76-.82-1.12-.08-.11-.16-.21-.24-.32-.32-.41-.65-.82-.98-1.2-.04-.05-.08-.09-.12-.14-.29-.34-.59-.67-.89-.98-.09-.09-.18-.19-.27-.28-.33-.34-.67-.68-1.01-.99.22-.06.44-.12.66-.18.32-.08.63-.17.94-.25.36-.1.72-.2,1.07-.31.3-.09.6-.18.89-.27.35-.11.7-.22,1.04-.33.28-.09.57-.18.85-.28.34-.12.68-.24,1.02-.36.27-.1.54-.19.8-.29.34-.13.67-.26,1-.38.25-.1.5-.19.74-.29.34-.14.67-.28,1-.43.22-.09.44-.19.66-.28.36-.16.7-.33,1.05-.49.18-.08.36-.17.53-.25.51-.25,1.01-.51,1.49-.77.65-.35,1.26-.72,1.87-1.09.07-.04.14-.08.21-.12.28.07.57.15.85.23.18.05.37.1.55.16ZM128.23,61.1c-.79.14-1.59.28-2.39.41-.49.08-.98.16-1.47.24-.88.14-1.78.26-2.68.38-.42.06-.84.12-1.27.17-1.33.17-2.67.32-4.03.46-.72.07-1.45.14-2.18.2,0,0-.09,0-.09,0h-.12c-2,.18-4.07.32-6.17.41h-.15c-.7.04-1.43.07-2.17.09-.25,0-.52.01-.78.02-.49.01-.99.03-1.49.04-.32,0-.64.01-.96.02-.45,0-.9.01-1.34.02-.34,0-.67,0-1.01,0-.2,0-.39,0-.58,0v-7.85c.33,0,.67,0,1-.01.33,0,.66,0,1-.01.44,0,.88-.02,1.32-.03.3,0,.61-.01.91-.02.49-.02.97-.04,1.45-.05.24,0,.49-.02.72-.03.71-.03,1.4-.07,2.06-.11,1.36-.09,2.74-.2,4.1-.33,1.13-.11,2.24-.23,3.33-.37,1.3-.16,2.62-.35,3.93-.56l.84-.14c.8-.13,1.59-.28,2.38-.43.26-.05.51-.1.76-.16.41-.08.83-.16,1.24-.25.12.09.25.18.37.27.11.08.22.17.32.25.25.2.5.42.75.65.07.06.14.12.2.18.31.29.63.6.94.93.08.09.16.18.25.27.23.25.46.5.69.77.11.12.22.25.32.38.21.25.41.5.62.77.11.14.21.27.32.41.23.3.45.61.67.93.08.11.15.21.23.32.28.4.55.81.82,1.24-.38.08-.76.16-1.14.23-.5.1-1,.19-1.51.29ZM94.9,63.58c-.43,0-.86,0-1.29-.02-.34,0-.68-.01-1.02-.02-.48-.01-.95-.02-1.42-.04-.28,0-.56-.01-.84-.02-.74-.02-1.47-.05-2.16-.08h-.15c-2.09-.11-4.17-.24-6.17-.41h-.12s-.09-.02-.1-.02c-.73-.06-1.46-.13-2.18-.2-1.36-.13-2.7-.29-4.03-.46-.43-.05-.85-.12-1.27-.17-.9-.12-1.79-.24-2.68-.38-.49-.08-.98-.16-1.47-.24-.8-.13-1.6-.27-2.39-.41-.51-.09-1.01-.19-1.51-.29-.38-.08-.76-.16-1.14-.23.27-.42.54-.84.82-1.24.07-.11.15-.21.23-.32.22-.32.45-.63.67-.93.1-.14.21-.27.32-.41.2-.26.41-.52.62-.77.11-.13.21-.26.32-.38.23-.26.46-.52.69-.77.08-.09.16-.18.25-.27.31-.32.63-.63.94-.93.07-.06.14-.12.2-.18.25-.23.5-.44.75-.65.11-.09.21-.17.32-.25.12-.1.25-.18.37-.27.41.09.83.17,1.25.25.25.05.49.1.74.15.79.15,1.59.3,2.38.43l.84.14c1.31.21,2.63.4,3.93.56,1.1.14,2.21.26,3.33.37,1.36.13,2.74.24,4.1.33.66.04,1.35.08,2.06.11.23.01.47.02.7.03.49.02.98.04,1.48.06.3,0,.61.01.91.02.44.01.88.02,1.32.03.33,0,.66,0,1,.01.33,0,.67,0,1,.01v7.85c-.19,0-.38,0-.57,0-.35,0-.69,0-1.04,0ZM67.59,49.37c-.2-.05-.4-.11-.6-.17-.43-.12-.86-.24-1.27-.36-.23-.07-.46-.14-.69-.21-.37-.12-.75-.23-1.11-.35-.24-.08-.47-.16-.71-.24-.34-.12-.68-.23-1.02-.36-.24-.09-.47-.17-.7-.26-.32-.12-.64-.24-.95-.37-.23-.09-.46-.18-.69-.28-.3-.12-.6-.25-.89-.38-.22-.1-.44-.19-.66-.29-.29-.13-.57-.26-.84-.4-.21-.1-.42-.2-.62-.3-.08-.04-.16-.08-.24-.13.46-.04.91-.07,1.36-.09.11,0,.23,0,.34,0,.36,0,.73,0,1.09,0,.17,0,.34.02.51.02.3.01.6.03.9.06.18.02.36.04.54.05.29.03.58.07.86.11.18.03.35.05.52.08.3.05.59.11.88.18.16.03.31.07.47.1.36.09.71.19,1.06.29.09.03.17.05.26.07.42.13.83.28,1.23.43.16.1.33.2.49.3.14.08.27.17.42.26.21.12.42.24.64.35.14.08.28.16.43.24.24.12.48.24.73.36.13.07.26.13.4.2.39.18.78.36,1.19.53.43.18.87.36,1.31.53.02,0,.04.02.07.03-.04.02-.09.04-.13.06-.39.19-.77.41-1.15.65-.04.03-.09.05-.13.08-.45-.1-.91-.21-1.35-.32-.66-.16-1.3-.33-1.94-.5ZM65.46,42.01c.13.09.26.19.39.29.28.21.56.42.83.63.23.18.45.37.67.55.26.22.53.45.78.68.06.06.13.12.19.18-.1-.06-.21-.12-.3-.19-.23-.15-.47-.32-.71-.49-.07-.05-.15-.11-.22-.17-.16-.12-.33-.25-.49-.38-.09-.07-.17-.15-.26-.23-.14-.13-.29-.25-.43-.38-.09-.09-.18-.18-.26-.27-.07-.07-.14-.14-.2-.22ZM79.72,45.45c.26-.14.52-.27.8-.41.09-.04.18-.09.27-.13.37-.17.75-.33,1.14-.49.07-.03.15-.06.23-.08.34-.13.68-.25,1.04-.37.13-.04.26-.08.39-.13.36-.12.73-.23,1.12-.34.07-.02.13-.04.19-.06.01.06.03.12.05.18.22.89.42,1.78.61,2.66.04.18.07.37.11.55.18.92.35,1.84.5,2.75.01.07.02.15.03.22-.03,0-.06,0-.09-.01-.81-.11-1.61-.22-2.39-.35-.21-.03-.41-.07-.61-.11-.6-.1-1.19-.21-1.77-.33-.13-.03-.26-.05-.4-.08-.23-.64-.48-1.27-.74-1.9-.06-.14-.12-.27-.18-.41-.15-.36-.3-.72-.46-1.07.06-.03.11-.06.17-.09ZM89.47,42.49c.15-.02.31-.05.46-.07.63-.09,1.27-.17,1.92-.24.09,0,.18-.02.26-.03.59-.06,1.18-.11,1.78-.15.17-.01.34-.03.52-.04.68-.04,1.35-.08,2.03-.1.02,0,.04,0,.06,0v8.61c-.58,0-1.17-.02-1.76-.03-.08,0-.15,0-.23,0-1.17-.03-2.34-.09-3.47-.16-.1,0-.21-.01-.31-.02-.55-.04-1.09-.08-1.62-.12,0,0,0,0,0,0-.05-.33-.09-.65-.15-.98-.15-.94-.33-1.89-.51-2.84-.04-.19-.08-.38-.12-.58-.19-.92-.4-1.84-.62-2.75-.01-.06-.03-.12-.04-.18.06-.01.12-.02.18-.03.52-.1,1.07-.19,1.62-.28ZM101.43,41.96c.17.01.35.02.52.04.6.04,1.19.09,1.78.15.09,0,.18.02.27.03.65.07,1.29.15,1.92.24.16.02.31.05.47.07.55.08,1.09.18,1.61.27.06.01.13.02.19.03-.01.06-.02.11-.04.17-.23.92-.44,1.85-.63,2.77-.04.19-.08.37-.11.56-.19.95-.37,1.9-.52,2.85-.05.33-.1.65-.15.98,0,0,0,0-.01,0-.52.05-1.06.09-1.6.12-.11,0-.22.01-.33.02-1.12.07-2.29.13-3.46.16-.08,0-.15,0-.23,0-.59.02-1.18.03-1.77.03v-8.61s.04,0,.06,0c.68.02,1.36.06,2.03.1ZM112.26,43.84c.13.04.26.09.39.13.36.12.7.24,1.04.37.08.03.16.06.23.09.4.16.78.32,1.14.49.1.04.19.09.28.13.27.13.53.26.79.4.06.03.12.06.18.1-.16.36-.32.73-.47,1.09-.06.13-.11.26-.17.39-.26.62-.51,1.26-.74,1.9-.13.03-.27.06-.4.08-.58.12-1.16.23-1.76.33-.21.04-.41.07-.62.11-.79.13-1.58.25-2.39.35-.03,0-.06,0-.09.01.01-.07.02-.15.03-.22.14-.91.32-1.83.5-2.75.04-.18.07-.36.11-.54.19-.89.39-1.79.61-2.68.01-.06.03-.11.04-.17.07.02.13.04.2.06.38.11.75.22,1.11.33ZM120.42,43.71c.16-.28.32-.55.48-.83.12-.2.25-.41.37-.61.17-.27.34-.54.51-.8.13-.2.26-.4.4-.6.18-.26.36-.52.54-.78.14-.19.28-.39.42-.58.19-.26.39-.52.58-.77.14-.18.28-.37.43-.55.21-.26.42-.51.63-.77.14-.17.28-.34.42-.51.24-.28.48-.54.73-.81.12-.14.25-.28.37-.41.37-.4.76-.79,1.14-1.17.4-.39.81-.78,1.23-1.15.04-.04.08-.07.12-.1,0,0,0,0,0,0,0,0,.01,0,.02.01.24.19.47.38.69.57.07.06.13.12.19.18.16.15.31.29.45.44.06.06.12.12.17.18.18.19.35.39.5.59,0,0,0,0,.01.01,0,0,0,0,0,0,.18.24.34.47.48.71.04.07.08.14.12.21.1.17.18.35.25.52.03.07.06.14.09.22.08.22.14.43.19.65,0,.02.01.04.02.07,0,0,0,0,0,.01-.19.11-.38.23-.57.34-.2.12-.41.24-.61.36-.37.23-.73.46-1.09.7-.17.11-.34.22-.5.34-.5.35-1,.71-1.48,1.08-.01.01-.03.02-.04.03-.5.39-.98.79-1.45,1.2-.15.13-.29.26-.44.4-.32.29-.64.58-.94.87-.17.16-.33.33-.5.49-.28.28-.55.56-.82.85-.16.18-.32.35-.48.53-.26.3-.52.6-.77.9-.14.18-.29.35-.43.53-.06.07-.12.14-.17.21-.08-.12-.17-.24-.26-.37-.03-.04-.05-.07-.08-.11-.14-.18-.29-.35-.45-.53-.05-.05-.1-.1-.15-.15-.12-.12-.24-.25-.38-.37-.07-.06-.14-.12-.21-.19-.07-.06-.13-.12-.21-.18.05-.09.09-.17.14-.26.11-.2.23-.41.34-.61ZM131.79,45.81c.16-.04.32-.07.48-.11.29-.06.57-.12.86-.17.18-.03.36-.06.54-.09.28-.04.56-.08.84-.11.19-.02.37-.04.56-.06.29-.02.58-.04.88-.06.18,0,.35-.02.53-.02.35,0,.7,0,1.05,0,.12,0,.25,0,.37,0,.45.02.9.05,1.35.09-.08.04-.16.09-.25.13-.2.1-.41.2-.61.3-.28.13-.56.27-.85.4-.22.1-.44.2-.66.29-.29.13-.59.25-.89.38-.23.09-.46.19-.69.28-.31.12-.62.24-.94.36-.24.09-.47.18-.71.26-.33.12-.67.24-1.01.35-.24.08-.47.16-.72.24-.36.12-.73.24-1.11.35-.23.07-.46.14-.69.21-.42.13-.85.25-1.28.37-.2.06-.39.11-.59.17-.64.17-1.28.34-1.94.5-.44.11-.9.21-1.35.32-.04-.03-.09-.05-.13-.07-.38-.23-.76-.45-1.15-.65h0s-.09-.04-.13-.06c.02,0,.04-.02.07-.03.45-.17.89-.35,1.31-.53.41-.17.8-.35,1.19-.53.14-.07.27-.14.41-.2.24-.12.49-.24.72-.36.15-.08.29-.16.43-.24.21-.12.43-.23.63-.35.14-.08.28-.17.42-.26.16-.1.33-.2.49-.3.41-.16.82-.3,1.23-.43.09-.03.18-.05.27-.08.34-.1.69-.2,1.04-.29ZM77.19,47.25c.1.23.22.45.31.69.01.03.03.06.04.09.02.04.03.07.04.11-.31-.08-.62-.17-.93-.26.01-.02.03-.04.04-.06.14-.19.3-.38.49-.57ZM75.8,51.18s.01,0,.02,0c.27-.05.54-.09.8-.11.07,0,.13,0,.2-.01.22-.01.44,0,.66,0,.04,0,.09,0,.13,0,.42.11.84.21,1.27.31l.68.15c.98.22,2,.41,3.04.59.06.01.13.03.19.04-.61-.07-1.22-.13-1.81-.2-1.27-.16-2.56-.34-3.83-.55l-.82-.13c-.18-.03-.35-.06-.52-.09ZM113.06,52.16c.05,0,.1-.02.15-.03,1.05-.18,2.09-.38,3.09-.6,0,0,0,0,0,0,.02,0,.04,0,.06-.01,0,0,.1-.02.1-.02l.52-.12c.43-.1.85-.2,1.27-.31.04,0,.08,0,.13,0,.21-.01.43-.01.66,0,.07,0,.13,0,.2,0,.26.02.53.05.8.11,0,0,.01,0,.02,0-.18.03-.35.07-.52.09l-.81.13c-1.27.2-2.56.39-3.83.55-.6.08-1.22.14-1.83.2ZM119.2,47.88s0,0,0,0c-.31.09-.62.17-.92.26.01-.04.03-.07.04-.11.01-.03.03-.06.04-.09.1-.23.21-.46.31-.69.19.19.35.38.49.57.01.02.03.04.04.05,0,0,0,0,0,0ZM129.93,42.5c-.14.13-.28.25-.42.38-.09.08-.18.16-.27.23-.16.13-.32.25-.48.38-.08.06-.15.12-.23.18-.24.17-.47.34-.7.49-.1.06-.2.12-.3.19.06-.06.13-.12.19-.18.26-.23.52-.46.79-.68.22-.18.44-.37.67-.55.27-.22.55-.43.84-.64.13-.1.26-.19.39-.29-.07.07-.13.15-.2.22-.09.09-.17.18-.27.27ZM109.34,97.2c-.37.02-.74.03-1.11.04-.81.03-1.62.06-2.44.08-.44.01-.88.02-1.33.03-.75.02-1.5.03-2.26.04-.48,0-.96,0-1.44.01-.47,0-.95,0-1.42,0v-14.74h.02c2.95,0,6.02-.06,8.8-.17,2.62-.11,5.25-.26,7.82-.47l.37-.03c1.43-.12,2.85-.25,4.26-.39l.21-.02c.65-.07,1.29-.14,1.93-.21,1.31-.15,2.61-.32,3.89-.49,1.06-.15,2.11-.3,3.16-.47.35-.05.69-.11,1.04-.17.7-.11,1.39-.23,2.08-.35.41-.07.81-.15,1.21-.22.62-.11,1.24-.23,1.85-.35.43-.08.85-.17,1.27-.26.33-.07.67-.13,1.01-.2.02.07.03.13.05.2.21.92.41,1.84.59,2.77.04.18.07.37.1.55.18.96.34,1.92.47,2.88.08.56.15,1.11.21,1.67.12,1,.2,1.98.27,2.96.01.17.03.34.04.5.06.94.09,1.86.11,2.77,0,.08,0,.15,0,.23-.38.08-.76.17-1.15.25-4.17.86-8.57,1.59-13.07,2.17-4.24.54-8.64.95-13.07,1.22-1.14.07-2.3.13-3.47.18ZM29.85,36.23c.06-.27.14-.54.22-.82.03-.08.06-.16.08-.25.07-.19.14-.39.21-.58.04-.09.08-.19.12-.28.08-.19.17-.38.27-.57.04-.08.08-.17.12-.25.14-.27.29-.53.45-.8,0,0,0,0,0-.01.16-.26.33-.53.52-.79.05-.08.12-.15.17-.23.13-.18.27-.37.41-.55.08-.1.17-.2.25-.3.13-.16.26-.32.4-.47.1-.11.2-.22.3-.32.14-.15.27-.3.41-.44.11-.11.22-.22.33-.33.15-.15.29-.29.44-.43.12-.11.24-.22.36-.33.16-.14.31-.28.48-.43.13-.11.26-.21.39-.32.17-.14.34-.28.51-.42.14-.11.28-.21.42-.32.16-.12.31-.24.48-.36.45-.21.91-.41,1.38-.59.09-.04.19-.06.28-.1.4-.14.8-.28,1.2-.4.18-.05.36-.09.53-.14.33-.09.66-.17,1-.25.2-.04.41-.08.61-.12.32-.06.64-.11.97-.16.21-.03.43-.06.64-.08.33-.04.65-.06.98-.09.22-.01.43-.03.65-.04.34-.01.69-.02,1.03-.01.21,0,.41,0,.62,0,.39.01.78.04,1.17.07.17.01.33.02.5.03.03,0,.06,0,.09.01-.04.04-.07.07-.11.11-.27.24-.52.48-.77.72-.09.08-.17.17-.25.25-.23.24-.46.48-.67.72-.05.05-.1.1-.14.16-.25.29-.48.59-.7.88-.06.07-.11.15-.16.22-.17.23-.33.47-.48.71-.05.08-.1.16-.15.25-.18.3-.35.61-.5.92,0,.02-.01.03-.02.05-.14.29-.27.58-.38.88-.03.09-.06.17-.1.26-.09.25-.17.5-.24.75-.02.07-.04.14-.06.21-.08.31-.14.63-.19.94,0,.02,0,.04-.01.06-.21,0-.42.03-.63.04-.24.01-.48.03-.73.05-.52.04-1.04.09-1.56.15-.19.02-.38.04-.57.06-.7.09-1.39.2-2.08.34-.14.03-.28.06-.42.09-.55.11-1.1.23-1.65.37-.23.06-.45.12-.67.18-.47.13-.94.26-1.41.41-.22.07-.44.14-.66.21-.54.18-1.07.37-1.59.57-.13.05-.26.09-.39.14-.59.24-1.18.48-1.76.75,0,0,0,0,0,0ZM141.29,106.74c.02-.06.04-.13.06-.19.93-3.14,1.46-6.79,1.57-10.84v-.04c.63-.14,1.24-.3,1.86-.45.39-.09.78-.18,1.16-.28,1.19-.3,2.37-.61,3.52-.93,6.24-1.76,11.85-3.84,16.69-6.18.75-.37,1.48-.74,2.2-1.12.22-.12.43-.23.64-.35.51-.28,1.01-.56,1.5-.84.12-.07.25-.14.36-.2-.01.11-.02.23-.03.34-.05.47-.11.93-.18,1.39-.03.21-.06.41-.09.62-.11.65-.24,1.29-.4,1.92-.16.64-.34,1.27-.55,1.89-.06.2-.14.38-.21.57-.15.42-.3.83-.47,1.23-.09.23-.21.44-.31.66-.16.36-.32.71-.5,1.06-.12.23-.26.45-.38.68-.16.28-.31.55-.48.82-.28.18-.58.37-.87.55-.17.11-.34.22-.52.32-.53.32-1.07.63-1.62.94-5.42,3.02-12.13,5.61-19.95,7.69-.98.26-2,.51-3.01.76ZM168.96,34.27c.29.28.57.56.83.8,1.27,1.2,3.83,4.19,4.81,5.63.19.29.4.6.6.91.26.39.52.81.78,1.23.06.1.13.2.19.3.07.11.13.22.2.33-.03-.03-.06-.06-.09-.09-.51-.51-1.04-1.01-1.59-1.49-.12-.1-.24-.2-.36-.31-.57-.49-1.15-.97-1.76-1.43,0,0,0,0,0,0-.62-.47-1.26-.91-1.92-1.34-.21-.14-.42-.26-.64-.4-.32-.2-.64-.41-.96-.6,0-.05-.01-.1-.01-.16-.01-.24-.04-.48-.06-.72-.01-.1-.02-.2-.03-.31-.05-.34-.11-.68-.18-1.02,0-.04-.02-.08-.03-.12-.07-.3-.15-.6-.24-.89-.03-.11-.07-.22-.11-.33-.08-.23-.16-.46-.25-.69-.02-.06-.04-.12-.06-.17.29.28.59.57.89.85ZM26.06,35.07c.26-.24.54-.52.83-.8.3-.29.6-.58.89-.85-.02.06-.04.12-.06.18-.09.23-.17.46-.25.69-.04.11-.08.22-.11.33-.09.3-.17.59-.24.89,0,.04-.02.08-.03.12-.08.34-.13.68-.18,1.02-.01.1-.02.2-.03.31-.03.24-.05.48-.06.72,0,.05-.01.1-.01.16-.33.19-.65.4-.97.6-.21.13-.42.26-.63.39-.66.43-1.3.87-1.92,1.34-.61.46-1.19.94-1.77,1.43-.12.1-.24.2-.36.31-.55.48-1.08.98-1.59,1.49-.03.03-.06.06-.09.09.07-.11.14-.23.21-.34.06-.09.11-.18.17-.27.27-.43.53-.85.79-1.24,0,0,0,0,0,0,.21-.32.41-.62.6-.91.97-1.43,3.53-4.43,4.81-5.63ZM16.28,81.48c-.55-1.29-1.11-3.01-1.57-4.51.4.48.82.95,1.27,1.42.43.45.89.9,1.38,1.35.17.15.35.3.52.45.33.29.66.58,1.01.87.21.18.44.35.67.53.33.26.66.52,1,.78.25.18.5.36.75.54.24.17.47.34.71.51,0,.23.03.45.04.68.01.26.02.52.04.78.03.37.07.74.1,1.11.03.24.05.48.08.72.05.4.12.8.18,1.2.03.2.06.4.1.6.11.59.24,1.18.38,1.75.2.79.43,1.56.69,2.31.02.04.03.09.04.14-.13-.12-.26-.24-.39-.36-.12-.12-.25-.24-.37-.36-.17-.17-.34-.35-.51-.53-.11-.11-.21-.22-.32-.33-.18-.2-.35-.39-.51-.59-.08-.09-.16-.18-.24-.28-.24-.29-.47-.58-.68-.88,0,0,0,0,0,0-.04-.05-.07-.09-.12-.14-.48-.67-.86-1.25-1.16-1.77-.96-1.62-2.27-4.05-3.11-6ZM54.34,112.02l-1.02-.32c-1.69-.53-3.84-1.35-5.17-1.88-2.29-.93-5.36-2.34-7.65-3.51-1.47-.75-3.38-1.92-4.83-2.82.37.17.75.33,1.13.49.13.06.27.12.4.17.73.31,1.47.61,2.23.9.18.07.37.14.55.21.62.24,1.25.47,1.89.7.2.07.39.14.59.21.79.28,1.6.55,2.43.82.14.05.29.09.44.14.71.23,1.42.44,2.15.66.23.07.47.14.7.21.87.25,1.74.5,2.64.74,1.28.34,2.58.67,3.91.98.34.08.69.16,1.03.24,0,0,0,0,0,0,0,0,0,0,0,0,.02.05.05.09.07.13.13.27.25.53.38.77,0,0,0,.01.01.02.19.36.38.71.59,1.05.01.02.02.04.04.06.2.33.41.65.62.95.01.02.02.04.03.05-.94-.27-2.09-.63-3.16-.97ZM82.23,117.47c-1.03-.09-2.29-.23-3.47-.36l-1.54-.17c-1.48-.16-3.44-.46-4.97-.7-.99-.16-2.19-.38-3.32-.58l-1.44-.26c-.41-.07-.89-.17-1.41-.28-.15-.11-.33-.19-.53-.23-.75-.15-1.5-.31-2.24-.48-.04-.01-.09-.01-.13-.02-.18-.08-.35-.18-.53-.28-.07-.04-.14-.09-.22-.14-.12-.08-.24-.15-.35-.24-.08-.06-.17-.13-.25-.19-.1-.08-.21-.17-.31-.26-.08-.07-.16-.14-.24-.22-.12-.11-.24-.23-.35-.35-.06-.06-.11-.11-.17-.18-.48-.52-.93-1.13-1.36-1.81.26.05.53.1.79.15.5.1,1,.19,1.5.28.88.16,1.77.32,2.67.47.52.09,1.03.17,1.55.26.95.15,1.91.29,2.88.43.46.07.92.13,1.38.2,1.43.19,2.86.37,4.31.53,7.11.78,14.5,1.17,21.97,1.17h.04v3.9c-1.81,0-5.16-.04-9.13-.27-1.52-.09-3.58-.24-5.15-.38ZM128.36,115.39l-1.44.26c-1.12.21-2.33.43-3.32.58-1.54.24-3.49.54-4.97.7l-1.54.17c-1.17.13-2.44.27-3.47.36-1.56.14-3.63.29-5.15.38-3.97.22-7.32.27-9.13.27v-3.9h.03c7.48,0,14.87-.39,21.98-1.17,1.45-.16,2.89-.34,4.31-.53.47-.06.93-.13,1.39-.2.96-.14,1.92-.28,2.87-.43.52-.08,1.04-.17,1.55-.26.9-.15,1.79-.31,2.68-.47.5-.09,1-.18,1.49-.28.26-.05.53-.1.8-.15-.42.67-.87,1.28-1.35,1.8-.06.07-.12.13-.18.19-.11.12-.22.23-.34.34-.08.08-.17.15-.25.22-.1.09-.2.17-.3.25-.09.07-.17.14-.26.2-.11.08-.22.15-.33.22-.08.05-.16.11-.24.15-.14.09-.29.16-.43.23-.04.02-.07.04-.11.06-.05,0-.09,0-.14.02-.74.16-1.48.32-2.24.48-.2.04-.37.12-.53.23-.52.11-1,.2-1.41.28ZM155.35,106.3c-2.29,1.17-5.37,2.58-7.65,3.51-1.32.54-3.47,1.36-5.17,1.89l-1.08.34c-1.03.33-2.16.69-3.1.95.01-.02.03-.04.04-.06.21-.3.41-.61.61-.93.01-.02.03-.05.04-.07.2-.34.4-.68.59-1.04,0,0,0,0,0,0,.1-.2.2-.41.31-.61.05-.1.1-.2.15-.3,0,0,0,0,0,0,0,0,0,0,0,0,.35-.08.69-.16,1.03-.24,1.33-.31,2.63-.64,3.91-.98.9-.24,1.77-.49,2.64-.74.23-.07.47-.14.7-.21.73-.22,1.44-.44,2.15-.66.14-.05.29-.09.44-.14.82-.27,1.63-.54,2.43-.82.2-.07.39-.14.59-.21.64-.23,1.27-.46,1.89-.7.18-.07.37-.14.55-.21.76-.29,1.5-.59,2.23-.9.14-.06.27-.12.4-.17.38-.16.76-.32,1.13-.49-1.45.9-3.36,2.07-4.83,2.82ZM179.57,81.48c-.83,1.95-2.15,4.38-3.11,6-.3.51-.68,1.09-1.16,1.76-.04.04-.08.09-.12.14,0,0,0,0,0,0-.22.29-.45.59-.68.88-.08.09-.16.18-.24.28-.17.2-.34.39-.51.59-.1.11-.21.22-.32.33-.17.18-.33.35-.51.53-.12.12-.25.24-.37.36-.13.12-.25.24-.39.36.02-.04.03-.09.04-.14.26-.76.49-1.52.69-2.31.14-.58.27-1.16.38-1.75.04-.2.06-.4.1-.6.07-.4.13-.79.18-1.2.03-.24.05-.48.08-.72.04-.37.08-.74.1-1.11.02-.26.03-.51.04-.77.01-.23.03-.45.04-.68.25-.17.48-.34.72-.51.25-.18.51-.36.75-.54.35-.26.68-.52,1.02-.79.22-.17.44-.34.65-.51.36-.29.69-.59,1.03-.89.16-.15.34-.29.5-.44.48-.45.95-.9,1.38-1.35h0c.45-.47.87-.94,1.27-1.42-.46,1.5-1.02,3.22-1.57,4.51Z" />
    </g>
  </g>
</svg>