<svg xmlns="http://www.w3.org/2000/svg" viewBox="0 0 111.79 111.79">
  <defs>
    <style>
      .uuid-c718839b-fe2a-473a-b392-b849cae76a2a {
        fill: #fff;
      }

      .uuid-f4fa32aa-bf4a-4b6e-aef7-c90c11ae9095 {
        fill: url(#uuid-a971da77-4745-40fd-a5fe-54e1e058663c);
      }
    </style>
    <linearGradient id="uuid-a971da77-4745-40fd-a5fe-54e1e058663c" x1="31.46" y1="35.47" x2="79.19" y2="75.37"
      gradientUnits="userSpaceOnUse">
      <stop offset="0" stop-color="#96eeff" />
      <stop offset=".29" stop-color="#ef00ff" />
      <stop offset=".62" stop-color="#ff008e" />
      <stop offset=".84" stop-color="#6ebdf0" />
      <stop offset="1" stop-color="aqua" />
    </linearGradient>
  </defs>
  <g id="uuid-4651c80a-da7b-499d-a866-d02c25aeb7db">
    <g>
      <path
        d="M55.9,111.42c-1.44,0-2.69-1.02-2.96-2.44l-6.84-35.18-12.05,8.13c-.51.35-1.1.52-1.69.52-.78,0-1.55-.3-2.13-.88-1.02-1.02-1.18-2.62-.37-3.82l8.13-12.05L2.82,58.86c-1.42-.28-2.44-1.52-2.44-2.96s1.02-2.68,2.44-2.96l35.18-6.84-8.13-12.05c-.81-1.2-.65-2.8.37-3.82.58-.58,1.36-.88,2.13-.88.58,0,1.17.17,1.69.52l12.05,8.13L52.94,2.82c.28-1.42,1.52-2.44,2.96-2.44h0c1.44,0,2.69,1.02,2.96,2.44l6.83,35.18,12.05-8.13c.51-.35,1.1-.52,1.69-.52.78,0,1.55.3,2.13.88,1.02,1.02,1.18,2.62.37,3.82l-8.13,12.05,35.18,6.84c1.42.28,2.44,1.52,2.44,2.96s-1.02,2.69-2.44,2.96l-35.18,6.83,8.13,12.05c.81,1.2.65,2.8-.37,3.82-.58.58-1.36.88-2.13.88-.58,0-1.17-.17-1.69-.52l-12.05-8.13-6.83,35.18c-.28,1.42-1.52,2.44-2.96,2.44Z" />
      <path class="uuid-c718839b-fe2a-473a-b392-b849cae76a2a"
        d="M55.9,111.79c-1.62,0-3.02-1.15-3.33-2.74l-6.73-34.62-11.58,7.81c-1.32.89-3.18.71-4.29-.41-1.15-1.14-1.32-2.95-.41-4.29l7.81-11.58L2.75,59.23c-1.59-.31-2.75-1.71-2.75-3.33s1.15-3.02,2.75-3.33l34.62-6.73-7.81-11.58c-.91-1.34-.73-3.15.41-4.29,1.12-1.12,2.98-1.3,4.29-.41l11.58,7.81L52.57,2.74c.31-1.59,1.71-2.74,3.33-2.74s3.02,1.15,3.33,2.74l6.73,34.62,11.58-7.81c1.31-.89,3.18-.71,4.29.41,1.15,1.14,1.32,2.95.41,4.29l-7.81,11.58,34.62,6.73c1.59.31,2.74,1.71,2.74,3.33s-1.15,3.02-2.74,3.33l-34.62,6.73,7.81,11.58c.91,1.34.73,3.15-.41,4.29-1.12,1.12-2.98,1.3-4.29.41l-11.58-7.81-6.73,34.62c-.31,1.59-1.71,2.74-3.33,2.74ZM46.1,73.43s.1,0,.14.03c.12.05.2.15.22.28l6.84,35.18c.24,1.24,1.33,2.14,2.59,2.14s2.35-.9,2.59-2.14l6.83-35.18c.02-.12.11-.23.22-.28.11-.05.25-.04.35.04l12.05,8.13c1.02.69,2.47.55,3.34-.32.89-.89,1.03-2.3.32-3.34l-8.13-12.05c-.07-.1-.08-.24-.04-.35.05-.12.15-.2.28-.22l35.18-6.84c1.24-.24,2.14-1.33,2.14-2.59s-.9-2.35-2.14-2.59l-35.18-6.84c-.12-.02-.23-.11-.28-.22-.05-.12-.03-.25.04-.35l8.13-12.05c.7-1.05.57-2.45-.32-3.34-.87-.87-2.32-1.01-3.34-.32l-12.05,8.13c-.11.07-.24.08-.35.04-.12-.05-.2-.15-.22-.28L58.49,2.89c-.24-1.24-1.33-2.14-2.59-2.14s-2.35.9-2.59,2.14l-6.84,35.18c-.02.12-.11.23-.22.28-.12.05-.25.04-.35-.04l-12.05-8.13c-1.02-.69-2.47-.55-3.34.32-.89.89-1.03,2.3-.32,3.34l8.13,12.05c.07.1.08.24.04.35-.05.12-.15.2-.28.22L2.89,53.3c-1.24.24-2.14,1.33-2.14,2.59s.9,2.35,2.14,2.59l35.18,6.84c.12.02.23.11.28.22.05.12.03.25-.04.35l-8.13,12.05c-.71,1.05-.57,2.45.32,3.34.87.87,2.32,1.01,3.34.32l12.05-8.13c.06-.04.14-.06.21-.06Z" />
      <polygon class="uuid-f4fa32aa-bf4a-4b6e-aef7-c90c11ae9095"
        points="68.75 63.6 108.4 55.9 68.75 48.19 79.43 32.36 63.6 43.04 55.9 3.39 48.19 43.04 32.36 32.36 43.04 48.19 3.39 55.9 43.04 63.6 32.36 79.43 48.19 68.75 55.9 108.4 63.6 68.75 79.43 79.43 68.75 63.6" />
    </g>
  </g>
</svg>