<?xml version="1.0" encoding="UTF-8"?>
<svg id="uuid-15db2083-8efb-4f96-8cd8-81e47df60476" xmlns="http://www.w3.org/2000/svg"
  xmlns:xlink="http://www.w3.org/1999/xlink" viewBox="0 0 132.89 117.69">
  <defs>
    <style>
      .uuid-2cbf9ac5-dcf7-4018-af9d-47b90973af3d {
        fill: #fff;
      }

      .uuid-51c8da1f-3ac9-4b8f-a2b0-1a46fd15116e {
        fill: #171717;
      }

      .uuid-99728de6-c24a-4709-824a-217b28c1758b {
        fill: url(#uuid-7ca5fcb6-7f4c-4075-9644-1046a5601aae);
      }

      .uuid-34fd36b5-5718-4809-a2cf-ae09af1f8999 {
        filter: url(#uuid-85086d5b-3bf1-4ae3-ab7e-2c4d237f789b);
      }
    </style>
    <filter id="uuid-85086d5b-3bf1-4ae3-ab7e-2c4d237f789b" x="-30.21" y="-27.09" width="205.2" height="189.84"
      filterUnits="userSpaceOnUse">
      <feOffset dx="6" dy="9" />
      <feGaussianBlur result="uuid-5dad6c99-7cfa-494c-a013-55a1f95e0f9b" stdDeviation="12" />
      <feFlood flood-color="#000" flood-opacity=".47" />
      <feComposite in2="uuid-5dad6c99-7cfa-494c-a013-55a1f95e0f9b" operator="in" />
      <feComposite in="SourceGraphic" />
    </filter>
    <linearGradient id="uuid-7ca5fcb6-7f4c-4075-9644-1046a5601aae" x1="96.22" y1="30.99" x2="28.96" y2="94.51"
      gradientUnits="userSpaceOnUse">
      <stop offset="0" stop-color="#96eeff" />
      <stop offset=".29" stop-color="#ef00ff" />
      <stop offset=".62" stop-color="#ff008e" />
      <stop offset=".84" stop-color="#6ebdf0" />
      <stop offset="1" stop-color="aqua" />
    </linearGradient>
  </defs>
  <g id="uuid-e148d103-fa9e-4b3e-8af9-d9b1461575e5">
    <g class="uuid-34fd36b5-5718-4809-a2cf-ae09af1f8999">
      <path
        d="M66.14,117.32c-23.55,0-44.7-14.02-53.87-35.71-.14-.32-.27-.64-.39-.97-.02-.06-.05-.13-.07-.19-1.66-5.15,2.38-8.21,4.54-9.86.38-.29.88-.67,1.24-.98-.52-.88-1.63-1.69-3.25-2.79-2.22-1.51-4.97-3.38-6.25-6.7-.07-.18-.14-.37-.2-.56-.29-.89-.45-1.71-.58-2.43-.2-1.1-.32-1.59-.61-1.94-.34-.4-.91-.83-1.52-1.28-.97-.71-2.17-1.6-3.14-2.92-2-2.71-1.83-4.97-1.35-6.39,1.24-3.62,5.4-4.79,8.16-5.57l.18-.05c1.55-.44,3.11-.79,4.61-1.13.82-.19,1.65-.37,2.47-.57l.59-.14c1.29-.3,2.29-.59,3.02-.85-1.44-.76-3.31-1.81-3.96-3.98-.26-.89-.4-2.27.44-3.85,2.6-5.4,8.63-6.92,13.49-8.15,2.37-.6,4.81-1.21,6.35-2.13-.03-.06-.07-.12-.1-.17-.99-1.72-2.49-4.33-1.55-7.33.64-2.04,2.26-3.7,4.83-4.92C47.24,1.94,55.04.38,66.14.38c14.53,0,28.46,5.37,39.23,15.11.24.22.48.44.72.66,1.74,1.57,4.08,2.8,6.56,4.11,4.68,2.48,9.99,5.28,11.57,11.35.81,2.67-.6,4.81-1.54,6.23-1.15,1.75-1.52,2.43-.82,4.01.85,1.91.52,3.46.1,4.42-1.06,2.42-3.53,3.26-5.52,3.94.37.25.74.49,1,.65.33.21.64.41.91.59.81.55,1.62,1.07,2.44,1.6,1.16.75,2.31,1.5,3.44,2.29.53.37,1.09.73,1.63,1.08,2.81,1.81,6.67,4.28,6.67,9.17,0,.13,0,.27-.02.4-.41,3.66-3.53,5.69-6.29,7.48-2.07,1.34-4.2,2.72-4.74,4.38l-.36,1c-8.37,23.02-30.46,38.48-54.96,38.48Z" />
      <path class="uuid-2cbf9ac5-dcf7-4018-af9d-47b90973af3d"
        d="M66.14,117.69c-23.7,0-44.99-14.11-54.22-35.94-.14-.33-.27-.65-.4-.98-.03-.07-.05-.14-.07-.21-1.74-5.41,2.43-8.57,4.67-10.27.29-.22.66-.5.97-.75-.55-.73-1.59-1.47-2.97-2.41-2.26-1.54-5.07-3.45-6.39-6.88-.07-.19-.14-.38-.21-.58-.3-.92-.46-1.75-.59-2.48-.19-1.01-.29-1.49-.53-1.77-.31-.37-.86-.78-1.46-1.21-.99-.73-2.22-1.64-3.23-3-2.09-2.84-1.91-5.23-1.4-6.74,1.31-3.8,5.58-5.01,8.41-5.8l.18-.05c1.59-.45,3.21-.81,4.63-1.13.82-.18,1.64-.37,2.46-.57l.59-.14c.84-.2,1.57-.39,2.17-.57-1.25-.71-2.8-1.83-3.38-3.79-.28-.95-.43-2.43.47-4.13,2.67-5.55,8.8-7.09,13.73-8.33,2.18-.55,4.42-1.12,5.93-1.91-1.02-1.78-2.45-4.4-1.49-7.47.67-2.15,2.36-3.88,5.03-5.15C47.13,1.57,54.98,0,66.14,0c14.62,0,28.64,5.4,39.48,15.21.24.22.48.44.72.67,1.7,1.53,4.02,2.76,6.48,4.05,4.75,2.51,10.14,5.36,11.75,11.59.86,2.82-.61,5.06-1.59,6.54-1.12,1.69-1.41,2.24-.79,3.65.9,2.04.55,3.69.1,4.72-1,2.28-3.12,3.22-5.02,3.9.11.07.22.14.31.2.38.24.69.44.97.63.8.54,1.62,1.07,2.43,1.6,1.13.73,2.3,1.49,3.45,2.3.51.35,1.03.69,1.55,1.02,2.96,1.9,6.91,4.44,6.91,9.53,0,.15,0,.29-.02.44-.43,3.84-3.63,5.92-6.45,7.75-2.02,1.31-4.09,2.65-4.59,4.18l-.36,1.01c-8.43,23.17-30.66,38.73-55.32,38.73ZM66.14.75c-11.04,0-18.8,1.55-26.77,5.36-2.47,1.18-4.03,2.76-4.63,4.7-.89,2.84.56,5.36,1.52,7.03l.06.1c.1.18.09.48-.09.58-1.59.95-4.06,1.57-6.44,2.17-4.78,1.21-10.73,2.7-13.25,7.95-.78,1.48-.66,2.76-.42,3.58.62,2.08,2.52,3.09,3.77,3.76.13.07.21.21.2.36,0,.15-.11.28-.24.33-.74.27-1.77.57-3.06.87l-.59.14c-.82.2-1.65.39-2.47.57-1.42.32-3.03.68-4.59,1.12l-.18.05c-2.68.75-6.73,1.9-7.9,5.33-.46,1.33-.61,3.47,1.29,6.05.94,1.27,2.12,2.14,3.06,2.84.63.47,1.23.9,1.59,1.34.35.42.47.94.69,2.11.13.71.28,1.51.57,2.38.06.18.13.36.19.54,1.24,3.21,3.94,5.05,6.11,6.52,1.62,1.1,2.8,1.95,3.37,2.91.09.16.06.35-.08.47-.36.32-.88.71-1.26,1-2.09,1.59-5.99,4.54-4.41,9.44.02.06.04.11.06.17.12.32.26.64.39.96,9.12,21.55,30.13,35.48,53.53,35.48s46.29-15.37,54.61-38.23l.36-1c.58-1.78,2.77-3.2,4.89-4.57,2.69-1.75,5.73-3.72,6.12-7.21.01-.12.02-.24.02-.36,0-4.68-3.75-7.09-6.5-8.85-.6-.38-1.13-.72-1.64-1.08-1.14-.8-2.3-1.55-3.43-2.28-.82-.53-1.64-1.06-2.44-1.61-.27-.18-.58-.38-.9-.58-.31-.2-.66-.42-1.01-.66-.12-.08-.18-.22-.16-.36.02-.14.12-.26.25-.3,1.92-.65,4.3-1.47,5.3-3.74.39-.89.69-2.33-.1-4.11-.78-1.77-.3-2.61.85-4.36.9-1.36,2.26-3.42,1.49-5.92-1.54-5.92-6.77-8.69-11.38-11.12-2.5-1.32-4.86-2.57-6.64-4.17-.24-.23-.48-.45-.72-.66C94.42,6.08,80.58.75,66.14.75Z" />
      <path class="uuid-99728de6-c24a-4709-824a-217b28c1758b"
        d="M11.45,58.83c1.82,4.72,8.66,5.6,9.89,10.53.91,3.63-7.72,4.99-6.11,9.99.11.29.23.57.35.86,8.33,19.69,27.83,33.51,50.56,33.51s43.92-15.05,51.58-36.11c.11-.29.21-.59.32-.88,1.8-5.55,10.42-7.06,10.88-11.14,0-3.58-3.65-5.12-6.76-7.3-1.91-1.34-3.9-2.55-5.83-3.86-1.57-1.06-4.53-2.57-4.73-4.69-.32-3.47,8.68-2.53,6.96-6.43-2.52-5.71,3.1-7.98,2.19-10.71-1.82-7.26-11.35-8.62-17.12-13.82-.22-.21-.45-.42-.67-.62-9.73-8.81-22.64-14.18-36.81-14.18-9.29,0-17.08,1.08-25.38,5.04-7.44,3.55,1.27,8.47-1.04,10.79-4.54,4.99-17.01,3.25-20.31,10.29-1.5,2.7,4.22,3.01,4.85,5.44.93,3.6-4.96,4.68-7.3,5.25-2.32.56-4.66,1.02-6.96,1.67-3.03.86-8.16,2.2-5.07,6.41,1.22,1.66,3.23,2.46,4.53,4.02,1.4,1.67,1.2,3.6,1.85,5.55.04.13.09.27.14.4Z" />
      <path class="uuid-51c8da1f-3ac9-4b8f-a2b0-1a46fd15116e"
        d="M109.01,73.81c-.2.07-.4.1-.6.1-.74,0-1.44-.46-1.7-1.2-.03-.09-.08-.15-.12-.24-1.1.99-2.32,2.16-2.81,3.22l-.4.86c-6.8,14.29-21.42,23.52-37.23,23.52-13.5,0-26.16-6.63-33.87-17.72-.18-.26-.36-.52-.54-.79-.06-.09-.11-.18-.15-.28-1.72-3.95.11-7.35,1.72-10.35.08-.15.15-.29.23-.43-.18.06-.37.1-.56.1-.49,0-.97-.19-1.32-.58-.67-.73-.63-1.87.1-2.54,2.19-2.02,5.59-2.25,8.89-.62.89.44,1.26,1.52.81,2.41-.44.89-1.52,1.26-2.41.81-.34-.17-.71-.32-1.1-.43-.45,1.04-.95,2.03-1.47,2.99-1.59,2.95-2.52,4.89-1.65,7.08.13.2.26.39.4.58,7.04,10.13,18.6,16.18,30.91,16.18,14.43,0,27.77-8.43,33.98-21.46l.39-.83c.65-1.4,1.82-2.66,2.97-3.74-.69-.38-1.08-1.18-.89-1.98.23-.97,1.2-1.57,2.17-1.34,2.74.65,4.54,2.13,5.34,4.4.33.94-.16,1.97-1.1,2.3ZM40.23,53.56c1.24,1.17,2.58,2.24,3.84,3.38,1.35,1.23,2.35,2.77,3.67,4.03,1.03.98,2.28,1.67,3.59,2.21,1.05.44,2.28.73,3.01,1.67.52.66.72,1.49,1.03,2.27.39.99,1.04,1.74,2.08,2.08,1.62.53,3.56-.2,4.29-1.76.75-1.6.19-3.38-.19-5-.43-1.83-1-3.63-1.66-5.4-.04-.11-.09-.23-.13-.34-.8-2.1-1.74-4.23-3.62-5.6-1.62-1.18-3.35-2.1-4.06-4.12-.76-2.15.88-5.29,1.5-7.42.39-1.34.72-3.21-.83-3.94-2.36-1.11-5.6.35-7.73,1.42-2.37,1.19-4.52,2.84-6.28,4.83-.92,1.04-1.76,2.21-2.14,3.54-.94,3.27,1.43,6.06,3.64,8.15ZM79.04,60.42c1.72.71,3.6,1.37,4.87,2.81.64.72,1.03,1.63,1.04,2.6,0,.76-.38,1.59.37,2.15.49.36,1.26.33,1.82.31,1.34-.05,2.7-.43,3.97-.84,1.75-.57,4.05-1.72,3.88-3.89-.2-2.52-3.15-4.52-4.89-6.07-1.94-1.73-4.02-3.43-5.98-5.05-.71-.59-1.46-1.23-1.73-2.11-.04-.12-.06-.24-.08-.36-.1-.65.05-1.34.34-1.94.64-1.35,1.76-2.5,2.58-3.75,1.57-2.38,2.2-6.15-.67-7.86-3.23-1.93-7.79-.15-10.72,1.54-2.63,1.52-5.58,3.7-6.52,6.74-.57,1.84-.27,3.87.52,5.63,2.02,4.53,6.73,8.24,11.22,10.1Z" />
    </g>
  </g>
</svg>