<?xml version="1.0" encoding="UTF-8"?>
<svg id="uuid-debcb078-1fbf-4e66-a198-a7583bb4d2fb" xmlns="http://www.w3.org/2000/svg"
  xmlns:xlink="http://www.w3.org/1999/xlink" viewBox="0 0 138.93 151.44">
  <defs>
    <style>
      .uuid-1b18e429-4b5b-4027-84e3-e39e6109041d {
        fill: #fff;
      }

      .uuid-e92bc18d-89ec-44a7-a936-61986d0644f3 {
        fill: #171717;
      }

      .uuid-3154600e-e54a-431a-ad33-fa2b4b16db06 {
        fill: url(#uuid-1c5dec6e-2671-4462-a3fe-2a2d4dfec871);
      }
    </style>
    <linearGradient id="uuid-1c5dec6e-2671-4462-a3fe-2a2d4dfec871" x1="12.74" y1="116.91" x2="141.26" y2="30.13"
      gradientUnits="userSpaceOnUse">
      <stop offset="0" stop-color="#fdcbaf" />
      <stop offset=".29" stop-color="#5efdff" />
      <stop offset=".62" stop-color="#d62e98" />
      <stop offset=".84" stop-color="#edfe3c" />
      <stop offset="1" stop-color="#d8ff43" />
    </linearGradient>
  </defs>
  <g id="uuid-002727fe-733f-4e43-839a-23dc18651e96">
    <path class="uuid-e92bc18d-89ec-44a7-a936-61986d0644f3"
      d="M101.11,33.01c-.12-.03-.24-.05-.37-.07-12.7-1.76-21.02-10.82-24-14.63-6.08-7.77-12.29-14.94-21.43-17.3-1.63-.42-3.27-.63-4.87-.63-3.32,0-6.32.93-8.66,2.7-2.29,1.73-3.78,3.93-4.32,6.36-1.39,6.3,3.43,11.96,8.54,15.26-.57.17-1.12.38-1.64.65-2.58,1.31-4.45,3.86-5.09,6.74-.78-.9-1.59-1.8-2.42-2.67-5.53-5.75-12.31-9.04-18.59-9.04-1.78,0-3.53.26-5.2.78C4.72,23.74-.86,33.26.61,42.38c1.31,8.1,7.6,15.24,16.03,18.19,5.03,1.76,10.18,1.96,15.16,2.15,2.29.09,4.45.17,6.58.39,7.21.76,11.35,2.68,12.64,5.85.55,1.34.31,2.83-.64,3.99-.69.84-1.89,1.38-3.05,1.38-.54,0-1.04-.12-1.45-.33-.82-.43-1.66-1.33-2.54-2.28l-.2-.21c-1.36-1.45-3-3.07-5.24-3.99-1.05-.43-2.16-.65-3.31-.65-3.98,0-7.6,2.59-8.81,6.3-1.41,4.36.6,9.33,4.69,11.55,1.46.79,2.91,1.12,4.19,1.41.58.13,1.12.25,1.58.4,1.24.41,2.3,1.19,2.92,2.16.57.91.76,2.03.49,2.94-.24.8-.9,1.5-1.61,1.69-.26.07-.61.11-1,.11-.81,0-1.76-.17-2.55-.44-.97-.34-2.48-2.07-3.39-3.11-.67-.77-1.32-1.58-2.01-2.43-1.92-2.38-3.9-4.85-6.64-6.8-2.56-1.82-5.72-2.87-8.67-2.87-2.64,0-5.05.82-6.95,2.36-3.87,3.14-5.61,9.92-1.82,15.82,2.33,3.63,6.29,6.32,11.77,7.98,1.77.54,3.54.94,5.25,1.33,2.11.48,4.11.93,5.99,1.6,8.63,3.08,15.07,10.94,21.3,18.55.56.68,1.11,1.36,1.67,2.03,4.27,5.17,10.83,10.81,17.56,15.08,6.14,3.9,15.42,8.54,24.77,8.54.21,0,.42,0,.63,0,.27,0,.53,0,.8,0h0c23.63,0,42.86-25.48,43.77-58.01.87-30.93-15.19-56.65-37.41-60.04Z" />
    <path class="uuid-1b18e429-4b5b-4027-84e3-e39e6109041d"
      d="M94.75,151.44c-.27,0-.54,0-.81,0-.19,0-.41,0-.62,0-9.44,0-18.79-4.68-24.97-8.6-6.76-4.29-13.36-9.96-17.65-15.15l-1.67-2.03c-6.2-7.57-12.6-15.38-21.13-18.43-1.84-.66-3.81-1.11-5.9-1.58-1.76-.4-3.54-.8-5.33-1.34-5.57-1.69-9.6-4.42-11.98-8.14-3.9-6.08-2.1-13.07,1.9-16.31,1.97-1.6,4.46-2.45,7.19-2.45,3.02,0,6.26,1.07,8.89,2.94,2.78,1.98,4.78,4.47,6.71,6.87.69.86,1.34,1.66,2,2.42.82.94,2.36,2.69,3.23,3,.75.26,1.65.42,2.42.42.35,0,.68-.04.9-.1.58-.16,1.15-.76,1.35-1.44.24-.81.06-1.81-.45-2.63-.57-.89-1.56-1.62-2.72-2-.44-.15-.98-.27-1.55-.4-1.31-.3-2.78-.63-4.28-1.45-4.24-2.3-6.33-7.46-4.86-11.99,1.25-3.86,5.02-6.56,9.16-6.56,1.2,0,2.36.23,3.45.67,2.32.95,3.99,2.6,5.37,4.08l.2.21c.87.92,1.68,1.8,2.45,2.2.36.19.8.29,1.27.29,1.06,0,2.14-.49,2.76-1.24.86-1.04,1.07-2.39.58-3.61-1.23-3.04-5.27-4.87-12.33-5.62-2.12-.22-4.27-.31-6.55-.39-5.01-.19-10.19-.39-15.27-2.17C7.96,57.92,1.57,50.67.24,42.43c-1.5-9.29,4.2-19,12.71-21.63,1.7-.53,3.49-.79,5.31-.79,6.38,0,13.26,3.34,18.86,9.16.65.67,1.3,1.38,1.97,2.14.8-2.74,2.67-5.06,5.11-6.29.31-.16.63-.3.96-.43-4.9-3.38-9.43-9.02-8.06-15.23.56-2.52,2.1-4.79,4.46-6.58,2.41-1.82,5.48-2.78,8.89-2.78,1.63,0,3.3.22,4.96.65,9.25,2.39,15.51,9.61,21.63,17.43,2.96,3.78,11.19,12.75,23.76,14.49.13.02.26.04.39.07,22.37,3.42,38.59,29.4,37.72,60.42-.92,32.73-20.31,58.37-44.15,58.37ZM93.94,150.68c.28,0,.55,0,.81,0,23.43,0,42.49-25.32,43.4-57.65.86-30.65-15.09-56.3-37.1-59.66-.01,0-.02,0-.03,0-.11-.03-.22-.05-.33-.06-12.84-1.78-21.23-10.92-24.24-14.77-6.04-7.72-12.21-14.84-21.23-17.17-1.6-.41-3.2-.62-4.77-.62-3.24,0-6.16.91-8.44,2.63-2.22,1.67-3.66,3.8-4.18,6.14-1.34,6.1,3.45,11.68,8.37,14.87.12.08.19.22.17.37-.02.15-.12.26-.27.31-.55.16-1.08.37-1.57.62-2.44,1.24-4.27,3.67-4.89,6.49-.03.14-.14.25-.27.28-.14.03-.28-.01-.38-.12-.83-.96-1.62-1.83-2.41-2.65-5.46-5.67-12.14-8.93-18.32-8.93-1.74,0-3.45.26-5.08.76C5.01,24.05-.46,33.38.98,42.32c1.29,7.97,7.48,14.99,15.79,17.9,4.98,1.74,10.1,1.94,15.05,2.12,2.3.09,4.46.17,6.61.4,7.36.78,11.6,2.77,12.95,6.09.6,1.47.34,3.11-.69,4.37-.76.92-2.07,1.52-3.34,1.52-.6,0-1.16-.13-1.62-.38-.87-.46-1.73-1.38-2.64-2.35l-.2-.21c-1.33-1.42-2.93-3-5.11-3.9-1-.41-2.06-.62-3.16-.62-3.82,0-7.3,2.48-8.45,6.04-1.36,4.19.58,8.97,4.51,11.1,1.41.77,2.83,1.09,4.08,1.37.59.13,1.14.26,1.62.42,1.32.43,2.46,1.28,3.12,2.32.63,1,.84,2.24.54,3.25-.28.94-1.03,1.72-1.87,1.95-.88.24-2.55.09-3.77-.34-.98-.35-2.29-1.78-3.55-3.21-.68-.78-1.33-1.59-2.02-2.44-1.9-2.37-3.87-4.81-6.56-6.73-2.5-1.78-5.58-2.8-8.45-2.8-2.56,0-4.88.79-6.71,2.28-3.74,3.04-5.42,9.6-1.75,15.33,2.29,3.56,6.18,6.19,11.57,7.83,1.77.54,3.53.93,5.23,1.32,2.16.49,4.15.94,6.03,1.62,8.73,3.12,15.2,11.02,21.46,18.65l1.68,2.04c4.24,5.14,10.77,10.75,17.47,15,6.1,3.87,15.31,8.48,24.57,8.48.21,0,.42,0,.62,0Z" />
    <path class="uuid-3154600e-e54a-431a-ad33-fa2b4b16db06"
      d="M100.21,36.78v-.02c-11.98-1.66-21.26-9.37-26.51-16.08-5.25-6.71-11.11-13.81-19.36-15.94-3.45-.89-7.39-.74-10.24,1.41-1.36,1.03-2.5,2.41-2.88,4.11-1.05,4.75,3.57,9.14,7.18,11.39,6.17,3.84,14.09,2.35,20.35,6.27,3.22,2.02,5.52,5.94,2.71,9.36-1.21,1.47-3.14,2.29-5.05,2.24-3.17-.09-5.75-2.54-7.73-4.77-2.28-2.56-4.53-5.53-8.04-6.4-1.51-.37-3.16-.28-4.54.42-2.04,1.04-3.29,3.37-3.22,5.66.1,3.47,2.86,6.26,6.07,7.21,2.78.82,5.91.44,8.42,1.88,1.71.97,2.94,2.79,3.09,4.75.15,1.96-.83,4-2.53,4.99-2.13,1.25-4.68.35-6.51-1.04-2.41-1.83-4.23-4.32-6.17-6.6-3.8-4.45-7.13-9.3-11.2-13.52-5.15-5.35-12.77-9.45-19.86-7.25-6.78,2.1-10.91,9.9-9.78,16.91,1.13,7.01,6.79,12.82,13.5,15.16,6.63,2.32,13.88,1.6,20.87,2.34,5.77.61,13.35,2.18,15.81,8.24,1.08,2.67.6,5.67-1.23,7.89-2.18,2.65-6.26,3.62-9.3,2-1.47-.78-2.61-2.05-3.75-3.26-1.14-1.21-2.35-2.43-3.89-3.06-2.72-1.11-6.07.49-6.98,3.27-.84,2.59.47,5.66,2.86,6.96,1.57.85,3.43.98,5.12,1.54,2.02.66,3.84,1.97,4.97,3.76,1.14,1.79,1.54,4.07.94,6.1-.6,2.03-2.25,3.76-4.3,4.32-1.79.49-4.12.2-5.85-.42-1.93-.68-3.69-2.7-5.01-4.21-2.59-2.96-4.78-6.35-7.98-8.63-3.2-2.28-7.9-3.13-10.95-.65-3.06,2.48-3.14,7.42-1.01,10.74,2.13,3.31,5.88,5.23,9.65,6.37,3.77,1.14,7.71,1.66,11.42,2.99,10.46,3.74,17.58,13.19,24.65,21.76,7.07,8.56,24.81,22.6,39.99,22.2,21.63.61,39.85-23.68,40.71-54.25.82-29.07-14.37-53.33-34.45-56.16Z" />
    <path class="uuid-e92bc18d-89ec-44a7-a936-61986d0644f3"
      d="M125.46,106.51c-.26.49-.67.74-1.07.73-.26,0-.52-.13-.74-.36-.23-.25-.49-.47-.74-.68-4.57,16.68-15.93,27.58-28.57,27.22-12.65-.36-23.38-11.88-27-28.79-.27.2-.53.4-.78.64-.23.22-.5.33-.76.32-.4-.01-.79-.29-1.02-.79-.39-.83-.23-1.96.37-2.53,1.66-1.59,3.66-2.5,5.65-2.58.72-.02,1.29.77,1.29,1.77,0,1-.57,1.84-1.28,1.86-.34.01-.68.07-1.02.14,3.3,15.45,13.1,25.99,24.65,26.31,11.55.32,21.93-9.64,26.09-24.89-.33-.1-.67-.17-1.01-.2-.71-.07-1.23-.93-1.17-1.93.06-1,.69-1.76,1.39-1.69,1.98.18,3.93,1.21,5.5,2.89.56.6.66,1.74.22,2.54ZM84.72,101.91c3.17.09,5.96-7.59,6.23-17.14.27-9.56-2.09-17.38-5.26-17.46-3.17-.09-5.96,7.59-6.23,17.14-.27,9.56,2.09,17.37,5.26,17.46ZM105.72,102.5c3.17.09,5.96-7.59,6.23-17.14.27-9.56-2.09-17.38-5.26-17.46-3.17-.09-5.96,7.59-6.23,17.14s2.09,17.37,5.26,17.46Z" />
  </g>
</svg>