<svg xmlns="http://www.w3.org/2000/svg" viewBox="0 0 256.16 95.94">
  <defs>
    <style>
      .uuid-e4a41a13-2f7e-4897-8da6-b545f1a120ef {
        fill: #fff;
      }

      .uuid-39f86891-9ee1-46a8-a34e-c3b3a9aefd68 {
        font-family: Montserrat-ExtraBoldItalic, Montserrat;
        font-size: 47.25px;
        font-style: italic;
        font-weight: 700;
      }

      .uuid-39f86891-9ee1-46a8-a34e-c3b3a9aefd68,
      .uuid-36b0d95f-2683-4748-a7a5-2ea7d69e21c7 {
        fill: #171717;
      }

      .uuid-71dfceec-27fc-4ff1-abc4-ff7a75fa561e {
        letter-spacing: -.01em;
      }

      .uuid-393c8c83-b96b-42a3-8172-9897a2885237 {
        fill: url(#uuid-e20323be-fd4f-469b-8638-afb979cd2d1f);
      }
    </style>
    <linearGradient id="uuid-e20323be-fd4f-469b-8638-afb979cd2d1f" x1="45.34" y1="128.36" x2="222.75" y2="-44.1"
      gradientUnits="userSpaceOnUse">
      <stop offset="0" stop-color="#fdcbaf" />
      <stop offset=".29" stop-color="#5efdff" />
      <stop offset=".62" stop-color="#d62e98" />
      <stop offset=".84" stop-color="#edfe3c" />
      <stop offset="1" stop-color="#d8ff43" />
    </linearGradient>
  </defs>
  <g id="uuid-48b1b62f-c527-4de9-88dd-28dff069b3bc">
    <path class="uuid-36b0d95f-2683-4748-a7a5-2ea7d69e21c7"
      d="M188.71,95.56c14.66,0,31.56-8.14,45.2-21.78,22.35-22.35,28.53-51.2,14.05-65.68-5.06-5.06-12.13-7.73-20.47-7.73-9.7,0-20.51,3.58-30.79,10.15-.65-.86-1.36-1.66-2.12-2.42-5.05-5.05-12.13-7.73-20.47-7.73-9.7,0-20.51,3.58-30.79,10.15-.65-.86-1.36-1.66-2.12-2.42-5.05-5.05-12.13-7.73-20.47-7.73-9.7,0-20.51,3.58-30.79,10.15-.65-.85-1.36-1.66-2.12-2.42-5.06-5.06-12.14-7.73-20.48-7.73-14.66,0-31.56,8.14-45.2,21.78C11.76,32.57,4.47,44.94,1.65,56.99c-2.98,12.73-.68,23.69,6.47,30.84,5.05,5.06,12.13,7.73,20.47,7.73h0c9.7,0,20.51-3.58,30.79-10.15.65.86,1.36,1.66,2.12,2.42,5.05,5.05,12.13,7.73,20.47,7.73,9.7,0,20.51-3.58,30.79-10.15.65.85,1.36,1.66,2.12,2.42,5.06,5.06,12.13,7.73,20.47,7.73,9.71,0,20.51-3.58,30.79-10.15.65.86,1.36,1.66,2.12,2.42,5.06,5.06,12.14,7.73,20.48,7.73Z" />
    <path class="uuid-e4a41a13-2f7e-4897-8da6-b545f1a120ef"
      d="M188.71,95.94c-8.44,0-15.61-2.71-20.74-7.84-.69-.69-1.34-1.42-1.94-2.19-10.22,6.46-21.11,10.02-30.7,10.02-8.44,0-15.61-2.71-20.73-7.84-.68-.68-1.33-1.42-1.94-2.18-10.22,6.46-21.11,10.02-30.7,10.02-8.44,0-15.61-2.71-20.73-7.84-.69-.69-1.34-1.42-1.94-2.19-10.22,6.46-21.11,10.02-30.7,10.02-8.44,0-15.61-2.71-20.73-7.84C.6,80.85-1.73,69.77,1.28,56.91c2.84-12.12,10.16-24.56,20.62-35.02C35.61,8.18,52.61,0,67.37,0c8.44,0,15.61,2.71,20.74,7.84.68.68,1.34,1.42,1.94,2.18C100.27,3.56,111.16,0,120.75,0c8.44,0,15.61,2.71,20.73,7.84.68.68,1.33,1.42,1.94,2.18C153.64,3.56,164.53,0,174.12,0c8.44,0,15.61,2.71,20.73,7.84.68.68,1.33,1.42,1.94,2.18C207.01,3.56,217.9,0,227.49,0c8.44,0,15.61,2.71,20.73,7.84,7.09,7.09,9.54,17.83,6.89,30.23-2.64,12.34-10.08,25.12-20.94,35.98-13.71,13.71-30.7,21.89-45.46,21.89ZM166.12,85.04c.11,0,.23.05.3.15.64.84,1.34,1.64,2.08,2.38,4.98,4.98,11.97,7.62,20.21,7.62,14.57,0,31.36-8.1,44.93-21.67,10.76-10.76,18.12-23.41,20.73-35.61,2.6-12.14.22-22.63-6.68-29.54-4.98-4.98-11.97-7.62-20.2-7.62-9.54,0-20.4,3.58-30.58,10.09-.16.11-.38.07-.5-.09-.64-.84-1.34-1.64-2.08-2.38-4.98-4.98-11.97-7.62-20.2-7.62-9.54,0-20.4,3.58-30.59,10.09-.16.11-.38.07-.5-.09-.64-.84-1.34-1.64-2.08-2.38-4.98-4.98-11.97-7.62-20.2-7.62-9.54,0-20.4,3.58-30.58,10.09-.16.11-.38.07-.5-.09-.64-.84-1.34-1.64-2.08-2.38-4.99-4.99-11.97-7.62-20.21-7.62-14.57,0-31.37,8.1-44.93,21.67C12.07,32.78,4.82,45.09,2.01,57.08c-2.95,12.6-.69,23.43,6.37,30.49,4.98,4.98,11.97,7.62,20.2,7.62,9.54,0,20.41-3.58,30.59-10.09.16-.11.38-.07.5.09.64.84,1.34,1.64,2.08,2.38,4.98,4.98,11.97,7.62,20.2,7.62,9.54,0,20.4-3.58,30.59-10.09.16-.11.38-.07.5.09.64.84,1.34,1.64,2.08,2.38,4.98,4.98,11.97,7.62,20.2,7.62,9.54,0,20.4-3.58,30.59-10.09.06-.04.13-.06.2-.06Z" />
    <path class="uuid-393c8c83-b96b-42a3-8172-9897a2885237"
      d="M25,24.98C45.45,4.53,72.32-1.76,85.02,10.93c1.54,1.54,2.79,3.29,3.78,5.2C107.21,2.99,127.77.31,138.39,10.93c1.54,1.54,2.79,3.29,3.78,5.2,18.41-13.15,38.97-15.83,49.59-5.2,1.54,1.54,2.79,3.29,3.78,5.2,18.41-13.15,38.97-15.83,49.59-5.2,12.69,12.69,6.4,39.57-14.05,60.02-20.45,20.45-47.33,26.74-60.02,14.05-1.54-1.54-2.79-3.29-3.78-5.2-18.41,13.15-38.97,15.83-49.59,5.2-1.54-1.54-2.79-3.29-3.78-5.2-18.41,13.15-38.97,15.83-49.59,5.2-1.54-1.54-2.79-3.29-3.78-5.2-18.41,13.15-38.97,15.83-49.59,5.2-12.69-12.69-6.4-39.57,14.05-60.02Z" />
    <path class="uuid-36b0d95f-2683-4748-a7a5-2ea7d69e21c7"
      d="M233.25,44.49l-6.24,1.1c1.53-3.18,1.59-6.86.24-10.04l-4.07,4.85c-.87-3.42-3.2-6.27-6.28-7.84v6.33c-2.87-2.06-6.48-2.75-9.85-1.98l4.07,4.85c-3.52.26-6.73,2.06-8.81,4.82l6.24,1.1c-2.53,2.47-3.84,5.9-3.66,9.36l5.48-3.16c-.35,3.52.86,6.98,3.22,9.51l2.17-5.95c1.99,2.92,5.14,4.8,8.58,5.23l-2.16-5.94c3.4.96,7.03.36,9.93-1.52l-5.48-3.16c3.22-1.45,5.62-4.24,6.63-7.54Z" />
    <text class="uuid-39f86891-9ee1-46a8-a34e-c3b3a9aefd68" transform="translate(29.3 64.14)">
      <tspan x="0" y="0">HEL</tspan>
      <tspan class="uuid-71dfceec-27fc-4ff1-abc4-ff7a75fa561e" x="98.65" y="0">L</tspan>
      <tspan x="126.95" y="0">O</tspan>
    </text>
  </g>
</svg>