<svg xmlns="http://www.w3.org/2000/svg"
  xmlns:xlink="http://www.w3.org/1999/xlink" viewBox="0 0 317.56 90.03">
  <defs>
    <style>
      .uuid-179ef212-12dd-4dd2-8815-ce881e05ebb9 {
        fill: #fff;
      }

      .uuid-7779bca7-281a-4b71-9063-d9f81556e9fc {
        fill: url(#uuid-05b41738-9925-4c2d-8b40-05bdcb3aa630);
      }

      .uuid-40358368-f2da-43a6-8183-2e9bfeedb8e6 {
        fill: #171717;
      }

      .uuid-422ab389-3f86-48ed-a9d0-5053f4a5b0a8 {
        fill: url(#uuid-4724320c-777d-4c9f-b8ff-17117fef27a6);
      }

      .uuid-de69f2a7-adfd-427f-bf2b-3e8210b646d1 {
        fill: url(#uuid-db3ec0bd-843d-41ab-85cf-e95f6c332d12);
      }
    </style>
    <linearGradient id="uuid-05b41738-9925-4c2d-8b40-05bdcb3aa630" x1="16.89" y1="90.31" x2="79.83" y2="-77.87"
      gradientUnits="userSpaceOnUse">
      <stop offset="0" stop-color="#fdcbaf" />
      <stop offset=".29" stop-color="#5efdff" />
      <stop offset=".62" stop-color="#d62e98" />
      <stop offset=".84" stop-color="#edfe3c" />
      <stop offset="1" stop-color="#d8ff43" />
    </linearGradient>
    <linearGradient id="uuid-db3ec0bd-843d-41ab-85cf-e95f6c332d12" x1="231.35" y1="170.56" x2="294.28" y2="2.37"
      xlink:href="#uuid-05b41738-9925-4c2d-8b40-05bdcb3aa630" />
    <linearGradient id="uuid-4724320c-777d-4c9f-b8ff-17117fef27a6" x1="101.35" y1="110.08" x2="210.83" y2="-28.78"
      gradientUnits="userSpaceOnUse">
      <stop offset="0" stop-color="#56e7f2" />
      <stop offset=".29" stop-color="#c2a7de" />
      <stop offset=".62" stop-color="#e8fba9" />
      <stop offset=".84" stop-color="#32abdf" />
      <stop offset="1" stop-color="#fefcef" />
    </linearGradient>
  </defs>
  <g id="uuid-cab400bd-e5e6-462e-b2e6-2ed5a8bcc694">
    <path class="uuid-40358368-f2da-43a6-8183-2e9bfeedb8e6"
      d="M281.02.37c-8.56,0-16.43,3-22.63,7.98H59.17C52.97,3.37,45.1.37,36.54.37,16.6.37.37,16.6.37,36.54c0,11.28,4.54,24.21,12.44,35.48,7.75,11.04,16.62,17.63,23.73,17.63,4.24,0,9.11-2.36,14-6.6h216.15c.1,0,.2-.02.3-.03,4.9,4.26,9.78,6.63,14.03,6.63,7.11,0,15.98-6.59,23.73-17.63,7.91-11.26,12.44-24.19,12.44-35.48,0-19.94-16.22-36.17-36.17-36.17Z" />
    <path class="uuid-179ef212-12dd-4dd2-8815-ce881e05ebb9"
      d="M281.02,90.03c-4.25,0-9.14-2.29-14.15-6.62-.06,0-.12.01-.18.01H50.68c-5.01,4.32-9.89,6.6-14.14,6.6-7.23,0-16.21-6.65-24.03-17.79C4.56,60.91,0,47.9,0,36.54,0,16.39,16.39,0,36.54,0c8.23,0,16.31,2.83,22.76,7.98h198.95c6.45-5.15,14.53-7.98,22.76-7.98,20.15,0,36.54,16.39,36.54,36.54,0,11.36-4.56,24.37-12.51,35.69-7.82,11.14-16.8,17.79-24.03,17.79ZM266.99,82.64c.09,0,.18.03.25.09,4.92,4.28,9.69,6.54,13.79,6.54,6.98,0,15.74-6.53,23.42-17.47,7.86-11.2,12.37-24.05,12.37-35.26,0-19.74-16.06-35.79-35.79-35.79-8.11,0-16.06,2.81-22.39,7.9-.07.05-.15.08-.23.08H59.17c-.09,0-.17-.03-.23-.08C52.6,3.56,44.65.75,36.54.75,16.81.75.75,16.81.75,36.54c0,11.21,4.51,24.06,12.37,35.26,7.68,10.94,16.44,17.47,23.42,17.47,4.09,0,8.84-2.25,13.75-6.51.07-.06.16-.09.25-.09h216.15s.08,0,.12-.01c.05,0,.1-.01.15-.02,0,0,.02,0,.02,0Z" />
    <path class="uuid-7779bca7-281a-4b71-9063-d9f81556e9fc"
      d="M36.54,5.37c17.21,0,31.17,13.95,31.17,31.17,0,22.8-20.37,48.11-31.17,48.11S5.37,59.35,5.37,36.54c0-17.21,13.95-31.17,31.17-31.17Z" />
    <path class="uuid-40358368-f2da-43a6-8183-2e9bfeedb8e6"
      d="M58.33,38.41c-2.72-2.23-7.74-.61-11.21,3.61-4.6,5.6-6.48,14.46-4.77,15.86,1.71,1.4,10.03-2.17,14.63-7.78,3.47-4.23,4.08-9.47,1.35-11.7Z" />
    <path class="uuid-40358368-f2da-43a6-8183-2e9bfeedb8e6"
      d="M14.76,38.41c2.72-2.23,7.74-.61,11.21,3.61,4.6,5.6,6.48,14.46,4.77,15.86-1.71,1.4-10.03-2.17-14.63-7.78-3.47-4.23-4.08-9.47-1.35-11.7Z" />
    <path class="uuid-de69f2a7-adfd-427f-bf2b-3e8210b646d1"
      d="M281.02,5.37c17.21,0,31.17,13.95,31.17,31.17,0,22.8-20.37,48.11-31.17,48.11s-31.17-25.31-31.17-48.11c0-17.21,13.95-31.17,31.17-31.17Z" />
    <path class="uuid-40358368-f2da-43a6-8183-2e9bfeedb8e6"
      d="M302.8,38.41c-2.72-2.23-7.74-.61-11.21,3.61-4.6,5.6-6.48,14.46-4.77,15.86,1.71,1.4,10.03-2.17,14.63-7.78,3.47-4.23,4.08-9.47,1.35-11.7Z" />
    <path class="uuid-40358368-f2da-43a6-8183-2e9bfeedb8e6"
      d="M259.24,38.41c2.72-2.23,7.74-.61,11.21,3.61,4.6,5.6,6.48,14.46,4.77,15.86-1.71,1.4-10.03-2.17-14.63-7.78-3.47-4.23-4.08-9.47-1.35-11.7Z" />
    <path class="uuid-422ab389-3f86-48ed-a9d0-5053f4a5b0a8"
      d="M80.72,42.38v-18.08h4.21l9.97,12.04h-1.99v-12.04h5.01v18.08h-4.21l-9.97-12.04h1.99v12.04h-5.01Z" />
    <path class="uuid-422ab389-3f86-48ed-a9d0-5053f4a5b0a8"
      d="M110.66,42.74c-1.45,0-2.78-.23-4-.7-1.22-.46-2.29-1.12-3.19-1.98-.9-.85-1.61-1.85-2.11-2.98-.5-1.14-.75-2.38-.75-3.75s.25-2.61.75-3.75c.5-1.14,1.2-2.13,2.11-2.98s1.97-1.51,3.19-1.98c1.22-.46,2.56-.7,4-.7s2.8.23,4.02.7c1.21.47,2.27,1.12,3.16,1.98s1.6,1.85,2.11,2.98.76,2.38.76,3.75-.25,2.61-.76,3.76c-.51,1.15-1.21,2.14-2.11,2.98s-1.95,1.5-3.16,1.96-2.55.7-4.02.7ZM110.66,38.51c.69,0,1.33-.12,1.92-.36.59-.24,1.11-.59,1.55-1.05.44-.46.78-1,1.03-1.64.25-.64.37-1.34.37-2.12s-.12-1.5-.37-2.13c-.25-.63-.59-1.17-1.03-1.63-.44-.46-.96-.8-1.55-1.05-.59-.24-1.24-.36-1.92-.36s-1.33.12-1.92.36c-.59.24-1.11.59-1.55,1.05-.44.46-.78,1-1.03,1.63-.25.63-.38,1.34-.38,2.13s.12,1.48.38,2.12c.25.64.59,1.18,1.03,1.64.44.46.96.81,1.55,1.05.59.24,1.24.36,1.92.36Z" />
    <path class="uuid-422ab389-3f86-48ed-a9d0-5053f4a5b0a8"
      d="M130.91,42.38v-18.08h5.12v18.08h-5.12ZM135.66,35.33v-4.24h7.7v4.24h-7.7ZM142.99,42.38v-18.08h5.11v18.08h-5.11Z" />
    <path class="uuid-422ab389-3f86-48ed-a9d0-5053f4a5b0a8"
      d="M160.07,42.74c-2.67,0-4.75-.73-6.25-2.2-1.5-1.46-2.25-3.54-2.25-6.23v-10.02h5.11v9.87c0,1.55.31,2.66.92,3.33.61.67,1.45,1.01,2.52,1.01s1.9-.34,2.5-1.01c.6-.67.9-1.78.9-3.33v-9.87h5.04v10.02c0,2.69-.75,4.76-2.25,6.23-1.5,1.46-3.58,2.2-6.25,2.2Z" />
    <path class="uuid-422ab389-3f86-48ed-a9d0-5053f4a5b0a8"
      d="M172.03,42.38v-18.08h4.21l7.49,12.29h-2.22l7.28-12.29h4.21l.05,18.08h-4.7l-.05-10.93h.8l-5.45,9.14h-2.27l-5.6-9.14h.98v10.93h-4.73Z" />
    <path class="uuid-422ab389-3f86-48ed-a9d0-5053f4a5b0a8"
      d="M194.5,42.38l7.98-18.08h5.04l8.01,18.08h-5.32l-6.25-15.58h2.01l-6.25,15.58h-5.22ZM198.86,38.87l1.32-3.77h8.83l1.32,3.77h-11.47Z" />
    <path class="uuid-422ab389-3f86-48ed-a9d0-5053f4a5b0a8"
      d="M216.97,42.38v-18.08h4.21l9.97,12.04h-1.99v-12.04h5.01v18.08h-4.21l-9.97-12.04h1.99v12.04h-5.01Z" />
    <path class="uuid-422ab389-3f86-48ed-a9d0-5053f4a5b0a8"
      d="M86.26,67.95l7.98-18.08h5.04l8.01,18.08h-5.32l-6.25-15.58h2.01l-6.25,15.58h-5.22ZM90.63,64.44l1.32-3.77h8.83l1.32,3.77h-11.47Z" />
    <path class="uuid-422ab389-3f86-48ed-a9d0-5053f4a5b0a8" d="M108.73,67.95v-18.08h5.12v14.03h8.63v4.06h-13.74Z" />
    <path class="uuid-422ab389-3f86-48ed-a9d0-5053f4a5b0a8" d="M124.49,67.95v-18.08h5.12v14.03h8.63v4.06h-13.74Z" />
    <path class="uuid-422ab389-3f86-48ed-a9d0-5053f4a5b0a8"
      d="M149.08,68.31c-1.45,0-2.78-.23-4-.7-1.22-.46-2.29-1.12-3.19-1.98-.9-.85-1.61-1.85-2.11-2.98-.5-1.14-.75-2.38-.75-3.75s.25-2.61.75-3.75c.5-1.14,1.2-2.13,2.11-2.98s1.97-1.51,3.19-1.98c1.22-.46,2.56-.7,4-.7s2.8.23,4.02.7c1.21.47,2.27,1.12,3.16,1.98s1.6,1.85,2.11,2.98.76,2.38.76,3.75-.25,2.61-.76,3.76c-.51,1.15-1.21,2.14-2.11,2.98s-1.95,1.5-3.16,1.96-2.55.7-4.02.7ZM149.08,64.08c.69,0,1.33-.12,1.92-.36.59-.24,1.11-.59,1.55-1.05.44-.46.78-1,1.03-1.64.25-.64.37-1.34.37-2.12s-.12-1.5-.37-2.13c-.25-.63-.59-1.17-1.03-1.63-.44-.46-.96-.8-1.55-1.05-.59-.24-1.24-.36-1.92-.36s-1.33.12-1.92.36c-.59.24-1.11.59-1.55,1.05-.44.46-.78,1-1.03,1.63-.25.63-.38,1.34-.38,2.13s.12,1.48.38,2.12c.25.64.59,1.18,1.03,1.64.44.46.96.81,1.55,1.05.59.24,1.24.36,1.92.36Z" />
    <path class="uuid-422ab389-3f86-48ed-a9d0-5053f4a5b0a8"
      d="M165.66,67.95l-5.86-18.08h5.27l4.93,15.65h-2.66l5.19-15.65h4.7l4.91,15.65h-2.56l5.09-15.65h4.88l-5.86,18.08h-5.48l-4.18-13.3h1.47l-4.37,13.3h-5.48Z" />
    <path class="uuid-422ab389-3f86-48ed-a9d0-5053f4a5b0a8"
      d="M191.39,67.95v-18.08h14.18v3.95h-9.12v10.18h9.45v3.95h-14.52ZM196.09,60.69v-3.82h8.39v3.82h-8.39Z" />
    <path class="uuid-422ab389-3f86-48ed-a9d0-5053f4a5b0a8"
      d="M208.74,67.95v-18.08h8.55c2,0,3.75.37,5.27,1.11,1.51.74,2.7,1.78,3.55,3.12.85,1.34,1.28,2.95,1.28,4.8s-.43,3.44-1.28,4.79c-.85,1.35-2.04,2.4-3.55,3.14-1.52.74-3.27,1.11-5.27,1.11h-8.55ZM213.86,63.87h3.23c1.03,0,1.93-.19,2.7-.58.77-.39,1.36-.96,1.79-1.7.43-.75.65-1.64.65-2.67s-.21-1.95-.65-2.69c-.43-.74-1.03-1.3-1.79-1.69-.77-.39-1.67-.58-2.7-.58h-3.23v9.92Z" />
  </g>
</svg>