<svg id="logo-daniel" xmlns="http://www.w3.org/2000/svg" viewBox="0 0 727.83 500.47" aria-hidden="true" fill="currentColor">
  <g id="letters-group">
    <path class="letter" d="M166.3,120.41c0,65.46-60.72,118.72-135.36,118.72H11.6v-105.15H0v-27.14h11.6V1.7h19.34c74.64,0,135.36,53.25,135.36,118.72ZM127.62,120.41c0-41.04-33.26-75.3-77.35-83.1v69.53h42.54v27.14h-42.54v69.53c44.09-7.8,77.35-42.06,77.35-83.1Z"/>
    <path class="letter" d="M155.08,208.6h128.78v30.53h-128.78v-30.53ZM193.37,169.59h-35.97L202.65,0h33.65l45.25,169.59h-35.58l-5.41-20.35h-41.77l-5.41,20.35ZM219.67,70.89l-13.92,51.22h27.46l-13.54-51.22Z"/>
    <path class="letter" d="M400.27,1.7h38.67v237.43h-38.67l-77.35-155.35v155.35h-38.67V1.7h39.06l76.96,155.35V1.7Z"/>
    <path class="letter" d="M446.3,1.7h38.67v237.43h-38.67V1.7Z"/>
    <path class="letter" d="M608.33,1.7v30.53h-77.35v55.97h69.61v30.53h-69.61v89.88h77.35v30.53h-116.02V1.7h116.02Z"/>
    <path class="letter" d="M650.49,208.6h77.35v30.53h-116.02v-92.26l-13.15,6.44v-34.94l13.15-6.78V1.7h38.67v90.22l25.52-12.21v35.28l-25.52,12.21v81.41Z"/>
    <path class="letter" d="M225.39,262.7h39.45l-63.81,237.77h-39.45l-64.2-237.77h39.83l44.09,164.5,44.09-164.5Z"/>
    <path class="letter" d="M258.64,262.7h88.56v30.53h-49.89v26.8h44.09v30.53h-44.09v51.22h49.89v30.53h-88.56v-169.59ZM258.64,469.6h88.56v30.53h-88.56v-30.53Z"/>
    <path class="letter" d="M391.29,469.6h127.24v30.53h-165.91v-237.43h38.67v206.9ZM429.97,262.7h88.56v30.53h-49.89v26.8h44.47v30.53h-44.47v51.22h49.89v30.53h-88.56v-169.59Z"/>
    <path class="letter" d="M634.16,287.12l-73.09,182.48h73.09v30.53h-116.02v-24.42l73.09-182.48h-73.09v-30.53h116.02v24.42Z"/>
  </g>
</svg>