<svg xmlns="http://www.w3.org/2000/svg" viewBox="0 0 126.36 126.34">
  <defs>
    <style>
      .uuid-7877b222-ec25-4879-b7fb-8c4f510047b1 {
        letter-spacing: -.05em;
      }

      .uuid-feed9a0d-3dbf-415d-a578-aad34b0bf24b,
      .uuid-ca7632d3-593b-469a-a341-e3d062b2e6e9 {
        fill: #fff;
      }

      .uuid-4b3c40d2-57f0-40d7-af4e-748bda349f24 {
        letter-spacing: 0em;
      }

      .uuid-4c1d2fe1-ccbb-4e95-a48e-100423cbdf00 {
        fill: #171717;
      }

      .uuid-308d5d60-6e23-4ef0-8707-737d66f5d5c3 {
        letter-spacing: 0em;
      }

      .uuid-6ec0564e-06b8-4e43-9fd0-25e2bcb1f6bd {
        fill: url(#uuid-97b91e7a-d2fb-4341-bfb6-f9941bffa804);
      }

      .uuid-ca7632d3-593b-469a-a341-e3d062b2e6e9 {
        font-family: Montserrat-ExtraBold, Montserrat;
        font-size: 16.79px;
        font-weight: 700;
      }
    </style>
    <linearGradient id="uuid-97b91e7a-d2fb-4341-bfb6-f9941bffa804" x1="89.65" y1="1.68" x2="38.79" y2="119.82"
      gradientUnits="userSpaceOnUse">
      <stop offset="0" stop-color="#96eeff" />
      <stop offset=".29" stop-color="#ef00ff" />
      <stop offset=".62" stop-color="#ff008e" />
      <stop offset=".84" stop-color="#6ebdf0" />
      <stop offset="1" stop-color="aqua" />
    </linearGradient>
  </defs>
  <g id="uuid-e57f1ad9-2564-46a8-9383-fd53ef64fbb9">
    <g>
      <path
        d="M60.91,125.97c-1.59,0-3.19-.38-4.61-1.1-2.11-1.06-4.15-2.3-6.1-3.71-1.61.99-3.49,1.53-5.4,1.53-2.73,0-5.3-1.05-7.23-2.97-1.68-1.66-3.24-3.47-4.65-5.41-.79.19-1.61.29-2.43.29-3.86,0-7.37-2.13-9.14-5.56-1.08-2.09-2.01-4.3-2.75-6.58-4.71-.35-8.59-3.85-9.37-8.59-.38-2.33-.58-4.71-.58-7.11-4.34-1.78-6.98-6.32-6.26-11.07.35-2.33.91-4.66,1.64-6.94-3.58-3.03-4.69-8.16-2.53-12.46,1.06-2.1,2.3-4.14,3.71-6.09-2.47-3.99-1.94-9.22,1.44-12.64,1.66-1.68,3.47-3.23,5.41-4.65-1.11-4.55,1-9.36,5.27-11.57,2.09-1.08,4.3-2,6.58-2.75.35-4.68,3.85-8.6,8.59-9.38,2.33-.38,4.72-.58,7.11-.59,1.57-3.81,5.31-6.37,9.51-6.37.52,0,1.04.04,1.55.12,2.34.36,4.66.91,6.95,1.64,1.94-2.29,4.79-3.63,7.85-3.63,1.59,0,3.18.38,4.61,1.09,2.11,1.06,4.15,2.3,6.1,3.71,1.62-.99,3.49-1.53,5.4-1.53,2.73,0,5.3,1.05,7.23,2.97,1.68,1.66,3.24,3.47,4.65,5.41.79-.19,1.61-.29,2.43-.29,3.86,0,7.37,2.13,9.14,5.56,1.08,2.1,2.01,4.3,2.75,6.58,4.71.35,8.6,3.85,9.37,8.59.38,2.33.58,4.71.58,7.11,4.34,1.78,6.98,6.32,6.26,11.07-.35,2.33-.91,4.66-1.64,6.94,3.58,3.03,4.69,8.16,2.53,12.46-1.06,2.1-2.3,4.14-3.71,6.09,2.47,3.99,1.94,9.22-1.44,12.64-1.66,1.68-3.47,3.23-5.41,4.65,1.11,4.56-1,9.36-5.27,11.57-2.09,1.08-4.29,2-6.58,2.75-.35,4.68-3.85,8.6-8.59,9.38-2.33.38-4.72.58-7.11.59-1.57,3.81-5.31,6.37-9.51,6.37-.52,0-1.04-.04-1.56-.12-2.33-.35-4.66-.9-6.94-1.64-1.94,2.29-4.79,3.63-7.85,3.63Z" />
      <path class="uuid-feed9a0d-3dbf-415d-a578-aad34b0bf24b"
        d="M60.91,126.34c-1.65,0-3.31-.39-4.78-1.13-2.05-1.03-4.05-2.24-5.95-3.59-1.63.96-3.49,1.46-5.38,1.46-2.83,0-5.49-1.09-7.5-3.08-1.63-1.61-3.16-3.38-4.54-5.26-.75.16-1.51.25-2.27.25-4.01,0-7.64-2.21-9.48-5.77-1.05-2.03-1.96-4.18-2.7-6.4-4.8-.47-8.68-4.09-9.47-8.88-.37-2.26-.57-4.59-.59-6.92-4.42-1.93-6.99-6.57-6.26-11.37.35-2.27.88-4.54,1.58-6.77C-.03,65.67-1.04,60.46,1.14,56.12c1.02-2.04,2.23-4.04,3.6-5.94-2.45-4.16-1.8-9.43,1.62-12.88,1.61-1.63,3.38-3.16,5.26-4.55-1.04-4.71,1.21-9.51,5.52-11.75,2.03-1.05,4.18-1.96,6.4-2.7.47-4.8,4.09-8.68,8.88-9.47,2.27-.37,4.6-.57,6.92-.59,1.7-3.88,5.51-6.38,9.76-6.38.54,0,1.08.04,1.61.12,2.27.35,4.54.88,6.77,1.58,2.02-2.27,4.91-3.57,7.97-3.57,1.65,0,3.3.39,4.78,1.13,2.05,1.03,4.05,2.24,5.95,3.6,1.64-.95,3.49-1.46,5.38-1.46,2.83,0,5.49,1.09,7.5,3.08,1.63,1.61,3.16,3.38,4.54,5.26.75-.16,1.51-.25,2.27-.25,4,0,7.63,2.21,9.48,5.77,1.05,2.03,1.96,4.19,2.7,6.4,4.8.47,8.68,4.09,9.47,8.88.37,2.26.57,4.59.59,6.92,4.42,1.93,6.99,6.57,6.26,11.37-.34,2.26-.88,4.54-1.58,6.77,3.61,3.2,4.62,8.41,2.44,12.75-1.03,2.05-2.24,4.04-3.6,5.94,2.45,4.16,1.8,9.43-1.62,12.88-1.61,1.63-3.37,3.16-5.26,4.55,1.04,4.71-1.21,9.52-5.52,11.75-2.03,1.05-4.18,1.96-6.4,2.7-.47,4.8-4.09,8.68-8.88,9.47-2.26.37-4.59.57-6.92.59-1.7,3.88-5.51,6.38-9.76,6.38-.54,0-1.08-.04-1.61-.12-2.26-.34-4.54-.88-6.76-1.58-2.02,2.27-4.91,3.57-7.97,3.57ZM50.2,120.79c.08,0,.15.02.22.07,1.93,1.39,3.96,2.63,6.05,3.68,1.37.69,2.91,1.05,4.45,1.05,2.93,0,5.68-1.27,7.56-3.5.1-.12.25-.16.4-.12,2.27.73,4.58,1.28,6.88,1.63.5.08,1,.11,1.5.11,4.03,0,7.63-2.41,9.16-6.14.06-.14.19-.23.35-.23,2.37,0,4.75-.2,7.05-.58,4.54-.75,7.94-4.46,8.28-9.03.01-.15.11-.28.26-.33,2.27-.74,4.46-1.66,6.53-2.73,4.08-2.11,6.17-6.69,5.08-11.15-.04-.15.02-.3.14-.39,1.92-1.41,3.73-2.96,5.37-4.61,3.23-3.27,3.8-8.28,1.38-12.18-.08-.13-.07-.29.01-.42,1.4-1.92,2.63-3.96,3.68-6.04,2.06-4.11,1.06-9.04-2.44-12.01-.12-.1-.16-.26-.12-.4.73-2.27,1.28-4.58,1.63-6.89.69-4.54-1.79-8.93-6.03-10.66-.14-.06-.23-.19-.23-.35,0-2.38-.2-4.75-.58-7.05-.75-4.54-4.46-7.94-9.03-8.28-.15-.01-.28-.11-.33-.26-.74-2.26-1.66-4.46-2.73-6.53-1.71-3.31-5.09-5.36-8.81-5.36-.79,0-1.58.09-2.34.28-.15.04-.3-.02-.39-.14-1.4-1.92-2.95-3.72-4.61-5.36-1.87-1.84-4.34-2.86-6.97-2.86-1.83,0-3.63.51-5.2,1.48-.13.08-.29.08-.42-.02-1.92-1.39-3.96-2.63-6.05-3.68-1.37-.69-2.91-1.05-4.44-1.05-2.92,0-5.68,1.27-7.56,3.5-.1.12-.26.16-.4.11-2.26-.73-4.58-1.28-6.89-1.63-.49-.08-1-.11-1.5-.11-4.03,0-7.63,2.41-9.16,6.14-.06.14-.19.23-.35.23-2.37,0-4.74.2-7.05.58-4.54.75-7.94,4.46-8.28,9.03-.01.15-.11.28-.26.33-2.26.74-4.46,1.66-6.53,2.73-4.08,2.11-6.17,6.7-5.08,11.15.04.15-.02.3-.14.39-1.92,1.4-3.72,2.95-5.37,4.61-3.23,3.27-3.8,8.28-1.38,12.18.08.13.07.29-.01.42-1.4,1.93-2.64,3.97-3.68,6.04-2.06,4.11-1.06,9.04,2.44,12.01.12.1.16.26.11.4-.73,2.26-1.28,4.58-1.63,6.88-.69,4.54,1.79,8.92,6.03,10.66.14.06.23.19.23.35,0,2.38.2,4.75.58,7.05.75,4.54,4.46,7.94,9.03,8.28.15.01.28.11.33.26.74,2.26,1.66,4.46,2.73,6.53,1.71,3.31,5.08,5.36,8.81,5.36.79,0,1.58-.09,2.34-.28.15-.03.3.02.39.14,1.4,1.92,2.95,3.73,4.61,5.37,1.87,1.84,4.34,2.86,6.97,2.86,1.83,0,3.63-.51,5.2-1.48.06-.04.13-.06.2-.06Z" />
      <path class="uuid-6ec0564e-06b8-4e43-9fd0-25e2bcb1f6bd"
        d="M60.91,122.95c-1.1,0-2.22-.25-3.26-.77-2.68-1.34-5.18-2.97-7.5-4.84-.24.25-.49.5-.77.72-1.34,1.09-2.96,1.63-4.58,1.63-1.86,0-3.7-.71-5.11-2.1-2.13-2.1-4.01-4.43-5.63-6.93-.3.17-.62.32-.95.45-.86.33-1.74.49-2.61.49-2.65,0-5.18-1.45-6.46-3.93-1.38-2.66-2.45-5.45-3.22-8.33-.34.07-.69.11-1.05.13-.13,0-.26.01-.39.01-3.54,0-6.59-2.56-7.17-6.09-.49-2.95-.64-5.94-.49-8.91-.34-.04-.69-.11-1.03-.2-3.58-.96-5.88-4.46-5.32-8.12.45-2.96,1.23-5.85,2.29-8.63-.31-.14-.62-.31-.92-.51-3.11-2.02-4.21-6.05-2.55-9.37,1.34-2.66,2.97-5.17,4.85-7.49-.26-.24-.5-.5-.73-.77-2.34-2.88-2.13-7.06.47-9.7,2.09-2.11,4.41-4,6.93-5.63-.17-.3-.32-.62-.45-.95-1.33-3.46.15-7.37,3.45-9.08,2.62-1.35,5.42-2.43,8.33-3.22-.07-.34-.11-.69-.13-1.05-.2-3.7,2.42-6.96,6.08-7.57,2.21-.36,4.48-.55,6.76-.55.72,0,1.44.02,2.16.06.04-.34.11-.69.2-1.03.86-3.22,3.78-5.4,7.02-5.4.36,0,.73.03,1.1.08,2.96.45,5.85,1.23,8.63,2.29.14-.32.31-.62.51-.92,1.38-2.13,3.71-3.32,6.11-3.32,1.1,0,2.22.25,3.26.77,2.68,1.34,5.18,2.97,7.5,4.84.24-.25.49-.5.77-.72,1.34-1.09,2.96-1.63,4.58-1.63,1.86,0,3.7.71,5.11,2.1,2.13,2.1,4.01,4.43,5.63,6.93.3-.17.62-.32.95-.45.86-.33,1.74-.49,2.61-.49,2.65,0,5.18,1.45,6.46,3.93,1.38,2.66,2.44,5.45,3.22,8.33.34-.07.69-.11,1.05-.13.13,0,.26-.01.39-.01,3.54,0,6.59,2.56,7.17,6.09.49,2.95.64,5.94.49,8.91.34.04.69.11,1.03.2,3.58.96,5.88,4.46,5.32,8.12-.45,2.96-1.23,5.85-2.29,8.63.31.14.62.31.92.51,3.11,2.02,4.21,6.05,2.55,9.37-1.34,2.66-2.97,5.17-4.85,7.49.26.24.5.5.73.77,2.34,2.88,2.13,7.06-.47,9.7-2.09,2.11-4.41,4-6.93,5.63.17.3.32.62.45.95,1.33,3.46-.15,7.37-3.45,9.08-2.62,1.35-5.41,2.43-8.33,3.22.07.34.11.69.13,1.05.2,3.7-2.42,6.96-6.08,7.57-2.21.36-4.48.55-6.76.55-.72,0-1.44-.02-2.16-.05-.04.34-.11.69-.2,1.03-.86,3.22-3.78,5.4-7.02,5.4-.36,0-.73-.03-1.1-.08-2.96-.45-5.85-1.23-8.63-2.29-.14.32-.31.62-.51.92-1.38,2.13-3.71,3.32-6.11,3.32Z" />
      <path class="uuid-4c1d2fe1-ccbb-4e95-a48e-100423cbdf00"
        d="M112.41,81.55c-11.96,7.7-27.36,9.38-40.28,4.15,16.85,3.56,35.86-4.94,43.55-20.27-9,11.02-23.12,17.38-37.03,16.4,17.13-1.82,32.58-15.78,35.16-32.73-5.15,13.26-16.62,23.67-30.15,27.04,15.73-7.02,26.11-25.07,23.32-42-.8,14.2-8.49,27.65-20.32,35.03,12.79-11.54,17.08-31.91,9.2-47.15,3.62,13.72.47,28.83-8.45,39.5,8.53-14.92,6.31-35.56-5.87-47.59,7.7,11.96,9.38,27.36,4.15,40.28,3.56-16.85-4.94-35.86-20.27-43.55,11.02,9,17.38,23.12,16.4,37.03-1.82-17.13-15.78-32.58-32.73-35.16,13.26,5.15,23.67,16.62,27.04,30.15-7.02-15.73-25.07-26.11-42-23.32,14.2.8,27.65,8.49,35.03,20.32-11.54-12.79-31.91-17.08-47.15-9.2,13.72-3.62,28.83-.47,39.5,8.45-14.92-8.53-35.56-6.31-47.59,5.87,11.96-7.7,27.36-9.38,40.28-4.15-16.85-3.56-35.86,4.94-43.55,20.27,9-11.02,23.12-17.38,37.03-16.4-17.13,1.82-32.58,15.78-35.16,32.73,5.15-13.26,16.62-23.67,30.15-27.04-15.73,7.02-26.11,25.07-23.32,42,.8-14.2,8.49-27.65,20.32-35.03-12.79,11.54-17.08,31.91-9.2,47.15-3.62-13.72-.47-28.83,8.45-39.5-8.53,14.92-6.31,35.56,5.87,47.59-7.7-11.96-9.38-27.36-4.15-40.28-3.56,16.85,4.94,35.86,20.27,43.55-11.02-9-17.38-23.12-16.4-37.03,1.82,17.13,15.78,32.58,32.73,35.16-13.26-5.15-23.67-16.62-27.04-30.15,7.02,15.73,25.07,26.11,42,23.32-14.2-.8-27.65-8.49-35.03-20.32,11.54,12.79,31.91,17.08,47.15,9.2-13.72,3.62-28.83.47-39.5-8.45,14.92,8.53,35.56,6.31,47.59-5.87Z" />
      <text class="uuid-ca7632d3-593b-469a-a341-e3d062b2e6e9" transform="translate(45.62 60.96)">
        <tspan x="0" y="0">S</tspan>
        <tspan class="uuid-7877b222-ec25-4879-b7fb-8c4f510047b1" x="10.86" y="0">A</tspan>
        <tspan x="23.16" y="0">Y</tspan>
        <tspan class="uuid-308d5d60-6e23-4ef0-8707-737d66f5d5c3" x=".57" y="16.62">Y</tspan>
        <tspan class="uuid-4b3c40d2-57f0-40d7-af4e-748bda349f24" x="12.07" y="16.62">ES</tspan>
      </text>
    </g>
  </g>
</svg>