<svg xmlns="http://www.w3.org/2000/svg" viewBox="0 0 131.93 131.5">
  <defs>
    <style>
      .uuid-95ef727a-6176-44dd-8aaf-53592b0c85fc {
        fill: #fff;
      }

      .uuid-5f6b3511-9946-4ceb-abf2-c0ca048eeb01 {
        fill: url(#uuid-be04e533-24f3-4193-9f74-8a57708d15ad);
      }

      .uuid-bacd2bd7-fb84-45a9-906a-2b58d44b85f5 {
        font-family: Montserrat-ExtraBold, Montserrat;
        font-size: 8.1px;
        font-weight: 700;
      }

      .uuid-bacd2bd7-fb84-45a9-906a-2b58d44b85f5,
      .uuid-2b616b66-efbc-4ff7-9aef-629915095dc1 {
        fill: #171717;
      }
    </style>
    <linearGradient id="uuid-be04e533-24f3-4193-9f74-8a57708d15ad" x1="7.48" y1="114.31" x2="129.23" y2="14.05"
      gradientUnits="userSpaceOnUse">
      <stop offset="0" stop-color="#97ff08" />
      <stop offset=".29" stop-color="#8bfff0" />
      <stop offset=".62" stop-color="#ffdd8a" />
      <stop offset=".84" stop-color="#31ecff" />
      <stop offset="1" stop-color="#ffd600" />
    </linearGradient>
  </defs>
  <g id="uuid-5eb78945-3f9a-4c64-8784-de03a549c30e">
    <path class="uuid-2b616b66-efbc-4ff7-9aef-629915095dc1"
      d="M49.02,131.13c-.82,0-1.62-.34-2.19-.95-8.98-9.63-13.96-22.22-14.08-35.2l-17.43,10.06c-.46.27-.98.4-1.5.4s-.98-.12-1.43-.36c-.92-.5-1.51-1.44-1.56-2.48-.69-13.14,3.6-25.98,11.88-36.01l-19.85-3.5c-1.03-.18-1.89-.88-2.27-1.86-.38-.97-.23-2.07.4-2.9,7.93-10.52,19.45-17.6,32.22-19.97l-12.94-15.42c-.67-.8-.88-1.89-.55-2.88.33-.99,1.15-1.74,2.17-1.97,3.84-.89,7.79-1.33,11.74-1.33,9.14,0,17.95,2.33,25.79,6.77V3.37c0-1.04.54-2.01,1.43-2.56.48-.29,1.02-.44,1.57-.44.47,0,.93.11,1.36.33,11.73,5.98,20.71,16.1,25.27,28.27l12.94-15.42c.57-.69,1.42-1.07,2.3-1.07.15,0,.3.01.44.03,1.03.15,1.91.83,2.32,1.79,5.14,12.11,5.5,25.64,1.15,37.9l19.85-3.5c.17-.03.35-.05.52-.05.85,0,1.67.36,2.25,1.01.69.78.93,1.87.62,2.87-3.85,12.59-12.26,23.2-23.45,29.79l17.43,10.06c.9.52,1.47,1.48,1.5,2.52s-.49,2.03-1.37,2.59c-8.52,5.53-18.4,8.46-28.56,8.46h0c-2.87,0-5.73-.24-8.55-.71l6.88,18.91c.36.98.18,2.08-.47,2.89-.57.72-1.44,1.13-2.35,1.13-.12,0-.24,0-.37-.02-13.06-1.6-24.96-8.06-33.4-17.95l-6.89,18.94c-.36.98-1.2,1.71-2.22,1.91-.2.04-.4.06-.6.06Z" />
    <path class="uuid-95ef727a-6176-44dd-8aaf-53592b0c85fc"
      d="M49.02,131.5c-.93,0-1.83-.39-2.47-1.07-8.88-9.52-13.89-21.86-14.17-34.81l-16.87,9.74c-1,.57-2.28.59-3.3.04-1.02-.56-1.7-1.63-1.76-2.79-.68-12.99,3.42-25.66,11.56-35.77l-19.22-3.39c-1.15-.2-2.13-1-2.55-2.09-.43-1.09-.26-2.34.44-3.27,7.84-10.4,19.12-17.48,31.83-20l-12.53-14.93c-.75-.89-.99-2.13-.62-3.24.37-1.11,1.3-1.96,2.44-2.22,3.87-.89,7.84-1.34,11.82-1.34,8.91,0,17.68,2.25,25.41,6.51V3.37c0-1.17.62-2.27,1.61-2.88.98-.6,2.27-.65,3.3-.13,11.6,5.91,20.53,15.79,25.22,27.87l12.53-14.93c.75-.89,1.92-1.35,3.08-1.17,1.17.17,2.14.93,2.61,2.02,5.08,11.97,5.56,25.29,1.37,37.57l19.22-3.39c1.17-.2,2.34.22,3.11,1.09.77.87,1.04,2.11.7,3.22-3.81,12.45-11.99,22.96-23.07,29.68l16.88,9.74c1.01.58,1.66,1.67,1.69,2.84.03,1.17-.56,2.28-1.54,2.92-8.58,5.57-18.53,8.52-28.76,8.52-2.67,0-5.35-.21-7.99-.61l6.67,18.31c.4,1.1.2,2.34-.53,3.25-.73.92-1.86,1.39-3.05,1.25-12.91-1.59-24.68-7.83-33.22-17.59l-6.67,18.34c-.4,1.1-1.36,1.92-2.5,2.15-.22.04-.45.07-.67.07ZM32.75,94.59c.06,0,.13.02.19.05.12.07.19.19.19.32.12,13,5.08,25.41,13.97,34.95.62.66,1.57.96,2.44.78.9-.18,1.63-.81,1.94-1.67l6.89-18.94c.05-.13.15-.22.29-.24.13-.02.26.02.35.13,8.45,9.9,20.23,16.23,33.16,17.82.91.11,1.81-.26,2.37-.97.57-.71.72-1.68.41-2.53l-6.88-18.91c-.05-.12-.02-.26.06-.37.08-.1.22-.15.35-.13,2.8.47,5.65.7,8.49.7,10.09,0,19.89-2.9,28.35-8.4.76-.49,1.22-1.36,1.19-2.27-.02-.92-.51-1.75-1.31-2.21l-17.43-10.06c-.12-.07-.19-.19-.19-.32,0-.13.07-.26.18-.33,11.2-6.6,19.46-17.1,23.28-29.58.26-.87.06-1.83-.54-2.51-.6-.68-1.52-1-2.42-.85l-19.85,3.5c-.14.02-.27-.03-.35-.13-.09-.1-.11-.24-.07-.37,4.35-12.27,3.94-25.63-1.15-37.63-.36-.85-1.12-1.43-2.03-1.57-.92-.14-1.82.21-2.4.91l-12.94,15.42c-.08.1-.22.15-.35.13-.13-.02-.24-.11-.29-.24-4.55-12.17-13.46-22.14-25.08-28.06-.8-.41-1.8-.37-2.56.1-.77.47-1.25,1.33-1.25,2.24v20.15c0,.13-.07.26-.19.32-.11.07-.26.07-.37,0-7.75-4.4-16.6-6.73-25.6-6.73-3.92,0-7.84.45-11.65,1.32-.88.2-1.61.87-1.9,1.73-.29.86-.1,1.83.48,2.52l12.94,15.42c.09.1.11.24.07.37-.04.13-.15.22-.28.24-12.78,2.37-24.14,9.41-31.99,19.83-.55.72-.68,1.7-.35,2.54.33.84,1.09,1.47,1.99,1.62l19.85,3.5c.13.02.24.11.29.24.05.12.02.27-.06.37-8.28,10.04-12.47,22.74-11.79,35.75.05.91.57,1.74,1.37,2.17.79.43,1.79.42,2.57-.03l17.43-10.06c.06-.03.12-.05.19-.05Z" />
    <path class="uuid-5f6b3511-9946-4ceb-abf2-c0ca048eeb01"
      d="M128.56,51.65l-25.24,4.45c6.21-12.89,6.43-27.74.96-40.63l-16.45,19.61c-3.53-13.85-12.94-25.36-25.41-31.71v25.63c-11.61-8.35-26.21-11.15-39.85-8l16.45,19.61c-14.26,1.07-27.22,8.34-35.64,19.52l25.24,4.45c-10.24,9.99-15.53,23.87-14.8,37.85l22.17-12.8c-1.42,14.23,3.49,28.25,13.03,38.49l8.77-24.09c8.06,11.82,20.81,19.44,34.71,21.15l-8.75-24.05c13.76,3.87,28.43,1.47,40.17-6.15l-22.17-12.8c13.03-5.88,22.73-17.15,26.82-30.53Z" />
    <path class="uuid-2b616b66-efbc-4ff7-9aef-629915095dc1"
      d="M65.97,44.57c-9.2,0-16.66,7.46-16.66,16.66,0,12.18,10.88,25.71,16.66,25.71s16.66-13.52,16.66-25.71c0-9.2-7.46-16.66-16.66-16.66ZM62.86,72.63c-.91.75-5.36-1.16-7.82-4.16-1.85-2.26-2.18-5.06-.72-6.25,1.45-1.19,4.14-.33,5.99,1.93,2.46,2.99,3.46,7.73,2.55,8.48ZM69.07,72.63c-.91-.75.09-5.48,2.55-8.48,1.85-2.26,4.54-3.12,5.99-1.93,1.45,1.19,1.13,3.99-.72,6.25-2.46,2.99-6.9,4.9-7.82,4.16Z" />
    <text class="uuid-bacd2bd7-fb84-45a9-906a-2b58d44b85f5" transform="translate(57.97 41.24) rotate(-14.67)">
      <tspan x="0" y="0">•</tspan>
    </text><text class="uuid-bacd2bd7-fb84-45a9-906a-2b58d44b85f5" transform="translate(61.98 40.29) rotate(-6.32)">
      <tspan x="0" y="0"> </tspan>
    </text><text class="uuid-bacd2bd7-fb84-45a9-906a-2b58d44b85f5" transform="translate(65.36 39.99) rotate(1.29)">
      <tspan x="0" y="0"> </tspan>
    </text><text class="uuid-bacd2bd7-fb84-45a9-906a-2b58d44b85f5" transform="translate(68.65 39.86) rotate(14.56)">
      <tspan x="0" y="0">M</tspan>
    </text><text class="uuid-bacd2bd7-fb84-45a9-906a-2b58d44b85f5" transform="translate(76.86 42.23) rotate(31.93)">
      <tspan x="0" y="0">U</tspan>
    </text><text class="uuid-bacd2bd7-fb84-45a9-906a-2b58d44b85f5" transform="translate(82.87 46.15) rotate(47.04)">
      <tspan x="0" y="0">Y</tspan>
    </text><text class="uuid-bacd2bd7-fb84-45a9-906a-2b58d44b85f5" transform="translate(87.14 51.11) rotate(58.09)">
      <tspan x="0" y="0"> </tspan>
    </text><text class="uuid-bacd2bd7-fb84-45a9-906a-2b58d44b85f5" transform="translate(88.96 53.87) rotate(69.44)">
      <tspan x="0" y="0">P</tspan>
    </text><text class="uuid-bacd2bd7-fb84-45a9-906a-2b58d44b85f5" transform="translate(91.25 60.24) rotate(84.39)">
      <tspan x="0" y="0">R</tspan>
    </text><text class="uuid-bacd2bd7-fb84-45a9-906a-2b58d44b85f5" transform="translate(91.85 67.08) rotate(100.66)">
      <tspan x="0" y="0">O</tspan>
    </text><text class="uuid-bacd2bd7-fb84-45a9-906a-2b58d44b85f5" transform="translate(90.29 74.61) rotate(117.32)">
      <tspan x="0" y="0">N</tspan>
    </text><text class="uuid-bacd2bd7-fb84-45a9-906a-2b58d44b85f5" transform="translate(86.72 81.08) rotate(132.16)">
      <tspan x="0" y="0">T</tspan>
    </text><text class="uuid-bacd2bd7-fb84-45a9-906a-2b58d44b85f5" transform="translate(82.73 85.49) rotate(147.33)">
      <tspan x="0" y="0">O</tspan>
    </text><text class="uuid-bacd2bd7-fb84-45a9-906a-2b58d44b85f5" transform="translate(76.03 89.39) rotate(159.62)">
      <tspan x="0" y="0"> </tspan>
    </text><text class="uuid-bacd2bd7-fb84-45a9-906a-2b58d44b85f5" transform="translate(72.84 90.5) rotate(167.05)">
      <tspan x="0" y="0"> </tspan>
    </text><text class="uuid-bacd2bd7-fb84-45a9-906a-2b58d44b85f5" transform="translate(69.53 91.21) rotate(175.42)">
      <tspan x="0" y="0">•</tspan>
    </text><text class="uuid-bacd2bd7-fb84-45a9-906a-2b58d44b85f5" transform="translate(65.41 91.44) rotate(-176.15)">
      <tspan x="0" y="0"> </tspan>
    </text><text class="uuid-bacd2bd7-fb84-45a9-906a-2b58d44b85f5" transform="translate(62.03 91.14) rotate(-168.55)">
      <tspan x="0" y="0"> </tspan>
    </text><text class="uuid-bacd2bd7-fb84-45a9-906a-2b58d44b85f5" transform="translate(58.78 90.69) rotate(-155.41)">
      <tspan x="0" y="0">M</tspan>
    </text><text class="uuid-bacd2bd7-fb84-45a9-906a-2b58d44b85f5" transform="translate(51.11 86.93) rotate(-138.01)">
      <tspan x="0" y="0">U</tspan>
    </text><text class="uuid-bacd2bd7-fb84-45a9-906a-2b58d44b85f5" transform="translate(45.88 82.01) rotate(-122.81)">
      <tspan x="0" y="0">Y</tspan>
    </text><text class="uuid-bacd2bd7-fb84-45a9-906a-2b58d44b85f5" transform="translate(42.55 76.39) rotate(-111.83)">
      <tspan x="0" y="0"> </tspan>
    </text><text class="uuid-bacd2bd7-fb84-45a9-906a-2b58d44b85f5" transform="translate(41.24 73.34) rotate(-100.6)">
      <tspan x="0" y="0">P</tspan>
    </text><text class="uuid-bacd2bd7-fb84-45a9-906a-2b58d44b85f5" transform="translate(40.09 66.67) rotate(-85.45)">
      <tspan x="0" y="0">R</tspan>
    </text><text class="uuid-bacd2bd7-fb84-45a9-906a-2b58d44b85f5" transform="translate(40.73 59.83) rotate(-69.6)">
      <tspan x="0" y="0">N</tspan>
    </text><text class="uuid-bacd2bd7-fb84-45a9-906a-2b58d44b85f5" transform="translate(43.48 52.99) rotate(-54.81)">
      <tspan x="0" y="0">T</tspan>
    </text><text class="uuid-bacd2bd7-fb84-45a9-906a-2b58d44b85f5" transform="translate(46.9 48.12) rotate(-39.72)">
      <tspan x="0" y="0">O</tspan>
    </text><text class="uuid-bacd2bd7-fb84-45a9-906a-2b58d44b85f5" transform="translate(53.08 43.44) rotate(-27.34)">
      <tspan x="0" y="0"> </tspan>
    </text>
  </g>
</svg>