<svg xmlns="http://www.w3.org/2000/svg"
  xmlns:xlink="http://www.w3.org/1999/xlink" viewBox="0 0 138.32 135.65">
  <defs>
    <style>
      .uuid-e24504f1-c304-4c03-af27-b40c4aee79d3 {
        fill: url(#uuid-accf9056-4564-4600-80f1-dc49bb9ea024);
      }

      .uuid-428a9d7e-ed10-4386-be34-9a0d914f744d {
        fill: url(#uuid-4d388ce2-1cf9-435c-b447-1a36d09be501);
      }

      .uuid-35196b5c-0283-44e2-8b67-9f6ddeef876e {
        fill: #171717;
      }
    </style>
    <linearGradient id="uuid-4d388ce2-1cf9-435c-b447-1a36d09be501" x1=".19" y1="123.34" x2="132.56" y2="16.79"
      gradientUnits="userSpaceOnUse">
      <stop offset="0" stop-color="#fdcbaf" />
      <stop offset=".29" stop-color="#5efdff" />
      <stop offset=".62" stop-color="#d62e98" />
      <stop offset=".84" stop-color="#edfe3c" />
      <stop offset="1" stop-color="#d8ff43" />
    </linearGradient>
    <linearGradient id="uuid-accf9056-4564-4600-80f1-dc49bb9ea024" x1="2.29" y1="125.95" x2="134.66" y2="19.4"
      xlink:href="#uuid-4d388ce2-1cf9-435c-b447-1a36d09be501" />
  </defs>
  <g id="uuid-b6367e6f-d41c-444c-8092-9eec2e785b6a">
    <path class="uuid-35196b5c-0283-44e2-8b67-9f6ddeef876e"
      d="M69.16,135.65C31.03,135.65,0,105.22,0,67.82S31.03,0,69.16,0s69.16,30.43,69.16,67.82-31.03,67.82-69.16,67.82Z" />
    <ellipse class="uuid-35196b5c-0283-44e2-8b67-9f6ddeef876e" cx="69.16" cy="67.82" rx="62.72" ry="61.39" />
    <path class="uuid-428a9d7e-ed10-4386-be34-9a0d914f744d"
      d="M69.16,4.93C33.75,4.93,4.94,33.15,4.94,67.82s28.81,62.89,64.22,62.89,64.22-28.21,64.22-62.89S104.57,4.93,69.16,4.93ZM122.29,97.52h-15.49c3.19-8.56,5.04-18.33,5.15-28.69h18.4c-.18,10.43-3.09,20.21-8.06,28.69ZM7.97,68.82h18.4c.11,10.37,1.96,20.14,5.15,28.69h-15.49c-4.98-8.49-7.89-18.27-8.06-28.69ZM16.03,38.13h15.49c-3.19,8.56-5.04,18.33-5.15,28.69H7.97c.18-10.43,3.09-20.21,8.06-28.69ZM91.06,66.82c-.06-10.44-.96-20.18-2.55-28.69h16.17c3.26,8.5,5.16,18.28,5.28,28.69h-18.9ZM71.78,127.65c-.54.02-1.08.03-1.62.04v-28.17h15.84c-3.11,14.91-8.3,25.64-14.22,28.13ZM66.54,127.65c-5.92-2.48-11.11-13.22-14.22-28.13h15.84v28.17c-.54,0-1.08-.02-1.62-.04ZM66.54,8c.54-.02,1.08-.03,1.62-.04v28.17h-15.84c3.11-14.91,8.3-25.65,14.22-28.13ZM71.78,8c5.92,2.48,11.11,13.22,14.22,28.13h-15.84V7.96c.54,0,1.08.02,1.62.04ZM68.16,38.13v28.69h-18.9c.06-10.34,1.02-20.14,2.66-28.69h16.24ZM68.16,68.82v28.69h-16.24c-1.64-8.55-2.6-18.35-2.66-28.69h18.9ZM70.16,97.52v-28.69h18.9c-.06,10.34-1.02,20.14-2.66,28.69h-16.24ZM70.16,66.82v-28.69h16.24c1.64,8.55,2.6,18.35,2.66,28.69h-18.9ZM88.12,36.13c-2.68-13.2-7.02-23.19-12.26-27.83.09.01.18.02.28.03,11.71,3,21.72,13.38,27.75,27.79h-15.76ZM62.47,8.3c-5.24,4.64-9.58,14.63-12.26,27.83h-15.76c6.03-14.41,16.04-24.8,27.75-27.79.09-.01.18-.02.28-.03ZM49.81,38.13c-1.58,8.51-2.49,18.25-2.55,28.69h-18.9c.12-10.41,2.02-20.19,5.28-28.69h16.17ZM28.37,68.82h18.9c.06,10.44.96,20.18,2.55,28.69h-16.17c-3.26-8.5-5.16-18.28-5.28-28.69ZM50.21,99.52c2.68,13.2,7.02,23.19,12.26,27.83-.09-.01-.18-.02-.28-.03-11.7-3-21.72-13.38-27.75-27.79h15.76ZM75.86,127.35c5.24-4.64,9.58-14.63,12.26-27.83h15.76c-6.03,14.41-16.04,24.8-27.75,27.79-.09.01-.18.02-.28.03ZM88.51,97.52c1.58-8.51,2.49-18.25,2.55-28.69h18.9c-.12,10.41-2.02,20.19-5.28,28.69h-16.17ZM111.96,66.82c-.11-10.37-1.96-20.13-5.15-28.69h15.49c4.98,8.49,7.89,18.27,8.06,28.69h-18.4ZM121.07,36.13h-15.05c-4.74-11.65-12-20.87-20.68-26.06,14.98,4.02,27.68,13.47,35.73,26.06ZM52.99,10.07c-8.68,5.18-15.94,14.4-20.68,26.06h-15.05c8.06-12.58,20.76-22.04,35.73-26.06ZM17.25,99.52h15.05c4.74,11.65,12,20.87,20.68,26.06-14.98-4.02-27.68-13.47-35.73-26.06ZM85.33,125.57c8.68-5.18,15.94-14.4,20.68-26.06h15.05c-8.06,12.58-20.76,22.04-35.73,26.06Z" />
    <path class="uuid-e24504f1-c304-4c03-af27-b40c4aee79d3"
      d="M123.62,62.91c-.7.35-1.44.6-2.19.76-.98,27.99-24.03,50.46-52.26,50.46s-51.28-22.47-52.26-50.46c-.76-.16-1.49-.41-2.2-.76-1.02-.51-1.44-1.75-.93-2.77.51-1.02,1.75-1.44,2.78-.93,1.48.74,3.26.74,4.75,0,1.03-.51,2.26-.09,2.77.94.51,1.02.09,2.26-.94,2.77-.67.33-1.38.58-2.1.74.96,25.72,22.17,46.34,48.12,46.34s47.16-20.63,48.12-46.34c-.72-.16-1.43-.41-2.1-.74-1.02-.51-1.44-1.75-.93-2.77.5-1.02,1.75-1.44,2.77-.93,1.47.73,3.29.73,4.74,0,1.03-.51,2.26-.09,2.78.93.51,1.02.09,2.26-.93,2.77ZM52.21,80.48c4.46,0,8.08-8.09,8.08-18.08s-3.62-18.08-8.08-18.08-8.08,8.09-8.08,18.08,3.62,18.08,8.08,18.08ZM86.11,80.48c4.46,0,8.08-8.09,8.08-18.08s-3.62-18.08-8.08-18.08-8.08,8.09-8.08,18.08,3.62,18.08,8.08,18.08Z" />
  </g>
</svg>