<svg xmlns="http://www.w3.org/2000/svg"
  xmlns:xlink="http://www.w3.org/1999/xlink" viewBox="0 0 132.2 119.98">
  <defs>
    <style>
      .uuid-30e12989-72c4-481a-a188-8cf14b1efb60 {
        fill: url(#uuid-ac6a0d39-57c1-48f8-8379-bdf2373f1d27);
      }

      .uuid-dd6c3c56-dc7f-4a32-b7bb-ef6a8fe7dba1 {
        fill: #fff;
      }

      .uuid-57e99827-dfac-44d0-b721-22449726ff08 {
        fill: url(#uuid-9363023d-27d0-46a3-b500-164b37aed728);
      }

      .uuid-3e6a69b0-7d94-4993-a68a-2b4e54412ac0 {
        fill: #171717;
      }
    </style>
    <linearGradient id="uuid-9363023d-27d0-46a3-b500-164b37aed728" x1="20.83" y1="126.74" x2="118.26" y2="31.03"
      gradientUnits="userSpaceOnUse">
      <stop offset="0" stop-color="#97ff08" />
      <stop offset=".29" stop-color="#8bfff0" />
      <stop offset=".62" stop-color="#ffdd8a" />
      <stop offset=".84" stop-color="#31ecff" />
      <stop offset="1" stop-color="#ffd600" />
    </linearGradient>
    <linearGradient id="uuid-ac6a0d39-57c1-48f8-8379-bdf2373f1d27" x1="39.2" y1="45.22" x2="86.47" y2="101.62"
      xlink:href="#uuid-9363023d-27d0-46a3-b500-164b37aed728" />
  </defs>
  <g id="uuid-ebd34c0e-4ee3-41ff-83ed-1d7e558317c5">
    <path class="uuid-3e6a69b0-7d94-4993-a68a-2b4e54412ac0"
      d="M20.74,119.6c-7.35,0-13.93-3.8-17.61-10.17-3.68-6.37-3.68-13.97,0-20.33L48.49,10.54C52.17,4.17,58.75.38,66.1.38s13.93,3.8,17.61,10.17l45.36,78.57c3.68,6.36,3.68,13.97,0,20.33-3.67,6.37-10.26,10.17-17.61,10.17H20.74Z" />
    <path class="uuid-dd6c3c56-dc7f-4a32-b7bb-ef6a8fe7dba1"
      d="M111.46,119.98H20.74c-7.49,0-14.19-3.87-17.93-10.35-3.74-6.48-3.74-14.22,0-20.71L48.17,10.35C51.91,3.87,58.61,0,66.1,0s14.19,3.87,17.93,10.35l45.36,78.57c3.74,6.48,3.74,14.22,0,20.71-3.74,6.48-10.45,10.35-17.93,10.35ZM66.1.75c-7.21,0-13.67,3.73-17.28,9.98L3.46,89.29c-3.61,6.25-3.61,13.71,0,19.96,3.61,6.25,10.07,9.98,17.28,9.98h90.72c7.21,0,13.67-3.73,17.28-9.98,3.61-6.25,3.61-13.71,0-19.96L83.38,10.73c-3.61-6.25-10.07-9.98-17.28-9.98Z" />
    <path class="uuid-57e99827-dfac-44d0-b721-22449726ff08"
      d="M20.74,116.6c-6.27,0-11.88-3.24-15.01-8.67-3.13-5.43-3.13-11.9,0-17.33L51.09,12.04c3.13-5.43,8.74-8.67,15.01-8.67s11.88,3.24,15.01,8.67l45.36,78.57c3.13,5.43,3.13,11.9,0,17.33-3.13,5.43-8.74,8.67-15.01,8.67H20.74Z" />
    <path class="uuid-3e6a69b0-7d94-4993-a68a-2b4e54412ac0"
      d="M56.29,15.04L10.93,93.61c-4.36,7.55,1.09,17,9.81,17h90.72c8.72,0,14.17-9.44,9.81-17L75.91,15.04c-4.36-7.55-15.26-7.55-19.62,0Z" />
    <path class="uuid-30e12989-72c4-481a-a188-8cf14b1efb60"
      d="M101.36,84.43c.04-5.34-2.7-10.55-7.65-13.41-7.02-4.05-15.89-1.91-20.35,4.71l-2.47-1.43c-.06-2.07-1.97-5.38-3.73-6.46v-2.86c7.96-.55,14.26-7.16,14.26-15.26,0-5.72-3.14-10.7-7.79-13.33,6.99,2.94,11.91,9.86,11.91,17.92,0,2.98-.69,5.79-1.89,8.31,2.78.22,5.56,1.03,8.14,2.52,6.98,4.03,10.52,11.74,9.57,19.27ZM58.84,75.74l2.47-1.43c.06-2.07,1.97-5.38,3.73-6.46v-2.86c-7.96-.55-14.26-7.16-14.26-15.26,0-5.72,3.14-10.7,7.79-13.33-6.99,2.94-11.91,9.86-11.91,17.92,0,2.98.69,5.79,1.89,8.31-2.78.22-5.56,1.03-8.14,2.52-6.98,4.03-10.52,11.74-9.57,19.27-.05-5.34,2.7-10.55,7.65-13.41,7.02-4.05,15.89-1.91,20.35,4.71ZM59.3,83.49c-3.62-2.3-5.71-6.15-5.88-10.18-1.69-1.12-3.63-1.86-5.68-2.11-.59,6.91,2.74,13.85,9.14,17.55.46.26.92.49,1.39.71.79-1.87,1.15-3.92,1.03-5.97ZM60.22,61.52c3.58-1.86,7.96-1.99,11.76,0,1.84-.92,3.43-2.25,4.65-3.88-.42-.29-.85-.58-1.31-.85-6.39-3.69-14.06-3.1-19.75.85,1.22,1.62,2.81,2.95,4.65,3.87ZM82.07,81.99c1.96-3.4,2.71-7.16,2.39-10.8-2.05.25-3.98.99-5.68,2.11-.08,1.99-.62,3.98-1.69,5.82-1.06,1.84-2.52,3.31-4.2,4.37-.12,2.05.24,4.09,1.03,5.96,3.3-1.55,6.18-4.07,8.14-7.46ZM78.39,97.56c-7.02-4.05-9.6-12.81-6.09-19.98l-2.46-1.42c-1.82,1-5.67,1-7.49,0l-2.46,1.42c3.51,7.17.93,15.93-6.09,19.98-4.95,2.86-10.84,2.63-15.44-.08,6.05,4.59,14.49,5.38,21.47,1.35,2.58-1.49,4.67-3.49,6.25-5.79,1.59,2.3,3.68,4.3,6.25,5.79,6.98,4.03,15.43,3.24,21.47-1.35-4.6,2.71-10.48,2.94-15.44.08Z" />
  </g>
</svg>