<svg xmlns="http://www.w3.org/2000/svg" viewBox="0 0 225.96 121.13">
  <defs>
    <style>
      .uuid-4b32907c-b4aa-4528-94be-2c0dcfb97182 {
        fill: #fff;
      }

      .uuid-9a78622d-8149-43fb-b209-485fe8f51efc {
        letter-spacing: 0em;
      }

      .uuid-47ddf5f8-0cc3-4aff-b359-1bffbd16c63b,
      .uuid-596db999-feb7-4658-8060-5c08098e0fea {
        fill: #171717;
      }

      .uuid-ef0c757d-0cb1-4363-9df7-2d9c902a0699 {
        fill: url(#uuid-7c0fdfa4-44f7-4748-b9a0-3ec3cdb46c24);
      }

      .uuid-596db999-feb7-4658-8060-5c08098e0fea {
        font-family: Montserrat-BlackItalic, Montserrat;
        font-size: 44.78px;
        font-style: italic;
        font-weight: 800;
      }

      .uuid-b31021fc-1b85-4575-8d44-ee032d6689f6 {
        letter-spacing: 0em;
      }
    </style>
    <linearGradient id="uuid-7c0fdfa4-44f7-4748-b9a0-3ec3cdb46c24" x1="13.55" y1="117.79" x2="217.88" y2=".19"
      gradientUnits="userSpaceOnUse">
      <stop offset="0" stop-color="#96eeff" />
      <stop offset=".29" stop-color="#ef00ff" />
      <stop offset=".62" stop-color="#ff008e" />
      <stop offset=".84" stop-color="#6ebdf0" />
      <stop offset="1" stop-color="aqua" />
    </linearGradient>
  </defs>
  <g id="uuid-6f992fe8-f37d-46fe-9ebe-e9e267d18e84">
    <path
      d="M215.64,120.75c-20.79,0-40.05-10.37-51.33-27.34-11.28,16.98-30.53,27.34-51.33,27.34s-40.05-10.37-51.33-27.34c-11.28,16.98-30.53,27.34-51.33,27.34-5.49,0-9.95-4.46-9.95-9.95V10.32C.38,4.84,4.84.38,10.33.38,31.12.38,50.37,10.74,61.65,27.72,72.93,10.74,92.19.38,112.98.38s40.05,10.37,51.33,27.34C175.59,10.74,194.85.38,215.64.38c5.49,0,9.95,4.46,9.95,9.95v100.48c0,5.49-4.46,9.95-9.95,9.95Z" />
    <path class="uuid-4b32907c-b4aa-4528-94be-2c0dcfb97182"
      d="M215.64,121.13c-20.7,0-39.84-10.1-51.33-27.04-11.48,16.95-30.63,27.04-51.33,27.04s-39.85-10.1-51.33-27.04c-11.48,16.95-30.63,27.04-51.33,27.04-5.69,0-10.33-4.63-10.33-10.32V10.32C0,4.63,4.63,0,10.33,0c20.7,0,39.84,10.1,51.33,27.04C73.14,10.1,92.28,0,112.98,0s39.84,10.1,51.33,27.04C175.79,10.1,194.94,0,215.64,0c5.69,0,10.32,4.63,10.32,10.32v100.48c0,5.69-4.63,10.32-10.32,10.32ZM164.31,93.04c.13,0,.24.06.31.17,11.31,17.02,30.38,27.17,51.02,27.17,5.28,0,9.57-4.3,9.57-9.57V10.32c0-5.28-4.3-9.57-9.57-9.57-20.64,0-39.71,10.16-51.02,27.17-.14.21-.49.21-.62,0C152.69,10.91,133.62.75,112.98.75s-39.71,10.16-51.02,27.17c-.14.21-.49.21-.62,0C50.03,10.91,30.96.75,10.33.75,5.05.75.75,5.05.75,10.32v100.48c0,5.28,4.3,9.57,9.58,9.57,20.64,0,39.71-10.16,51.02-27.17.14-.21.49-.21.62,0,11.31,17.02,30.38,27.17,51.02,27.17s39.71-10.16,51.02-27.17c.07-.1.19-.17.31-.17Z" />
    <path class="uuid-ef0c757d-0cb1-4363-9df7-2d9c902a0699"
      d="M215.64,3.21c-22.12,0-41.4,12.12-51.33,29.95-9.92-17.83-29.21-29.95-51.33-29.95s-41.41,12.12-51.33,29.95C51.73,15.33,32.44,3.21,10.32,3.21c-3.93,0-7.12,3.19-7.12,7.12v100.48c0,3.93,3.19,7.12,7.12,7.12,22.12,0,41.4-12.12,51.33-29.95,9.92,17.83,29.21,29.95,51.33,29.95s41.4-12.12,51.33-29.95c9.92,17.83,29.21,29.95,51.33,29.95,3.93,0,7.12-3.19,7.12-7.12V10.32c0-3.93-3.19-7.12-7.12-7.12Z" />
    <path class="uuid-47ddf5f8-0cc3-4aff-b359-1bffbd16c63b"
      d="M215.64,8.91c-19.38,0-36.35,10.3-45.51,25.6-.12.14-.22.3-.28.48-2.48,4.24-4.36,8.85-5.54,13.73-1.17-4.88-3.06-9.49-5.53-13.73-.06-.18-.16-.34-.28-.48-9.17-15.3-26.13-25.59-45.51-25.59s-36.34,10.3-45.51,25.59c-.12.14-.22.3-.28.48-2.48,4.24-4.36,8.85-5.53,13.73-1.17-4.88-3.06-9.49-5.53-13.73-.06-.18-.16-.34-.28-.48C46.67,19.21,29.71,8.91,10.33,8.91c-.78,0-1.42.63-1.42,1.42v100.48c0,.78.63,1.42,1.42,1.42,19.38,0,36.34-10.3,45.51-25.6.12-.14.22-.3.28-.48,2.48-4.24,4.36-8.85,5.53-13.73,1.17,4.88,3.06,9.49,5.53,13.73.06.18.16.34.28.48,9.17,15.29,26.13,25.59,45.51,25.59s36.34-10.3,45.51-25.6c.12-.14.22-.3.28-.48,2.48-4.24,4.36-8.85,5.53-13.73,1.17,4.88,3.06,9.49,5.54,13.73.06.18.16.34.28.48,9.17,15.3,26.13,25.6,45.51,25.6.78,0,1.42-.63,1.42-1.42V10.33c0-.78-.63-1.42-1.42-1.42ZM165.76,61.98h14.27c.15,8.01,1.56,15.58,3.96,22.29h-11.96c-3.78-6.64-6.03-14.22-6.27-22.29ZM156.6,84.27h-11.97c2.4-6.71,3.81-14.27,3.96-22.29h14.26c-.24,8.07-2.48,15.65-6.26,22.29ZM63.11,61.98h14.26c.15,8.01,1.56,15.58,3.96,22.29h-11.97c-3.78-6.64-6.02-14.22-6.26-22.29ZM53.93,84.27h-11.96c2.4-6.71,3.81-14.27,3.96-22.29h14.26c-.24,8.07-2.48,15.65-6.27,22.29ZM60.2,59.15h-14.26c-.15-8.02-1.56-15.58-3.96-22.29h11.96c3.78,6.64,6.03,14.22,6.27,22.29ZM43.1,59.15h-14.26c-.07-8.07-.78-15.61-1.99-22.29h12.14c2.49,6.64,3.96,14.22,4.11,22.29ZM11.74,84.27v-22.29h14.26c-.08,8.32-.81,15.83-2,22.29h-12.26ZM23.44,87.1c-2.71,12.6-7.21,20.64-11.7,22.06v-22.06h11.7ZM11.74,59.15v-22.29h12.26c1.19,6.46,1.92,13.97,2,22.29h-14.26ZM26.3,34.03c-1.98-9.38-4.99-16.77-8.63-21.04,8.41,2.88,15.6,10.58,20.17,21.04h-11.54ZM23.44,34.03h-11.7V11.97c4.5,1.42,8.99,9.46,11.7,22.06ZM26.3,87.1h11.54c-4.57,10.46-11.75,18.16-20.17,21.04,3.64-4.27,6.65-11.66,8.63-21.04ZM26.85,84.27c1.21-6.67,1.92-14.22,1.99-22.29h14.26c-.16,8.07-1.63,15.65-4.11,22.29h-12.14ZM69.37,36.86h11.97c-2.4,6.71-3.81,14.27-3.96,22.29h-14.26c.24-8.07,2.48-15.65,6.26-22.29ZM162.86,59.15h-14.26c-.15-8.02-1.56-15.58-3.96-22.29h11.97c3.78,6.64,6.02,14.22,6.26,22.29ZM145.76,59.15h-14.26c-.07-8.07-.78-15.61-1.99-22.29h12.14c2.49,6.64,3.96,14.22,4.11,22.29ZM114.4,109.16v-22.06h11.7c-2.71,12.6-7.21,20.64-11.7,22.06ZM99.86,87.1h11.7v22.06c-4.5-1.42-8.99-9.46-11.7-22.06ZM111.57,11.97v22.06h-11.7c2.71-12.6,7.21-20.64,11.7-22.06ZM126.1,34.03h-11.7V11.97c4.49,1.42,8.99,9.46,11.7,22.06ZM111.57,36.86v22.29h-14.26c.08-8.32.81-15.83,2-22.29h12.26ZM111.57,61.98v22.29h-12.26c-1.19-6.46-1.92-13.97-2-22.29h14.26ZM114.4,84.27v-22.29h14.26c-.08,8.32-.81,15.83-2,22.29h-12.26ZM114.4,59.15v-22.29h12.26c1.19,6.46,1.92,13.97,2,22.29h-14.26ZM128.95,34.03c-1.98-9.38-4.99-16.77-8.63-21.04,8.41,2.88,15.6,10.58,20.17,21.04h-11.54ZM97.01,34.03h-11.54c4.57-10.46,11.75-18.16,20.17-21.04-3.64,4.27-6.65,11.66-8.63,21.04ZM96.46,36.86c-1.21,6.67-1.92,14.22-1.99,22.29h-14.26c.16-8.07,1.63-15.65,4.11-22.29h12.14ZM80.2,61.98h14.26c.07,8.07.78,15.61,1.99,22.29h-12.14c-2.49-6.64-3.96-14.22-4.11-22.29ZM97.01,87.1c1.98,9.38,4.99,16.77,8.63,21.04-8.41-2.88-15.6-10.58-20.17-21.04h11.54ZM128.95,87.1h11.54c-4.57,10.46-11.75,18.16-20.17,21.04,3.64-4.27,6.65-11.66,8.63-21.04ZM129.51,84.27c1.21-6.67,1.92-14.22,1.99-22.29h14.26c-.16,8.07-1.63,15.65-4.11,22.29h-12.14ZM172.03,36.86h11.96c-2.4,6.71-3.81,14.27-3.96,22.29h-14.27c.24-8.07,2.48-15.65,6.27-22.29ZM199.96,59.15c.08-8.32.81-15.83,2-22.29h12.26v22.29h-14.26ZM214.22,61.98v22.29h-12.26c-1.19-6.46-1.92-13.97-2-22.29h14.26ZM202.52,34.03c2.71-12.6,7.21-20.64,11.7-22.06v22.06h-11.7ZM199.67,34.03h-11.54c4.57-10.46,11.75-18.16,20.17-21.04-3.64,4.27-6.65,11.66-8.63,21.04ZM199.12,36.86c-1.21,6.67-1.92,14.22-1.99,22.29h-14.26c.16-8.07,1.63-15.65,4.11-22.29h12.14ZM182.86,61.98h14.26c.07,8.07.78,15.61,1.99,22.29h-12.14c-2.49-6.64-3.96-14.22-4.11-22.29ZM199.67,87.1c1.98,9.38,4.99,16.77,8.63,21.04-8.41-2.88-15.6-10.58-20.17-21.04h11.54ZM202.52,87.1h11.7v22.06c-4.49-1.42-8.99-9.46-11.7-22.06ZM199.91,14.23c-6.15,4.41-11.31,11.31-14.83,19.8h-11.31c6.11-9.2,15.31-16.27,26.14-19.8ZM154.84,34.03h-11.3c-3.52-8.47-8.66-15.37-14.8-19.78,10.82,3.53,20,10.59,26.1,19.78ZM97.22,14.25c-6.14,4.41-11.29,11.3-14.8,19.78h-11.3c6.11-9.19,15.29-16.25,26.1-19.78ZM52.19,34.03h-11.31c-3.52-8.49-8.68-15.39-14.83-19.8,10.83,3.53,20.02,10.6,26.14,19.8ZM26.06,106.9c6.15-4.41,11.31-11.31,14.83-19.8h11.31c-6.11,9.2-15.31,16.27-26.14,19.8ZM71.12,87.1h11.3c3.52,8.48,8.66,15.37,14.8,19.78-10.82-3.53-20-10.59-26.1-19.78ZM128.74,106.88c6.14-4.41,11.29-11.3,14.8-19.78h11.3c-6.11,9.19-15.29,16.25-26.1,19.78ZM173.77,87.1h11.31c3.52,8.49,8.68,15.39,14.83,19.8-10.83-3.53-20.02-10.6-26.14-19.8Z" />
    <text class="uuid-596db999-feb7-4658-8060-5c08098e0fea" transform="translate(20.24 75.6)">
      <tspan class="uuid-9a78622d-8149-43fb-b209-485fe8f51efc" x="0" y="0">D</tspan>
      <tspan class="uuid-b31021fc-1b85-4575-8d44-ee032d6689f6" x="36.54" y="0">ANIEL</tspan>
    </text>
  </g>
</svg>