<svg xmlns="http://www.w3.org/2000/svg" viewBox="0 0 119.05 119.05">
  <defs>
    <style>
      .uuid-66d08403-2cf2-4f32-a967-3d99057ce39f {
        fill: #fff;
      }

      .uuid-c9083f0e-eecc-4a33-9619-07f06b792162 {
        fill: #171717;
      }

      .uuid-60494f65-1a41-4a5a-8e45-b7e45cd129e9 {
        fill: url(#uuid-76a2c1d6-80e0-4ff3-9e71-e12351796a87);
      }
    </style>
    <linearGradient id="uuid-76a2c1d6-80e0-4ff3-9e71-e12351796a87" x1="25.63" y1="14.77" x2="93.1" y2="103.86"
      gradientTransform="translate(59.53 -24.66) rotate(45)" gradientUnits="userSpaceOnUse">
      <stop offset="0" stop-color="#96eeff" />
      <stop offset=".29" stop-color="#ef00ff" />
      <stop offset=".62" stop-color="#ff008e" />
      <stop offset=".84" stop-color="#6ebdf0" />
      <stop offset="1" stop-color="aqua" />
    </linearGradient>
  </defs>
  <g id="uuid-6a12958a-0cde-4085-8fd0-fb8fde2d4206">
    <g>
      <path
        d="M59.52,118.68C26.91,118.68.37,92.14.37,59.53S26.91.38,59.52.38s59.15,26.54,59.15,59.15-26.53,59.15-59.15,59.15Z" />
      <path class="uuid-66d08403-2cf2-4f32-a967-3d99057ce39f"
        d="M59.53,119.05C26.7,119.05,0,92.35,0,59.53S26.7,0,59.53,0s59.53,26.7,59.53,59.53-26.7,59.53-59.53,59.53ZM59.53.75C27.12.75.75,27.12.75,59.53s26.37,58.78,58.78,58.78,58.78-26.37,58.78-58.78S91.93.75,59.53.75Z" />
      <circle class="uuid-60494f65-1a41-4a5a-8e45-b7e45cd129e9" cx="59.53" cy="59.53" r="56.32"
        transform="translate(-24.66 59.53) rotate(-45)" />
      <path class="uuid-66d08403-2cf2-4f32-a967-3d99057ce39f"
        d="M54.86,108.9c5.72.17,11.52-.68,17.15-2.72,15.14-5.16,27.24-18.24,30.88-33.83,4.54-19.57-5.78-40.65-24.36-48.51-21.53-9.5-47.19,3.43-51.49,26.69-4.34,23.21,18.37,44.92,41.16,36.11,8.2-3.16,14.8-10.32,17.06-18.82,3.25-11.47-2.8-24.44-13.61-29.31-17.63-8.42-37.99,9.39-29.21,27.63,3.84,7.85,13.53,12.5,21.89,9.38,5.44-1.89,9.8-6.71,10.84-12.4,2.42-12.42-11.87-22.71-22.15-14.25-4.46,3.61-5.85,10.44-2.61,15.28,3.04,4.93,9.89,6.7,14.65,3.18,6.37-4.43,4.73-14.49-3.14-15.83-4.1-.64-8.36,2.71-8.34,6.92-.07,6.1,8,9.02,11.05,3.33,1.26-2.34.17-5.52-2.27-6.56,2.36,1.09,3.36,4.22,2.07,6.46-1.87,3.62-7.08,3.6-9.19.23-3.05-4.54,1.41-10.29,6.53-9.37,6.64,1.31,7.93,9.92,2.38,13.53-6.59,4.42-14.77-2.2-13.13-9.57.92-4.51,5.31-7.94,9.88-7.94,8.48-.1,13.96,9.78,9.77,17.05-3.5,6.72-12.46,8.97-18.74,4.75-6.23-3.84-8.67-12.48-5.34-18.96,7.07-13.65,25.48-11.71,31.36,1.85,4.7,10.6-1.82,22.74-12.4,26.42-16.85,6.02-33.23-10.59-29.52-27.42,2.48-11.91,13.54-20.67,25.59-21.07,20.09-.46,34.61,20.13,28.99,39.04-5.83,19.98-29.05,30.39-47.83,21.58-15.87-7.02-25.6-25.09-22.74-42.14C25.28,19.12,60.65,3.44,87,19.38c3.46,1.97,6.62,4.35,9.45,7.05-9.08-10.12-22.26-16.5-36.93-16.5-27.39,0-49.6,22.21-49.6,49.6,0,25.82,19.73,47.02,44.93,49.38Z" />
      <path class="uuid-c9083f0e-eecc-4a33-9619-07f06b792162"
        d="M59.53,24.81c15.69,0,28.41,12.72,28.41,28.41,0,20.78-18.56,43.85-28.41,43.85s-28.41-23.06-28.41-43.85c0-15.69,12.72-28.41,28.41-28.41Z" />
      <path class="uuid-66d08403-2cf2-4f32-a967-3d99057ce39f"
        d="M79.38,54.93c-2.48-2.04-7.06-.56-10.22,3.29-4.19,5.11-5.9,13.18-4.35,14.46,1.56,1.28,9.14-1.98,13.33-7.09,3.16-3.85,3.72-8.63,1.23-10.67Z" />
      <path class="uuid-66d08403-2cf2-4f32-a967-3d99057ce39f"
        d="M39.67,54.93c2.48-2.04,7.06-.56,10.22,3.29,4.19,5.11,5.9,13.18,4.35,14.46-1.56,1.28-9.14-1.98-13.33-7.09-3.16-3.85-3.71-8.63-1.23-10.67Z" />
    </g>
  </g>
</svg>