<svg xmlns="http://www.w3.org/2000/svg"
  xmlns:xlink="http://www.w3.org/1999/xlink" viewBox="0 0 95.1 94.89">
  <defs>
    <style>
      .uuid-80a3a4ac-f8a7-45f5-a0c6-8f73201a94f4 {
        fill: url(#uuid-e48fb0bf-7a89-4415-836f-fa8a1466893d);
      }

      .uuid-6509a7d6-a59e-4843-83d5-418135f54658 {
        fill: url(#uuid-a5d377db-40d2-44b8-abd1-6d1af3b6643f);
      }

      .uuid-bc518d49-280a-4b30-a232-be3be182ca3f {
        fill: url(#uuid-9675389d-6592-4b40-b92a-41c66cd47df2);
      }

      .uuid-dcba3bd4-01a6-4168-970e-be7d39eaf0f8 {
        fill: url(#uuid-23b3da1b-dc66-4aaa-bfd1-06b6c6fec17a);
      }

      .uuid-7b1990de-7668-484c-95b4-faa480a1d90f {
        fill: none;
        stroke-width: .3px;
      }

      .uuid-7b1990de-7668-484c-95b4-faa480a1d90f,
      .uuid-1ac9c9f4-ea88-497c-b471-433d5aaa1cb4 {
        font-family: BebasNeue-Regular, 'Bebas Neue';
        font-size: 10px;
      }

      .uuid-7b1990de-7668-484c-95b4-faa480a1d90f,
      .uuid-8a00f87f-d7f0-487b-81d1-3f7ed9d35346 {
        stroke: #fff;
        stroke-miterlimit: 10;
      }

      .uuid-784949a6-c766-4bab-901c-84de3dd8b962 {
        fill: url(#uuid-0a7b9fef-946f-46b4-b5d7-3dc88dc97367);
      }

      .uuid-1ac9c9f4-ea88-497c-b471-433d5aaa1cb4 {
        fill: #00e6ff;
      }

      .uuid-026492ef-f213-4fbb-ac75-b02cb8882da2 {
        fill: url(#uuid-39ea002d-ab03-43dd-b482-d2e8eccf508a);
      }

      .uuid-8a00f87f-d7f0-487b-81d1-3f7ed9d35346 {
        stroke-width: 12px;
      }
    </style>
    <linearGradient id="uuid-a5d377db-40d2-44b8-abd1-6d1af3b6643f" x1="152.82" y1="112.75" x2="-12.25" y2="7.13"
      gradientUnits="userSpaceOnUse">
      <stop offset="0" stop-color="#00e6ff" />
      <stop offset="1" stop-color="#81fc47" />
    </linearGradient>
    <linearGradient id="uuid-39ea002d-ab03-43dd-b482-d2e8eccf508a" x1="155.62" y1="108.38" x2="-9.46" y2="2.76"
      gradientUnits="userSpaceOnUse">
      <stop offset="0" stop-color="#00e6ff" />
      <stop offset="1" stop-color="#81fc47" />
    </linearGradient>
    <linearGradient id="uuid-9675389d-6592-4b40-b92a-41c66cd47df2" x1="152.02" y1="114" x2="-13.06" y2="8.38"
      xlink:href="#uuid-39ea002d-ab03-43dd-b482-d2e8eccf508a" />
    <linearGradient id="uuid-0a7b9fef-946f-46b4-b5d7-3dc88dc97367" x1="147.79" y1="120.62" x2="-17.29" y2="15"
      xlink:href="#uuid-39ea002d-ab03-43dd-b482-d2e8eccf508a" />
    <linearGradient id="uuid-e48fb0bf-7a89-4415-836f-fa8a1466893d" x1="155.48" y1="108.6" x2="-9.6" y2="2.98"
      xlink:href="#uuid-39ea002d-ab03-43dd-b482-d2e8eccf508a" />
    <linearGradient id="uuid-23b3da1b-dc66-4aaa-bfd1-06b6c6fec17a" x1="150.19" y1="116.86" x2="-14.89" y2="11.24"
      xlink:href="#uuid-39ea002d-ab03-43dd-b482-d2e8eccf508a" />
  </defs>
  <g id="uuid-ceb76d35-b0df-473e-b888-b0322c8cef6a">
    <g id="uuid-8218657f-bcc7-4300-b856-d1d8d1505c35" class="uuid-33a27586-3bfa-454e-9bbc-449d3b4f0421">
      <circle class="uuid-8a00f87f-d7f0-487b-81d1-3f7ed9d35346" cx="47.91" cy="47.39" r="41.19" />
      <path class="uuid-6509a7d6-a59e-4843-83d5-418135f54658"
        d="M43.11,47.43c.85,0,1.57-2.15,1.59-4.83.03-2.68-.65-4.85-1.5-4.86-.85,0-1.57,2.15-1.59,4.83-.03,2.68.65,4.85,1.5,4.86Z" />
      <path class="uuid-026492ef-f213-4fbb-ac75-b02cb8882da2"
        d="M52.61,47.35c.85,0,1.57-2.15,1.59-4.83.03-2.68-.65-4.85-1.5-4.86-.85,0-1.57,2.15-1.59,4.83-.03,2.68.65,4.85,1.5,4.86Z" />
      <path class="uuid-bc518d49-280a-4b30-a232-be3be182ca3f"
        d="M47.91,68.88c-11.85,0-21.5-9.64-21.5-21.5s9.64-21.5,21.5-21.5,21.5,9.64,21.5,21.5-9.64,21.5-21.5,21.5ZM47.91,26.92c-11.28,0-20.46,9.18-20.46,20.46s9.18,20.46,20.46,20.46,20.46-9.18,20.46-20.46-9.18-20.46-20.46-20.46Z" />
      <path class="uuid-784949a6-c766-4bab-901c-84de3dd8b962"
        d="M32.59,48.8c-.19,0-.38-.12-.44-.32-.08-.24.05-.51.29-.59.1-.03,2.5-.81,4.44-.2.24.08.38.34.3.58-.08.24-.34.38-.58.3-1.65-.53-3.84.18-3.86.19-.05.02-.1.02-.15.02Z" />
      <path class="uuid-80a3a4ac-f8a7-45f5-a0c6-8f73201a94f4"
        d="M59.07,48.8c-.19,0-.38-.12-.44-.32-.08-.24.05-.51.29-.59.1-.03,2.49-.81,4.44-.2.24.08.38.34.3.58-.08.24-.34.38-.58.3-1.65-.52-3.84.19-3.86.19-.05.02-.1.02-.15.02Z" />
      <path class="uuid-dcba3bd4-01a6-4168-970e-be7d39eaf0f8"
        d="M47.92,61.42c-7.58,0-13.75-6.17-13.75-13.75h1.1c0,6.98,5.68,12.65,12.65,12.65s12.65-5.68,12.65-12.65h1.1c0,7.58-6.17,13.75-13.75,13.75Z" />
      <text class="uuid-1ac9c9f4-ea88-497c-b471-433d5aaa1cb4"
        transform="translate(63.17 67.35) rotate(146.65) scale(1.12 1)">
        <tspan x="0" y="0">p</tspan>
      </text><text class="uuid-1ac9c9f4-ea88-497c-b471-433d5aaa1cb4"
        transform="translate(59.32 69.86) rotate(157.4) scale(1.12 1)">
        <tspan x="0" y="0">r</tspan>
      </text><text class="uuid-1ac9c9f4-ea88-497c-b471-433d5aaa1cb4"
        transform="translate(54.91 71.67) rotate(168.23) scale(1.12 1)">
        <tspan x="0" y="0">o</tspan>
      </text><text class="uuid-1ac9c9f4-ea88-497c-b471-433d5aaa1cb4"
        transform="translate(50.24 72.61) rotate(178.89) scale(1.12 1)">
        <tspan x="0" y="0">g</tspan>
      </text><text class="uuid-1ac9c9f4-ea88-497c-b471-433d5aaa1cb4"
        transform="translate(45.61 72.68) rotate(-170.5) scale(1.12 1)">
        <tspan x="0" y="0">r</tspan>
      </text><text class="uuid-1ac9c9f4-ea88-497c-b471-433d5aaa1cb4"
        transform="translate(40.87 71.86) rotate(-159.59) scale(1.12 1)">
        <tspan x="0" y="0">a</tspan>
      </text><text class="uuid-1ac9c9f4-ea88-497c-b471-433d5aaa1cb4"
        transform="translate(36.44 70.28) rotate(-147.1) scale(1.12 1)">
        <tspan x="0" y="0">m</tspan>
      </text><text class="uuid-1ac9c9f4-ea88-497c-b471-433d5aaa1cb4"
        transform="translate(31.25 66.82) rotate(-134.07) scale(1.12 1)">
        <tspan x="0" y="0">a</tspan>
      </text><text class="uuid-1ac9c9f4-ea88-497c-b471-433d5aaa1cb4"
        transform="translate(27.93 63.38) rotate(-124.15) scale(1.12 1)">
        <tspan x="0" y="0">c</tspan>
      </text><text class="uuid-1ac9c9f4-ea88-497c-b471-433d5aaa1cb4"
        transform="translate(25.42 59.51) rotate(-116.04) scale(1.12 1)">
        <tspan x="0" y="0">i</tspan>
      </text><text class="uuid-1ac9c9f4-ea88-497c-b471-433d5aaa1cb4"
        transform="translate(24.28 57.31) rotate(-107.7) scale(1.12 1)">
        <tspan x="0" y="0">o</tspan>
      </text><text class="uuid-1ac9c9f4-ea88-497c-b471-433d5aaa1cb4"
        transform="translate(22.85 52.78) rotate(-96.58) scale(1.12 1)">
        <tspan x="0" y="0">n</tspan>
      </text><text class="uuid-1ac9c9f4-ea88-497c-b471-433d5aaa1cb4"
        transform="translate(22.39 47.68) rotate(-88.38) scale(1.12 1)">
        <tspan x="0" y="0"> </tspan>
      </text><text class="uuid-7b1990de-7668-484c-95b4-faa480a1d90f"
        transform="translate(22.29 45.57) rotate(-78.61) scale(1.12 1)">
        <tspan x="0" y="0">w</tspan>
      </text><text class="uuid-7b1990de-7668-484c-95b4-faa480a1d90f"
        transform="translate(23.7 39.26) rotate(-66.35) scale(1.12 1)">
        <tspan x="0" y="0">e</tspan>
      </text><text class="uuid-7b1990de-7668-484c-95b4-faa480a1d90f"
        transform="translate(25.45 35.27) rotate(-55.85) scale(1.12 1)">
        <tspan x="0" y="0">b</tspan>
      </text><text class="uuid-1ac9c9f4-ea88-497c-b471-433d5aaa1cb4"
        transform="translate(28.28 31.32) rotate(-47.9) scale(1.12 1)">
        <tspan x="0" y="0"> </tspan>
      </text><text class="uuid-1ac9c9f4-ea88-497c-b471-433d5aaa1cb4"
        transform="translate(29.76 29.71) rotate(-43) scale(1.12 1)">
        <tspan x="0" y="0"> </tspan>
      </text><text class="uuid-1ac9c9f4-ea88-497c-b471-433d5aaa1cb4"
        transform="translate(31.3 28.18) rotate(-35.23) scale(1.12 1)">
        <tspan x="0" y="0">p</tspan>
      </text><text class="uuid-1ac9c9f4-ea88-497c-b471-433d5aaa1cb4"
        transform="translate(35.05 25.55) rotate(-24.54) scale(1.12 1)">
        <tspan x="0" y="0">r</tspan>
      </text><text class="uuid-1ac9c9f4-ea88-497c-b471-433d5aaa1cb4"
        transform="translate(39.43 23.59) rotate(-13.63) scale(1.12 1)">
        <tspan x="0" y="0">o</tspan>
      </text><text class="uuid-1ac9c9f4-ea88-497c-b471-433d5aaa1cb4"
        transform="translate(44.05 22.5) rotate(-2.99) scale(1.12 1)">
        <tspan x="0" y="0">g</tspan>
      </text><text class="uuid-1ac9c9f4-ea88-497c-b471-433d5aaa1cb4"
        transform="translate(48.71 22.28) rotate(7.7) scale(1.12 1)">
        <tspan x="0" y="0">r</tspan>
      </text><text class="uuid-1ac9c9f4-ea88-497c-b471-433d5aaa1cb4"
        transform="translate(53.43 22.94) rotate(18.49) scale(1.12 1)">
        <tspan x="0" y="0">a</tspan>
      </text><text class="uuid-1ac9c9f4-ea88-497c-b471-433d5aaa1cb4"
        transform="translate(57.92 24.38) rotate(31.02) scale(1.12 1)">
        <tspan x="0" y="0">m</tspan>
      </text><text class="uuid-1ac9c9f4-ea88-497c-b471-433d5aaa1cb4"
        transform="translate(63.22 27.69) rotate(43.46) scale(1.12 1)">
        <tspan x="0" y="0">a</tspan>
      </text><text class="uuid-1ac9c9f4-ea88-497c-b471-433d5aaa1cb4"
        transform="translate(66.66 30.99) rotate(53.96) scale(1.12 1)">
        <tspan x="0" y="0">c</tspan>
      </text><text class="uuid-1ac9c9f4-ea88-497c-b471-433d5aaa1cb4"
        transform="translate(69.29 34.79) rotate(62.1) scale(1.12 1)">
        <tspan x="0" y="0">i</tspan>
      </text><text class="uuid-1ac9c9f4-ea88-497c-b471-433d5aaa1cb4"
        transform="translate(70.51 36.96) rotate(70.47) scale(1.12 1)">
        <tspan x="0" y="0">o</tspan>
      </text><text class="uuid-1ac9c9f4-ea88-497c-b471-433d5aaa1cb4"
        transform="translate(72.08 41.42) rotate(81.54) scale(1.12 1)">
        <tspan x="0" y="0">n</tspan>
      </text><text class="uuid-1ac9c9f4-ea88-497c-b471-433d5aaa1cb4"
        transform="translate(72.71 46.49) rotate(89.74) scale(1.12 1)">
        <tspan x="0" y="0"> </tspan>
      </text><text class="uuid-7b1990de-7668-484c-95b4-faa480a1d90f"
        transform="translate(72.88 48.6) rotate(99.49) scale(1.12 1)">
        <tspan x="0" y="0">w</tspan>
      </text><text class="uuid-7b1990de-7668-484c-95b4-faa480a1d90f"
        transform="translate(71.68 54.94) rotate(111.72) scale(1.12 1)">
        <tspan x="0" y="0">e</tspan>
      </text><text class="uuid-7b1990de-7668-484c-95b4-faa480a1d90f"
        transform="translate(70.06 58.99) rotate(122.22) scale(1.12 1)">
        <tspan x="0" y="0">b</tspan>
      </text>
    </g>
  </g>
</svg>