<svg xmlns="http://www.w3.org/2000/svg"
  xmlns:xlink="http://www.w3.org/1999/xlink" viewBox="0 0 179.32 179.32">
  <defs>
    <style>
      .uuid-1e38298c-5ce2-4f9b-ac45-bbaae551dbb8 {
        fill: url(#uuid-bb74f7d0-4c35-46cf-8719-a465586302e5);
      }

      .uuid-943b5dbd-5788-4599-b822-ac625a27219d {
        letter-spacing: -.03em;
      }

      .uuid-ae9bc285-b9c7-46bc-9f52-b99ae7d5759c {
        fill: #fff;
      }

      .uuid-96a41078-9257-48b5-9a28-abb012259a6c {
        letter-spacing: -.02em;
      }

      .uuid-bdd3b174-0cbc-4c1a-a560-45b2ebf6c2f9,
      .uuid-fa60482b-e4d3-41d8-9fb4-7702a5084665 {
        fill: #171717;
      }

      .uuid-39b4d6e6-e329-44fd-a072-e119df541ec8 {
        letter-spacing: -.01em;
      }

      .uuid-8fbdc039-ec9b-40e9-9afd-901b3ceafa94 {
        letter-spacing: 0em;
      }

      .uuid-fa60482b-e4d3-41d8-9fb4-7702a5084665 {
        font-family: Montserrat-ExtraBold, Montserrat;
        font-size: 23.34px;
        font-weight: 700;
      }

      .uuid-1f2beb98-af3f-4485-a01c-d712f93fa443 {
        fill: url(#uuid-c6e29877-d14d-4c5e-9039-114eb6811e9f);
      }
    </style>
    <linearGradient id="uuid-bb74f7d0-4c35-46cf-8719-a465586302e5" x1="-18.15" y1="174.53" x2="188.36" y2="11.96"
      gradientUnits="userSpaceOnUse">
      <stop offset="0" stop-color="#fdcbaf" />
      <stop offset=".29" stop-color="#5efdff" />
      <stop offset=".62" stop-color="#d62e98" />
      <stop offset=".84" stop-color="#edfe3c" />
      <stop offset="1" stop-color="#d8ff43" />
    </linearGradient>
    <linearGradient id="uuid-c6e29877-d14d-4c5e-9039-114eb6811e9f" x1="67.91" y1="117.33" x2="113.43" y2="65.92"
      xlink:href="#uuid-bb74f7d0-4c35-46cf-8719-a465586302e5" />
  </defs>
  <g id="uuid-14d75186-857a-4fcc-8ca7-511fa8d7c30e">
    <path class="uuid-bdd3b174-0cbc-4c1a-a560-45b2ebf6c2f9"
      d="M156.94,178.94c-16.13,0-37.85-11.69-56.67-30.51-3.81-3.81-7.36-7.77-10.61-11.84-3.25,4.07-6.8,8.03-10.61,11.84-18.82,18.82-40.54,30.51-56.67,30.51-6.63,0-12.19-2.05-16.07-5.93-6.96-6.96-7.83-18.69-2.46-33.03,4.89-13.06,14.49-27.16,27.04-39.71,3.81-3.81,7.77-7.36,11.84-10.61-4.07-3.25-8.04-6.8-11.84-10.61-12.55-12.55-22.15-26.65-27.04-39.71C-1.52,25-.64,13.26,6.31,6.31,10.19,2.43,15.75.38,22.38.38c16.13,0,37.85,11.69,56.67,30.52,3.81,3.81,7.36,7.77,10.61,11.84,3.25-4.07,6.8-8.04,10.61-11.84C119.09,12.07,140.8.38,156.94.38c6.63,0,12.19,2.05,16.07,5.93,6.96,6.95,7.83,18.69,2.46,33.03-4.89,13.06-14.49,27.16-27.04,39.71-3.81,3.81-7.77,7.36-11.84,10.61,4.07,3.25,8.04,6.8,11.84,10.61,12.55,12.55,22.15,26.65,27.04,39.71,5.37,14.35,4.5,26.08-2.46,33.03-3.88,3.88-9.44,5.93-16.07,5.93h0Z" />
    <path class="uuid-ae9bc285-b9c7-46bc-9f52-b99ae7d5759c"
      d="M156.94,179.32h0c-16.23,0-38.05-11.74-56.93-30.62-3.69-3.69-7.17-7.56-10.34-11.51-3.17,3.95-6.65,7.82-10.34,11.51-18.89,18.89-40.71,30.62-56.94,30.62-6.74,0-12.39-2.09-16.34-6.04-7.06-7.07-7.97-18.94-2.54-33.43,4.91-13.11,14.54-27.26,27.12-39.84,3.69-3.69,7.56-7.17,11.51-10.34-3.95-3.17-7.82-6.65-11.51-10.34-12.59-12.59-22.22-26.74-27.12-39.84C-1.92,24.98-1.02,13.11,6.04,6.04,10,2.09,15.65,0,22.38,0c16.23,0,38.04,11.73,56.93,30.63,3.69,3.69,7.17,7.56,10.34,11.51,3.17-3.95,6.65-7.82,10.34-11.51C118.89,11.73,140.71,0,156.94,0c6.74,0,12.39,2.09,16.34,6.04,7.07,7.06,7.97,18.94,2.54,33.43-4.91,13.11-14.54,27.26-27.12,39.84-3.69,3.69-7.56,7.17-11.51,10.34,3.95,3.17,7.82,6.65,11.51,10.34,12.59,12.58,22.22,26.74,27.12,39.84,5.43,14.49,4.52,26.37-2.54,33.43-3.95,3.95-9.6,6.04-16.34,6.04ZM156.94,178.57h0c6.53,0,12-2.01,15.81-5.82,6.85-6.84,7.69-18.44,2.37-32.64-4.87-13.01-14.44-27.07-26.95-39.58-3.79-3.79-7.76-7.34-11.81-10.58-.09-.07-.14-.18-.14-.29s.05-.22.14-.29c4.05-3.23,8.03-6.79,11.81-10.58,12.51-12.51,22.08-26.57,26.95-39.58,5.32-14.2,4.47-25.79-2.37-32.64-3.81-3.81-9.28-5.82-15.81-5.82-16.04,0-37.65,11.65-56.4,30.41-3.78,3.78-7.34,7.76-10.58,11.81-.14.18-.44.18-.59,0-3.23-4.05-6.79-8.03-10.58-11.81C60.03,12.4,38.42.75,22.38.75c-6.53,0-12,2.01-15.81,5.82C-.27,13.42-1.11,25.01,4.2,39.21c4.87,13.01,14.44,27.06,26.95,39.58,3.79,3.79,7.76,7.35,11.81,10.58.09.07.14.18.14.29s-.05.22-.14.29c-4.05,3.23-8.03,6.79-11.81,10.58-12.51,12.51-22.08,26.57-26.95,39.58-5.32,14.2-4.47,25.79,2.37,32.64,3.81,3.81,9.28,5.82,15.81,5.82,16.04,0,37.65-11.65,56.4-30.41,3.78-3.78,7.34-7.76,10.58-11.81.14-.18.44-.18.59,0,3.23,4.05,6.79,8.03,10.58,11.81,18.75,18.75,40.37,30.4,56.4,30.41Z" />
    <path class="uuid-1e38298c-5ce2-4f9b-ac45-bbaae551dbb8"
      d="M89.66,128.3c4.01,5.59,8.75,11.19,14.14,16.59,24.92,24.92,54.33,35.93,65.67,24.58,11.35-11.35.34-40.75-24.58-65.67-5.4-5.4-11-10.14-16.59-14.14,5.59-4.01,11.19-8.75,16.59-14.14,24.92-24.92,35.93-54.33,24.58-65.67-11.35-11.35-40.75-.34-65.67,24.58-5.4,5.4-10.14,11-14.14,16.59-4.01-5.59-8.75-11.19-14.14-16.59C50.6,9.5,21.19-1.5,9.85,9.84c-11.35,11.35-.34,40.75,24.58,65.67,5.4,5.4,11,10.14,16.59,14.14-5.59,4.01-11.19,8.75-16.59,14.14C9.5,128.72-1.5,158.13,9.85,169.47c11.35,11.35,40.75.34,65.67-24.58,5.4-5.4,10.14-11,14.14-16.59Z" />
    <circle class="uuid-bdd3b174-0cbc-4c1a-a560-45b2ebf6c2f9" cx="89.66" cy="89.66" r="26.18" />
    <path class="uuid-1f2beb98-af3f-4485-a01c-d712f93fa443"
      d="M107.83,90.7c-.23.12-.48.2-.73.25-.33,9.34-8.02,16.84-17.44,16.84s-17.12-7.5-17.44-16.84c-.25-.05-.5-.14-.73-.25-.34-.17-.48-.58-.31-.93.17-.34.58-.48.93-.31.49.25,1.09.25,1.58,0,.34-.17.76-.03.93.31.17.34.03.76-.31.93-.22.11-.46.19-.7.25.32,8.58,7.4,15.47,16.06,15.47s15.74-6.88,16.06-15.47c-.24-.05-.48-.14-.7-.25-.34-.17-.48-.58-.31-.93.17-.34.58-.48.92-.31.49.24,1.1.24,1.58,0,.34-.17.76-.03.93.31.17.34.03.76-.31.93ZM84,91.13c1.49,0,2.7-2.7,2.7-6.03s-1.21-6.03-2.7-6.03-2.7,2.7-2.7,6.03,1.21,6.03,2.7,6.03ZM95.32,91.13c1.49,0,2.7-2.7,2.7-6.03s-1.21-6.03-2.7-6.03-2.7,2.7-2.7,6.03,1.21,6.03,2.7,6.03Z" />
    <text class="uuid-fa60482b-e4d3-41d8-9fb4-7702a5084665" transform="translate(107.91 118.18) rotate(45)">
      <tspan class="uuid-96a41078-9257-48b5-9a28-abb012259a6c" x="0" y="0">W</tspan>
      <tspan x="27.28" y="0">EB</tspan>
    </text><text class="uuid-fa60482b-e4d3-41d8-9fb4-7702a5084665" transform="translate(19.59 29.81) rotate(45)">
      <tspan x="0" y="0">D</tspan>
      <tspan class="uuid-39b4d6e6-e329-44fd-a072-e119df541ec8" x="19.28" y="0">E</tspan>
      <tspan x="34.72" y="0">V</tspan>
    </text><text class="uuid-fa60482b-e4d3-41d8-9fb4-7702a5084665" transform="translate(118.84 70.09) rotate(-45)">
      <tspan x="0" y="0">2</tspan>
      <tspan class="uuid-8fbdc039-ec9b-40e9-9afd-901b3ceafa94" x="13.98" y="0">0</tspan>
      <tspan x="29.8" y="0">26</tspan>
    </text><text class="uuid-fa60482b-e4d3-41d8-9fb4-7702a5084665" transform="translate(23.24 165.66) rotate(-45)">
      <tspan class="uuid-943b5dbd-5788-4599-b822-ac625a27219d" x="0" y="0">C</tspan>
      <tspan x="16.38" y="0">ODE</tspan>
    </text>
  </g>
</svg>