<svg xmlns="http://www.w3.org/2000/svg" viewBox="0 0 124.82 124.82">
  <defs>
    <style>
      .uuid-b9d877f0-7f21-45e8-bc74-aa2107329d2d {
        fill: #fff;
      }

      .uuid-d2a26dbc-402c-4c5b-9a47-470eeb055e05 {
        fill: #171717;
        font-family: Montserrat-Black, Montserrat;
        font-size: 62.41px;
        font-weight: 800;
      }

      .uuid-08ab89c7-e4fa-475c-8827-5419f45946f0 {
        fill: url(#uuid-9e27b262-3308-4b95-ab65-d409356f986e);
      }
    </style>
    <linearGradient id="uuid-9e27b262-3308-4b95-ab65-d409356f986e" x1="14.12" y1="114.45" x2="108.16" y2="13.11"
      gradientUnits="userSpaceOnUse">
      <stop offset="0" stop-color="#96eeff" />
      <stop offset=".29" stop-color="#ef00ff" />
      <stop offset=".62" stop-color="#ff008e" />
      <stop offset=".84" stop-color="#6ebdf0" />
      <stop offset="1" stop-color="aqua" />
    </linearGradient>
  </defs>
  <g id="uuid-d503165d-2295-484b-9ece-d4c43b89fb94">
    <g>
      <path
        d="M51.15,124.45c-1.73,0-3.13-1.4-3.13-3.13v-24.16l-17.08,17.08c-.59.59-1.38.92-2.21.92s-1.63-.33-2.21-.92l-15.93-15.93c-1.22-1.22-1.22-3.2,0-4.43l17.08-17.08H3.51c-1.73,0-3.13-1.4-3.13-3.13v-22.52c0-1.73,1.4-3.13,3.13-3.13h24.16L10.58,30.93c-1.22-1.22-1.22-3.2,0-4.43l15.93-15.93c.59-.59,1.38-.92,2.21-.92s1.63.33,2.21.92l17.08,17.08V3.51c0-1.73,1.4-3.13,3.13-3.13h22.52c1.73,0,3.13,1.4,3.13,3.13v24.16l17.08-17.08c.61-.61,1.41-.92,2.21-.92s1.6.31,2.21.92l15.93,15.93c1.22,1.22,1.22,3.2,0,4.43l-17.08,17.08h24.16c1.73,0,3.13,1.4,3.13,3.13v22.52c0,1.73-1.4,3.13-3.13,3.13h-24.16l17.08,17.08c1.22,1.22,1.22,3.2,0,4.43l-15.93,15.93c-.61.61-1.41.92-2.21.92s-1.6-.31-2.21-.92l-17.08-17.08v24.16c0,1.73-1.4,3.13-3.13,3.13h-22.52Z" />
      <path class="uuid-b9d877f0-7f21-45e8-bc74-aa2107329d2d"
        d="M73.67,124.82h-22.52c-1.93,0-3.5-1.57-3.5-3.51v-23.26l-16.44,16.44c-.65.65-1.56,1.03-2.48,1.03s-1.82-.36-2.48-1.03l-15.93-15.93c-1.37-1.37-1.37-3.59,0-4.96l16.44-16.44H3.51c-1.93,0-3.51-1.57-3.51-3.51v-22.52c0-1.93,1.57-3.51,3.51-3.51h23.26L10.32,31.2c-1.37-1.37-1.37-3.59,0-4.96l15.93-15.93c.66-.66,1.54-1.03,2.48-1.03s1.83.37,2.48,1.03l16.44,16.44V3.51c0-1.93,1.57-3.51,3.5-3.51h22.52c1.93,0,3.51,1.57,3.51,3.51v23.26l16.44-16.44c1.32-1.32,3.63-1.32,4.96,0l15.93,15.93c.66.66,1.03,1.54,1.03,2.48s-.36,1.82-1.03,2.48l-16.44,16.44h23.26c1.93,0,3.5,1.57,3.5,3.51v22.52c0,1.93-1.57,3.51-3.5,3.51h-23.26l16.44,16.44c.66.66,1.03,1.54,1.03,2.48s-.36,1.82-1.03,2.48l-15.92,15.93c-1.32,1.32-3.63,1.32-4.96,0l-16.44-16.44v23.26c0,1.93-1.57,3.51-3.51,3.51ZM48.02,96.78s.1,0,.14.03c.14.06.23.19.23.35v24.16c0,1.52,1.24,2.76,2.75,2.76h22.52c1.52,0,2.76-1.24,2.76-2.76v-24.16c0-.15.09-.29.23-.35.14-.06.3-.03.41.08l17.08,17.08c1.04,1.04,2.86,1.04,3.89,0l15.93-15.93c.52-.52.81-1.21.81-1.95s-.29-1.43-.81-1.95l-17.08-17.08c-.11-.11-.14-.27-.08-.41.06-.14.2-.23.35-.23h24.16c1.52,0,2.75-1.24,2.75-2.76v-22.52c0-1.52-1.24-2.76-2.75-2.76h-24.16c-.15,0-.29-.09-.35-.23-.06-.14-.03-.3.08-.41l17.08-17.08c.52-.52.81-1.21.81-1.95s-.29-1.43-.81-1.95l-15.93-15.93c-1.04-1.04-2.86-1.04-3.89,0l-17.08,17.08c-.11.11-.27.14-.41.08-.14-.06-.23-.19-.23-.35V3.51c0-1.52-1.24-2.76-2.76-2.76h-22.52c-1.52,0-2.75,1.24-2.75,2.76v24.16c0,.15-.09.29-.23.35-.14.06-.3.03-.41-.08L30.67,10.85c-1.03-1.03-2.86-1.03-3.9,0l-15.93,15.93c-1.07,1.07-1.07,2.82,0,3.9l17.08,17.08c.11.11.14.27.08.41-.06.14-.2.23-.35.23H3.51c-1.52,0-2.76,1.24-2.76,2.76v22.52c0,1.52,1.24,2.76,2.76,2.76h24.16c.15,0,.29.09.35.23.06.14.03.3-.08.41l-17.08,17.08c-1.08,1.07-1.08,2.82,0,3.9l15.93,15.93c1.03,1.03,2.86,1.03,3.9,0l17.08-17.08c.07-.07.17-.11.27-.11Z" />
      <polygon class="uuid-08ab89c7-e4fa-475c-8827-5419f45946f0"
        points="121.32 51.15 89.6 51.15 112.03 28.72 96.1 12.8 73.67 35.22 73.67 3.51 51.15 3.51 51.15 35.22 28.72 12.8 12.8 28.72 35.22 51.15 3.51 51.15 3.51 73.67 35.22 73.67 12.8 96.1 28.72 112.03 51.15 89.6 51.15 121.32 73.67 121.32 73.67 89.6 96.1 112.03 112.03 96.1 89.6 73.67 121.32 73.67 121.32 51.15" />
      <text class="uuid-d2a26dbc-402c-4c5b-9a47-470eeb055e05" transform="translate(52.61 84.24)">
        <tspan x="0" y="0">!</tspan>
      </text>
    </g>
  </g>
</svg>