<svg xmlns="http://www.w3.org/2000/svg" viewBox="0 0 125.41 125.41">
  <defs>
    <style>
      .uuid-0a70e85c-6915-40f4-bb69-6877138b700b {
        fill: #fff;
      }

      .uuid-401d16a0-70db-4c50-8ee4-390ae3c7fad0 {
        fill: url(#uuid-992cddc6-4d81-4839-b619-e1f66b661f73);
      }

      .uuid-b961b447-4ab4-411a-9a49-7b6d02278040 {
        fill: #171717;
      }
    </style>
    <linearGradient id="uuid-992cddc6-4d81-4839-b619-e1f66b661f73" x1="5.1" y1="102.22" x2="127.2" y2="18.47"
      gradientUnits="userSpaceOnUse">
      <stop offset="0" stop-color="#97ff08" />
      <stop offset=".29" stop-color="#8bfff0" />
      <stop offset=".62" stop-color="#ffdd8a" />
      <stop offset=".84" stop-color="#31ecff" />
      <stop offset="1" stop-color="#ffd600" />
    </linearGradient>
  </defs>
  <g id="uuid-8169454c-9fcd-41c7-ab12-1bb77a4b85bb">
    <path class="uuid-b961b447-4ab4-411a-9a49-7b6d02278040"
      d="M62.71,125.04C28.34,125.04.37,97.08.37,62.71S28.34.38,62.71.38s62.33,27.96,62.33,62.33-27.96,62.33-62.33,62.33Z" />
    <path class="uuid-0a70e85c-6915-40f4-bb69-6877138b700b"
      d="M62.71,125.41C28.13,125.41,0,97.28,0,62.71S28.13,0,62.71,0s62.71,28.13,62.71,62.71-28.13,62.71-62.71,62.71ZM62.71.75C28.54.75.75,28.54.75,62.71s27.79,61.96,61.96,61.96,61.96-27.79,61.96-61.96S96.87.75,62.71.75Z" />
    <circle class="uuid-401d16a0-70db-4c50-8ee4-390ae3c7fad0" cx="62.71" cy="62.71" r="59.33" />
    <path class="uuid-b961b447-4ab4-411a-9a49-7b6d02278040"
      d="M118.33,42.03l-38.93,8.54,20.15-34.37c-1.29-1.02-2.62-1.99-4-2.91l-26.47,29.78-3.9-39.65c-.82-.03-1.64-.06-2.47-.06s-1.65.02-2.47.06l-3.9,39.65L29.86,13.29c-1.37.92-2.71,1.89-4,2.91l20.15,34.37L7.08,42.03c-.57,1.54-1.08,3.11-1.53,4.7l36.51,15.97-36.51,15.97c.44,1.6.95,3.16,1.53,4.7l38.93-8.54-20.15,34.37c1.29,1.02,2.62,1.99,4,2.91l26.47-29.78,3.9,39.65c.82.03,1.64.06,2.47.06s1.65-.02,2.47-.06l3.9-39.65,26.47,29.78c1.37-.92,2.71-1.89,4-2.91l-20.15-34.37,38.93,8.54c.57-1.54,1.08-3.11,1.53-4.7l-36.51-15.97,36.51-15.97c-.44-1.6-.95-3.16-1.53-4.7Z" />
    <path class="uuid-0a70e85c-6915-40f4-bb69-6877138b700b"
      d="M62.71,72.51l-3.22-2.08c-.17-.11-1.67-1.08-3.22-2.36-2.25-1.85-4.83-4.43-4.83-7.96,0-3.28,2.66-5.94,5.94-5.94,2.34,0,4.37,1.36,5.34,3.33.97-1.97,2.99-3.33,5.34-3.33,3.28,0,5.94,2.66,5.94,5.94,0,3.53-2.58,6.11-4.83,7.96-1.55,1.28-3.05,2.26-3.22,2.36l-3.22,2.08Z" />
  </g>
</svg>