<svg xmlns="http://www.w3.org/2000/svg" viewBox="0 0 107.54 177.83">
  <defs>
    <style>
      .uuid-9179b187-b96d-4ca4-be3e-558bbdc1ebe3 {
        fill: #fff;
      }

      .uuid-daa8b033-709d-4326-8bc3-d5ab53ffbe57 {
        fill: #171717;
      }

      .uuid-a1f7a3e5-0750-41f8-b0e4-ce386f9185d2 {
        fill: url(#uuid-c4716123-49ad-4036-a7ed-fec906d744be);
      }
    </style>
    <radialGradient id="uuid-c4716123-49ad-4036-a7ed-fec906d744be" cx="-68.72" cy="209.06" fx="-68.72" fy="209.06"
      r="256.14" gradientUnits="userSpaceOnUse">
      <stop offset="0" stop-color="#fdcbaf" />
      <stop offset=".29" stop-color="#5efdff" />
      <stop offset=".62" stop-color="#d62e98" />
      <stop offset=".84" stop-color="#edfe3c" />
      <stop offset="1" stop-color="#d8ff43" />
    </radialGradient>
  </defs>
  <g id="uuid-8233a690-d311-447c-b6ff-d6b8930b11d8">
    <path class="uuid-daa8b033-709d-4326-8bc3-d5ab53ffbe57"
      d="M99.85,140.23c1.21-2.04,1.84-4.22,1.84-6.48,0-4.69-2.67-8.99-7.66-12.54,1.76-2.61,2.18-5.04,2.18-6.75,0-5-3.1-9.09-8.08-12.25,1.66-2.06,2.61-4.41,2.61-7.04,0-5.02-3.43-9.01-8.79-11.94,2.23-2.3,3.31-4.86,3.31-7.35,0-4.46-3.46-9.13-10.79-12.19,3.99-2.81,7.36-6.41,9.88-10.56.09-.12.15-.26.23-.39,3.03-5.14,4.77-11.09,4.77-17.43s-1.74-12.3-4.77-17.43c-.08-.13-.14-.27-.23-.39C78.15,7.25,66.76.38,53.77.38s-24.38,6.88-30.59,17.11c-.09.12-.15.26-.23.39-3.03,5.14-4.77,11.09-4.77,17.44s1.74,12.29,4.76,17.42c.08.14.15.28.24.41,2.52,4.15,5.89,7.75,9.88,10.56-7.32,3.06-10.79,7.72-10.79,12.19,0,2.49,1.09,5.04,3.31,7.35-5.36,2.92-8.79,6.92-8.79,11.94,0,2.64.95,4.98,2.62,7.05-6.9,4.39-8.09,9.34-8.09,12.24,0,2.48.76,4.74,2.14,6.77-4.96,3.55-7.62,7.84-7.62,12.51,0,2.27.64,4.44,1.84,6.48-4.57,3.51-7.32,7.79-7.32,12.8,0,15.87,27.51,24.43,53.39,24.43s53.4-8.56,53.4-24.43c0-5.01-2.75-9.29-7.32-12.8Z" />
    <path class="uuid-9179b187-b96d-4ca4-be3e-558bbdc1ebe3"
      d="M53.77,177.83c-26.07,0-53.77-8.69-53.77-24.8,0-4.8,2.42-9.14,7.21-12.9-1.15-2.05-1.73-4.19-1.73-6.39,0-4.66,2.58-9.01,7.48-12.6-1.33-2.08-2-4.32-2-6.68,0-2.68,1.04-7.8,7.92-12.33-1.62-2.13-2.44-4.47-2.44-6.96,0-4.7,2.96-8.86,8.56-12.03-2.02-2.23-3.08-4.72-3.08-7.25,0-4.89,3.78-9.34,10.4-12.27-3.83-2.8-7-6.26-9.44-10.28-.06-.08-.12-.2-.19-.31l-.06-.11c-3.14-5.34-4.81-11.43-4.81-17.6s1.67-12.28,4.82-17.63l.06-.11c.06-.1.12-.21.18-.3C29.33,6.63,41.18,0,53.77,0s24.44,6.63,30.91,17.29c.06.08.12.19.18.3l.06.11c3.15,5.35,4.82,11.44,4.82,17.62s-1.67,12.27-4.82,17.62l-.06.1c-.06.11-.12.22-.19.32-2.43,4-5.6,7.46-9.43,10.26,6.62,2.93,10.41,7.38,10.41,12.27,0,2.53-1.07,5.03-3.09,7.25,5.6,3.18,8.56,7.33,8.56,12.03,0,2.48-.82,4.82-2.44,6.94,5.25,3.42,7.91,7.57,7.91,12.34,0,1.6-.36,4.02-2.05,6.65,4.92,3.6,7.52,7.96,7.52,12.63,0,2.2-.58,4.34-1.73,6.39,4.78,3.76,7.2,8.1,7.2,12.9,0,16.11-27.7,24.8-53.77,24.8ZM53.77.75c-12.33,0-23.93,6.49-30.27,16.93-.07.1-.11.18-.15.26l-.07.12c-3.09,5.24-4.72,11.2-4.72,17.25s1.63,12,4.71,17.23l.07.12c.05.09.1.18.16.26,2.51,4.14,5.8,7.66,9.79,10.47.11.08.17.21.16.35-.02.14-.1.25-.23.3-6.61,2.76-10.56,7.19-10.56,11.84,0,2.46,1.11,4.92,3.21,7.09.08.08.12.2.1.32-.02.12-.09.22-.19.27-5.62,3.07-8.59,7.08-8.59,11.61,0,2.44.85,4.73,2.53,6.81.07.08.1.19.08.3-.02.11-.08.2-.17.26-6.89,4.39-7.92,9.35-7.92,11.92,0,2.32.7,4.53,2.08,6.56.11.17.07.4-.09.51-4.88,3.49-7.46,7.71-7.46,12.21,0,2.16.6,4.28,1.79,6.29.1.16.06.37-.09.49-4.76,3.66-7.17,7.87-7.17,12.51,0,15.62,27.32,24.05,53.02,24.05s53.02-8.43,53.02-24.05c0-4.64-2.41-8.85-7.17-12.51-.15-.12-.19-.32-.09-.49,1.19-2.01,1.79-4.13,1.79-6.29,0-4.51-2.59-8.74-7.5-12.23-.17-.12-.21-.35-.09-.52,1.75-2.59,2.12-4.98,2.12-6.54,0-4.6-2.66-8.61-7.91-11.93-.09-.06-.15-.15-.17-.26-.02-.11.01-.21.08-.3,1.68-2.08,2.53-4.36,2.53-6.8,0-4.53-2.97-8.54-8.59-11.61-.1-.06-.17-.16-.19-.27-.02-.12.02-.23.1-.32,2.1-2.17,3.21-4.62,3.21-7.09,0-4.65-3.95-9.08-10.56-11.84-.13-.05-.21-.17-.23-.3-.01-.14.04-.27.16-.35,3.99-2.81,7.28-6.33,9.78-10.45.07-.1.11-.18.16-.27l.06-.12c3.09-5.24,4.72-11.2,4.72-17.25s-1.63-12.01-4.71-17.24l-.07-.12c-.05-.09-.09-.17-.15-.25C77.7,7.24,66.1.75,53.77.75Z" />
    <path class="uuid-a1f7a3e5-0750-41f8-b0e4-ce386f9185d2"
      d="M94.09,141.09c2.32-2.24,3.6-4.72,3.6-7.35,0-4.48-3.71-8.53-9.94-11.67,2.85-2.25,4.47-4.84,4.47-7.61,0-4.51-4.24-8.52-11.19-11.41,3.61-2.22,5.71-4.93,5.71-7.88,0-4.62-5.13-8.64-13.18-11.14,4.79-2.08,7.71-4.95,7.71-8.15,0-5.15-7.52-9.41-18.27-10.98,7.68-2.3,14.12-7.4,18.09-14.08.04-.06.08-.12.11-.19,2.64-4.52,4.16-9.75,4.16-15.32s-1.52-10.8-4.16-15.32c-.03-.07-.07-.13-.11-.19-5.48-9.22-15.67-15.43-27.31-15.43s-21.84,6.21-27.31,15.43c-.04.06-.08.12-.11.19-2.64,4.52-4.16,9.75-4.16,15.32s1.52,10.8,4.16,15.32c.03.07.07.14.12.2,3.97,6.67,10.4,11.76,18.08,14.07-10.75,1.57-18.27,5.84-18.27,10.98,0,3.2,2.92,6.07,7.71,8.15-8.05,2.5-13.18,6.52-13.18,11.14,0,2.95,2.1,5.66,5.71,7.88-6.95,2.89-11.19,6.9-11.19,11.41,0,2.77,1.61,5.36,4.47,7.61-6.24,3.14-9.94,7.19-9.94,11.67,0,2.63,1.29,5.11,3.6,7.35-5.73,3.34-9.08,7.44-9.08,11.94,0,11.45,21.7,20.43,49.39,20.43s49.4-8.97,49.4-20.43c0-4.49-3.35-8.6-9.08-11.94ZM24.21,36.31h8.19c.1,4.65.92,9.05,2.3,12.97h-6.82c-2.19-3.87-3.5-8.28-3.66-12.97ZM27.87,21.34h6.82c-1.38,3.92-2.19,8.32-2.3,12.97h-8.19c.16-4.69,1.47-9.1,3.66-12.97ZM83.33,34.31h-8.19c-.1-4.65-.92-9.05-2.3-12.97h6.82c2.19,3.87,3.5,8.28,3.66,12.97ZM79.67,49.28h-6.82c1.38-3.92,2.19-8.32,2.3-12.97h8.19c-.16,4.69-1.47,9.1-3.66,12.97ZM46.22,51.28h6.54v12.79c-2.81-1-5.11-6.15-6.54-12.79ZM52.77,6.55v12.79h-6.54c1.44-6.64,3.73-11.79,6.54-12.79ZM61.32,19.34h-6.55V6.55c2.81,1,5.11,6.15,6.55,12.79ZM54.77,34.31v-12.97h6.95c.75,4.08,1.18,8.58,1.24,12.97h-8.19ZM62.96,36.31c-.06,4.39-.49,8.89-1.24,12.97h-6.95v-12.97h8.19ZM52.77,21.34v12.97h-8.19c.06-4.39.49-8.89,1.24-12.97h6.95ZM52.77,36.31v12.97h-6.95c-.75-4.08-1.18-8.58-1.24-12.97h8.19ZM61.32,51.28c-1.44,6.64-3.73,11.79-6.55,12.79v-12.79h6.55ZM63.38,51.28h6.55c-2.61,5.86-6.6,10.22-11.28,12.04,2.05-2.67,3.65-6.97,4.72-12.04ZM63.77,49.28c.73-4.07,1.13-8.53,1.19-12.97h8.19c-.11,4.69-.96,9.1-2.4,12.97h-6.97ZM73.14,34.31h-8.19c-.05-4.44-.46-8.9-1.19-12.97h6.97c1.44,3.87,2.29,8.28,2.4,12.97ZM63.38,19.34c-1.08-5.06-2.67-9.36-4.72-12.04,4.68,1.82,8.67,6.18,11.28,12.04h-6.55ZM44.16,19.34h-6.55c2.61-5.86,6.6-10.22,11.28-12.04-2.05,2.67-3.65,6.97-4.72,12.04ZM43.77,21.34c-.73,4.07-1.13,8.53-1.19,12.97h-8.19c.11-4.69.96-9.1,2.4-12.97h6.98ZM34.39,36.31h8.19c.05,4.44.46,8.9,1.19,12.97h-6.98c-1.44-3.87-2.29-8.28-2.4-12.97ZM44.16,51.28c1.08,5.07,2.67,9.36,4.72,12.04-4.68-1.82-8.67-6.18-11.28-12.04h6.55ZM64.02,62.46c3.32-2.63,6.11-6.5,8.06-11.18h6.34c-3.45,5.07-8.48,9.03-14.41,11.18ZM78.43,19.34h-6.34c-1.96-4.67-4.74-8.54-8.06-11.18,5.93,2.15,10.96,6.1,14.41,11.18ZM43.52,8.17c-3.32,2.63-6.11,6.5-8.06,11.18h-6.34c3.45-5.07,8.48-9.03,14.4-11.18ZM29.11,51.28h6.34c1.96,4.67,4.74,8.54,8.06,11.18-5.93-2.15-10.96-6.1-14.4-11.18ZM28.28,75.89c0-4.65,10.24-9.63,25.49-9.63s25.5,4.98,25.5,9.63c0,2.64-3.3,5.39-8.94,7.27-4.84-1.16-10.48-1.82-16.55-1.82s-11.71.66-16.55,1.82c-5.64-1.88-8.94-4.63-8.94-7.27ZM65.94,84.33c-3.52.75-7.62,1.19-12.17,1.19s-8.65-.45-12.17-1.19c3.76-.63,7.88-.99,12.17-.99s8.41.36,12.17.99ZM22.8,95.17c0-4.11,5.82-7.81,14.42-9.93,4.58,1.44,10.29,2.28,16.55,2.28s11.98-.84,16.55-2.28c8.59,2.13,14.42,5.83,14.42,9.93,0,2.58-2.29,4.99-6.13,6.96-6.66-2.32-15.29-3.71-24.84-3.71s-18.19,1.39-24.84,3.71c-3.83-1.97-6.13-4.39-6.13-6.96ZM75.83,103.38c-5.67,2.22-13.52,3.62-22.06,3.62s-16.39-1.4-22.06-3.62c6.17-1.84,13.85-2.96,22.06-2.96s15.89,1.11,22.06,2.96ZM17.33,114.46c0-3.94,4.48-7.56,11.54-10.13,6,2.88,14.86,4.68,24.9,4.68s18.91-1.8,24.9-4.68c7.06,2.58,11.54,6.2,11.54,10.13,0,2.39-1.65,4.66-4.52,6.66-7.95-3.46-19.22-5.6-31.92-5.6s-23.97,2.13-31.92,5.6c-2.87-1.99-4.52-4.27-4.52-6.66ZM83.52,122.44c-6.67,3.63-17.63,6.05-29.75,6.05s-23.08-2.42-29.75-6.05c7.66-3.02,18.25-4.92,29.75-4.92s22.09,1.9,29.75,4.92ZM11.85,133.74c0-3.88,3.74-7.49,9.87-10.32,6.83,4.29,18.52,7.07,32.05,7.07s25.23-2.78,32.06-7.07c6.13,2.83,9.87,6.44,9.87,10.32,0,2.23-1.24,4.38-3.46,6.33-8.99-4.59-22.76-7.47-38.46-7.47s-29.48,2.89-38.46,7.47c-2.22-1.96-3.46-4.1-3.46-6.33ZM90.41,141.5c-7.23,5-21.11,8.48-36.64,8.48s-29.4-3.47-36.64-8.48c8.77-4.17,22.06-6.89,36.64-6.89s27.86,2.72,36.64,6.89ZM53.77,171.46c-25.69,0-47.39-8.44-47.39-18.43,0-3.87,3.26-7.5,8.74-10.5,7.36,5.67,21.75,9.44,38.65,9.44s31.29-3.77,38.66-9.44c5.48,3,8.74,6.63,8.74,10.5,0,9.99-21.7,18.43-47.4,18.43Z" />
  </g>
</svg>