<svg xmlns="http://www.w3.org/2000/svg" viewBox="0 0 112.25 112.25">
  <defs>
    <style>
      .uuid-f4f7ca36-ad3a-4e09-b208-abc7105fe15a {
        fill: #fff;
      }

      .uuid-9e3098ef-4b55-4d82-91c3-8a7199e29fa3 {
        fill: url(#uuid-15cacf01-beee-46e1-9637-ee20575a6c4c);
      }

      .uuid-a9c7f4ec-1ee0-43b3-88af-71a9e5a68f04 {
        fill: #171717;
      }
    </style>
    <linearGradient id="uuid-15cacf01-beee-46e1-9637-ee20575a6c4c" x1="13.76" y1="96.42" x2="100.34" y2="14.07"
      gradientUnits="userSpaceOnUse">
      <stop offset="0" stop-color="#97ff08" />
      <stop offset=".29" stop-color="#8bfff0" />
      <stop offset=".62" stop-color="#ffdd8a" />
      <stop offset=".84" stop-color="#31ecff" />
      <stop offset="1" stop-color="#ffd600" />
    </linearGradient>
  </defs>
  <g id="uuid-21301e95-2221-42aa-9970-6a78be4e059b">
    <path class="uuid-a9c7f4ec-1ee0-43b3-88af-71a9e5a68f04"
      d="M56.13,111.88C25.38,111.88.37,86.87.37,56.13S25.38.38,56.13.38s55.75,25.01,55.75,55.75-25.01,55.75-55.75,55.75Z" />
    <path class="uuid-f4f7ca36-ad3a-4e09-b208-abc7105fe15a"
      d="M56.13,112.25C25.18,112.25,0,87.07,0,56.13S25.18,0,56.13,0s56.13,25.18,56.13,56.13-25.18,56.13-56.13,56.13ZM56.13.75C25.59.75.75,25.59.75,56.13s24.84,55.38,55.38,55.38,55.38-24.84,55.38-55.38S86.66.75,56.13.75Z" />
    <circle class="uuid-9e3098ef-4b55-4d82-91c3-8a7199e29fa3" cx="56.13" cy="56.13" r="52.75" />
    <path class="uuid-a9c7f4ec-1ee0-43b3-88af-71a9e5a68f04"
      d="M98.59,56.53c-.63.31-1.3.51-1.98.62-.55,21.86-18.49,39.48-40.48,39.48S16.19,79.02,15.64,57.15c-.68-.11-1.35-.31-1.98-.62-.56-.28-.79-.96-.51-1.51.28-.56.96-.79,1.51-.51,1.3.65,2.85.65,4.16,0,.56-.28,1.24-.05,1.51.51.28.56.05,1.24-.51,1.51-.61.3-1.26.5-1.93.61.54,20.62,17.47,37.23,38.22,37.23s37.68-16.61,38.22-37.23c-.66-.11-1.31-.31-1.93-.61-.56-.28-.79-.96-.51-1.51.28-.56.96-.79,1.51-.51,1.3.65,2.86.65,4.16,0,.56-.28,1.24-.05,1.52.51.28.56.05,1.24-.51,1.51ZM41.89,67.9c5.05,0,9.15-9.17,9.15-20.49s-4.1-20.49-9.15-20.49-9.15,9.17-9.15,20.49,4.1,20.49,9.15,20.49ZM70.36,67.9c5.05,0,9.15-9.17,9.15-20.49s-4.1-20.49-9.15-20.49-9.15,9.17-9.15,20.49,4.1,20.49,9.15,20.49Z" />
  </g>
</svg>