<svg xmlns="http://www.w3.org/2000/svg" viewBox="0 0 124.05 124.05">
  <defs>
    <style>
      .uuid-cd803a27-48f1-481f-ab20-e8b3e7c28768 {
        fill: url(#uuid-9b6ad3a1-3e87-4186-a8f6-21d347074a46);
      }

      .uuid-ad7b4190-1ffb-4a79-bffd-b89cdadfc960 {
        fill: #fff;
      }

      .uuid-53c1fc0f-3dde-41f8-bee9-f146e8875858 {
        fill: #171717;
      }
    </style>
    <linearGradient id="uuid-9b6ad3a1-3e87-4186-a8f6-21d347074a46" x1="-7.87" y1="127.38" x2="127.24" y2="1.05"
      gradientUnits="userSpaceOnUse">
      <stop offset="0" stop-color="#fdcbaf" />
      <stop offset=".29" stop-color="#5efdff" />
      <stop offset=".62" stop-color="#d62e98" />
      <stop offset=".84" stop-color="#edfe3c" />
      <stop offset="1" stop-color="#d8ff43" />
    </linearGradient>
  </defs>
  <g id="uuid-85403fb5-8222-4594-a4fd-3834710e408a">
    <path class="uuid-53c1fc0f-3dde-41f8-bee9-f146e8875858"
      d="M62.02,123.67C28.03,123.67.37,96.02.37,62.02S28.03.37,62.02.37s61.65,27.66,61.65,61.65-27.66,61.65-61.65,61.65Z" />
    <path class="uuid-ad7b4190-1ffb-4a79-bffd-b89cdadfc960"
      d="M62.02,124.05C27.82,124.05,0,96.22,0,62.02S27.82,0,62.02,0s62.02,27.82,62.02,62.02-27.82,62.02-62.02,62.02ZM62.02.75C28.24.75.75,28.24.75,62.02s27.49,61.27,61.27,61.27,61.27-27.49,61.27-61.27S95.81.75,62.02.75Z" />
    <circle class="uuid-cd803a27-48f1-481f-ab20-e8b3e7c28768" cx="62.02" cy="62.02" r="57.19" />
    <path class="uuid-53c1fc0f-3dde-41f8-bee9-f146e8875858"
      d="M110.86,60.7c-.63.31-1.29.54-1.97.68-.87,25.1-21.55,45.25-46.86,45.25S16.04,86.48,15.16,61.38c-.68-.15-1.34-.37-1.97-.68-.92-.46-1.29-1.57-.83-2.49.46-.92,1.57-1.29,2.49-.83,1.33.66,2.92.66,4.26,0,.93-.46,2.03-.08,2.49.84.45.92.08,2.03-.84,2.49-.6.3-1.24.52-1.88.67.86,23.06,19.89,41.56,43.15,41.56s42.29-18.5,43.15-41.56c-.65-.15-1.28-.37-1.88-.67-.92-.46-1.29-1.57-.84-2.49.45-.92,1.57-1.29,2.49-.84,1.32.65,2.95.65,4.25,0,.92-.46,2.03-.08,2.49.83.46.92.08,2.03-.83,2.49Z" />
    <path class="uuid-53c1fc0f-3dde-41f8-bee9-f146e8875858"
      d="M78.43,47.96l5.64-5.64c.82-.82.82-2.15,0-2.97-.82-.82-2.15-.82-2.97,0l-5.64,5.64-5.64-5.64c-.82-.82-2.15-.82-2.97,0-.82.82-.82,2.15,0,2.97l5.64,5.64-5.64,5.63c-.82.82-.82,2.15,0,2.97.41.41.95.62,1.49.62s1.07-.21,1.49-.62l5.64-5.64,5.64,5.64c.41.41.95.62,1.49.62s1.07-.21,1.49-.62c.82-.82.82-2.15,0-2.97l-5.64-5.63Z" />
    <path class="uuid-53c1fc0f-3dde-41f8-bee9-f146e8875858"
      d="M57.19,39.35c-.82-.82-2.15-.82-2.97,0l-5.64,5.64-5.64-5.64c-.82-.82-2.15-.82-2.97,0-.82.82-.82,2.15,0,2.97l5.64,5.64-5.64,5.63c-.82.82-.82,2.15,0,2.97.41.41.95.62,1.49.62s1.07-.21,1.49-.62l5.64-5.64,5.64,5.64c.41.41.95.62,1.49.62s1.07-.21,1.49-.62c.82-.82.82-2.15,0-2.97l-5.64-5.63,5.64-5.64c.82-.82.82-2.15,0-2.97Z" />
  </g>
</svg>