<svg xmlns="http://www.w3.org/2000/svg" viewBox="0 0 196.46 126.01">
  <defs>
    <style>
      .uuid-4f70bd64-0630-49b5-9e8b-82a653c34997 {
        fill: #fff;
      }

      .uuid-ad70379a-8c09-4fe1-a9ee-1be68f13cb6e {
        fill: url(#uuid-3dc47255-1fbb-4b0a-951c-f8a0eda5b1a3);
      }

      .uuid-6a03fcb4-2cb9-4584-a91c-c22f01f0ac42 {
        fill: #171717;
      }
    </style>
    <linearGradient id="uuid-3dc47255-1fbb-4b0a-951c-f8a0eda5b1a3" x1="64.26" y1="21.65" x2="145.34" y2="120.35"
      gradientUnits="userSpaceOnUse">
      <stop offset="0" stop-color="#97ff08" />
      <stop offset=".29" stop-color="#8bfff0" />
      <stop offset=".62" stop-color="#ffdd8a" />
      <stop offset=".84" stop-color="#31ecff" />
      <stop offset="1" stop-color="#ffd600" />
    </linearGradient>
  </defs>
  <g id="uuid-44eef151-04af-400e-b66f-2474e7b697e1">
    <path class="uuid-6a03fcb4-2cb9-4584-a91c-c22f01f0ac42"
      d="M98.23,125.64c-38.61,0-74.56-21.19-96.18-56.69-2.23-3.66-2.23-8.21,0-11.87C23.67,21.57,59.62.38,98.23.38s74.57,21.19,96.18,56.69c2.23,3.66,2.23,8.21,0,11.88-21.62,35.5-57.57,56.69-96.18,56.69Z" />
    <path class="uuid-4f70bd64-0630-49b5-9e8b-82a653c34997"
      d="M98.23,126.01c-38.74,0-74.81-21.26-96.5-56.88-2.3-3.78-2.3-8.48,0-12.26C23.42,21.26,59.49,0,98.23,0s74.82,21.26,96.5,56.87c2.3,3.78,2.3,8.48,0,12.27-21.69,35.61-57.76,56.87-96.5,56.87ZM98.23.75C59.76.75,23.92,21.88,2.37,57.26c-2.16,3.54-2.16,7.94,0,11.48,21.55,35.39,57.39,56.51,95.86,56.51s74.31-21.13,95.86-56.51c2.16-3.54,2.16-7.94,0-11.49C172.54,21.88,136.71.75,98.23.75Z" />
    <path class="uuid-ad70379a-8c09-4fe1-a9ee-1be68f13cb6e"
      d="M98.23,122.64c-37.55,0-72.55-20.66-93.62-55.26-1.64-2.69-1.64-6.07,0-8.75C25.68,24.03,60.68,3.37,98.23,3.37s72.55,20.66,93.62,55.25c1.64,2.69,1.64,6.07,0,8.75-21.07,34.6-56.07,55.26-93.62,55.26Z" />
    <path class="uuid-6a03fcb4-2cb9-4584-a91c-c22f01f0ac42"
      d="M185.99,63.7s.03-.06.05-.09c.02-.05.03-.1.05-.15.01-.03.02-.06.03-.09,0-.02.01-.03.02-.05.02-.1.03-.2.03-.31h0c0-.12-.01-.22-.03-.32,0-.02-.01-.03-.02-.05,0-.03-.02-.06-.03-.09-.02-.05-.03-.1-.05-.15-.01-.03-.03-.06-.05-.09,0-.01-.01-.03-.02-.04,0-.02-.01-.04-.02-.05-11.09-18.21-26.26-32.31-43.62-41.19-.12-.09-.25-.15-.39-.2-13.54-6.85-28.4-10.54-43.7-10.54s-30.16,3.69-43.7,10.54c-.14.05-.27.11-.39.2-17.36,8.88-32.53,22.98-43.62,41.2-.01.02-.01.04-.02.05,0,.01-.01.02-.02.04-.02.03-.03.06-.05.09-.02.05-.03.1-.05.15-.01.03-.02.06-.03.09,0,.02-.01.03-.02.05-.02.1-.03.2-.03.3h0c0,.12.01.22.03.32,0,.02.01.03.02.05,0,.03.02.06.03.09.02.05.03.1.05.15.01.03.03.06.05.09,0,.01.01.02.02.04,0,.02.01.04.02.05,11.09,18.21,26.25,32.3,43.61,41.19.13.1.28.17.43.22,13.53,6.84,28.38,10.53,43.68,10.53s30.14-3.68,43.68-10.53c.16-.05.3-.12.43-.22,17.36-8.88,32.52-22.98,43.61-41.19.01-.02.01-.04.02-.05,0-.01.01-.03.02-.04ZM139.95,61.51h-40.22v-24.46c14.06.12,27.71,1.94,40.22,5.25v19.2ZM142.95,43.13c14.61,4.2,27.54,10.45,37.58,18.38h-37.58v-18.38ZM99.73,34.05V13.32c14.06.23,27.71,3.66,40.22,9.88v16.02c-12.56-3.25-26.19-5.04-40.22-5.16ZM96.73,34.05c-14.03.12-27.66,1.91-40.22,5.16v-16.02c12.51-6.22,26.16-9.65,40.22-9.88v20.74ZM96.73,37.05v24.46h-40.22v-19.2c12.51-3.31,26.16-5.13,40.22-5.25ZM53.51,61.51H15.94c10.04-7.92,22.97-14.18,37.57-18.38v18.38ZM53.51,64.51v18.38c-14.61-4.2-27.54-10.45-37.57-18.38h37.57ZM56.51,64.51h40.22v24.46c-14.06-.12-27.71-1.94-40.22-5.25v-19.2ZM96.73,91.96v20.74c-14.06-.23-27.71-3.66-40.22-9.88v-16.02c12.56,3.25,26.19,5.04,40.22,5.17ZM99.73,91.96c14.03-.12,27.66-1.91,40.22-5.17v16.02c-12.51,6.22-26.16,9.65-40.22,9.88v-20.74ZM99.73,88.96v-24.46h40.22v19.2c-12.51,3.31-26.16,5.13-40.22,5.25ZM142.95,64.51h37.58c-10.04,7.92-22.97,14.18-37.58,18.38v-18.38ZM178.28,56.12c-9.86-6.87-21.93-12.32-35.33-16.1v-15.27c13.55,7.33,25.65,17.98,35.33,31.37ZM53.51,24.75v15.27c-13.4,3.77-25.47,9.23-35.33,16.1,9.68-13.39,21.78-24.04,35.33-31.37ZM18.19,69.89c9.86,6.87,21.93,12.32,35.33,16.1v15.27c-13.55-7.33-25.65-17.98-35.33-31.37ZM142.95,101.26v-15.27c13.4-3.77,25.47-9.23,35.33-16.1-9.68,13.39-21.78,24.04-35.33,31.37Z" />
  </g>
</svg>